<svg width="1223" height="621" viewBox="0 0 1223 621" fill="none" xmlns="http://www.w3.org/2000/svg">
<g clip-path="url(#clip0_16872_19397)">
<path d="M780.221 127.902C887.261 65.7122 765.538 -3.93681 765.972 119.749C765.538 -3.85007 644.248 66.5795 751.723 127.988C644.248 66.4927 644.77 206.571 751.723 144.382C644.683 206.571 766.406 276.22 765.972 152.535C766.406 276.133 887.696 205.704 780.221 144.295C887.696 205.791 887.174 65.7122 780.221 127.902Z" fill="#FEBD42"/>
<path d="M875.556 214.691L819.46 440.039C812.722 466.964 785.532 483.347 758.599 476.612L329.657 369.865C322.513 368.078 316.049 364.81 310.585 360.458C295.612 348.645 288.156 328.733 293.095 309.051L308.893 245.76L349.191 83.704C355.9 56.8019 383.141 40.4242 410.052 47.1312L582.149 89.9538L710.093 121.786L838.994 153.878C865.905 160.585 882.288 187.818 875.556 214.691Z" fill="#263238"/>
<path d="M868.958 203.184L812.862 428.531C806.125 455.456 778.935 471.839 752.002 465.104L323.059 358.357C315.916 356.57 309.452 353.302 303.987 348.95C289.014 337.138 281.559 317.225 286.498 297.544L302.295 234.252L342.594 72.1962C349.303 45.2941 376.544 28.9163 403.454 35.6233L575.552 78.446L703.496 110.278L832.397 142.37C859.307 149.077 875.69 176.31 868.958 203.184Z" fill="#CEFE65"/>
<path opacity="0.02" d="M575.575 78.4737L302.29 234.302L342.589 72.2467C349.298 45.3446 376.539 28.9669 403.449 35.6739L575.547 78.4965L575.575 78.4737Z" fill="black"/>
<path opacity="0.02" d="M868.959 203.183L812.863 428.531C806.126 455.456 778.936 471.839 752.003 465.104L323.06 358.357C315.917 356.57 309.453 353.302 303.988 348.95L713.546 112.769L832.375 142.342C859.286 149.049 875.668 176.281 868.936 203.155L868.959 203.183Z" fill="black"/>
<path d="M385.602 83.5079L375.695 123.291C373.71 131.259 378.563 139.327 386.534 141.311L449.959 157.096C457.929 159.08 466 154.229 467.984 146.26L477.892 106.478C479.876 98.5093 475.023 90.4415 467.052 88.4577L403.628 72.6721C395.657 70.6883 387.587 75.5396 385.602 83.5079Z" fill="white"/>
<path d="M380.836 102.528L472.747 126.896" stroke="#CAF963" stroke-width="4" stroke-linecap="round" stroke-linejoin="round"/>
<path d="M418.388 149.219L435.538 80.6314" stroke="#CAF963" stroke-width="4" stroke-linecap="round" stroke-linejoin="round"/>
<path d="M774.565 423.73C777.789 424.533 779.733 427.817 778.885 431.028V431.028C778.054 434.176 774.847 436.073 771.687 435.287L594.829 391.278C591.627 390.481 589.678 387.24 590.478 384.04V384.04C591.276 380.843 594.515 378.897 597.713 379.694L774.565 423.73Z" fill="#263238"/>
<path d="M779.705 404.146C782.941 404.952 784.893 408.247 784.044 411.471V411.471C783.211 414.634 779.99 416.541 776.815 415.75L599.737 371.643C596.547 370.849 594.604 367.622 595.394 364.432V364.432C596.186 361.237 599.42 359.29 602.615 360.085L779.705 404.146Z" fill="#263238"/>
<path d="M784.867 384.567C788.103 385.372 790.056 388.668 789.207 391.892V391.892C788.374 395.055 785.153 396.962 781.979 396.172L604.618 352.035C601.416 351.238 599.468 347.996 600.267 344.796V344.796C601.065 341.599 604.303 339.654 607.502 340.449L784.867 384.567Z" fill="#263238"/>
<path d="M898.697 411.736C898.216 411.819 897.718 411.918 897.221 412.001C896.209 412.48 895.082 412.91 894.17 413.572C893.092 414.366 892.578 415.407 892.362 416.697C892.113 418.169 892.097 419.723 891.964 421.212C891.815 422.948 891.466 424.635 891.151 426.338C891.019 427.066 889.924 427.165 889.609 426.537C887.951 423.329 888.747 419.624 887.37 416.366C885.894 412.894 881.649 412.546 878.365 412.348C877.238 412.282 876.972 411.075 877.536 410.446C877.636 410.248 877.835 410.082 878.133 410.049C880.14 409.785 882.163 409.305 884.07 408.644C885.679 408.081 886.607 407.089 887.138 405.485C888.382 401.698 888.382 397.481 888.432 393.545C888.465 391.66 891.267 391.677 891.35 393.545C891.433 395.398 891.5 397.25 891.583 399.118C891.665 400.937 891.665 402.806 892.146 404.576C892.495 405.849 893.224 407.172 894.452 407.767C895.894 408.462 897.586 408.396 899.045 409.107C900.14 409.636 899.908 411.505 898.697 411.736Z" fill="#FEBD42"/>
<path d="M324.74 452.405C324.259 452.488 323.761 452.587 323.264 452.67C322.252 453.149 321.125 453.579 320.213 454.241C319.151 455.034 318.621 456.076 318.405 457.366C318.156 458.838 318.14 460.392 318.007 461.881C317.858 463.617 317.509 465.304 317.194 467.007C317.062 467.735 315.967 467.834 315.652 467.206C313.994 463.998 314.79 460.293 313.413 457.035C311.937 453.563 307.692 453.215 304.408 453.017C303.281 452.951 303.015 451.744 303.579 451.115C303.679 450.917 303.878 450.751 304.176 450.718C306.183 450.454 308.206 449.974 310.113 449.313C311.722 448.75 312.65 447.758 313.181 446.154C314.425 442.367 314.425 438.15 314.475 434.214C314.508 432.329 317.31 432.346 317.393 434.214C317.476 436.066 317.543 437.919 317.626 439.787C317.708 441.606 317.708 443.475 318.189 445.245C318.538 446.518 319.267 447.841 320.494 448.436C321.937 449.131 323.629 449.081 325.088 449.776C326.183 450.305 325.95 452.174 324.74 452.405Z" fill="#FEBD42"/>
<path d="M889.295 439.66C888.648 440.074 887.719 439.908 886.99 439.908C886.525 439.908 886.061 439.908 885.596 439.908C885.596 440.702 885.563 441.496 885.48 442.273C885.414 442.902 884.999 443.447 884.303 443.447C883.606 443.447 883.208 442.902 883.126 442.273C883.026 441.463 883.009 440.653 883.009 439.826C882.346 439.809 881.699 439.793 881.036 439.76C880.373 439.726 879.726 439.197 879.759 438.486C879.792 437.775 880.323 437.246 881.036 437.213C881.699 437.18 882.363 437.163 883.026 437.147C883.026 436.535 883.026 435.939 883.026 435.328C883.026 434.534 882.96 433.74 883.026 432.946C883.076 432.252 883.573 431.673 884.303 431.673C885.033 431.673 885.53 432.268 885.58 432.946C885.646 433.74 885.58 434.534 885.58 435.328C885.58 435.906 885.58 436.502 885.58 437.081C886.028 437.081 886.459 437.081 886.907 437.081C887.653 437.081 888.631 436.915 889.295 437.312C890.19 437.874 890.19 439.115 889.295 439.677V439.66Z" fill="#FEBD42"/>
<path d="M908.003 425.405C906.875 425.587 905.681 425.505 904.52 425.471C904.52 426.199 904.521 426.943 904.487 427.671C904.454 428.332 903.94 428.911 903.244 428.911C902.547 428.911 902.033 428.349 902 427.671C901.967 426.91 901.983 426.133 901.967 425.372C901.336 425.339 900.706 425.323 900.06 425.29C899.429 425.256 898.816 424.76 898.849 424.082C898.882 423.388 899.38 422.908 900.06 422.875C900.69 422.842 901.32 422.826 901.933 422.792C901.933 421.602 901.933 420.411 902.249 419.27C902.514 418.294 903.924 418.294 904.189 419.27C904.504 420.378 904.504 421.536 904.504 422.693C905.665 422.644 906.842 422.577 907.97 422.759C908.55 422.859 909.031 423.537 909.015 424.099C908.998 424.678 908.6 425.339 907.97 425.438L908.003 425.405Z" fill="#FEBD42"/>
<path d="M913.906 398.526C913.491 398.889 913.077 399.038 912.53 399.071C912.231 399.071 911.933 399.071 911.651 399.071C911.369 399.071 911.087 399.071 910.788 399.071C910.772 399.898 910.739 400.725 910.722 401.568C910.689 403.007 908.516 403.007 908.483 401.568C908.467 400.725 908.433 399.882 908.417 399.038C907.82 399.022 907.206 399.005 906.609 398.989C905.946 398.972 905.316 398.426 905.332 397.715C905.366 397.004 905.896 396.475 906.609 396.442C907.173 396.409 907.737 396.392 908.301 396.359C908.218 395.284 908.152 394.176 908.4 393.151C908.682 391.96 910.49 391.96 910.788 393.151C911.037 394.143 910.971 395.218 910.904 396.26H911.651C911.949 396.244 912.248 396.21 912.53 396.227C913.077 396.244 913.491 396.409 913.906 396.756C914.404 397.153 914.37 398.096 913.906 398.509V398.526Z" fill="#FEBD42"/>
<path d="M698.814 544.059C698.333 544.142 697.836 544.241 697.338 544.324C696.327 544.804 695.199 545.233 694.287 545.895C693.225 546.689 692.695 547.731 692.479 549.02C692.23 550.492 692.214 552.047 692.081 553.535C691.932 555.271 691.584 556.958 691.269 558.662C691.136 559.389 690.041 559.488 689.726 558.86C688.068 555.652 688.864 551.948 687.488 548.69C686.012 545.217 681.766 544.87 678.483 544.671C677.355 544.605 677.09 543.398 677.653 542.769C677.753 542.571 677.952 542.406 678.25 542.373C680.257 542.108 682.28 541.628 684.187 540.967C685.796 540.405 686.725 539.412 687.255 537.808C688.499 534.021 688.499 529.804 688.549 525.869C688.582 523.983 691.385 524 691.468 525.869C691.55 527.721 691.617 529.573 691.7 531.442C691.783 533.261 691.783 535.129 692.264 536.899C692.612 538.172 693.342 539.495 694.569 540.09C696.011 540.785 697.703 540.719 699.162 541.43C700.257 541.959 700.025 543.828 698.814 544.059Z" fill="#FEBD42"/>
<path d="M708.136 557.736C707.008 557.918 705.814 557.836 704.653 557.802C704.653 558.53 704.653 559.274 704.62 560.002C704.587 560.663 704.073 561.242 703.376 561.242C702.68 561.242 702.166 560.68 702.133 560.002C702.099 559.241 702.116 558.464 702.099 557.703C701.469 557.67 700.839 557.654 700.192 557.621C699.562 557.588 698.949 557.091 698.982 556.413C699.015 555.719 699.512 555.239 700.192 555.206C700.823 555.173 701.453 555.157 702.066 555.123C702.066 553.933 702.066 552.742 702.381 551.601C702.647 550.625 704.056 550.625 704.322 551.601C704.637 552.709 704.637 553.867 704.637 555.024C705.798 554.975 706.975 554.909 708.103 555.09C708.683 555.19 709.164 555.868 709.147 556.43C709.131 557.009 708.733 557.67 708.103 557.769L708.136 557.736Z" fill="#FEBD42"/>
<path d="M714.023 530.858C713.609 531.221 713.194 531.37 712.647 531.403C712.348 531.403 712.05 531.403 711.768 531.403C711.486 531.403 711.204 531.403 710.905 531.403C710.889 532.23 710.856 533.057 710.839 533.9C710.806 535.339 708.634 535.339 708.6 533.9C708.584 533.057 708.551 532.214 708.534 531.37C707.937 531.354 707.323 531.337 706.726 531.321C706.063 531.304 705.433 530.758 705.45 530.047C705.483 529.336 706.013 528.807 706.726 528.774C707.29 528.741 707.854 528.724 708.418 528.691C708.335 527.616 708.269 526.508 708.518 525.483C708.799 524.292 710.607 524.292 710.905 525.483C711.154 526.475 711.088 527.55 711.022 528.592H711.768C712.066 528.576 712.365 528.542 712.647 528.559C713.194 528.576 713.609 528.741 714.023 529.088C714.521 529.485 714.488 530.428 714.023 530.841V530.858Z" fill="#FEBD42"/>
<path d="M298.769 414.923C298.355 415.287 297.94 415.436 297.393 415.469C297.094 415.469 296.796 415.469 296.514 415.469C296.232 415.469 295.95 415.469 295.652 415.469C295.635 416.296 295.602 417.122 295.585 417.966C295.552 419.405 293.38 419.405 293.347 417.966C293.33 417.122 293.297 416.279 293.28 415.436C292.683 415.419 292.07 415.403 291.473 415.386C290.809 415.37 290.179 414.824 290.196 414.113C290.229 413.402 290.759 412.872 291.473 412.839C292.036 412.806 292.6 412.79 293.164 412.757C293.081 411.682 293.015 410.574 293.264 409.549C293.546 408.358 295.353 408.358 295.652 409.549C295.9 410.541 295.834 411.616 295.768 412.658H296.514C296.812 412.641 297.111 412.608 297.393 412.624C297.94 412.641 298.355 412.806 298.769 413.154C299.267 413.551 299.234 414.493 298.769 414.907V414.923Z" fill="#FEBD42"/>
<path d="M915.814 200.814C915.814 201.84 915.101 202.815 914.238 202.766C913.376 202.716 912.679 201.906 912.663 200.814C912.663 199.822 912.613 198.83 912.663 197.838C912.696 197.259 912.712 196.581 912.878 196.052C913.044 195.523 913.177 194.993 913.409 194.514C913.757 193.737 914.703 193.737 915.051 194.514C915.266 194.993 915.399 195.506 915.565 196.002C915.731 196.564 915.764 197.242 915.797 197.838C915.847 198.83 915.797 199.822 915.797 200.814H915.814Z" fill="#FEBD42"/>
<path d="M915.973 185.605C915.973 186.631 915.244 187.606 914.398 187.557C913.552 187.507 912.806 186.697 912.823 185.605C912.823 184.382 912.773 183.141 912.839 181.934C912.922 180.562 913.005 178.991 913.801 177.916C914.1 177.502 914.713 177.502 915.012 177.916C915.791 178.991 915.891 180.562 915.973 181.934C916.04 183.158 915.99 184.398 915.99 185.605H915.973Z" fill="#FEBD42"/>
<path d="M911.15 191.633C910.786 191.865 910.404 192.08 909.973 192.163C909.509 192.262 909.028 192.312 908.563 192.312C907.784 192.312 907.021 192.312 906.242 192.312C905.479 192.312 904.749 191.634 904.782 190.823C904.816 190.013 905.429 189.335 906.242 189.335C907.021 189.335 907.784 189.318 908.563 189.335C909.028 189.335 909.525 189.401 909.973 189.484C910.404 189.583 910.769 189.798 911.15 190.013C911.747 190.377 911.747 191.253 911.15 191.617V191.633Z" fill="#FEBD42"/>
<path d="M923.586 191.436C923.387 191.734 923.172 191.965 922.84 192.114C922.459 192.28 922.127 192.362 921.696 192.379C921.314 192.379 920.916 192.412 920.535 192.379C919.739 192.346 918.926 192.329 918.13 192.296C917.384 192.28 916.671 191.651 916.704 190.857C916.737 190.064 917.334 189.435 918.13 189.419C918.926 189.386 919.739 189.369 920.535 189.336C920.916 189.336 921.314 189.336 921.696 189.336C922.111 189.336 922.459 189.435 922.84 189.601C923.155 189.733 923.387 189.981 923.586 190.279C923.785 190.576 923.785 191.122 923.586 191.42V191.436Z" fill="#FEBD42"/>
<path d="M249.056 144.717C249.056 145.742 248.343 146.718 247.48 146.668C246.618 146.618 245.922 145.808 245.905 144.717C245.905 143.725 245.855 142.732 245.905 141.74C245.938 141.161 245.955 140.483 246.121 139.954C246.286 139.425 246.419 138.896 246.651 138.416C246.999 137.639 247.945 137.639 248.293 138.416C248.509 138.896 248.641 139.408 248.807 139.904C248.973 140.467 249.006 141.145 249.039 141.74C249.089 142.732 249.039 143.725 249.039 144.717H249.056Z" fill="#FEBD42"/>
<path d="M249.216 129.508C249.216 130.533 248.486 131.509 247.64 131.459C246.794 131.41 246.048 130.599 246.065 129.508C246.065 128.284 246.015 127.044 246.081 125.836C246.164 124.464 246.264 122.893 247.043 121.818C247.342 121.405 247.955 121.405 248.254 121.818C249.033 122.893 249.133 124.464 249.216 125.836C249.282 127.06 249.232 128.301 249.232 129.508H249.216Z" fill="#FEBD42"/>
<path d="M244.393 135.536C244.028 135.767 243.646 135.982 243.215 136.065C242.751 136.164 242.27 136.214 241.806 136.214C241.026 136.214 240.263 136.214 239.484 136.214C238.721 136.214 237.991 135.536 238.025 134.726C238.058 133.915 238.671 133.237 239.484 133.237C240.263 133.237 241.026 133.221 241.806 133.237C242.27 133.237 242.767 133.303 243.215 133.386C243.646 133.469 244.011 133.7 244.393 133.915C244.99 134.279 244.99 135.156 244.393 135.519V135.536Z" fill="#FEBD42"/>
<path d="M256.844 135.322C256.645 135.62 256.43 135.851 256.098 136C255.717 136.165 255.385 136.248 254.954 136.265C254.572 136.265 254.174 136.298 253.793 136.265C252.997 136.232 252.184 136.215 251.388 136.182C250.642 136.165 249.929 135.537 249.962 134.743C249.995 133.949 250.592 133.321 251.388 133.305C252.184 133.271 252.997 133.255 253.793 133.222C254.174 133.222 254.572 133.222 254.954 133.222C255.368 133.222 255.717 133.321 256.098 133.486C256.413 133.619 256.645 133.867 256.844 134.164C257.043 134.462 257.043 135.008 256.844 135.305V135.322Z" fill="#FEBD42"/>
<path d="M493.763 602.768C493.763 603.793 493.05 604.768 492.187 604.719C491.325 604.669 490.629 603.859 490.612 602.768C490.612 601.775 490.562 600.783 490.612 599.791C490.645 599.212 490.662 598.534 490.828 598.005C490.993 597.476 491.126 596.946 491.358 596.467C491.706 595.69 492.652 595.69 493 596.467C493.216 596.946 493.348 597.459 493.514 597.955C493.68 598.517 493.713 599.196 493.746 599.791C493.796 600.783 493.746 601.775 493.746 602.768H493.763Z" fill="#FEBD42"/>
<path d="M493.942 587.559C493.942 588.584 493.213 589.56 492.367 589.51C491.521 589.46 490.775 588.65 490.791 587.559C490.791 586.335 490.742 585.095 490.808 583.887C490.891 582.515 490.974 580.944 491.77 579.869C492.068 579.455 492.682 579.455 492.98 579.869C493.76 580.944 493.859 582.515 493.942 583.887C494.009 585.111 493.959 586.351 493.959 587.559H493.942Z" fill="#FEBD42"/>
<path d="M489.1 593.587C488.735 593.818 488.353 594.033 487.922 594.116C487.458 594.215 486.977 594.265 486.513 594.265C485.733 594.265 484.97 594.265 484.191 594.265C483.428 594.265 482.698 593.587 482.732 592.776C482.765 591.966 483.378 591.288 484.191 591.288C484.97 591.288 485.733 591.271 486.513 591.288C486.977 591.288 487.474 591.354 487.922 591.437C488.353 591.52 488.718 591.751 489.1 591.966C489.697 592.33 489.697 593.206 489.1 593.57V593.587Z" fill="#FEBD42"/>
<path d="M501.551 593.389C501.352 593.687 501.137 593.919 500.805 594.067C500.424 594.233 500.092 594.315 499.661 594.332C499.279 594.332 498.881 594.365 498.5 594.332C497.704 594.299 496.891 594.282 496.095 594.249C495.349 594.233 494.636 593.604 494.669 592.811C494.702 592.017 495.299 591.388 496.095 591.372C496.891 591.339 497.704 591.322 498.5 591.289C498.881 591.289 499.279 591.289 499.661 591.289C500.075 591.289 500.424 591.388 500.805 591.554C501.12 591.686 501.352 591.934 501.551 592.232C501.75 592.529 501.75 593.075 501.551 593.373V593.389Z" fill="#FEBD42"/>
<path d="M413.291 403.013C520.331 340.823 398.608 271.174 399.042 394.859C398.608 271.261 277.319 341.69 384.793 403.099C277.319 341.604 277.84 481.682 384.793 419.492C277.753 481.682 399.477 551.331 399.042 427.646C399.477 551.244 520.766 480.815 413.291 419.406C520.766 480.901 520.245 340.823 413.291 403.013Z" fill="#FEBD42"/>
</g>
<path d="M1192.06 44.4434C1191.12 44.5634 1190.14 44.7074 1189.17 44.8274C1187.19 45.5234 1184.98 46.1474 1183.19 47.1074C1181.08 48.2594 1180.07 49.7714 1179.65 51.6435C1179.16 53.7795 1179.13 56.0355 1178.87 58.1955C1178.58 60.7155 1177.9 63.1635 1177.28 65.6355C1177.02 66.6915 1174.88 66.8355 1174.26 65.9235C1171.01 61.2675 1172.57 55.8915 1169.87 51.1635C1166.98 46.1234 1158.66 45.6194 1152.23 45.3314C1150.02 45.2354 1149.5 43.4834 1150.61 42.5714C1150.8 42.2834 1151.19 42.0434 1151.78 41.9954C1155.71 41.6114 1159.67 40.9154 1163.41 39.9554C1166.56 39.1394 1168.38 37.6994 1169.42 35.3714C1171.85 29.8754 1171.85 23.7554 1171.95 18.0433C1172.02 15.3073 1177.51 15.3313 1177.67 18.0433C1177.83 20.7314 1177.96 23.4194 1178.12 26.1314C1178.29 28.7714 1178.29 31.4833 1179.23 34.0514C1179.91 35.8994 1181.34 37.8194 1183.74 38.6834C1186.57 39.6914 1189.88 39.5954 1192.74 40.6274C1194.89 41.3954 1194.43 44.1074 1192.06 44.4434Z" fill="#FEBD42"/>
<path d="M67.6827 103.468C66.7406 103.588 65.766 103.732 64.7914 103.852C62.8096 104.548 60.6005 105.172 58.8137 106.132C56.7345 107.284 55.6949 108.796 55.2725 110.668C54.7852 112.804 54.7528 115.06 54.4929 117.22C54.2005 119.74 53.5182 122.188 52.9009 124.66C52.6411 125.716 50.4969 125.86 49.8796 124.948C46.6309 120.292 48.1903 114.916 45.4938 110.188C42.6024 105.148 34.2857 104.644 27.8531 104.356C25.644 104.26 25.1242 102.508 26.2288 101.596C26.4237 101.308 26.8135 101.068 27.3983 101.02C31.3293 100.636 35.2928 99.9398 39.0288 98.9798C42.1801 98.1638 43.9994 96.7238 45.039 94.3958C47.4756 88.8998 47.4756 82.7798 47.573 77.0677C47.638 74.3317 53.1284 74.3557 53.2908 77.0677C53.4532 79.7558 53.5832 82.4438 53.7456 85.1558C53.9081 87.7958 53.9081 90.5078 54.8502 93.0758C55.5324 94.9238 56.9619 96.8438 59.366 97.7078C62.1924 98.7158 65.5061 98.6438 68.365 99.6518C70.5091 100.42 70.0543 103.132 67.6827 103.468Z" fill="#FEBD42"/>
<path d="M1173.65 84.9698C1172.38 85.5698 1170.56 85.3298 1169.13 85.3298C1168.22 85.3298 1167.31 85.3298 1166.4 85.3298C1166.4 86.4818 1166.34 87.6338 1166.18 88.7618C1166.05 89.6738 1165.23 90.4658 1163.87 90.4658C1162.5 90.4658 1161.72 89.6738 1161.56 88.7618C1161.37 87.5858 1161.33 86.4098 1161.33 85.2098C1160.04 85.1858 1158.77 85.1618 1157.47 85.1138C1156.17 85.0658 1154.9 84.2978 1154.97 83.2658C1155.03 82.2338 1156.07 81.4658 1157.47 81.4178C1158.77 81.3698 1160.07 81.3458 1161.37 81.3218C1161.37 80.4338 1161.37 79.5698 1161.37 78.6818C1161.37 77.5298 1161.24 76.3778 1161.37 75.2258C1161.46 74.2178 1162.44 73.3778 1163.87 73.3778C1165.3 73.3778 1166.27 74.2418 1166.37 75.2258C1166.5 76.3778 1166.37 77.5298 1166.37 78.6818C1166.37 79.5218 1166.37 80.3858 1166.37 81.2258C1167.25 81.2258 1168.09 81.2258 1168.97 81.2258C1170.43 81.2258 1172.35 80.9858 1173.65 81.5618C1175.4 82.3778 1175.4 84.1778 1173.65 84.9938V84.9698Z" fill="#FEBD42"/>
<path d="M1210.29 64.2831C1208.08 64.5471 1205.74 64.4271 1203.47 64.3791C1203.47 65.4351 1203.47 66.5151 1203.4 67.5711C1203.34 68.5311 1202.33 69.3711 1200.97 69.3711C1199.6 69.3711 1198.6 68.5551 1198.53 67.5711C1198.47 66.4671 1198.5 65.3391 1198.47 64.2351C1197.23 64.1871 1196 64.1631 1194.73 64.1151C1193.5 64.0671 1192.29 63.3471 1192.36 62.3631C1192.42 61.3551 1193.4 60.659 1194.73 60.611C1195.96 60.563 1197.2 60.5391 1198.4 60.4911C1198.4 58.7631 1198.4 57.0351 1199.02 55.379C1199.54 53.963 1202.3 53.963 1202.82 55.379C1203.44 56.9871 1203.44 58.667 1203.44 60.347C1205.71 60.275 1208.02 60.1791 1210.23 60.4431C1211.36 60.5871 1212.31 61.5711 1212.27 62.3871C1212.24 63.2271 1211.46 64.1871 1210.23 64.3311L1210.29 64.2831Z" fill="#FEBD42"/>
<path d="M1221.84 25.2709C1221.03 25.7989 1220.22 26.015 1219.15 26.063C1218.56 26.063 1217.98 26.063 1217.43 26.063C1216.87 26.063 1216.32 26.063 1215.74 26.063C1215.7 27.263 1215.64 28.4629 1215.61 29.6869C1215.54 31.7749 1211.29 31.7749 1211.22 29.6869C1211.19 28.4629 1211.12 27.2389 1211.09 26.0149C1209.92 25.9909 1208.72 25.9669 1207.55 25.9429C1206.25 25.9189 1205.02 25.1269 1205.05 24.0949C1205.11 23.0629 1206.15 22.295 1207.55 22.247C1208.65 22.199 1209.76 22.1749 1210.86 22.1269C1210.7 20.5669 1210.57 18.9589 1211.06 17.4709C1211.61 15.7429 1215.15 15.7429 1215.74 17.4709C1216.22 18.9109 1216.09 20.4709 1215.96 21.9829H1217.43C1218.01 21.9589 1218.59 21.9109 1219.15 21.9349C1220.22 21.9589 1221.03 22.1989 1221.84 22.7029C1222.82 23.2789 1222.75 24.647 1221.84 25.247V25.2709Z" fill="#FEBD42"/>
<path d="M800.487 236.483C799.545 236.603 798.571 236.747 797.596 236.867C795.614 237.563 793.405 238.187 791.618 239.147C789.539 240.299 788.5 241.811 788.077 243.683C787.59 245.819 787.557 248.076 787.298 250.236C787.005 252.756 786.323 255.204 785.706 257.676C785.446 258.732 783.302 258.876 782.684 257.964C779.436 253.308 780.995 247.931 778.298 243.203C775.407 238.163 767.09 237.659 760.658 237.371C758.449 237.275 757.929 235.523 759.033 234.611C759.228 234.323 759.618 234.083 760.203 234.035C764.134 233.651 768.097 232.955 771.834 231.995C774.985 231.179 776.804 229.739 777.844 227.411C780.28 221.915 780.28 215.795 780.378 210.083C780.443 207.347 785.933 207.371 786.095 210.083C786.258 212.771 786.388 215.459 786.55 218.171C786.713 220.811 786.713 223.523 787.655 226.091C788.337 227.939 789.767 229.859 792.171 230.723C794.997 231.731 798.311 231.635 801.17 232.667C803.314 233.435 802.859 236.147 800.487 236.483Z" fill="#FEBD42"/>
<path d="M818.752 256.333C816.543 256.597 814.204 256.477 811.93 256.429C811.93 257.485 811.93 258.565 811.865 259.621C811.8 260.581 810.793 261.421 809.428 261.421C808.064 261.421 807.056 260.605 806.992 259.621C806.927 258.517 806.959 257.389 806.926 256.285C805.692 256.237 804.457 256.213 803.19 256.165C801.956 256.117 800.754 255.397 800.819 254.413C800.884 253.405 801.858 252.709 803.19 252.661C804.425 252.613 805.66 252.589 806.862 252.541C806.862 250.813 806.862 249.085 807.479 247.429C807.999 246.013 810.76 246.013 811.28 247.429C811.897 249.037 811.897 250.717 811.897 252.397C814.171 252.325 816.478 252.229 818.687 252.493C819.824 252.637 820.766 253.621 820.734 254.437C820.701 255.277 819.922 256.237 818.687 256.381L818.752 256.333Z" fill="#FEBD42"/>
<path d="M830.285 217.323C829.473 217.851 828.661 218.067 827.588 218.115C827.004 218.115 826.419 218.115 825.867 218.115C825.314 218.115 824.762 218.115 824.177 218.115C824.145 219.315 824.08 220.515 824.047 221.739C823.982 223.827 819.726 223.827 819.662 221.739C819.629 220.515 819.564 219.291 819.532 218.067C818.362 218.043 817.16 218.019 815.99 217.995C814.691 217.971 813.456 217.179 813.489 216.147C813.554 215.115 814.593 214.347 815.99 214.299C817.095 214.251 818.2 214.227 819.304 214.179C819.142 212.619 819.012 211.011 819.499 209.523C820.051 207.795 823.592 207.795 824.177 209.523C824.665 210.963 824.535 212.523 824.405 214.035H825.867C826.451 214.011 827.036 213.963 827.588 213.987C828.661 214.011 829.473 214.251 830.285 214.755C831.259 215.331 831.195 216.699 830.285 217.299V217.323Z" fill="#FEBD42"/>
<path d="M16.7966 49.0678C15.9844 49.5958 15.1723 49.8118 14.1002 49.8598C13.5154 49.8598 12.9306 49.8598 12.3783 49.8598C11.826 49.8598 11.2738 49.8598 10.689 49.8598C10.6565 51.0598 10.5915 52.2598 10.559 53.4838C10.4941 55.5718 6.23822 55.5718 6.17324 53.4838C6.14076 52.2598 6.07578 51.0358 6.04329 49.8118C4.87374 49.7878 3.67172 49.7638 2.50217 49.7398C1.20268 49.7158 -0.0318601 48.9238 0.000627308 47.8918C0.0656022 46.8598 1.10521 46.0918 2.50217 46.0438C3.60675 45.9958 4.71131 45.9718 5.81588 45.9238C5.65344 44.3638 5.52349 42.7558 6.0108 41.2678C6.56308 39.5398 10.1042 39.5398 10.689 41.2678C11.1763 42.7078 11.0464 44.2678 10.9164 45.7798H12.3783C12.9631 45.7558 13.5479 45.7078 14.1002 45.7318C15.1723 45.7558 15.9844 45.9958 16.7966 46.4998C17.7712 47.0758 17.7063 48.4438 16.7966 49.0438V49.0678Z" fill="#FEBD42"/>
<path d="M283.618 2.83466C283.618 1.34666 282.575 -0.0693669 281.313 0.00263328C280.052 0.0746335 279.033 1.25066 279.009 2.83466C279.009 4.27467 278.936 5.71468 279.009 7.15468C279.057 7.99468 279.082 8.97869 279.324 9.74669C279.567 10.5147 279.761 11.2827 280.1 11.9787C280.61 13.1067 281.992 13.1067 282.502 11.9787C282.817 11.2827 283.011 10.5387 283.254 9.81869C283.496 9.00269 283.545 8.01868 283.593 7.15468C283.666 5.71468 283.593 4.27467 283.593 2.83466H283.618Z" fill="#FEBD42"/>
<path d="M283.881 24.9069C283.881 23.4189 282.814 22.0029 281.577 22.0749C280.34 22.1469 279.248 23.3229 279.272 24.9069C279.272 26.6829 279.2 28.4829 279.297 30.2349C279.418 32.2269 279.539 34.5069 280.703 36.0669C281.14 36.6669 282.038 36.6669 282.474 36.0669C283.614 34.5069 283.76 32.2269 283.881 30.2349C283.978 28.4589 283.905 26.6589 283.905 24.9069H283.881Z" fill="#FEBD42"/>
<path d="M276.793 16.1588C276.259 15.8228 275.701 15.5108 275.07 15.3908C274.391 15.2468 273.688 15.1748 273.009 15.1748C271.869 15.1748 270.753 15.1748 269.613 15.1748C268.497 15.1748 267.43 16.1588 267.478 17.3348C267.527 18.5108 268.424 19.4948 269.613 19.4948C270.753 19.4948 271.869 19.5188 273.009 19.4948C273.688 19.4948 274.416 19.3988 275.07 19.2788C275.701 19.1588 276.235 18.8228 276.793 18.5108C277.666 17.9828 277.666 16.7108 276.793 16.1828V16.1588Z" fill="#FEBD42"/>
<path d="M295.006 16.445C294.715 16.013 294.399 15.677 293.914 15.461C293.356 15.221 292.871 15.101 292.24 15.077C291.682 15.077 291.1 15.029 290.542 15.077C289.378 15.125 288.19 15.149 287.025 15.197C285.934 15.221 284.891 16.133 284.939 17.285C284.988 18.437 285.861 19.349 287.025 19.373C288.19 19.421 289.378 19.445 290.542 19.493C291.1 19.493 291.682 19.493 292.24 19.493C292.847 19.493 293.356 19.349 293.914 19.109C294.375 18.917 294.715 18.557 295.006 18.125C295.297 17.693 295.297 16.901 295.006 16.469V16.445Z" fill="#FEBD42"/>
<defs>
<clipPath id="clip0_16872_19397">
<rect width="728" height="599" fill="white" transform="translate(216.555 22)"/>
</clipPath>
</defs>
</svg>
