<svg width="373" height="307" viewBox="0 0 373 307" fill="none" xmlns="http://www.w3.org/2000/svg">
<g clip-path="url(#clip0_16893_20014)">
<path d="M288.801 54.2769C343.644 22.4034 281.277 -13.2931 281.5 50.0982C281.277 -13.2487 219.133 22.8479 274.199 54.3213C219.133 22.8035 219.401 94.5966 274.199 62.7231C219.356 94.5966 281.723 130.293 281.5 66.9018C281.723 130.249 343.867 94.1521 288.801 62.6787C343.867 94.1965 343.599 22.4034 288.801 54.2769Z" fill="#FEBD42"/>
<path d="M337.646 98.7585L308.905 214.254C305.453 228.053 291.522 236.45 277.722 232.998L57.948 178.288C54.2879 177.372 50.976 175.697 48.1762 173.467C40.5045 167.413 36.6847 157.207 39.2153 147.12L47.3093 114.682L67.9567 31.6247C71.3942 17.8368 85.3516 9.44285 99.1395 12.8803L187.316 34.8278L252.87 51.1426L318.914 67.5903C332.701 71.0278 341.095 84.9851 337.646 98.7585Z" fill="#263238"/>
<path d="M334.267 92.86L305.526 208.355C302.074 222.155 288.143 230.552 274.343 227.1L54.5691 172.39C50.909 171.474 47.5971 169.799 44.7973 167.569C37.1256 161.514 33.3058 151.309 35.8364 141.222L43.9304 108.783L64.5778 25.7262C68.0153 11.9383 81.9727 3.54441 95.7605 6.98189L183.937 28.9294L249.491 45.2441L315.535 61.6919C329.323 65.1293 337.716 79.0867 334.267 92.86Z" fill="#CEFE65"/>
<path opacity="0.02" d="M183.948 28.9439L43.9273 108.809L64.5747 25.7524C68.0121 11.9645 81.9695 3.57057 95.7574 7.00805L183.934 28.9555L183.948 28.9439Z" fill="black"/>
<path opacity="0.02" d="M334.267 92.8599L305.525 208.355C302.073 222.155 288.142 230.551 274.343 227.099L54.5686 172.389C50.9086 171.474 47.5967 169.799 44.7969 167.568L254.639 46.5207L315.523 61.6771C329.31 65.1146 337.704 79.072 334.255 92.8453L334.267 92.8599Z" fill="black"/>
<path d="M86.6126 31.5234L81.5363 51.913C80.5196 55.9969 83.006 60.1319 87.0899 61.1486L119.586 69.239C123.67 70.2558 127.805 67.7694 128.822 63.6854L133.898 43.2959C134.915 39.2119 132.429 35.077 128.345 34.0603L95.8482 25.9698C91.7642 24.9531 87.6293 27.4395 86.6126 31.5234Z" fill="white"/>
<path d="M84.1719 41.2715L131.264 53.7606" stroke="#CAF963" stroke-width="4" stroke-linecap="round" stroke-linejoin="round"/>
<path d="M103.411 65.2022L112.199 30.0495" stroke="#CAF963" stroke-width="4" stroke-linecap="round" stroke-linejoin="round"/>
<path d="M285.906 205.894C287.557 206.306 288.553 207.989 288.119 209.635V209.635C287.693 211.248 286.05 212.22 284.431 211.817L193.815 189.262C192.175 188.854 191.177 187.193 191.586 185.553V185.553C191.995 183.914 193.655 182.917 195.293 183.325L285.906 205.894Z" fill="#263238"/>
<path d="M288.539 195.858C290.197 196.27 291.197 197.959 290.762 199.612V199.612C290.335 201.233 288.685 202.21 287.058 201.805L196.329 179.199C194.695 178.792 193.7 177.138 194.105 175.504V175.504C194.51 173.866 196.167 172.868 197.805 173.275L288.539 195.858Z" fill="#263238"/>
<path d="M291.18 185.823C292.838 186.236 293.839 187.925 293.404 189.577V189.577C292.977 191.199 291.327 192.176 289.7 191.771L198.827 169.15C197.187 168.742 196.188 167.08 196.598 165.44V165.44C197.007 163.801 198.666 162.804 200.305 163.212L291.18 185.823Z" fill="#263238"/>
<path d="M349.504 199.748C349.258 199.791 349.003 199.842 348.748 199.884C348.23 200.13 347.652 200.35 347.185 200.689C346.632 201.096 346.369 201.63 346.258 202.291C346.131 203.045 346.123 203.842 346.055 204.605C345.978 205.495 345.8 206.359 345.638 207.232C345.57 207.605 345.009 207.656 344.848 207.334C343.998 205.69 344.406 203.791 343.701 202.122C342.945 200.342 340.77 200.164 339.087 200.062C338.509 200.028 338.373 199.409 338.662 199.087C338.713 198.986 338.815 198.901 338.968 198.884C339.996 198.748 341.033 198.502 342.01 198.163C342.834 197.875 343.31 197.367 343.582 196.545C344.219 194.604 344.219 192.442 344.245 190.425C344.262 189.459 345.698 189.467 345.74 190.425C345.783 191.374 345.817 192.324 345.859 193.281C345.902 194.214 345.902 195.172 346.148 196.078C346.326 196.731 346.7 197.409 347.329 197.714C348.068 198.07 348.935 198.036 349.683 198.401C350.243 198.672 350.124 199.63 349.504 199.748Z" fill="#FEBD42"/>
<path d="M55.43 220.592C55.1836 220.634 54.9287 220.685 54.6738 220.728C54.1555 220.973 53.5777 221.194 53.1104 221.533C52.5666 221.94 52.2947 222.474 52.1842 223.135C52.0568 223.889 52.0483 224.686 51.9803 225.449C51.9038 226.339 51.7254 227.203 51.564 228.076C51.496 228.449 50.9352 228.5 50.7738 228.178C49.9241 226.533 50.3319 224.635 49.6267 222.965C48.8705 221.185 46.6953 221.007 45.0129 220.906C44.4351 220.872 44.2992 220.253 44.5881 219.931C44.6391 219.829 44.741 219.745 44.894 219.728C45.9221 219.592 46.9587 219.346 47.9358 219.007C48.76 218.719 49.2358 218.21 49.5077 217.388C50.145 215.447 50.145 213.286 50.1705 211.269C50.1875 210.303 51.6234 210.311 51.6659 211.269C51.7084 212.218 51.7424 213.168 51.7849 214.125C51.8274 215.058 51.8274 216.015 52.0738 216.922C52.2522 217.575 52.6261 218.253 53.2548 218.558C53.994 218.914 54.8607 218.889 55.6084 219.244C56.1692 219.516 56.0503 220.473 55.43 220.592Z" fill="#FEBD42"/>
<path d="M344.687 214.06C344.356 214.272 343.88 214.187 343.506 214.187C343.268 214.187 343.03 214.187 342.792 214.187C342.792 214.594 342.775 215.001 342.733 215.399C342.699 215.721 342.486 216.001 342.13 216.001C341.773 216.001 341.569 215.721 341.526 215.399C341.475 214.984 341.467 214.569 341.467 214.145C341.127 214.136 340.796 214.128 340.456 214.111C340.116 214.094 339.784 213.823 339.801 213.458C339.818 213.094 340.09 212.823 340.456 212.806C340.796 212.789 341.135 212.78 341.475 212.772C341.475 212.458 341.475 212.153 341.475 211.839C341.475 211.433 341.441 211.026 341.475 210.619C341.501 210.263 341.756 209.966 342.13 209.966C342.503 209.966 342.758 210.272 342.784 210.619C342.818 211.026 342.784 211.433 342.784 211.839C342.784 212.136 342.784 212.441 342.784 212.738C343.013 212.738 343.234 212.738 343.464 212.738C343.846 212.738 344.347 212.653 344.687 212.857C345.146 213.145 345.146 213.78 344.687 214.069V214.06Z" fill="#FEBD42"/>
<path d="M354.273 206.754C353.695 206.847 353.083 206.805 352.489 206.788C352.489 207.161 352.489 207.542 352.472 207.915C352.455 208.254 352.191 208.551 351.834 208.551C351.477 208.551 351.214 208.263 351.197 207.915C351.18 207.525 351.189 207.127 351.18 206.737C350.857 206.72 350.534 206.712 350.203 206.695C349.88 206.678 349.566 206.423 349.583 206.076C349.6 205.72 349.855 205.474 350.203 205.457C350.526 205.44 350.849 205.432 351.163 205.415C351.163 204.805 351.163 204.194 351.325 203.61C351.46 203.109 352.183 203.109 352.319 203.61C352.48 204.177 352.48 204.771 352.48 205.364C353.075 205.339 353.678 205.305 354.256 205.398C354.553 205.449 354.8 205.796 354.791 206.084C354.783 206.381 354.579 206.72 354.256 206.771L354.273 206.754Z" fill="#FEBD42"/>
<path d="M357.295 192.977C357.083 193.164 356.871 193.24 356.59 193.257C356.437 193.257 356.284 193.257 356.14 193.257C355.995 193.257 355.851 193.257 355.698 193.257C355.689 193.681 355.672 194.105 355.664 194.537C355.647 195.274 354.534 195.274 354.517 194.537C354.508 194.105 354.491 193.672 354.483 193.24C354.177 193.232 353.863 193.223 353.557 193.215C353.217 193.206 352.894 192.926 352.903 192.562C352.92 192.198 353.191 191.926 353.557 191.909C353.846 191.892 354.135 191.884 354.423 191.867C354.381 191.316 354.347 190.748 354.474 190.223C354.619 189.613 355.545 189.613 355.698 190.223C355.825 190.731 355.791 191.282 355.757 191.816H356.14C356.293 191.808 356.446 191.791 356.59 191.799C356.871 191.808 357.083 191.892 357.295 192.07C357.55 192.274 357.533 192.757 357.295 192.969V192.977Z" fill="#FEBD42"/>
<path d="M247.09 267.567C246.844 267.609 246.589 267.66 246.334 267.702C245.816 267.948 245.238 268.168 244.771 268.507C244.227 268.914 243.955 269.448 243.844 270.109C243.717 270.864 243.708 271.66 243.64 272.423C243.564 273.313 243.386 274.178 243.224 275.051C243.156 275.424 242.595 275.474 242.434 275.152C241.584 273.508 241.992 271.61 241.287 269.94C240.531 268.16 238.355 267.982 236.673 267.88C236.095 267.846 235.959 267.228 236.248 266.906C236.299 266.804 236.401 266.719 236.554 266.702C237.582 266.567 238.619 266.321 239.596 265.982C240.42 265.694 240.896 265.185 241.168 264.363C241.805 262.422 241.805 260.261 241.831 258.244C241.848 257.277 243.284 257.286 243.326 258.244C243.369 259.193 243.403 260.142 243.445 261.1C243.488 262.032 243.488 262.99 243.734 263.897C243.912 264.549 244.286 265.227 244.915 265.533C245.654 265.889 246.521 265.855 247.269 266.219C247.829 266.49 247.71 267.448 247.09 267.567Z" fill="#FEBD42"/>
<path d="M251.867 274.576C251.289 274.669 250.677 274.627 250.082 274.61C250.082 274.983 250.082 275.364 250.065 275.737C250.048 276.076 249.785 276.373 249.428 276.373C249.071 276.373 248.808 276.085 248.791 275.737C248.774 275.348 248.782 274.949 248.774 274.559C248.451 274.542 248.128 274.534 247.797 274.517C247.474 274.5 247.159 274.246 247.176 273.898C247.193 273.542 247.448 273.296 247.797 273.279C248.12 273.263 248.442 273.254 248.757 273.237C248.757 272.627 248.757 272.017 248.918 271.432C249.054 270.932 249.776 270.932 249.912 271.432C250.074 272 250.074 272.593 250.074 273.186C250.669 273.161 251.272 273.127 251.85 273.22C252.147 273.271 252.393 273.618 252.385 273.907C252.376 274.203 252.173 274.542 251.85 274.593L251.867 274.576Z" fill="#FEBD42"/>
<path d="M254.885 260.801C254.673 260.987 254.46 261.063 254.18 261.08C254.027 261.08 253.874 261.08 253.73 261.08C253.585 261.08 253.441 261.08 253.288 261.08C253.279 261.504 253.262 261.928 253.254 262.36C253.237 263.097 252.124 263.097 252.107 262.36C252.098 261.928 252.081 261.496 252.073 261.063C251.767 261.055 251.452 261.046 251.147 261.038C250.807 261.029 250.484 260.75 250.492 260.385C250.509 260.021 250.781 259.75 251.147 259.733C251.435 259.716 251.724 259.707 252.013 259.69C251.971 259.139 251.937 258.571 252.064 258.046C252.209 257.436 253.135 257.436 253.288 258.046C253.415 258.555 253.381 259.105 253.347 259.639H253.73C253.883 259.631 254.036 259.614 254.18 259.622C254.46 259.631 254.673 259.716 254.885 259.894C255.14 260.097 255.123 260.58 254.885 260.792V260.801Z" fill="#FEBD42"/>
<path d="M42.1235 201.382C41.9111 201.568 41.6986 201.644 41.4182 201.661C41.2653 201.661 41.1124 201.661 40.9679 201.661C40.8235 201.661 40.679 201.661 40.5261 201.661C40.5176 202.085 40.5006 202.509 40.4921 202.941C40.4751 203.678 39.362 203.678 39.345 202.941C39.3365 202.509 39.3195 202.077 39.311 201.644C39.0052 201.636 38.6908 201.627 38.3849 201.619C38.045 201.61 37.7221 201.331 37.7306 200.966C37.7476 200.602 38.0195 200.331 38.3849 200.314C38.6738 200.297 38.9627 200.288 39.2516 200.271C39.2091 199.72 39.1751 199.153 39.3025 198.627C39.447 198.017 40.3731 198.017 40.5261 198.627C40.6535 199.136 40.6195 199.687 40.5856 200.22H40.9679C41.1209 200.212 41.2738 200.195 41.4182 200.204C41.6986 200.212 41.9111 200.297 42.1235 200.475C42.3784 200.678 42.3614 201.161 42.1235 201.373V201.382Z" fill="#FEBD42"/>
<path d="M358.274 91.6454C358.274 92.1709 357.909 92.671 357.467 92.6456C357.025 92.6201 356.668 92.2048 356.66 91.6454C356.66 91.1369 356.634 90.6284 356.66 90.1198C356.677 89.8232 356.685 89.4757 356.77 89.2045C356.855 88.9333 356.923 88.662 357.042 88.4162C357.221 88.0179 357.705 88.0179 357.883 88.4162C357.994 88.662 358.062 88.9248 358.147 89.1791C358.232 89.4672 358.249 89.8147 358.266 90.1198C358.291 90.6284 358.266 91.1369 358.266 91.6454H358.274Z" fill="#FEBD42"/>
<path d="M358.354 83.8505C358.354 84.376 357.98 84.8761 357.547 84.8506C357.114 84.8252 356.731 84.4099 356.74 83.8505C356.74 83.2233 356.714 82.5877 356.748 81.9689C356.791 81.2655 356.833 80.4603 357.241 79.9094C357.394 79.6975 357.708 79.6975 357.861 79.9094C358.261 80.4603 358.312 81.2655 358.354 81.9689C358.388 82.5961 358.363 83.2318 358.363 83.8505H358.354Z" fill="#FEBD42"/>
<path d="M355.884 86.9396C355.697 87.0583 355.502 87.1685 355.281 87.2108C355.043 87.2617 354.797 87.2871 354.559 87.2871C354.16 87.2871 353.769 87.2871 353.369 87.2871C352.979 87.2871 352.605 86.9396 352.622 86.5243C352.639 86.109 352.953 85.7615 353.369 85.7615C353.769 85.7615 354.16 85.753 354.559 85.7615C354.797 85.7615 355.052 85.7954 355.281 85.8378C355.502 85.8886 355.689 85.9988 355.884 86.109C356.19 86.2955 356.19 86.7447 355.884 86.9311V86.9396Z" fill="#FEBD42"/>
<path d="M362.257 86.8385C362.155 86.991 362.045 87.1097 361.875 87.186C361.679 87.2707 361.51 87.3131 361.289 87.3216C361.093 87.3216 360.889 87.3385 360.694 87.3216C360.286 87.3046 359.87 87.2961 359.462 87.2792C359.079 87.2707 358.714 86.9486 358.731 86.5418C358.748 86.135 359.054 85.8129 359.462 85.8044C359.87 85.7875 360.286 85.779 360.694 85.7621C360.889 85.7621 361.093 85.7621 361.289 85.7621C361.501 85.7621 361.679 85.8129 361.875 85.8977C362.036 85.9655 362.155 86.0926 362.257 86.2452C362.359 86.3977 362.359 86.6774 362.257 86.83V86.8385Z" fill="#FEBD42"/>
<path d="M16.6531 62.8945C16.6531 63.42 16.2877 63.92 15.8459 63.8946C15.404 63.8692 15.0472 63.4539 15.0387 62.8945C15.0387 62.3859 15.0132 61.8774 15.0387 61.3689C15.0557 61.0722 15.0642 60.7247 15.1491 60.4535C15.2341 60.1823 15.3021 59.9111 15.421 59.6653C15.5995 59.2669 16.0838 59.2669 16.2622 59.6653C16.3727 59.9111 16.4406 60.1738 16.5256 60.4281C16.6106 60.7162 16.6276 61.0638 16.6446 61.3689C16.6701 61.8774 16.6446 62.3859 16.6446 62.8945H16.6531Z" fill="#FEBD42"/>
<path d="M16.7329 55.0995C16.7329 55.625 16.3591 56.1251 15.9257 56.0997C15.4924 56.0742 15.1101 55.6589 15.1186 55.0995C15.1186 54.4723 15.0931 53.8367 15.127 53.2179C15.1695 52.5145 15.2205 51.7093 15.6199 51.1584C15.7728 50.9465 16.0872 50.9465 16.2401 51.1584C16.6395 51.7093 16.6905 52.5145 16.7329 53.2179C16.7669 53.8451 16.7414 54.4808 16.7414 55.0995H16.7329Z" fill="#FEBD42"/>
<path d="M14.2633 58.1887C14.0764 58.3073 13.881 58.4175 13.6601 58.4599C13.4221 58.5107 13.1757 58.5361 12.9378 58.5361C12.5385 58.5361 12.1476 58.5361 11.7483 58.5361C11.3574 58.5361 10.9836 58.1886 11.0006 57.7733C11.0176 57.358 11.3319 57.0105 11.7483 57.0105C12.1476 57.0105 12.5385 57.0021 12.9378 57.0105C13.1757 57.0105 13.4306 57.0444 13.6601 57.0868C13.881 57.1292 14.0679 57.2479 14.2633 57.358C14.5692 57.5445 14.5692 57.9937 14.2633 58.1802V58.1887Z" fill="#FEBD42"/>
<path d="M20.6439 58.0797C20.542 58.2323 20.4315 58.3509 20.2616 58.4272C20.0662 58.5119 19.8962 58.5543 19.6753 58.5628C19.4799 58.5628 19.2759 58.5797 19.0805 58.5628C18.6727 58.5458 18.2563 58.5374 17.8485 58.5204C17.4661 58.5119 17.1008 58.1899 17.1178 57.783C17.1348 57.3762 17.4406 57.0541 17.8485 57.0457C18.2563 57.0287 18.6727 57.0202 19.0805 57.0033C19.2759 57.0033 19.4799 57.0033 19.6753 57.0033C19.8877 57.0033 20.0662 57.0541 20.2616 57.1389C20.423 57.2067 20.542 57.3338 20.6439 57.4864C20.7459 57.639 20.7459 57.9186 20.6439 58.0712V58.0797Z" fill="#FEBD42"/>
<path d="M142.032 297.655C142.032 298.181 141.667 298.681 141.225 298.655C140.783 298.63 140.426 298.215 140.418 297.655C140.418 297.147 140.392 296.638 140.418 296.13C140.435 295.833 140.443 295.485 140.528 295.214C140.613 294.943 140.681 294.672 140.8 294.426C140.978 294.028 141.463 294.028 141.641 294.426C141.752 294.672 141.82 294.935 141.905 295.189C141.989 295.477 142.006 295.824 142.023 296.13C142.049 296.638 142.023 297.147 142.023 297.655H142.032Z" fill="#FEBD42"/>
<path d="M142.124 289.86C142.124 290.386 141.75 290.886 141.316 290.86C140.883 290.835 140.501 290.42 140.509 289.86C140.509 289.233 140.484 288.597 140.518 287.979C140.56 287.275 140.603 286.47 141.01 285.919C141.163 285.707 141.478 285.707 141.631 285.919C142.03 286.47 142.081 287.275 142.124 287.979C142.158 288.606 142.132 289.242 142.132 289.86H142.124Z" fill="#FEBD42"/>
<path d="M139.642 292.949C139.455 293.068 139.26 293.178 139.039 293.221C138.801 293.271 138.555 293.297 138.317 293.297C137.917 293.297 137.527 293.297 137.127 293.297C136.736 293.297 136.362 292.949 136.379 292.534C136.396 292.119 136.711 291.771 137.127 291.771C137.527 291.771 137.917 291.763 138.317 291.771C138.555 291.771 138.81 291.805 139.039 291.848C139.26 291.89 139.447 292.009 139.642 292.119C139.948 292.305 139.948 292.754 139.642 292.941V292.949Z" fill="#FEBD42"/>
<path d="M146.023 292.848C145.921 293.001 145.81 293.119 145.64 293.196C145.445 293.28 145.275 293.323 145.054 293.331C144.859 293.331 144.655 293.348 144.459 293.331C144.052 293.314 143.635 293.306 143.227 293.289C142.845 293.28 142.48 292.958 142.497 292.552C142.514 292.145 142.82 291.823 143.227 291.814C143.635 291.797 144.052 291.789 144.459 291.772C144.655 291.772 144.859 291.772 145.054 291.772C145.267 291.772 145.445 291.823 145.64 291.907C145.802 291.975 145.921 292.102 146.023 292.255C146.125 292.407 146.125 292.687 146.023 292.84V292.848Z" fill="#FEBD42"/>
<path d="M100.801 195.277C155.644 163.403 93.2774 127.707 93.5 191.098C93.2774 127.751 31.1334 163.848 86.1994 195.321C31.1334 163.803 31.4005 235.597 86.1994 203.723C31.356 235.597 93.7226 271.293 93.5 207.902C93.7226 271.249 155.867 235.152 100.801 203.679C155.867 235.197 155.599 163.403 100.801 195.277Z" fill="#FEBD42"/>
</g>
<defs>
<clipPath id="clip0_16893_20014">
<rect width="373" height="307" fill="white"/>
</clipPath>
</defs>
</svg>
