<svg width="40" height="40" viewBox="0 0 40 40" fill="none" xmlns="http://www.w3.org/2000/svg">
<path fill-rule="evenodd" clip-rule="evenodd" d="M17.3688 29.916C17.3467 30.856 16.57 31.6019 15.6299 31.5858C14.6898 31.5697 13.9391 30.7976 13.9493 29.8574C13.9595 28.9173 14.7269 28.1617 15.6671 28.166C16.6193 28.1816 17.3799 28.9638 17.3688 29.916Z" stroke="white" stroke-width="2" stroke-linecap="round" stroke-linejoin="round"/>
<path fill-rule="evenodd" clip-rule="evenodd" d="M26.4859 29.916C26.464 30.8549 25.6889 31.6004 24.7499 31.5858C23.8109 31.5712 23.0593 30.8021 23.0665 29.863C23.0736 28.9239 23.8368 28.1663 24.7759 28.166C25.2348 28.1713 25.6727 28.3586 25.9934 28.6868C26.3141 29.015 26.4913 29.4572 26.4859 29.916Z" stroke="white" stroke-width="2" stroke-linecap="round" stroke-linejoin="round"/>
<path fill-rule="evenodd" clip-rule="evenodd" d="M32.7183 13H16.23L15.09 22.3333C15.0829 22.9451 15.3191 23.5347 15.7467 23.9722C16.1743 24.4098 16.7582 24.6596 17.37 24.6667H27.4767C28.2835 24.6635 29.0279 24.2319 29.4317 23.5333L34.6683 16.5333C35.0962 15.8203 35.1122 14.9334 34.7104 14.2053C34.3086 13.4773 33.5497 13.0181 32.7183 13V13Z" stroke="white" stroke-width="2" stroke-linecap="round" stroke-linejoin="round"/>
<path d="M15.2582 13.2369C15.3892 13.7734 15.9304 14.1022 16.4669 13.9711C17.0034 13.8401 17.3321 13.2989 17.2011 12.7624L15.2582 13.2369ZM15.138 8.52967L16.1094 8.29243L16.1091 8.29097L15.138 8.52967ZM14.888 8.33301L14.8913 7.33301H14.888V8.33301ZM10.5313 7.33301C9.97902 7.33301 9.5313 7.78072 9.5313 8.33301C9.5313 8.88529 9.97902 9.33301 10.5313 9.33301V7.33301ZM11.4396 15.8147C11.9919 15.8147 12.4396 15.367 12.4396 14.8147C12.4396 14.2624 11.9919 13.8147 11.4396 13.8147V15.8147ZM6.66797 13.8147C6.11568 13.8147 5.66797 14.2624 5.66797 14.8147C5.66797 15.367 6.11568 15.8147 6.66797 15.8147V13.8147ZM11.4413 19.703C11.9936 19.703 12.4413 19.2553 12.4413 18.703C12.4413 18.1507 11.9936 17.703 11.4413 17.703V19.703ZM9.88797 17.703C9.33568 17.703 8.88797 18.1507 8.88797 18.703C8.88797 19.2553 9.33568 19.703 9.88797 19.703V17.703ZM17.2011 12.7624L16.1094 8.29243L14.1665 8.76692L15.2582 13.2369L17.2011 12.7624ZM16.1091 8.29097C15.9712 7.72998 15.469 7.33495 14.8913 7.33301L14.8846 9.333C14.5441 9.33186 14.2482 9.09903 14.1669 8.76838L16.1091 8.29097ZM14.888 7.33301H10.5313V9.33301H14.888V7.33301ZM11.4396 13.8147H6.66797V15.8147H11.4396V13.8147ZM11.4413 17.703H9.88797V19.703H11.4413V17.703Z" fill="white"/>
</svg>
