<svg width="1223" height="594" viewBox="0 0 1223 594" fill="none" xmlns="http://www.w3.org/2000/svg">
<path d="M1192.06 44.4434C1191.12 44.5634 1190.14 44.7074 1189.17 44.8274C1187.19 45.5234 1184.98 46.1474 1183.19 47.1074C1181.08 48.2594 1180.07 49.7714 1179.65 51.6435C1179.16 53.7795 1179.13 56.0355 1178.87 58.1955C1178.58 60.7155 1177.9 63.1635 1177.28 65.6355C1177.02 66.6915 1174.88 66.8355 1174.26 65.9235C1171.01 61.2675 1172.57 55.8915 1169.87 51.1635C1166.98 46.1234 1158.66 45.6194 1152.23 45.3314C1150.02 45.2354 1149.5 43.4834 1150.61 42.5714C1150.8 42.2834 1151.19 42.0434 1151.78 41.9954C1155.71 41.6114 1159.67 40.9154 1163.41 39.9554C1166.56 39.1394 1168.38 37.6994 1169.42 35.3714C1171.85 29.8754 1171.85 23.7554 1171.95 18.0433C1172.02 15.3073 1177.51 15.3313 1177.67 18.0433C1177.83 20.7314 1177.96 23.4194 1178.12 26.1314C1178.29 28.7714 1178.29 31.4833 1179.23 34.0514C1179.91 35.8994 1181.34 37.8194 1183.74 38.6834C1186.57 39.6914 1189.88 39.5954 1192.74 40.6274C1194.89 41.3954 1194.43 44.1074 1192.06 44.4434Z" fill="#FEBD42"/>
<path d="M67.6827 103.468C66.7406 103.588 65.766 103.732 64.7914 103.852C62.8096 104.548 60.6005 105.172 58.8137 106.132C56.7345 107.284 55.6949 108.796 55.2725 110.668C54.7852 112.804 54.7528 115.06 54.4929 117.22C54.2005 119.74 53.5182 122.188 52.9009 124.66C52.6411 125.716 50.4969 125.86 49.8796 124.948C46.6309 120.292 48.1903 114.916 45.4938 110.188C42.6024 105.148 34.2857 104.644 27.8531 104.356C25.644 104.26 25.1242 102.508 26.2288 101.596C26.4237 101.308 26.8135 101.068 27.3983 101.02C31.3293 100.636 35.2928 99.9398 39.0288 98.9798C42.1801 98.1638 43.9994 96.7238 45.039 94.3958C47.4756 88.8998 47.4756 82.7798 47.573 77.0677C47.638 74.3317 53.1284 74.3557 53.2908 77.0677C53.4532 79.7558 53.5832 82.4438 53.7456 85.1558C53.9081 87.7958 53.9081 90.5078 54.8502 93.0758C55.5324 94.9238 56.9619 96.8438 59.366 97.7078C62.1924 98.7158 65.5061 98.6438 68.365 99.6518C70.5091 100.42 70.0543 103.132 67.6827 103.468Z" fill="#FEBD42"/>
<path d="M1173.65 84.9698C1172.38 85.5698 1170.56 85.3298 1169.13 85.3298C1168.22 85.3298 1167.31 85.3298 1166.4 85.3298C1166.4 86.4818 1166.34 87.6338 1166.18 88.7618C1166.05 89.6738 1165.23 90.4658 1163.87 90.4658C1162.5 90.4658 1161.72 89.6738 1161.56 88.7618C1161.37 87.5858 1161.33 86.4098 1161.33 85.2098C1160.04 85.1858 1158.77 85.1618 1157.47 85.1138C1156.17 85.0658 1154.9 84.2978 1154.97 83.2658C1155.03 82.2338 1156.07 81.4658 1157.47 81.4178C1158.77 81.3698 1160.07 81.3458 1161.37 81.3218C1161.37 80.4338 1161.37 79.5698 1161.37 78.6818C1161.37 77.5298 1161.24 76.3778 1161.37 75.2258C1161.46 74.2178 1162.44 73.3778 1163.87 73.3778C1165.3 73.3778 1166.27 74.2418 1166.37 75.2258C1166.5 76.3778 1166.37 77.5298 1166.37 78.6818C1166.37 79.5218 1166.37 80.3858 1166.37 81.2258C1167.25 81.2258 1168.09 81.2258 1168.97 81.2258C1170.43 81.2258 1172.35 80.9858 1173.65 81.5618C1175.4 82.3778 1175.4 84.1778 1173.65 84.9938V84.9698Z" fill="#FEBD42"/>
<path d="M1210.29 64.2831C1208.08 64.5471 1205.74 64.4271 1203.47 64.3791C1203.47 65.4351 1203.47 66.5151 1203.4 67.5711C1203.34 68.5311 1202.33 69.3711 1200.97 69.3711C1199.6 69.3711 1198.6 68.5551 1198.53 67.5711C1198.47 66.4671 1198.5 65.3391 1198.47 64.2351C1197.23 64.1871 1196 64.1631 1194.73 64.1151C1193.5 64.0671 1192.29 63.3471 1192.36 62.3631C1192.42 61.3551 1193.4 60.659 1194.73 60.611C1195.96 60.563 1197.2 60.5391 1198.4 60.4911C1198.4 58.7631 1198.4 57.0351 1199.02 55.379C1199.54 53.963 1202.3 53.963 1202.82 55.379C1203.44 56.9871 1203.44 58.667 1203.44 60.347C1205.71 60.275 1208.02 60.1791 1210.23 60.4431C1211.36 60.5871 1212.31 61.5711 1212.27 62.3871C1212.24 63.2271 1211.46 64.1871 1210.23 64.3311L1210.29 64.2831Z" fill="#FEBD42"/>
<path d="M1221.84 25.2709C1221.03 25.7989 1220.22 26.015 1219.15 26.063C1218.56 26.063 1217.98 26.063 1217.43 26.063C1216.87 26.063 1216.32 26.063 1215.74 26.063C1215.7 27.263 1215.64 28.4629 1215.61 29.6869C1215.54 31.7749 1211.29 31.7749 1211.22 29.6869C1211.19 28.4629 1211.12 27.2389 1211.09 26.0149C1209.92 25.9909 1208.72 25.9669 1207.55 25.9429C1206.25 25.9189 1205.02 25.1269 1205.05 24.0949C1205.11 23.0629 1206.15 22.295 1207.55 22.247C1208.65 22.199 1209.76 22.1749 1210.86 22.1269C1210.7 20.5669 1210.57 18.9589 1211.06 17.4709C1211.61 15.7429 1215.15 15.7429 1215.74 17.4709C1216.22 18.9109 1216.09 20.4709 1215.96 21.9829H1217.43C1218.01 21.9589 1218.59 21.9109 1219.15 21.9349C1220.22 21.9589 1221.03 22.1989 1221.84 22.7029C1222.82 23.2789 1222.75 24.647 1221.84 25.247V25.2709Z" fill="#FEBD42"/>
<path d="M800.487 236.483C799.545 236.603 798.571 236.747 797.596 236.867C795.614 237.563 793.405 238.187 791.618 239.147C789.539 240.299 788.5 241.811 788.077 243.683C787.59 245.819 787.557 248.076 787.298 250.236C787.005 252.756 786.323 255.204 785.706 257.676C785.446 258.732 783.302 258.876 782.684 257.964C779.436 253.308 780.995 247.931 778.298 243.203C775.407 238.163 767.09 237.659 760.658 237.371C758.449 237.275 757.929 235.523 759.033 234.611C759.228 234.323 759.618 234.083 760.203 234.035C764.134 233.651 768.097 232.955 771.834 231.995C774.985 231.179 776.804 229.739 777.844 227.411C780.28 221.915 780.28 215.795 780.378 210.083C780.443 207.347 785.933 207.371 786.095 210.083C786.258 212.771 786.388 215.459 786.55 218.171C786.713 220.811 786.713 223.523 787.655 226.091C788.337 227.939 789.767 229.859 792.171 230.723C794.997 231.731 798.311 231.635 801.17 232.667C803.314 233.435 802.859 236.147 800.487 236.483Z" fill="#FEBD42"/>
<path d="M818.752 256.333C816.543 256.597 814.204 256.477 811.93 256.429C811.93 257.485 811.93 258.565 811.865 259.621C811.8 260.581 810.793 261.421 809.428 261.421C808.064 261.421 807.056 260.605 806.992 259.621C806.927 258.517 806.959 257.389 806.926 256.285C805.692 256.237 804.457 256.213 803.19 256.165C801.956 256.117 800.754 255.397 800.819 254.413C800.884 253.405 801.858 252.709 803.19 252.661C804.425 252.613 805.66 252.589 806.862 252.541C806.862 250.813 806.862 249.085 807.479 247.429C807.999 246.013 810.76 246.013 811.28 247.429C811.897 249.037 811.897 250.717 811.897 252.397C814.171 252.325 816.478 252.229 818.687 252.493C819.824 252.637 820.766 253.621 820.734 254.437C820.701 255.277 819.922 256.237 818.687 256.381L818.752 256.333Z" fill="#FEBD42"/>
<path d="M830.285 217.323C829.473 217.851 828.661 218.067 827.588 218.115C827.004 218.115 826.419 218.115 825.867 218.115C825.314 218.115 824.762 218.115 824.177 218.115C824.145 219.315 824.08 220.515 824.047 221.739C823.982 223.827 819.726 223.827 819.662 221.739C819.629 220.515 819.564 219.291 819.532 218.067C818.362 218.043 817.16 218.019 815.99 217.995C814.691 217.971 813.456 217.179 813.489 216.147C813.554 215.115 814.593 214.347 815.99 214.299C817.095 214.251 818.2 214.227 819.304 214.179C819.142 212.619 819.012 211.011 819.499 209.523C820.051 207.795 823.592 207.795 824.177 209.523C824.665 210.963 824.535 212.523 824.405 214.035H825.867C826.451 214.011 827.036 213.963 827.588 213.987C828.661 214.011 829.473 214.251 830.285 214.755C831.259 215.331 831.195 216.699 830.285 217.299V217.323Z" fill="#FEBD42"/>
<path d="M16.7966 49.0678C15.9844 49.5958 15.1723 49.8118 14.1002 49.8598C13.5154 49.8598 12.9306 49.8598 12.3783 49.8598C11.826 49.8598 11.2738 49.8598 10.689 49.8598C10.6565 51.0598 10.5915 52.2598 10.559 53.4838C10.4941 55.5718 6.23822 55.5718 6.17324 53.4838C6.14076 52.2598 6.07578 51.0358 6.04329 49.8118C4.87374 49.7878 3.67172 49.7638 2.50217 49.7398C1.20268 49.7158 -0.0318601 48.9238 0.000627308 47.8918C0.0656022 46.8598 1.10521 46.0918 2.50217 46.0438C3.60675 45.9958 4.71131 45.9718 5.81588 45.9238C5.65344 44.3638 5.52349 42.7558 6.0108 41.2678C6.56308 39.5398 10.1042 39.5398 10.689 41.2678C11.1763 42.7078 11.0464 44.2678 10.9164 45.7798H12.3783C12.9631 45.7558 13.5479 45.7078 14.1002 45.7318C15.1723 45.7558 15.9844 45.9958 16.7966 46.4998C17.7712 47.0758 17.7063 48.4438 16.7966 49.0438V49.0678Z" fill="#FEBD42"/>
<path d="M283.618 2.83466C283.618 1.34666 282.575 -0.0693669 281.313 0.00263328C280.052 0.0746335 279.033 1.25066 279.009 2.83466C279.009 4.27467 278.936 5.71468 279.009 7.15468C279.057 7.99468 279.082 8.97869 279.324 9.74669C279.567 10.5147 279.761 11.2827 280.1 11.9787C280.61 13.1067 281.992 13.1067 282.502 11.9787C282.817 11.2827 283.011 10.5387 283.254 9.81869C283.496 9.00269 283.545 8.01868 283.593 7.15468C283.666 5.71468 283.593 4.27467 283.593 2.83466H283.618Z" fill="#FEBD42"/>
<path d="M283.881 24.9069C283.881 23.4189 282.814 22.0029 281.577 22.0749C280.34 22.1469 279.248 23.3229 279.272 24.9069C279.272 26.6829 279.2 28.4829 279.297 30.2349C279.418 32.2269 279.539 34.5069 280.703 36.0669C281.14 36.6669 282.038 36.6669 282.474 36.0669C283.614 34.5069 283.76 32.2269 283.881 30.2349C283.978 28.4589 283.905 26.6589 283.905 24.9069H283.881Z" fill="#FEBD42"/>
<path d="M276.793 16.1588C276.259 15.8228 275.701 15.5108 275.07 15.3908C274.391 15.2468 273.688 15.1748 273.009 15.1748C271.869 15.1748 270.753 15.1748 269.613 15.1748C268.497 15.1748 267.43 16.1588 267.478 17.3348C267.527 18.5108 268.424 19.4948 269.613 19.4948C270.753 19.4948 271.869 19.5188 273.009 19.4948C273.688 19.4948 274.416 19.3988 275.07 19.2788C275.701 19.1588 276.235 18.8228 276.793 18.5108C277.666 17.9828 277.666 16.7108 276.793 16.1828V16.1588Z" fill="#FEBD42"/>
<path d="M295.006 16.445C294.715 16.013 294.399 15.677 293.914 15.461C293.356 15.221 292.871 15.101 292.24 15.077C291.682 15.077 291.1 15.029 290.542 15.077C289.378 15.125 288.19 15.149 287.025 15.197C285.934 15.221 284.891 16.133 284.939 17.285C284.988 18.437 285.861 19.349 287.025 19.373C288.19 19.421 289.378 19.445 290.542 19.493C291.1 19.493 291.682 19.493 292.24 19.493C292.847 19.493 293.356 19.349 293.914 19.109C294.375 18.917 294.715 18.557 295.006 18.125C295.297 17.693 295.297 16.901 295.006 16.469V16.445Z" fill="#FEBD42"/>
<g style="mix-blend-mode:multiply" opacity="0.31">
<path d="M400.728 593.892C311.162 593.892 238.554 561.071 238.554 520.584C238.554 480.097 311.162 447.276 400.728 447.276C490.295 447.276 562.902 480.097 562.902 520.584C562.902 561.071 490.295 593.892 400.728 593.892Z" fill="#435529"/>
</g>
<path d="M285.204 475.55C308.978 449.796 361.08 431.86 421.589 431.86C482.098 431.86 534.2 449.753 557.975 475.55H571.723V506.905C571.723 548.336 504.515 581.907 421.589 581.907C338.663 581.907 271.455 548.336 271.455 506.905V475.55H285.204Z" fill="#DB9930"/>
<path d="M568.125 523.145C566.374 527.14 563.966 530.962 561.032 534.697V475.547H568.125V523.145Z" fill="#C97830"/>
<path d="M556.703 539.607C554.558 541.821 552.15 543.993 549.61 546.077V467.775C552.193 469.86 554.558 472.031 556.703 474.29V539.607Z" fill="#C97830"/>
<path d="M545.269 549.376C543.036 551.026 540.628 552.59 538.176 554.11V460.781H539.971C541.81 461.954 543.605 463.17 545.312 464.429V549.332L545.269 549.376Z" fill="#C97830"/>
<path d="M533.844 556.67C531.567 557.973 529.203 559.189 526.751 560.405V469.509H533.844V556.67Z" fill="#C97830"/>
<path d="M522.422 562.447C520.101 563.49 517.737 564.489 515.329 565.444V478.152H522.422V562.404V562.447Z" fill="#FAE745"/>
<path d="M510.992 567.137C508.672 568.006 506.307 568.831 503.899 569.613V486.881H510.992V567.137Z" fill="#C97830"/>
<path d="M499.555 571.003C497.234 571.698 494.87 572.393 492.462 573.044V495.567H499.555V571.003Z" fill="#C97830"/>
<path d="M488.137 574.131C485.816 574.695 483.408 575.26 481.044 575.781V504.254H488.137V574.131Z" fill="#C97830"/>
<path d="M476.703 576.65C474.339 577.128 471.975 577.562 469.61 577.953V512.94H476.703V576.65Z" fill="#C97830"/>
<path d="M465.285 578.69C462.921 579.037 460.556 579.385 458.192 579.689V521.668H465.285V578.733V578.69Z" fill="#FAE745"/>
<path d="M453.855 580.168C451.491 580.429 449.127 580.646 446.763 580.863V530.355H453.855V580.212V580.168Z" fill="#C97830"/>
<path d="M442.422 581.164C440.058 581.338 437.693 581.468 435.329 581.555V538.951H442.422V581.12V581.164Z" fill="#C97830"/>
<path d="M430.648 581.773C428.284 581.86 425.92 581.86 423.556 581.903V534.132H430.648V581.773Z" fill="#C97830"/>
<path d="M411.731 581.731V529.226H418.824V581.861C416.46 581.861 414.052 581.774 411.731 581.731Z" fill="#C97830"/>
<path d="M399.907 524.362H407V581.558C404.592 581.428 402.227 581.297 399.907 581.124V524.362Z" fill="#C97830"/>
<path d="M388.126 519.452H395.219V580.73C392.811 580.513 390.446 580.296 388.126 579.992V519.452Z" fill="#FAE745"/>
<path d="M376.356 514.59H383.449V579.473C381.041 579.169 378.677 578.821 376.356 578.431V514.547V514.59Z" fill="#C97830"/>
<path d="M364.575 509.683H371.668V577.649C369.26 577.214 366.896 576.78 364.575 576.302V509.683Z" fill="#C97830"/>
<path d="M352.759 504.818H359.852V575.303C357.443 574.782 355.079 574.174 352.759 573.566V504.818Z" fill="#C97830"/>
<path d="M340.974 499.91H348.066V572.306C345.658 571.611 343.294 570.916 340.974 570.178V499.91Z" fill="#C97830"/>
<path d="M329.2 495.046H336.293V568.658C333.885 567.833 331.521 566.921 329.2 566.052V495.089V495.046Z" fill="#C97830"/>
<path d="M317.376 490.139H324.469V564.098C322.017 563.056 319.653 561.97 317.376 560.884V490.139Z" fill="#C97830"/>
<path d="M305.602 485.273H312.695V558.538C310.243 557.235 307.835 555.932 305.602 554.542V485.273Z" fill="#FAE745"/>
<path d="M293.821 480.367H300.914V551.503C298.418 549.81 296.01 548.073 293.821 546.249V480.367Z" fill="#C97830"/>
<path d="M281.997 534.524V475.547H285.193C285.193 475.547 285.193 475.547 285.237 475.504H289.09V542.254C286.419 539.778 284.055 537.216 281.997 534.567V534.524Z" fill="#C97830"/>
<path d="M271.931 475.547H279.023V530.441C275.258 524.752 272.85 518.802 271.931 512.635V475.547Z" fill="#C97830"/>
<path d="M421.589 550.55C338.673 550.55 271.455 516.971 271.455 475.548C271.455 434.126 338.673 400.547 421.589 400.547C504.506 400.547 571.723 434.126 571.723 475.548C571.723 516.971 504.506 550.55 421.589 550.55Z" fill="#F0D138"/>
<path d="M362.044 406.671L571.723 475.245C571.723 475.245 571.723 475.462 571.723 475.549C571.723 490.228 563.272 503.908 548.693 515.46L297.507 433.336C313.444 421.654 335.817 412.36 362.044 406.671Z" fill="#FAE745"/>
<path d="M279.467 451.359C281.482 448.406 283.802 445.54 286.473 442.804L535.645 524.276C531.616 526.621 527.369 528.836 522.816 530.921L279.467 451.359Z" fill="#FAE745"/>
<path d="M273.989 489.228C272.588 485.449 271.756 481.541 271.537 477.589L477.977 545.077C470.796 546.554 463.309 547.726 455.603 548.595L273.989 489.228Z" fill="#FAE745"/>
<path d="M562.925 450.231C565.946 454.444 568.223 458.787 569.668 463.304L384.683 402.807C393.352 401.722 402.284 401.027 411.478 400.723L562.925 450.231Z" fill="#FAE745"/>
<path d="M381.382 484.059C375.471 486.926 372.494 488.359 366.627 491.225C372.231 493.57 375.033 494.743 380.55 497.045C386.461 494.178 389.482 492.745 395.436 489.835C406.47 493.353 419.474 495.438 431.514 495.698C434.272 491.79 435.63 489.792 438.344 485.84C424.99 485.666 409.447 483.017 401.785 479.803C396.093 477.415 394.386 474.983 397.976 473.202C409.491 467.513 441.103 486.969 464.921 475.243C475.56 469.945 474.641 462.866 463.082 456.222C468.555 453.442 471.226 452.052 476.523 449.316C470.875 446.971 468.029 445.799 462.294 443.41C457.04 446.146 454.369 447.492 448.984 450.272C439.351 447.058 428.23 444.887 418.248 444.062C415.883 448.057 414.657 450.055 412.162 454.094C424.202 455.396 437.381 458.002 443.554 460.521C448.239 462.475 449.728 464.516 446.707 466.037C435.673 471.552 402.486 451.966 378.23 464.169C366.364 470.032 369.736 477.675 381.426 484.016L381.382 484.059Z" fill="#DB9930"/>
<path d="M268.723 444.629C292.498 418.876 344.6 400.939 405.109 400.939C465.617 400.939 517.72 418.832 541.494 444.629H555.242V475.984C555.242 517.416 488.035 550.986 405.109 550.986C322.183 550.986 254.975 517.416 254.975 475.984V444.629H268.723Z" fill="#DB9930"/>
<path d="M551.652 492.183C549.901 496.178 547.493 500 544.559 503.735V444.585H551.652V492.183Z" fill="#C97830"/>
<path d="M540.223 508.688C538.077 510.902 535.669 513.074 533.13 515.158V436.856C535.713 438.941 538.077 441.112 540.223 443.371V508.688Z" fill="#C97830"/>
<path d="M528.796 518.457C526.563 520.107 524.155 521.671 521.703 523.191V429.862H523.498C525.337 431.035 527.132 432.251 528.84 433.51V518.414L528.796 518.457Z" fill="#C97830"/>
<path d="M517.371 525.751C515.094 527.054 512.73 528.27 510.278 529.486V438.59H517.371V525.751Z" fill="#C97830"/>
<path d="M505.934 531.529C503.613 532.571 501.249 533.57 498.841 534.525V447.233H505.934V531.485V531.529Z" fill="#FAE745"/>
<path d="M494.52 536.218C492.199 537.087 489.835 537.912 487.427 538.694V455.962H494.52V536.218Z" fill="#C97830"/>
<path d="M483.082 540.084C480.762 540.779 478.397 541.474 475.989 542.125V464.648H483.082V540.084Z" fill="#C97830"/>
<path d="M471.664 543.212C469.344 543.776 466.935 544.341 464.571 544.862V473.335H471.664V543.212Z" fill="#C97830"/>
<path d="M460.23 545.732C457.866 546.209 455.502 546.643 453.138 547.034V482.021H460.23V545.732Z" fill="#C97830"/>
<path d="M448.801 547.729C446.436 548.076 444.072 548.424 441.708 548.728V490.707H448.801V547.772V547.729Z" fill="#FAE745"/>
<path d="M437.383 549.206C435.019 549.467 432.654 549.684 430.29 549.901V499.394H437.383V549.25V549.206Z" fill="#C97830"/>
<path d="M425.949 550.245C423.585 550.419 421.221 550.549 418.856 550.636V508.032H425.949V550.202V550.245Z" fill="#C97830"/>
<path d="M414.129 550.811C411.765 550.898 409.4 550.898 407.036 550.942V503.17H414.129V550.811Z" fill="#C97830"/>
<path d="M395.251 550.812V498.307H402.344V550.942C399.979 550.942 397.571 550.855 395.251 550.812Z" fill="#C97830"/>
<path d="M383.442 493.398H390.535V550.594C388.127 550.464 385.763 550.334 383.442 550.16V493.398Z" fill="#C97830"/>
<path d="M371.653 488.533H378.746V549.811C376.338 549.594 373.974 549.377 371.653 549.073V488.533Z" fill="#FAE745"/>
<path d="M359.884 483.625H366.977V548.508C364.568 548.204 362.204 547.857 359.884 547.466V483.582V483.625Z" fill="#C97830"/>
<path d="M348.059 478.764H355.152V546.73C352.744 546.295 350.38 545.861 348.059 545.383V478.764Z" fill="#C97830"/>
<path d="M336.286 473.856H343.379V544.341C340.971 543.82 338.607 543.212 336.286 542.604V473.856Z" fill="#C97830"/>
<path d="M324.501 468.991H331.594V541.387C329.186 540.692 326.821 539.997 324.501 539.259V468.991Z" fill="#C97830"/>
<path d="M312.727 464.084H319.82V537.652C317.412 536.827 315.048 535.915 312.727 535.047V464.084Z" fill="#C97830"/>
<path d="M300.903 459.22H307.996V533.179C305.544 532.137 303.18 531.051 300.903 529.965V459.22Z" fill="#C97830"/>
<path d="M289.13 454.312H296.223V527.576C293.771 526.273 291.363 524.97 289.13 523.58V454.312Z" fill="#FAE745"/>
<path d="M277.349 449.448H284.441V520.585C281.946 518.891 279.538 517.154 277.349 515.33V449.448Z" fill="#C97830"/>
<path d="M265.524 503.605V444.628H268.72C268.72 444.628 268.72 444.628 268.764 444.585H272.617V511.291C269.946 508.816 267.582 506.254 265.524 503.605Z" fill="#C97830"/>
<path d="M255.458 444.628H262.551V499.522C258.785 493.833 256.377 487.883 255.458 481.716V444.628Z" fill="#C97830"/>
<path d="M405.109 519.629C322.192 519.629 254.975 486.05 254.975 444.628C254.975 403.205 322.192 369.626 405.109 369.626C488.025 369.626 555.242 403.205 555.242 444.628C555.242 486.05 488.025 519.629 405.109 519.629Z" fill="#F0D138"/>
<path d="M345.563 375.749L555.242 444.323C555.242 444.323 555.242 444.54 555.242 444.627C555.242 459.306 546.792 472.986 532.212 484.538L281.026 402.414C296.963 390.732 319.337 381.438 345.563 375.749Z" fill="#FAE745"/>
<path d="M262.987 420.437C265.001 417.484 267.321 414.618 269.992 411.882L519.164 493.354C515.136 495.699 510.889 497.914 506.335 499.999L262.987 420.437Z" fill="#FAE745"/>
<path d="M257.509 458.306C256.108 454.528 255.276 450.619 255.057 446.667L461.496 514.155C454.316 515.632 446.829 516.804 439.123 517.673L257.509 458.306Z" fill="#FAE745"/>
<path d="M546.445 419.31C549.466 423.522 551.743 427.865 553.188 432.382L368.202 371.885C376.871 370.8 385.803 370.105 394.998 369.801L546.445 419.31Z" fill="#FAE745"/>
<path d="M364.909 453.139C358.998 456.005 356.021 457.438 350.154 460.304C355.759 462.65 358.561 463.822 364.077 466.124C369.988 463.258 373.009 461.824 378.964 458.915C389.997 462.432 403.001 464.517 415.041 464.778C417.8 460.869 419.157 458.871 421.872 454.919C408.518 454.746 392.974 452.096 385.312 448.883C379.62 446.494 377.913 444.062 381.503 442.281C393.018 436.592 424.63 456.048 448.448 444.323C459.087 439.024 458.168 431.945 446.609 425.301C452.082 422.521 454.753 421.132 460.051 418.396C454.403 416.05 451.557 414.878 445.821 412.489C440.567 415.225 437.896 416.572 432.511 419.351C422.879 416.137 411.758 413.966 401.775 413.141C399.411 417.136 398.185 419.134 395.689 423.173C407.729 424.476 420.908 427.081 427.082 429.6C431.767 431.554 433.255 433.596 430.234 435.116C419.201 440.631 386.013 421.045 361.757 433.248C349.891 439.111 353.263 446.755 364.953 453.095L364.909 453.139Z" fill="#DB9930"/>
<path d="M290.661 397.812C314.435 372.058 366.537 354.122 427.046 354.122C487.555 354.122 539.657 372.015 563.432 397.812H577.18V429.167C577.18 470.598 509.972 504.169 427.046 504.169C344.12 504.169 276.913 470.598 276.913 429.167V397.812H290.661Z" fill="#DB9930"/>
<path d="M573.59 445.408C571.839 449.404 569.43 453.226 566.497 456.96V397.811H573.59V445.408Z" fill="#C97830"/>
<path d="M562.16 461.87C560.015 464.085 557.607 466.257 555.067 468.341V390.039C557.65 392.124 560.015 394.295 562.16 396.553V461.87Z" fill="#C97830"/>
<path d="M550.734 471.64C548.501 473.29 546.092 474.853 543.641 476.373V383.045H545.436C547.275 384.217 549.07 385.433 550.777 386.693V471.596L550.734 471.64Z" fill="#C97830"/>
<path d="M539.309 478.934C537.032 480.237 534.668 481.453 532.216 482.669V391.772H539.309V478.934Z" fill="#C97830"/>
<path d="M527.871 484.754C525.551 485.796 523.186 486.795 520.778 487.751V400.459H527.871V484.711V484.754Z" fill="#FAE745"/>
<path d="M516.457 489.401C514.137 490.269 511.772 491.095 509.364 491.876V409.145H516.457V489.401Z" fill="#C97830"/>
<path d="M505.02 493.269C502.699 493.964 500.335 494.658 497.927 495.31V417.833H505.02V493.269Z" fill="#C97830"/>
<path d="M493.602 496.394C491.281 496.959 488.873 497.524 486.509 498.045V426.518H493.602V496.394Z" fill="#C97830"/>
<path d="M482.168 498.957C479.804 499.435 477.439 499.869 475.075 500.26V435.247H482.168V498.957Z" fill="#C97830"/>
<path d="M470.738 500.954C468.374 501.301 466.01 501.648 463.645 501.952V443.932H470.738V500.997V500.954Z" fill="#FAE745"/>
<path d="M459.32 502.432C456.956 502.692 454.592 502.91 452.227 503.127V452.619H459.32V502.475V502.432Z" fill="#C97830"/>
<path d="M447.887 503.428C445.522 503.601 443.158 503.732 440.794 503.818V461.215H447.887V503.384V503.428Z" fill="#C97830"/>
<path d="M436.113 504.039C433.749 504.126 431.385 504.126 429.02 504.169V456.397H436.113V504.039Z" fill="#C97830"/>
<path d="M417.188 503.995V451.489H424.281V504.125C421.917 504.125 419.509 504.038 417.188 503.995Z" fill="#C97830"/>
<path d="M405.415 446.626H412.508V503.822C410.1 503.691 407.735 503.561 405.415 503.387V446.626Z" fill="#C97830"/>
<path d="M393.591 441.718H400.684V502.996C398.276 502.779 395.911 502.562 393.591 502.258V441.675V441.718Z" fill="#FAE745"/>
<path d="M381.821 436.854H388.914V501.737C386.506 501.433 384.142 501.085 381.821 500.694V436.811V436.854Z" fill="#C97830"/>
<path d="M370.04 431.946H377.133V499.912C374.725 499.478 372.36 499.044 370.04 498.566V431.946Z" fill="#C97830"/>
<path d="M358.266 427.082H365.359V497.567C362.951 497.046 360.587 496.438 358.266 495.83V427.082Z" fill="#C97830"/>
<path d="M346.438 422.174H353.531V494.57C351.123 493.875 348.759 493.18 346.438 492.442V422.174Z" fill="#C97830"/>
<path d="M334.665 417.31H341.758V490.921C339.35 490.096 336.985 489.184 334.665 488.316V417.353V417.31Z" fill="#C97830"/>
<path d="M322.884 412.402H329.977V486.361C327.525 485.319 325.16 484.234 322.884 483.148V412.402Z" fill="#C97830"/>
<path d="M311.067 407.537H318.16V480.801C315.708 479.499 313.3 478.196 311.067 476.806V407.537Z" fill="#FAE745"/>
<path d="M299.286 402.631H306.379V473.767C303.883 472.073 301.475 470.336 299.286 468.512V402.631Z" fill="#C97830"/>
<path d="M287.509 456.787V397.811H290.705C290.705 397.811 290.705 397.811 290.749 397.768H294.602V464.518C291.931 462.042 289.566 459.48 287.509 456.831V456.787Z" fill="#C97830"/>
<path d="M277.442 397.811H284.535V452.704C280.77 447.015 278.362 441.065 277.442 434.899V397.811Z" fill="#C97830"/>
<path d="M427.046 472.812C344.13 472.812 276.913 439.232 276.913 397.81C276.913 356.388 344.13 322.809 427.046 322.809C509.963 322.809 577.18 356.388 577.18 397.81C577.18 439.232 509.963 472.812 427.046 472.812Z" fill="#F0D138"/>
<path d="M367.501 328.932L577.18 397.506C577.18 397.506 577.18 397.723 577.18 397.81C577.18 412.489 568.729 426.169 554.15 437.721L302.964 355.597C318.901 343.915 341.274 334.621 367.501 328.932Z" fill="#FAE745"/>
<path d="M284.971 373.62C286.985 370.667 289.306 367.8 291.977 365.064L541.148 446.537C537.12 448.882 532.873 451.097 528.32 453.181L284.971 373.62Z" fill="#FAE745"/>
<path d="M279.497 411.489C278.096 407.71 277.264 403.802 277.045 399.85L483.484 467.338C476.304 468.814 468.817 469.987 461.111 470.856L279.497 411.489Z" fill="#FAE745"/>
<path d="M568.382 372.492C571.403 376.705 573.68 381.048 575.125 385.564L390.14 325.068C398.809 323.982 407.741 323.287 416.935 322.983L568.382 372.492Z" fill="#FAE745"/>
<path d="M386.847 406.321C380.936 409.188 377.959 410.621 372.092 413.487C377.696 415.832 380.498 417.005 386.015 419.306C391.926 416.44 394.947 415.007 400.901 412.097C411.935 415.615 424.938 417.7 436.979 417.96C439.737 414.052 441.095 412.054 443.809 408.102C430.455 407.928 414.912 405.279 407.25 402.065C401.558 399.677 399.85 397.245 403.441 395.464C414.956 389.775 446.567 409.231 470.386 397.505C481.025 392.207 480.106 385.128 468.547 378.483C474.02 375.704 476.69 374.314 481.988 371.578C476.34 369.233 473.494 368.06 467.759 365.672C462.505 368.408 459.834 369.754 454.449 372.534C444.816 369.32 433.695 367.149 423.712 366.323C421.348 370.319 420.122 372.317 417.627 376.355C429.667 377.658 442.846 380.264 449.019 382.783C453.704 384.737 455.193 386.778 452.172 388.298C441.138 393.814 407.95 374.227 383.694 386.431C371.829 392.294 375.2 399.937 386.891 406.278L386.847 406.321Z" fill="#DB9930"/>
<path d="M285.204 355.123C308.978 329.37 361.08 311.434 421.589 311.434C482.098 311.434 534.2 329.326 557.975 355.123H571.723V386.478C571.723 427.91 504.515 461.48 421.589 461.48C338.663 461.48 271.455 427.91 271.455 386.478V355.123H285.204Z" fill="#DB9930"/>
<path d="M568.125 402.72C566.374 406.715 563.966 410.537 561.032 414.272V355.122H568.125V402.72Z" fill="#C97830"/>
<path d="M556.703 419.178C554.558 421.393 552.15 423.564 549.61 425.649V347.347C552.193 349.431 554.558 351.603 556.703 353.861V419.178Z" fill="#C97830"/>
<path d="M545.269 428.994C543.036 430.644 540.628 432.208 538.176 433.728V340.399H539.971C541.81 341.572 543.605 342.788 545.312 344.047V428.951L545.269 428.994Z" fill="#C97830"/>
<path d="M533.844 436.247C531.567 437.55 529.203 438.766 526.751 439.982V349.086H533.844V436.247Z" fill="#C97830"/>
<path d="M522.422 442.066C520.101 443.108 517.737 444.107 515.329 445.062V357.771H522.422V442.022V442.066Z" fill="#FAE745"/>
<path d="M510.992 446.755C508.672 447.624 506.307 448.449 503.899 449.231V366.499H510.992V446.755Z" fill="#C97830"/>
<path d="M499.555 450.621C497.234 451.316 494.87 452.011 492.462 452.662V375.186H499.555V450.621Z" fill="#C97830"/>
<path d="M488.137 453.749C485.816 454.313 483.408 454.878 481.044 455.399V383.872H488.137V453.749Z" fill="#C97830"/>
<path d="M476.703 456.269C474.339 456.746 471.975 457.181 469.61 457.571V392.559H476.703V456.269Z" fill="#C97830"/>
<path d="M465.285 458.266C462.921 458.614 460.556 458.961 458.192 459.265V401.244H465.285V458.31V458.266Z" fill="#FAE745"/>
<path d="M453.855 459.743C451.491 460.004 449.127 460.221 446.763 460.438V409.931H453.855V459.787V459.743Z" fill="#C97830"/>
<path d="M442.422 460.785C440.058 460.959 437.693 461.089 435.329 461.176V418.572H442.422V460.742V460.785Z" fill="#C97830"/>
<path d="M430.648 461.348C428.284 461.435 425.92 461.435 423.556 461.479V413.707H430.648V461.348Z" fill="#C97830"/>
<path d="M411.731 461.306V408.801H418.824V461.436C416.46 461.436 414.052 461.35 411.731 461.306Z" fill="#C97830"/>
<path d="M399.907 403.936H407V461.131C404.592 461.001 402.227 460.871 399.907 460.697V403.936Z" fill="#C97830"/>
<path d="M388.126 399.07H395.219V460.348C392.811 460.131 390.446 459.914 388.126 459.61V399.07Z" fill="#FAE745"/>
<path d="M376.356 394.164H383.449V459.047C381.041 458.743 378.677 458.396 376.356 458.005V394.121V394.164Z" fill="#C97830"/>
<path d="M364.575 389.301H371.668V457.267C369.26 456.832 366.896 456.398 364.575 455.92V389.301Z" fill="#C97830"/>
<path d="M352.759 384.394H359.852V454.878C357.443 454.314 355.079 453.749 352.759 453.141V384.394Z" fill="#C97830"/>
<path d="M340.974 379.528H348.066V451.924C345.658 451.229 343.294 450.534 340.974 449.796V379.528Z" fill="#C97830"/>
<path d="M329.2 374.621H336.293V448.189C333.885 447.364 331.521 446.452 329.2 445.584V374.621Z" fill="#C97830"/>
<path d="M317.376 369.757H324.469V443.716C322.017 442.674 319.653 441.588 317.376 440.502V369.757Z" fill="#C97830"/>
<path d="M305.602 364.849H312.695V438.113C310.243 436.81 307.835 435.507 305.602 434.118V364.849Z" fill="#FAE745"/>
<path d="M293.821 359.985H300.914V431.122C298.418 429.428 296.01 427.691 293.821 425.867V359.985Z" fill="#C97830"/>
<path d="M281.997 414.097V355.121H285.193C285.193 355.121 285.193 355.121 285.237 355.077H289.09V421.784C286.419 419.308 284.055 416.746 281.997 414.097Z" fill="#C97830"/>
<path d="M271.931 355.122H279.023V410.016C275.258 404.327 272.85 398.377 271.931 392.21V355.122Z" fill="#C97830"/>
<path d="M421.589 430.123C338.673 430.123 271.455 396.544 271.455 355.122C271.455 313.699 338.673 280.12 421.589 280.12C504.506 280.12 571.723 313.699 571.723 355.122C571.723 396.544 504.506 430.123 421.589 430.123Z" fill="#F0D138"/>
<path d="M362.044 286.286L571.723 354.86C571.723 354.86 571.723 355.077 571.723 355.164C571.723 369.843 563.272 383.523 548.693 395.075L297.507 312.951C313.444 301.269 335.817 291.975 362.044 286.286Z" fill="#FAE745"/>
<path d="M279.467 330.974C281.482 328.021 283.802 325.155 286.473 322.419L535.645 403.891C531.616 406.236 527.369 408.451 522.816 410.536L279.467 330.974Z" fill="#FAE745"/>
<path d="M273.989 368.801C272.588 365.023 271.756 361.114 271.537 357.162L477.977 424.65C470.796 426.127 463.309 427.3 455.603 428.168L273.989 368.801Z" fill="#FAE745"/>
<path d="M562.925 329.847C565.946 334.059 568.223 338.402 569.668 342.919L384.683 282.423C393.352 281.337 402.284 280.642 411.478 280.338L562.925 329.847Z" fill="#FAE745"/>
<path d="M381.382 363.633C375.471 366.499 372.494 367.932 366.627 370.799C372.231 373.144 375.033 374.316 380.55 376.618C386.461 373.752 389.482 372.318 395.436 369.409C406.47 372.926 419.474 375.011 431.514 375.272C434.272 371.363 435.63 369.365 438.344 365.413C424.99 365.24 409.447 362.59 401.785 359.377C396.093 356.988 394.386 354.556 397.976 352.775C409.491 347.086 441.103 366.542 464.921 354.817C475.56 349.518 474.641 342.439 463.082 335.795C468.555 333.015 471.226 331.626 476.523 328.89C470.875 326.544 468.029 325.372 462.294 322.983C457.04 325.719 454.369 327.066 448.984 329.845C439.351 326.631 428.23 324.46 418.248 323.635C415.883 327.63 414.657 329.628 412.162 333.667C424.202 334.97 437.381 337.575 443.554 340.094C448.239 342.049 449.728 344.09 446.707 345.61C435.673 351.125 402.486 331.539 378.23 343.742C366.364 349.605 369.736 357.249 381.426 363.589L381.382 363.633Z" fill="#DB9930"/>
<path d="M268.723 324.201C292.498 298.448 344.6 280.512 405.109 280.512C465.617 280.512 517.72 298.404 541.494 324.201H555.242V355.557C555.242 396.988 488.035 430.558 405.109 430.558C322.183 430.558 254.975 396.988 254.975 355.557V324.201H268.723Z" fill="#DB9930"/>
<path d="M551.652 371.796C549.901 375.792 547.493 379.613 544.559 383.348V324.198H551.652V371.796Z" fill="#C97830"/>
<path d="M540.223 388.256C538.077 390.471 535.669 392.642 533.13 394.727V316.425C535.713 318.509 538.077 320.681 540.223 322.939V388.256Z" fill="#C97830"/>
<path d="M528.796 398.07C526.563 399.721 524.155 401.284 521.703 402.804V309.476H523.498C525.337 310.648 527.132 311.864 528.84 313.124V398.027L528.796 398.07Z" fill="#C97830"/>
<path d="M517.371 405.324C515.094 406.626 512.73 407.843 510.278 409.059V318.162H517.371V405.324Z" fill="#C97830"/>
<path d="M505.934 411.142C503.613 412.184 501.249 413.183 498.841 414.138V326.847H505.934V411.099V411.142Z" fill="#FAE745"/>
<path d="M494.52 415.832C492.199 416.7 489.835 417.525 487.427 418.307V335.575H494.52V415.832Z" fill="#C97830"/>
<path d="M483.082 419.655C480.762 420.349 478.397 421.044 475.989 421.696V344.219H483.082V419.655Z" fill="#C97830"/>
<path d="M471.664 422.78C469.344 423.345 466.935 423.909 464.571 424.43V352.903H471.664V422.78Z" fill="#C97830"/>
<path d="M460.23 425.345C457.866 425.823 455.502 426.257 453.138 426.648V361.635H460.23V425.345Z" fill="#C97830"/>
<path d="M448.801 427.342C446.436 427.69 444.072 428.037 441.708 428.341V370.32H448.801V427.386V427.342Z" fill="#FAE745"/>
<path d="M437.383 428.82C435.019 429.08 432.654 429.297 430.29 429.514V379.007H437.383V428.863V428.82Z" fill="#C97830"/>
<path d="M425.953 429.816C423.589 429.99 421.225 430.12 418.86 430.207V387.604H425.953V429.773V429.816Z" fill="#C97830"/>
<path d="M414.129 430.425C411.765 430.511 409.4 430.511 407.036 430.555V382.783H414.129V430.425Z" fill="#C97830"/>
<path d="M395.251 430.382V377.877H402.344V430.513C399.979 430.513 397.571 430.426 395.251 430.382Z" fill="#C97830"/>
<path d="M383.442 373.012H390.535V430.207C388.127 430.077 385.763 429.947 383.442 429.773V373.012Z" fill="#C97830"/>
<path d="M371.653 368.105H378.746V429.383C376.338 429.166 373.974 428.949 371.653 428.645V368.105Z" fill="#FAE745"/>
<path d="M359.884 363.241H366.977V428.123C364.568 427.819 362.204 427.472 359.884 427.081V363.197V363.241Z" fill="#C97830"/>
<path d="M348.059 358.334H355.152V426.3C352.744 425.866 350.38 425.432 348.059 424.954V358.334Z" fill="#C97830"/>
<path d="M336.286 353.47H343.379V423.955C340.971 423.39 338.607 422.826 336.286 422.218V353.47Z" fill="#C97830"/>
<path d="M324.501 348.561H331.594V420.956C329.186 420.261 326.821 419.567 324.501 418.828V348.561Z" fill="#C97830"/>
<path d="M312.727 343.697H319.82V417.266C317.412 416.44 315.048 415.528 312.727 414.66V343.697Z" fill="#C97830"/>
<path d="M300.903 338.789H307.996V412.748C305.544 411.706 303.18 410.62 300.903 409.535V338.789Z" fill="#C97830"/>
<path d="M289.13 333.925H296.223V407.189C293.771 405.886 291.363 404.583 289.13 403.194V333.925Z" fill="#FAE745"/>
<path d="M277.349 329.021H284.441V400.157C281.946 398.463 279.538 396.726 277.349 394.902V329.021Z" fill="#C97830"/>
<path d="M265.524 383.173V324.197H268.72C268.72 324.197 268.72 324.197 268.764 324.153H272.617V390.86C269.946 388.385 267.582 385.822 265.524 383.173Z" fill="#C97830"/>
<path d="M255.458 324.198H262.551V379.092C258.785 373.403 256.377 367.453 255.458 361.286V324.198Z" fill="#C97830"/>
<path d="M405.109 399.201C322.192 399.201 254.975 365.622 254.975 324.2C254.975 282.777 322.192 249.198 405.109 249.198C488.025 249.198 555.242 282.777 555.242 324.2C555.242 365.622 488.025 399.201 405.109 399.201Z" fill="#F0D138"/>
<path d="M345.563 255.323L555.242 323.897C555.242 323.897 555.242 324.114 555.242 324.201C555.242 338.88 546.792 352.56 532.212 364.112L281.026 281.989C296.963 270.306 319.337 261.012 345.563 255.323Z" fill="#FAE745"/>
<path d="M262.987 300.012C265.001 297.058 267.321 294.192 269.992 291.456L519.164 372.928C515.136 375.274 510.889 377.488 506.335 379.573L262.987 300.012Z" fill="#FAE745"/>
<path d="M257.509 337.88C256.108 334.102 255.276 330.193 255.057 326.241L461.496 393.73C454.316 395.206 446.829 396.379 439.123 397.247L257.509 337.88Z" fill="#FAE745"/>
<path d="M546.445 298.884C549.466 303.096 551.743 307.439 553.188 311.956L368.202 251.46C376.871 250.374 385.803 249.679 394.998 249.375L546.445 298.884Z" fill="#FAE745"/>
<path d="M364.909 332.711C358.998 335.577 356.021 337.01 350.154 339.876C355.759 342.222 358.561 343.394 364.077 345.696C369.988 342.83 373.009 341.397 378.964 338.487C389.997 342.005 403.001 344.089 415.041 344.35C417.8 340.441 419.157 338.443 421.872 334.491C408.518 334.318 392.974 331.669 385.312 328.455C379.62 326.066 377.913 323.634 381.503 321.854C393.018 316.164 424.63 335.621 448.448 323.895C459.087 318.596 458.168 311.518 446.609 304.873C452.082 302.093 454.753 300.704 460.051 297.968C454.403 295.623 451.557 294.45 445.821 292.062C440.567 294.798 437.896 296.144 432.511 298.923C422.879 295.709 411.758 293.538 401.775 292.713C399.411 296.708 398.185 298.706 395.689 302.745C407.729 304.048 420.908 306.654 427.082 309.172C431.767 311.127 433.255 313.168 430.234 314.688C419.201 320.203 386.013 300.617 361.757 312.82C349.891 318.683 353.263 326.327 364.953 332.667L364.909 332.711Z" fill="#DB9930"/>
<path d="M290.661 277.427C314.435 251.674 366.537 233.737 427.046 233.737C487.555 233.737 539.657 251.63 563.432 277.427H577.18V308.782C577.18 350.213 509.972 383.784 427.046 383.784C344.12 383.784 276.913 350.213 276.913 308.782V277.427H290.661Z" fill="#DB9930"/>
<path d="M573.59 324.982C571.839 328.977 569.43 332.799 566.497 336.534V277.384H573.59V324.982Z" fill="#C97830"/>
<path d="M562.16 341.485C560.015 343.699 557.607 345.871 555.067 347.955V269.653C557.65 271.738 560.015 273.909 562.16 276.168V341.485Z" fill="#C97830"/>
<path d="M550.734 351.254C548.501 352.904 546.092 354.468 543.641 355.988V262.659H545.436C547.275 263.832 549.07 265.048 550.777 266.307V351.21L550.734 351.254Z" fill="#C97830"/>
<path d="M539.309 358.548C537.032 359.851 534.668 361.067 532.216 362.283V271.387H539.309V358.548Z" fill="#C97830"/>
<path d="M527.871 364.325C525.551 365.368 523.186 366.367 520.778 367.322V280.03H527.871V364.282V364.325Z" fill="#FAE745"/>
<path d="M516.457 369.018C514.137 369.887 511.772 370.712 509.364 371.493V288.762H516.457V369.018Z" fill="#C97830"/>
<path d="M505.02 372.883C502.699 373.578 500.335 374.273 497.927 374.924V297.447H505.02V372.883Z" fill="#C97830"/>
<path d="M493.602 376.009C491.281 376.573 488.873 377.138 486.509 377.659V306.132H493.602V376.009Z" fill="#C97830"/>
<path d="M482.168 378.528C479.804 379.006 477.439 379.44 475.075 379.831V314.818H482.168V378.528Z" fill="#C97830"/>
<path d="M470.738 380.526C468.374 380.873 466.01 381.221 463.645 381.525V323.504H470.738V380.569V380.526Z" fill="#FAE745"/>
<path d="M459.32 382.003C456.956 382.264 454.592 382.481 452.227 382.698V332.19H459.32V382.047V382.003Z" fill="#C97830"/>
<path d="M447.887 383.045C445.522 383.219 443.158 383.349 440.794 383.436V340.832H447.887V383.001V383.045Z" fill="#C97830"/>
<path d="M436.113 383.608C433.749 383.695 431.385 383.695 429.02 383.738V335.967H436.113V383.608Z" fill="#C97830"/>
<path d="M417.188 383.609V331.104H424.281V383.739C421.917 383.739 419.509 383.652 417.188 383.609Z" fill="#C97830"/>
<path d="M405.415 326.195H412.508V383.391C410.1 383.261 407.735 383.13 405.415 382.957V326.195Z" fill="#C97830"/>
<path d="M393.591 321.33H400.684V382.608C398.276 382.391 395.911 382.174 393.591 381.87V321.33Z" fill="#FAE745"/>
<path d="M381.821 316.422H388.914V381.305C386.506 381.001 384.142 380.653 381.821 380.263V316.379V316.422Z" fill="#C97830"/>
<path d="M370.04 311.561H377.133V379.527C374.725 379.092 372.36 378.658 370.04 378.18V311.561Z" fill="#C97830"/>
<path d="M358.266 306.653H365.359V377.138C362.951 376.574 360.587 376.009 358.266 375.401V306.653Z" fill="#C97830"/>
<path d="M346.438 301.788H353.531V374.184C351.123 373.489 348.759 372.794 346.438 372.056V301.788Z" fill="#C97830"/>
<path d="M334.665 296.881H341.758V370.493C339.35 369.668 336.985 368.755 334.665 367.887V296.924V296.881Z" fill="#C97830"/>
<path d="M322.884 292.017H329.977V365.976C327.525 364.933 325.16 363.848 322.884 362.762V292.017Z" fill="#C97830"/>
<path d="M311.067 287.108H318.16V360.373C315.708 359.07 313.3 357.767 311.067 356.377V287.108Z" fill="#FAE745"/>
<path d="M299.286 282.245H306.379V353.381C303.883 351.688 301.475 349.951 299.286 348.127V282.245Z" fill="#C97830"/>
<path d="M287.509 336.403V277.427H290.705C290.705 277.427 290.705 277.427 290.749 277.384H294.602V344.134C291.931 341.658 289.566 339.096 287.509 336.447V336.403Z" fill="#C97830"/>
<path d="M277.442 277.425H284.535V332.319C280.77 326.63 278.362 320.68 277.442 314.513V277.425Z" fill="#C97830"/>
<path d="M427.046 352.427C344.13 352.427 276.913 318.848 276.913 277.425C276.913 236.003 344.13 202.424 427.046 202.424C509.963 202.424 577.18 236.003 577.18 277.425C577.18 318.848 509.963 352.427 427.046 352.427Z" fill="#F0D138"/>
<path d="M367.501 208.547L577.18 277.121C577.18 277.121 577.18 277.338 577.18 277.425C577.18 292.104 568.729 305.784 554.15 317.336L302.964 235.212C318.901 223.53 341.274 214.236 367.501 208.547Z" fill="#FAE745"/>
<path d="M284.971 253.235C286.985 250.282 289.306 247.416 291.977 244.68L541.148 326.152C537.12 328.497 532.873 330.712 528.32 332.797L284.971 253.235Z" fill="#FAE745"/>
<path d="M279.497 291.104C278.096 287.325 277.264 283.417 277.045 279.465L483.484 346.953C476.304 348.43 468.817 349.602 461.111 350.471L279.497 291.104Z" fill="#FAE745"/>
<path d="M568.382 252.107C571.403 256.32 573.68 260.663 575.125 265.179L390.14 204.683C398.809 203.598 407.741 202.903 416.935 202.599L568.382 252.107Z" fill="#FAE745"/>
<path d="M386.847 285.936C380.936 288.803 377.959 290.236 372.092 293.102C377.696 295.447 380.498 296.62 386.015 298.922C391.926 296.055 394.947 294.622 400.901 291.712C411.935 295.23 424.938 297.315 436.979 297.575C439.737 293.667 441.095 291.669 443.809 287.717C430.455 287.543 414.912 284.894 407.25 281.68C401.558 279.292 399.85 276.86 403.441 275.079C414.956 269.39 446.567 288.846 470.386 277.12C481.025 271.822 480.106 264.743 468.547 258.099C474.02 255.319 476.69 253.93 481.988 251.193C476.34 248.848 473.494 247.676 467.759 245.287C462.505 248.023 459.834 249.369 454.449 252.149C444.816 248.935 433.695 246.764 423.712 245.939C421.348 249.934 420.122 251.932 417.627 255.971C429.667 257.274 442.846 259.879 449.019 262.398C453.704 264.352 455.193 266.394 452.172 267.914C441.138 273.429 407.95 253.843 383.694 266.046C371.829 271.909 375.2 279.552 386.891 285.893L386.847 285.936Z" fill="#DB9930"/>
<path d="M285.204 234.741C308.978 208.988 361.08 191.052 421.589 191.052C482.098 191.052 534.2 208.944 557.975 234.741H571.723V266.097C571.723 307.528 504.515 341.098 421.589 341.098C338.663 341.098 271.455 307.528 271.455 266.097V234.741H285.204Z" fill="#DB9930"/>
<path d="M568.125 282.338C566.374 286.334 563.966 290.155 561.032 293.89V234.74H568.125V282.338Z" fill="#C97830"/>
<path d="M556.703 298.8C554.558 301.015 552.15 303.186 549.61 305.271V226.969C552.193 229.053 554.558 231.225 556.703 233.483V298.8Z" fill="#C97830"/>
<path d="M545.269 308.569C543.036 310.22 540.628 311.783 538.176 313.303V219.975H539.971C541.81 221.147 543.605 222.363 545.312 223.623V308.526L545.269 308.569Z" fill="#C97830"/>
<path d="M533.844 315.864C531.567 317.166 529.203 318.382 526.751 319.598V228.702H533.844V315.864Z" fill="#C97830"/>
<path d="M522.422 321.641C520.101 322.683 517.737 323.682 515.329 324.638V237.346H522.422V321.597V321.641Z" fill="#FAE745"/>
<path d="M510.992 326.33C508.672 327.199 506.307 328.024 503.899 328.806V246.074H510.992V326.33Z" fill="#C97830"/>
<path d="M499.555 330.196C497.234 330.891 494.87 331.586 492.462 332.238V254.761H499.555V330.196Z" fill="#C97830"/>
<path d="M488.137 333.324C485.816 333.889 483.408 334.453 481.044 334.974V263.447H488.137V333.324Z" fill="#C97830"/>
<path d="M476.703 335.844C474.339 336.321 471.975 336.756 469.61 337.147V272.134H476.703V335.844Z" fill="#C97830"/>
<path d="M465.285 337.883C462.921 338.231 460.556 338.578 458.192 338.882V280.861H465.285V337.883Z" fill="#FAE745"/>
<path d="M453.855 339.362C451.491 339.622 449.127 339.839 446.763 340.056V289.549H453.855V339.405V339.362Z" fill="#C97830"/>
<path d="M442.422 340.357C440.058 340.531 437.693 340.661 435.329 340.748V298.145H442.422V340.314V340.357Z" fill="#C97830"/>
<path d="M430.648 340.967C428.284 341.053 425.92 341.053 423.556 341.097V293.325H430.648V340.967Z" fill="#C97830"/>
<path d="M411.731 340.924V288.419H418.824V341.055C416.46 341.055 414.052 340.968 411.731 340.924Z" fill="#C97830"/>
<path d="M399.907 283.556H407V340.751C404.592 340.621 402.227 340.491 399.907 340.317V283.556Z" fill="#C97830"/>
<path d="M388.126 278.646H395.219V339.923C392.811 339.706 390.446 339.489 388.126 339.185V278.646Z" fill="#FAE745"/>
<path d="M376.356 273.784H383.449V338.666C381.041 338.362 378.677 338.015 376.356 337.624V273.74V273.784Z" fill="#C97830"/>
<path d="M364.575 268.876H371.668V336.842C369.26 336.408 366.896 335.973 364.575 335.496V268.876Z" fill="#C97830"/>
<path d="M352.759 264.012H359.852V334.497C357.443 333.975 355.079 333.368 352.759 332.76V264.012Z" fill="#C97830"/>
<path d="M340.974 259.104H348.066V331.499C345.658 330.804 343.294 330.109 340.974 329.371V259.104Z" fill="#C97830"/>
<path d="M329.2 254.239H336.293V327.808C333.885 326.982 331.521 326.071 329.2 325.202V254.239Z" fill="#C97830"/>
<path d="M317.376 249.332H324.469V323.291C322.017 322.249 319.653 321.163 317.376 320.077V249.332Z" fill="#C97830"/>
<path d="M305.602 244.467H312.695V317.731C310.243 316.428 307.835 315.125 305.602 313.736V244.467Z" fill="#FAE745"/>
<path d="M293.821 239.561H300.914V310.697C298.418 309.003 296.01 307.266 293.821 305.442V239.561Z" fill="#C97830"/>
<path d="M281.997 293.717V234.741H285.193C285.193 234.741 285.193 234.741 285.237 234.697H289.09V301.447C286.419 298.972 284.055 296.41 281.997 293.76V293.717Z" fill="#C97830"/>
<path d="M271.931 234.74H279.023V289.634C275.258 283.945 272.85 277.995 271.931 271.828V234.74Z" fill="#C97830"/>
<path d="M421.589 309.741C338.673 309.741 271.455 276.162 271.455 234.74C271.455 193.318 338.673 159.738 421.589 159.738C504.506 159.738 571.723 193.318 571.723 234.74C571.723 276.162 504.506 309.741 421.589 309.741Z" fill="#F0D138"/>
<path d="M362.044 165.861L571.723 234.435C571.723 234.435 571.723 234.652 571.723 234.739C571.723 249.418 563.272 263.098 548.693 274.65L297.507 192.527C313.444 180.844 335.817 171.55 362.044 165.861Z" fill="#FAE745"/>
<path d="M279.467 210.55C281.482 207.596 283.802 204.73 286.473 201.994L535.645 283.467C531.616 285.812 527.369 288.027 522.816 290.111L279.467 210.55Z" fill="#FAE745"/>
<path d="M273.989 248.418C272.588 244.64 271.756 240.731 271.537 236.779L477.977 304.268C470.796 305.744 463.309 306.917 455.603 307.785L273.989 248.418Z" fill="#FAE745"/>
<path d="M562.925 209.422C565.946 213.635 568.223 217.977 569.668 222.494L384.683 161.998C393.352 160.912 402.284 160.217 411.478 159.913L562.925 209.422Z" fill="#FAE745"/>
<path d="M381.382 243.251C375.471 246.117 372.494 247.55 366.627 250.417C372.231 252.762 375.033 253.934 380.55 256.236C386.461 253.37 389.482 251.937 395.436 249.027C406.47 252.545 419.474 254.629 431.514 254.89C434.272 250.981 435.63 248.983 438.344 245.031C424.99 244.858 409.447 242.209 401.785 238.995C396.093 236.606 394.386 234.174 397.976 232.394C409.491 226.704 441.103 246.161 464.921 234.435C475.56 229.136 474.641 222.058 463.082 215.413C468.555 212.634 471.226 211.244 476.523 208.508C470.875 206.163 468.029 204.99 462.294 202.602C457.04 205.338 454.369 206.684 448.984 209.463C439.351 206.25 428.23 204.078 418.248 203.253C415.883 207.248 414.657 209.246 412.162 213.285C424.202 214.588 437.381 217.194 443.554 219.713C448.239 221.667 449.728 223.708 446.707 225.228C435.673 230.743 402.486 211.157 378.23 223.361C366.364 229.223 369.736 236.867 381.426 243.207L381.382 243.251Z" fill="#DB9930"/>
<path d="M268.723 203.818C292.498 178.065 344.6 160.129 405.109 160.129C465.617 160.129 517.72 178.022 541.494 203.818H555.242V235.174C555.242 276.605 488.035 310.175 405.109 310.175C322.183 310.175 254.975 276.605 254.975 235.174V203.818H268.723Z" fill="#DB9930"/>
<path d="M551.652 251.374C549.901 255.37 547.493 259.191 544.559 262.926V203.776H551.652V251.374Z" fill="#C97830"/>
<path d="M540.223 267.875C538.077 270.09 535.669 272.261 533.13 274.346V196.044C535.713 198.129 538.077 200.3 540.223 202.558V267.875Z" fill="#C97830"/>
<path d="M528.796 277.648C526.563 279.299 524.155 280.862 521.703 282.382V189.054H523.498C525.337 190.226 527.132 191.442 528.84 192.702V277.605L528.796 277.648Z" fill="#C97830"/>
<path d="M517.371 284.943C515.094 286.246 512.73 287.462 510.278 288.678V197.781H517.371V284.943Z" fill="#C97830"/>
<path d="M505.934 290.72C503.613 291.762 501.249 292.761 498.841 293.717V206.425H505.934V290.677V290.72Z" fill="#FAE745"/>
<path d="M494.52 295.41C492.199 296.278 489.835 297.103 487.427 297.885V215.153H494.52V295.41Z" fill="#C97830"/>
<path d="M483.082 299.276C480.762 299.971 478.397 300.665 475.989 301.317V223.84H483.082V299.276Z" fill="#C97830"/>
<path d="M471.664 302.403C469.344 302.968 466.935 303.532 464.571 304.054V232.526H471.664V302.403Z" fill="#C97830"/>
<path d="M460.23 304.923C457.866 305.401 455.502 305.835 453.138 306.226V241.213H460.23V304.923Z" fill="#C97830"/>
<path d="M448.801 306.92C446.436 307.268 444.072 307.615 441.708 307.919V249.898H448.801V306.964V306.92Z" fill="#FAE745"/>
<path d="M437.383 308.398C435.019 308.658 432.654 308.875 430.29 309.093V258.585H437.383V308.441V308.398Z" fill="#C97830"/>
<path d="M425.949 309.436C423.585 309.61 421.221 309.74 418.856 309.827V267.224H425.949V309.393V309.436Z" fill="#C97830"/>
<path d="M414.129 310.046C411.765 310.132 409.4 310.132 407.036 310.176V262.404H414.129V310.046Z" fill="#C97830"/>
<path d="M395.251 310.004V257.498H402.344V310.134C399.979 310.134 397.571 310.047 395.251 310.004Z" fill="#C97830"/>
<path d="M383.442 252.59H390.535V309.785C388.127 309.655 385.763 309.525 383.442 309.351V252.59Z" fill="#C97830"/>
<path d="M371.653 247.725H378.746V309.003C376.338 308.785 373.974 308.568 371.653 308.264V247.725Z" fill="#FAE745"/>
<path d="M359.884 242.819H366.977V307.701C364.568 307.397 362.204 307.05 359.884 306.659V242.775V242.819Z" fill="#C97830"/>
<path d="M348.059 237.955H355.152V305.921C352.744 305.487 350.38 305.053 348.059 304.575V237.955Z" fill="#C97830"/>
<path d="M336.286 233.048H343.379V303.533C340.971 303.011 338.607 302.404 336.286 301.796V233.048Z" fill="#C97830"/>
<path d="M324.501 228.183H331.594V300.578C329.186 299.884 326.821 299.189 324.501 298.45V228.183Z" fill="#C97830"/>
<path d="M312.727 223.275H319.82V296.844C317.412 296.019 315.048 295.107 312.727 294.238V223.275Z" fill="#C97830"/>
<path d="M300.903 218.411H307.996V292.37C305.544 291.328 303.18 290.242 300.903 289.157V218.411Z" fill="#C97830"/>
<path d="M289.13 213.503H296.223V286.767C293.771 285.464 291.363 284.161 289.13 282.772V213.503Z" fill="#FAE745"/>
<path d="M277.349 208.64H284.441V279.776C281.946 278.082 279.538 276.345 277.349 274.521V208.64Z" fill="#C97830"/>
<path d="M265.524 262.796V203.82H268.72C268.72 203.82 268.72 203.82 268.764 203.776H272.617V270.526C269.946 268.051 267.582 265.489 265.524 262.839V262.796Z" fill="#C97830"/>
<path d="M255.458 203.819H262.551V258.713C258.785 253.024 256.377 247.074 255.458 240.908V203.819Z" fill="#C97830"/>
<path d="M405.109 278.818C322.192 278.818 254.975 245.239 254.975 203.817C254.975 162.395 322.192 128.815 405.109 128.815C488.025 128.815 555.242 162.395 555.242 203.817C555.242 245.239 488.025 278.818 405.109 278.818Z" fill="#F0D138"/>
<path d="M345.563 134.937L555.242 203.511C555.242 203.511 555.242 203.728 555.242 203.815C555.242 218.494 546.792 232.174 532.212 243.726L281.026 161.602C296.963 149.92 319.337 140.626 345.563 134.937Z" fill="#FAE745"/>
<path d="M262.987 179.625C265.001 176.672 267.321 173.805 269.992 171.069L519.164 252.542C515.136 254.887 510.889 257.102 506.335 259.186L262.987 179.625Z" fill="#FAE745"/>
<path d="M257.509 217.493C256.108 213.715 255.276 209.807 255.057 205.854L461.496 273.343C454.316 274.819 446.829 275.992 439.123 276.861L257.509 217.493Z" fill="#FAE745"/>
<path d="M546.445 178.497C549.466 182.71 551.743 187.053 553.188 191.569L368.202 131.073C376.871 129.987 385.803 129.292 394.998 128.988L546.445 178.497Z" fill="#FAE745"/>
<path d="M364.909 212.328C358.998 215.194 356.021 216.627 350.154 219.494C355.759 221.839 358.561 223.012 364.077 225.313C369.988 222.447 373.009 221.014 378.964 218.104C389.997 221.622 403.001 223.706 415.041 223.967C417.8 220.058 419.157 218.061 421.872 214.109C408.518 213.935 392.974 211.286 385.312 208.072C379.62 205.683 377.913 203.251 381.503 201.471C393.018 195.782 424.63 215.238 448.448 203.512C459.087 198.214 458.168 191.135 446.609 184.49C452.082 181.711 454.753 180.321 460.051 177.585C454.403 175.24 451.557 174.067 445.821 171.679C440.567 174.415 437.896 175.761 432.511 178.54C422.879 175.327 411.758 173.155 401.775 172.33C399.411 176.326 398.185 178.323 395.689 182.362C407.729 183.665 420.908 186.271 427.082 188.79C431.767 190.744 433.255 192.785 430.234 194.305C419.201 199.821 386.013 180.234 361.757 192.438C349.891 198.301 353.263 205.944 364.953 212.285L364.909 212.328Z" fill="#DB9930"/>
<path d="M290.661 157.003C314.435 131.25 366.537 113.313 427.046 113.313C487.555 113.313 539.657 131.206 563.432 157.003H577.18V188.358C577.18 229.789 509.972 263.36 427.046 263.36C344.12 263.36 276.913 229.789 276.913 188.358V157.003H290.661Z" fill="#DB9930"/>
<path d="M573.59 204.598C571.839 208.593 569.43 212.415 566.497 216.15V157H573.59V204.598Z" fill="#C97830"/>
<path d="M562.16 221.06C560.015 223.275 557.607 225.446 555.067 227.531V149.229C557.65 151.313 560.015 153.485 562.16 155.743V221.06Z" fill="#C97830"/>
<path d="M550.734 230.829C548.501 232.479 546.092 234.043 543.641 235.563V142.234H545.436C547.275 143.407 549.07 144.623 550.777 145.882V230.786L550.734 230.829Z" fill="#C97830"/>
<path d="M539.309 238.123C537.032 239.426 534.668 240.642 532.216 241.858V150.962H539.309V238.123Z" fill="#C97830"/>
<path d="M527.871 243.944C525.551 244.986 523.186 245.985 520.778 246.94V159.648H527.871V243.9V243.944Z" fill="#FAE745"/>
<path d="M516.457 248.59C514.137 249.459 511.772 250.284 509.364 251.066V168.334H516.457V248.59Z" fill="#C97830"/>
<path d="M505.02 252.458C502.699 253.153 500.335 253.848 497.927 254.499V177.022H505.02V252.458Z" fill="#C97830"/>
<path d="M493.602 255.584C491.281 256.149 488.873 256.713 486.509 257.234V185.707H493.602V255.584Z" fill="#C97830"/>
<path d="M482.168 258.147C479.804 258.624 477.439 259.058 475.075 259.449V194.437H482.168V258.147Z" fill="#C97830"/>
<path d="M470.738 260.143C468.374 260.49 466.01 260.838 463.645 261.142V203.121H470.738V260.187V260.143Z" fill="#FAE745"/>
<path d="M459.32 261.619C456.956 261.88 454.592 262.097 452.227 262.314V211.807H459.32V261.663V261.619Z" fill="#C97830"/>
<path d="M447.887 262.618C445.522 262.792 443.158 262.922 440.794 263.009V220.405H447.887V262.575V262.618Z" fill="#C97830"/>
<path d="M436.113 263.228C433.749 263.315 431.385 263.315 429.02 263.359V215.587H436.113V263.228Z" fill="#C97830"/>
<path d="M417.188 263.184V210.679H424.281V263.314C421.917 263.314 419.509 263.228 417.188 263.184Z" fill="#C97830"/>
<path d="M405.415 205.815H412.508V263.011C410.1 262.881 407.735 262.751 405.415 262.577V205.815Z" fill="#C97830"/>
<path d="M393.591 200.905H400.684V262.183C398.276 261.966 395.911 261.749 393.591 261.445V200.905Z" fill="#FAE745"/>
<path d="M381.821 196.043H388.914V260.926C386.506 260.622 384.142 260.275 381.821 259.884V196V196.043Z" fill="#C97830"/>
<path d="M370.04 191.136H377.133V259.102C374.725 258.668 372.36 258.233 370.04 257.756V191.136Z" fill="#C97830"/>
<path d="M358.266 186.271H365.359V256.756C362.951 256.192 360.587 255.627 358.266 255.019V186.271Z" fill="#C97830"/>
<path d="M346.438 181.363H353.531V253.759C351.123 253.064 348.759 252.369 346.438 251.631V181.363Z" fill="#C97830"/>
<path d="M334.665 176.499H341.758V250.067C339.35 249.242 336.985 248.33 334.665 247.462V176.499Z" fill="#C97830"/>
<path d="M322.884 171.592H329.977V245.551C327.525 244.509 325.16 243.423 322.884 242.337V171.592Z" fill="#C97830"/>
<path d="M311.067 166.727H318.16V239.991C315.708 238.688 313.3 237.385 311.067 235.995V166.727Z" fill="#FAE745"/>
<path d="M299.286 161.82H306.379V232.957C303.883 231.263 301.475 229.526 299.286 227.702V161.82Z" fill="#C97830"/>
<path d="M287.509 215.977V157.001H290.705C290.705 157.001 290.705 157 290.749 156.957H294.602V223.707C291.931 221.232 289.566 218.669 287.509 216.02V215.977Z" fill="#C97830"/>
<path d="M277.442 157H284.535V211.894C280.77 206.205 278.362 200.255 277.442 194.088V157Z" fill="#C97830"/>
<path d="M427.046 232.003C344.13 232.003 276.913 198.424 276.913 157.001C276.913 115.579 344.13 82 427.046 82C509.963 82 577.18 115.579 577.18 157.001C577.18 198.424 509.963 232.003 427.046 232.003Z" fill="#F0D138"/>
<path d="M367.501 88.124L577.18 156.698C577.18 156.698 577.18 156.915 577.18 157.002C577.18 171.681 568.729 185.361 554.15 196.913L302.964 114.789C318.901 103.107 341.274 93.8132 367.501 88.124Z" fill="#FAE745"/>
<path d="M284.971 132.811C286.985 129.858 289.306 126.992 291.977 124.256L541.148 205.728C537.12 208.073 532.873 210.288 528.32 212.373L284.971 132.811Z" fill="#FAE745"/>
<path d="M279.497 170.681C278.096 166.903 277.264 162.994 277.045 159.042L483.484 226.53C476.304 228.007 468.817 229.179 461.111 230.048L279.497 170.681Z" fill="#FAE745"/>
<path d="M568.382 131.684C571.403 135.897 573.68 140.24 575.125 144.756L390.14 84.2599C398.809 83.1742 407.741 82.4793 416.935 82.1753L568.382 131.684Z" fill="#FAE745"/>
<g style="mix-blend-mode:multiply" opacity="0.31">
<path d="M751.896 474.126C662.33 474.126 589.722 441.305 589.722 400.818C589.722 360.332 662.33 327.511 751.896 327.511C841.463 327.511 914.07 360.332 914.07 400.818C914.07 441.305 841.463 474.126 751.896 474.126Z" fill="#435529"/>
</g>
<path d="M630.055 348.138C653.83 322.384 705.932 304.448 766.441 304.448C826.949 304.448 879.052 322.341 902.826 348.138H916.574V379.493C916.574 420.924 849.367 454.495 766.441 454.495C683.515 454.495 616.307 420.924 616.307 379.493V348.138H630.055Z" fill="#DB9930"/>
<path d="M912.984 395.736C911.233 399.731 908.825 403.553 905.891 407.288V348.138H912.984V395.736Z" fill="#C97830"/>
<path d="M901.555 412.193C899.409 414.408 897.001 416.58 894.462 418.664V340.362C897.045 342.447 899.409 344.618 901.555 346.877V412.193Z" fill="#C97830"/>
<path d="M890.128 422.01C887.895 423.66 885.487 425.223 883.035 426.743V333.415H884.83C886.669 334.588 888.464 335.804 890.172 337.063V421.966L890.128 422.01Z" fill="#C97830"/>
<path d="M878.703 429.304C876.426 430.607 874.062 431.823 871.61 433.039V342.143H878.703V429.304Z" fill="#C97830"/>
<path d="M867.281 435.081C864.961 436.124 862.596 437.123 860.188 438.078V350.786H867.281V435.038V435.081Z" fill="#FAE745"/>
<path d="M855.852 439.771C853.531 440.639 851.167 441.465 848.759 442.246V359.515H855.852V439.771Z" fill="#C97830"/>
<path d="M844.414 443.639C842.094 444.334 839.729 445.029 837.321 445.68V368.203H844.414V443.639Z" fill="#C97830"/>
<path d="M832.996 446.765C830.676 447.329 828.267 447.894 825.903 448.415V376.888H832.996V446.765Z" fill="#C97830"/>
<path d="M821.562 449.284C819.198 449.762 816.834 450.196 814.47 450.587V385.574H821.562V449.284Z" fill="#C97830"/>
<path d="M810.133 451.282C807.769 451.629 805.404 451.977 803.04 452.281V394.26H810.133V451.325V451.282Z" fill="#FAE745"/>
<path d="M798.715 452.759C796.351 453.02 793.986 453.237 791.622 453.454V402.946H798.715V452.802V452.759Z" fill="#C97830"/>
<path d="M787.281 453.798C784.917 453.971 782.553 454.102 780.188 454.189V411.585H787.281V453.754V453.798Z" fill="#C97830"/>
<path d="M775.508 454.364C773.144 454.451 770.779 454.451 768.415 454.494V406.723H775.508V454.364Z" fill="#C97830"/>
<path d="M756.591 454.365V401.859H763.684V454.495C761.319 454.495 758.911 454.408 756.591 454.365Z" fill="#C97830"/>
<path d="M744.809 396.951H751.902V454.147C749.494 454.016 747.13 453.886 744.809 453.713V396.951Z" fill="#C97830"/>
<path d="M732.985 392.086H740.078V453.364C737.67 453.147 735.306 452.93 732.985 452.626V392.086Z" fill="#FAE745"/>
<path d="M721.216 387.18H728.309V452.063C725.901 451.759 723.536 451.411 721.216 451.02V387.137V387.18Z" fill="#C97830"/>
<path d="M709.434 382.316H716.527V450.282C714.119 449.848 711.755 449.414 709.434 448.936V382.316Z" fill="#C97830"/>
<path d="M697.661 377.409H704.754V447.894C702.346 447.373 699.982 446.765 697.661 446.157V377.409Z" fill="#C97830"/>
<path d="M685.837 372.544H692.93V444.94C690.522 444.245 688.157 443.55 685.837 442.812V372.544Z" fill="#C97830"/>
<path d="M674.059 367.637H681.152V441.205C678.744 440.38 676.38 439.468 674.059 438.599V367.637Z" fill="#C97830"/>
<path d="M662.278 362.772H669.371V436.732C666.919 435.689 664.555 434.604 662.278 433.518V362.772Z" fill="#C97830"/>
<path d="M650.462 357.864H657.555V431.129C655.103 429.826 652.695 428.523 650.462 427.133V357.864Z" fill="#FAE745"/>
<path d="M638.681 353.001H645.773V424.137C643.278 422.443 640.87 420.706 638.681 418.882V353.001Z" fill="#C97830"/>
<path d="M626.903 407.112V348.136H630.099C630.099 348.136 630.099 348.136 630.143 348.093H633.996V414.843C631.325 412.367 628.961 409.805 626.903 407.156V407.112Z" fill="#C97830"/>
<path d="M616.837 348.138H623.93V403.032C620.164 397.343 617.756 391.393 616.837 385.226V348.138Z" fill="#C97830"/>
<path d="M766.441 423.139C683.524 423.139 616.307 389.559 616.307 348.137C616.307 306.715 683.524 273.136 766.441 273.136C849.357 273.136 916.574 306.715 916.574 348.137C916.574 389.559 849.357 423.139 766.441 423.139Z" fill="#F0D138"/>
<path d="M706.895 279.303L916.574 347.877C916.574 347.877 916.574 348.094 916.574 348.181C916.574 362.86 908.124 376.54 893.544 388.092L642.358 305.968C658.295 294.286 680.669 284.992 706.895 279.303Z" fill="#FAE745"/>
<path d="M624.366 323.991C626.38 321.038 628.7 318.172 631.371 315.436L880.543 396.908C876.515 399.253 872.268 401.468 867.714 403.553L624.366 323.991Z" fill="#FAE745"/>
<path d="M618.888 361.818C617.487 358.039 616.655 354.131 616.436 350.179L822.875 417.667C815.695 419.144 808.208 420.316 800.502 421.185L618.888 361.818Z" fill="#FAE745"/>
<path d="M907.777 322.863C910.798 327.076 913.075 331.419 914.52 335.935L729.534 275.439C738.203 274.353 747.135 273.658 756.33 273.354L907.777 322.863Z" fill="#FAE745"/>
<path d="M726.241 356.648C720.331 359.515 717.353 360.948 711.486 363.814C717.091 366.159 719.893 367.332 725.409 369.634C731.32 366.767 734.341 365.334 740.296 362.424C751.329 365.942 764.333 368.027 776.373 368.287C779.132 364.379 780.489 362.381 783.204 358.429C769.85 358.255 754.307 355.606 746.644 352.392C740.953 350.004 739.245 347.572 742.835 345.791C754.35 340.102 785.962 359.558 809.78 347.832C820.42 342.534 819.5 335.455 807.941 328.811C813.414 326.031 816.085 324.641 821.383 321.905C815.735 319.56 812.889 318.388 807.153 315.999C801.899 318.735 799.228 320.081 793.843 322.861C784.211 319.647 773.09 317.476 763.107 316.65C760.743 320.646 759.517 322.644 757.021 326.683C769.062 327.985 782.24 330.591 788.414 333.11C793.099 335.064 794.587 337.105 791.566 338.626C780.533 344.141 747.345 324.554 723.089 336.758C711.224 342.621 714.595 350.264 726.285 356.605L726.241 356.648Z" fill="#DB9930"/>
<path d="M613.594 317.219C637.369 291.465 689.471 273.529 749.98 273.529C810.489 273.529 862.591 291.422 886.365 317.219H900.113V348.574C900.113 390.005 832.906 423.576 749.98 423.576C667.054 423.576 599.846 390.005 599.846 348.574V317.219H613.594Z" fill="#DB9930"/>
<path d="M896.52 364.816C894.768 368.811 892.36 372.633 889.427 376.368V317.218H896.52V364.816Z" fill="#C97830"/>
<path d="M885.09 381.273C882.944 383.488 880.536 385.66 877.997 387.744V309.442C880.58 311.527 882.944 313.698 885.09 315.957V381.273Z" fill="#C97830"/>
<path d="M873.663 391.09C871.43 392.74 869.022 394.303 866.57 395.823V302.495H868.365C870.204 303.668 871.999 304.884 873.707 306.143V391.046L873.663 391.09Z" fill="#C97830"/>
<path d="M862.238 398.343C859.962 399.646 857.597 400.862 855.145 402.078V311.182H862.238V398.343Z" fill="#C97830"/>
<path d="M850.801 404.161C848.48 405.204 846.116 406.203 843.708 407.158V319.866H850.801V404.118V404.161Z" fill="#FAE745"/>
<path d="M839.387 408.851C837.066 409.72 834.702 410.545 832.294 411.327V328.595H839.387V408.851Z" fill="#C97830"/>
<path d="M827.949 412.672C825.629 413.367 823.264 414.062 820.856 414.713V337.236H827.949V412.672Z" fill="#C97830"/>
<path d="M816.531 415.8C814.211 416.364 811.803 416.929 809.438 417.45V345.923H816.531V415.8Z" fill="#C97830"/>
<path d="M805.098 418.364C802.733 418.842 800.369 419.276 798.005 419.667V354.654H805.098V418.364Z" fill="#C97830"/>
<path d="M793.668 420.362C791.304 420.709 788.939 421.057 786.575 421.361V363.34H793.668V420.405V420.362Z" fill="#FAE745"/>
<path d="M782.25 421.839C779.886 422.1 777.521 422.317 775.157 422.534V372.026H782.25V421.883V421.839Z" fill="#C97830"/>
<path d="M770.816 422.878C768.452 423.052 766.088 423.182 763.724 423.269V380.665H770.816V422.834V422.878Z" fill="#C97830"/>
<path d="M759.043 423.444C756.679 423.531 754.314 423.531 751.95 423.574V375.803H759.043V423.444Z" fill="#C97830"/>
<path d="M740.126 423.402V370.896H747.219V423.532C744.854 423.532 742.446 423.445 740.126 423.402Z" fill="#C97830"/>
<path d="M728.345 366.031H735.438V423.227C733.029 423.097 730.665 422.966 728.345 422.793V366.031Z" fill="#C97830"/>
<path d="M716.52 361.125H723.613V422.403C721.205 422.186 718.841 421.969 716.52 421.665V361.125Z" fill="#FAE745"/>
<path d="M704.751 356.26H711.844V421.143C709.436 420.839 707.071 420.491 704.751 420.1V356.217V356.26Z" fill="#C97830"/>
<path d="M692.97 351.352H700.062V419.318C697.654 418.883 695.29 418.449 692.97 417.971V351.352Z" fill="#C97830"/>
<path d="M681.153 346.489H688.246V416.974C685.838 416.453 683.474 415.845 681.153 415.237V346.489Z" fill="#C97830"/>
<path d="M669.372 341.58H676.465V413.976C674.057 413.281 671.692 412.586 669.372 411.848V341.58Z" fill="#C97830"/>
<path d="M657.595 336.717H664.688V410.285C662.279 409.46 659.915 408.548 657.595 407.679V336.717Z" fill="#C97830"/>
<path d="M645.813 331.809H652.906V405.768C650.454 404.725 648.09 403.64 645.813 402.554V331.809Z" fill="#C97830"/>
<path d="M633.997 326.944H641.09V400.209C638.638 398.906 636.23 397.603 633.997 396.213V326.944Z" fill="#FAE745"/>
<path d="M622.216 322.04H629.309V393.176C626.813 391.483 624.405 389.745 622.216 387.921V322.04Z" fill="#C97830"/>
<path d="M610.438 376.193V317.216H613.635C613.635 317.216 613.634 317.216 613.678 317.173H617.531V383.923C614.86 381.447 612.496 378.885 610.438 376.236V376.193Z" fill="#C97830"/>
<path d="M600.372 317.218H607.465V372.112C603.699 366.423 601.291 360.473 600.372 354.306V317.218Z" fill="#C97830"/>
<path d="M749.98 392.219C667.063 392.219 599.846 358.639 599.846 317.217C599.846 275.795 667.063 242.216 749.98 242.216C832.896 242.216 900.113 275.795 900.113 317.217C900.113 358.639 832.896 392.219 749.98 392.219Z" fill="#F0D138"/>
<path d="M690.434 248.339L900.113 316.913C900.113 316.913 900.113 317.13 900.113 317.217C900.113 331.896 891.663 345.576 877.083 357.128L625.897 275.004C641.835 263.322 664.208 254.028 690.434 248.339Z" fill="#FAE745"/>
<path d="M607.905 293.027C609.919 290.074 612.239 287.208 614.91 284.472L864.082 365.944C860.054 368.289 855.807 370.504 851.253 372.589L607.905 293.027Z" fill="#FAE745"/>
<path d="M602.38 330.897C600.979 327.118 600.147 323.21 599.928 319.258L806.367 386.746C799.187 388.223 791.7 389.395 783.994 390.264L602.38 330.897Z" fill="#FAE745"/>
<path d="M891.316 291.942C894.337 296.155 896.614 300.498 898.059 305.014L713.073 244.518C721.743 243.433 730.674 242.738 739.869 242.434L891.316 291.942Z" fill="#FAE745"/>
<path d="M709.78 325.73C703.87 328.597 700.892 330.03 695.025 332.896C700.63 335.241 703.432 336.414 708.948 338.716C714.859 335.849 717.88 334.416 723.835 331.506C734.868 335.024 747.872 337.109 759.912 337.369C762.671 333.461 764.028 331.463 766.743 327.511C753.389 327.337 737.846 324.688 730.183 321.474C724.492 319.086 722.784 316.654 726.374 314.873C737.889 309.184 769.501 328.64 793.319 316.914C803.959 311.616 803.039 304.537 791.48 297.893C796.953 295.113 799.624 293.723 804.922 290.987C799.274 288.642 796.428 287.47 790.692 285.081C785.438 287.817 782.767 289.163 777.382 291.943C767.75 288.729 756.629 286.558 746.646 285.732C744.282 289.728 743.056 291.726 740.56 295.764C752.601 297.067 765.779 299.673 771.953 302.192C776.638 304.146 778.126 306.187 775.105 307.707C764.072 313.223 730.884 293.637 706.628 305.84C694.763 311.703 698.134 319.346 709.824 325.687L709.78 325.73Z" fill="#DB9930"/>
<path d="M635.575 270.445C659.349 244.692 711.451 226.756 771.96 226.756C832.469 226.756 884.571 244.648 908.346 270.445H922.094V301.801C922.094 343.232 854.886 376.802 771.96 376.802C689.034 376.802 621.827 343.232 621.827 301.801V270.445H635.575Z" fill="#DB9930"/>
<path d="M918.512 318.001C916.76 321.997 914.352 325.818 911.419 329.553V270.403H918.512V318.001Z" fill="#C97830"/>
<path d="M907.082 334.502C904.937 336.717 902.529 338.888 899.989 340.973V262.671C902.572 264.755 904.937 266.927 907.082 269.185V334.502Z" fill="#C97830"/>
<path d="M895.655 344.275C893.422 345.926 891.014 347.489 888.563 349.009V255.681H890.358C892.197 256.853 893.992 258.069 895.699 259.329V344.232L895.655 344.275Z" fill="#C97830"/>
<path d="M884.23 351.57C881.954 352.873 879.589 354.089 877.138 355.305V264.408H884.23V351.57Z" fill="#C97830"/>
<path d="M872.793 357.347C870.472 358.389 868.108 359.388 865.7 360.344V273.052H872.793V357.304V357.347Z" fill="#FAE745"/>
<path d="M861.379 362.037C859.058 362.905 856.694 363.73 854.286 364.512V281.78H861.379V362.037Z" fill="#C97830"/>
<path d="M849.941 365.903C847.621 366.598 845.257 367.292 842.848 367.944V290.467H849.941V365.903Z" fill="#C97830"/>
<path d="M838.523 369.028C836.203 369.593 833.795 370.157 831.431 370.679V299.151H838.523V369.028Z" fill="#C97830"/>
<path d="M827.09 371.547C824.726 372.025 822.361 372.459 819.997 372.85V307.837H827.09V371.547Z" fill="#C97830"/>
<path d="M815.621 373.547C813.257 373.895 810.893 374.242 808.528 374.546V316.525H815.621V373.591V373.547Z" fill="#FAE745"/>
<path d="M804.199 375.025C801.835 375.285 799.471 375.502 797.106 375.72V325.212H804.199V375.068V375.025Z" fill="#C97830"/>
<path d="M792.762 376.063C790.397 376.237 788.033 376.367 785.669 376.454V333.851H792.762V376.02V376.063Z" fill="#C97830"/>
<path d="M780.988 376.63C778.624 376.716 776.26 376.716 773.895 376.76V328.988H780.988V376.63Z" fill="#C97830"/>
<path d="M762.067 376.63V324.125H769.16V376.761C766.796 376.761 764.388 376.674 762.067 376.63Z" fill="#C97830"/>
<path d="M750.294 319.217H757.387V376.412C754.979 376.282 752.614 376.152 750.294 375.978V319.217Z" fill="#C97830"/>
<path d="M738.513 314.352H745.605V375.63C743.197 375.412 740.833 375.195 738.513 374.891V314.352Z" fill="#FAE745"/>
<path d="M726.696 309.444H733.789V374.326C731.381 374.022 729.017 373.675 726.696 373.284V309.4V309.444Z" fill="#C97830"/>
<path d="M714.919 304.582H722.012V372.548C719.604 372.114 717.239 371.68 714.919 371.202V304.582Z" fill="#C97830"/>
<path d="M703.145 299.675H710.238V370.16C707.83 369.595 705.466 369.03 703.145 368.422V299.675Z" fill="#C97830"/>
<path d="M691.36 294.81H698.453V367.205C696.045 366.511 693.681 365.816 691.36 365.077V294.81Z" fill="#C97830"/>
<path d="M679.54 289.902H686.633V363.471C684.225 362.645 681.86 361.733 679.54 360.865V289.902Z" fill="#C97830"/>
<path d="M667.763 285.038H674.855V358.997C672.404 357.955 670.039 356.869 667.763 355.784V285.038Z" fill="#C97830"/>
<path d="M655.989 280.13H663.082V353.394C660.63 352.091 658.222 350.788 655.989 349.399V280.13Z" fill="#FAE745"/>
<path d="M644.165 275.267H651.258V346.403C648.762 344.709 646.354 342.972 644.165 341.148V275.267Z" fill="#C97830"/>
<path d="M632.384 329.423V270.447H635.58C635.58 270.447 635.58 270.447 635.624 270.403H639.477V337.153C636.806 334.678 634.441 332.116 632.384 329.466V329.423Z" fill="#C97830"/>
<path d="M622.317 270.446H629.41V325.34C625.645 319.651 623.237 313.701 622.317 307.534V270.446Z" fill="#C97830"/>
<path d="M771.96 345.445C689.044 345.445 621.827 311.866 621.827 270.444C621.827 229.022 689.044 195.442 771.96 195.442C854.877 195.442 922.094 229.022 922.094 270.444C922.094 311.866 854.877 345.445 771.96 345.445Z" fill="#F0D138"/>
<path d="M712.376 201.566L922.055 270.14C922.055 270.14 922.055 270.358 922.055 270.444C922.055 285.123 913.604 298.803 899.025 310.356L647.839 228.232C663.776 216.549 686.149 207.256 712.376 201.566Z" fill="#FAE745"/>
<path d="M629.846 246.255C631.86 243.302 634.181 240.435 636.852 237.699L886.023 319.172C881.995 321.517 877.748 323.732 873.195 325.816L629.846 246.255Z" fill="#FAE745"/>
<path d="M624.368 284.123C622.967 280.345 622.135 276.436 621.916 272.484L828.355 339.973C821.175 341.449 813.688 342.622 805.982 343.49L624.368 284.123Z" fill="#FAE745"/>
<path d="M913.296 245.127C916.317 249.34 918.594 253.682 920.039 258.199L735.054 197.703C743.723 196.617 752.655 195.922 761.849 195.618L913.296 245.127Z" fill="#FAE745"/>
<path d="M731.726 278.955C725.815 281.821 722.838 283.254 716.971 286.121C722.575 288.466 725.377 289.638 730.894 291.94C736.805 289.074 739.826 287.641 745.78 284.731C756.814 288.249 769.817 290.333 781.858 290.594C784.616 286.685 785.973 284.688 788.688 280.736C775.334 280.562 759.791 277.913 752.129 274.699C746.437 272.31 744.729 269.878 748.32 268.098C759.835 262.409 791.446 281.865 815.265 270.139C825.904 264.841 824.984 257.762 813.426 251.117C818.899 248.338 821.569 246.948 826.867 244.212C821.219 241.867 818.373 240.694 812.638 238.306C807.384 241.042 804.713 242.388 799.327 245.167C789.695 241.954 778.574 239.782 768.591 238.957C766.227 242.953 765.001 244.95 762.505 248.989C774.546 250.292 787.725 252.898 793.898 255.417C798.583 257.371 800.072 259.412 797.051 260.932C786.017 266.447 752.829 246.861 728.573 259.065C716.708 264.927 720.079 272.571 731.769 278.912L731.726 278.955Z" fill="#DB9930"/>
<path d="M621.028 239.743C644.802 213.99 696.905 196.054 757.413 196.054C817.922 196.054 870.024 213.946 893.799 239.743H907.547V271.099C907.547 312.53 840.339 346.1 757.413 346.1C674.487 346.1 607.28 312.53 607.28 271.099V239.743H621.028Z" fill="#DB9930"/>
<path d="M903.945 287.341C902.194 291.336 899.786 295.158 896.852 298.893V239.743H903.945V287.341Z" fill="#C97830"/>
<path d="M892.516 303.799C890.37 306.014 887.962 308.185 885.423 310.27V231.968C888.006 234.052 890.37 236.224 892.516 238.482V303.799Z" fill="#C97830"/>
<path d="M881.089 313.615C878.856 315.265 876.448 316.829 873.996 318.349V225.021H875.791C877.63 226.193 879.425 227.409 881.133 228.669V313.572L881.089 313.615Z" fill="#C97830"/>
<path d="M869.664 320.868C867.387 322.171 865.023 323.387 862.571 324.603V233.707H869.664V320.868Z" fill="#C97830"/>
<path d="M858.242 326.687C855.922 327.729 853.557 328.728 851.149 329.683V242.392H858.242V326.643V326.687Z" fill="#FAE745"/>
<path d="M846.812 331.376C844.492 332.245 842.128 333.07 839.72 333.852V251.12H846.812V331.376Z" fill="#C97830"/>
<path d="M835.375 335.197C833.054 335.892 830.69 336.587 828.282 337.239V259.762H835.375V335.197Z" fill="#C97830"/>
<path d="M823.957 338.325C821.637 338.89 819.228 339.454 816.864 339.975V268.448H823.957V338.325Z" fill="#C97830"/>
<path d="M812.523 340.89C810.159 341.367 807.795 341.802 805.431 342.193V277.18H812.523V340.89Z" fill="#C97830"/>
<path d="M801.094 342.887C798.729 343.235 796.365 343.582 794.001 343.886V285.865H801.094V342.887Z" fill="#FAE745"/>
<path d="M789.676 344.365C787.311 344.625 784.947 344.842 782.583 345.059V294.552H789.676V344.408V344.365Z" fill="#C97830"/>
<path d="M778.195 345.361C775.831 345.535 773.467 345.665 771.102 345.752V303.148H778.195V345.318V345.361Z" fill="#C97830"/>
<path d="M766.422 345.969C764.058 346.056 761.693 346.056 759.329 346.1V298.328H766.422V345.969Z" fill="#C97830"/>
<path d="M747.509 345.927V293.422H754.602V346.057C752.237 346.057 749.829 345.971 747.509 345.927Z" fill="#C97830"/>
<path d="M735.727 288.557H742.82V345.752C740.412 345.622 738.048 345.492 735.727 345.318V288.557Z" fill="#C97830"/>
<path d="M723.946 283.65H731.039V344.928C728.631 344.711 726.267 344.494 723.946 344.19V283.65Z" fill="#FAE745"/>
<path d="M712.177 278.786H719.27V343.668C716.861 343.364 714.497 343.017 712.177 342.626V278.742V278.786Z" fill="#C97830"/>
<path d="M700.352 273.877H707.445V341.843C705.037 341.409 702.673 340.974 700.352 340.497V273.877Z" fill="#C97830"/>
<path d="M688.579 269.015H695.672V339.5C693.264 338.935 690.899 338.37 688.579 337.762V269.015Z" fill="#C97830"/>
<path d="M676.794 264.105H683.887V336.501C681.479 335.806 679.114 335.111 676.794 334.373V264.105Z" fill="#C97830"/>
<path d="M664.973 259.242H672.066V332.811C669.658 331.985 667.294 331.073 664.973 330.205V259.242Z" fill="#C97830"/>
<path d="M653.196 254.334H660.289V328.293C657.837 327.251 655.473 326.165 653.196 325.079V254.334Z" fill="#C97830"/>
<path d="M641.423 249.47H648.516V322.734C646.064 321.431 643.656 320.128 641.423 318.739V249.47Z" fill="#FAE745"/>
<path d="M629.598 244.565H636.691V315.702C634.196 314.008 631.788 312.271 629.598 310.447V244.565Z" fill="#C97830"/>
<path d="M617.817 298.718V239.742H621.013C621.013 239.742 621.013 239.742 621.057 239.698H624.91V306.405C622.239 303.929 619.875 301.367 617.817 298.718Z" fill="#C97830"/>
<path d="M607.751 239.743H614.844V294.637C611.078 288.948 608.67 282.998 607.751 276.831V239.743Z" fill="#C97830"/>
<path d="M757.413 314.743C674.497 314.743 607.28 281.164 607.28 239.742C607.28 198.319 674.497 164.74 757.413 164.74C840.33 164.74 907.547 198.319 907.547 239.742C907.547 281.164 840.33 314.743 757.413 314.743Z" fill="#F0D138"/>
<path d="M697.825 170.865L907.504 239.439C907.504 239.439 907.504 239.656 907.504 239.743C907.504 254.422 899.054 268.102 884.474 279.654L633.288 197.53C649.225 185.848 671.599 176.554 697.825 170.865Z" fill="#FAE745"/>
<path d="M615.296 215.554C617.31 212.6 619.63 209.734 622.301 206.998L871.473 288.47C867.445 290.816 863.198 293.03 858.644 295.115L615.296 215.554Z" fill="#FAE745"/>
<path d="M609.821 253.422C608.42 249.644 607.588 245.735 607.369 241.783L813.809 309.272C806.628 310.748 799.141 311.921 791.435 312.789L609.821 253.422Z" fill="#FAE745"/>
<path d="M898.746 214.426C901.767 218.638 904.043 222.981 905.488 227.498L720.503 167.001C729.172 165.916 738.104 165.221 747.299 164.917L898.746 214.426Z" fill="#FAE745"/>
<path d="M717.179 248.253C711.268 251.119 708.291 252.552 702.424 255.419C708.028 257.764 710.83 258.936 716.347 261.238C722.258 258.372 725.279 256.939 731.233 254.029C742.267 257.547 755.27 259.631 767.311 259.892C770.069 255.983 771.427 253.985 774.141 250.033C760.787 249.86 745.244 247.211 737.582 243.997C731.89 241.608 730.183 239.176 733.773 237.396C745.288 231.706 776.899 251.163 800.718 239.437C811.357 234.138 810.438 227.06 798.879 220.415C804.352 217.636 807.023 216.246 812.32 213.51C806.672 211.165 803.826 209.992 798.091 207.604C792.837 210.34 790.166 211.686 784.781 214.465C775.148 211.251 764.027 209.08 754.044 208.255C751.68 212.25 750.454 214.248 747.959 218.287C759.999 219.59 773.178 222.196 779.351 224.714C784.036 226.669 785.525 228.71 782.504 230.23C771.47 235.745 738.282 216.159 714.026 228.362C702.161 234.225 705.532 241.869 717.223 248.209L717.179 248.253Z" fill="#DB9930"/>
<path d="M604.571 208.819C628.345 183.023 680.448 165.13 740.956 165.13C801.465 165.13 853.567 183.023 877.342 208.819H891.09V240.175C891.09 281.606 823.882 315.176 740.956 315.176C658.03 315.176 590.823 281.606 590.823 240.175V208.819H604.571Z" fill="#DB9930"/>
<path d="M887.5 256.416C885.749 260.412 883.341 264.233 880.407 267.968V208.818H887.5V256.416Z" fill="#C97830"/>
<path d="M876.07 272.874C873.925 275.089 871.517 277.26 868.977 279.345V201.043C871.561 203.128 873.925 205.299 876.07 207.557V272.874Z" fill="#C97830"/>
<path d="M864.644 282.647C862.411 284.298 860.003 285.861 857.551 287.381V194.053H859.346C861.185 195.225 862.98 196.441 864.688 197.701V282.604L864.644 282.647Z" fill="#C97830"/>
<path d="M853.219 289.942C850.942 291.245 848.578 292.461 846.126 293.677V202.78H853.219V289.942Z" fill="#C97830"/>
<path d="M841.797 295.719C839.476 296.761 837.112 297.76 834.704 298.716V211.424H841.797V295.676V295.719Z" fill="#FAE745"/>
<path d="M830.367 300.409C828.047 301.277 825.682 302.102 823.274 302.884V220.152H830.367V300.409Z" fill="#C97830"/>
<path d="M818.93 304.275C816.609 304.97 814.245 305.664 811.837 306.316V228.839H818.93V304.275Z" fill="#C97830"/>
<path d="M807.461 307.402C805.14 307.967 802.732 308.531 800.368 309.053V237.525H807.461V307.402Z" fill="#C97830"/>
<path d="M796.039 309.922C793.675 310.4 791.31 310.834 788.946 311.225V246.212H796.039V309.922Z" fill="#C97830"/>
<path d="M784.609 311.961C782.245 312.309 779.881 312.656 777.516 312.96V254.939H784.609V312.005V311.961Z" fill="#FAE745"/>
<path d="M773.188 313.44C770.823 313.7 768.459 313.917 766.095 314.135V263.627H773.188V313.483V313.44Z" fill="#C97830"/>
<path d="M761.75 314.435C759.386 314.609 757.021 314.739 754.657 314.826V272.223H761.75V314.392V314.435Z" fill="#C97830"/>
<path d="M749.977 315.045C747.612 315.132 745.248 315.132 742.884 315.175V267.403H749.977V315.045Z" fill="#C97830"/>
<path d="M731.063 315.003V262.497H738.156V315.133C735.792 315.133 733.384 315.046 731.063 315.003Z" fill="#C97830"/>
<path d="M719.29 257.634H726.383V314.83C723.975 314.699 721.61 314.569 719.29 314.395V257.634Z" fill="#C97830"/>
<path d="M707.501 252.724H714.594V314.002C712.186 313.785 709.821 313.567 707.501 313.263V252.724Z" fill="#FAE745"/>
<path d="M695.684 247.863H702.777V312.745C700.369 312.441 698.005 312.094 695.684 311.703V247.819V247.863Z" fill="#C97830"/>
<path d="M683.907 242.954H691V310.92C688.592 310.486 686.228 310.052 683.907 309.574V242.954Z" fill="#C97830"/>
<path d="M672.134 238.09H679.227V308.575C676.818 308.01 674.454 307.446 672.134 306.838V238.09Z" fill="#C97830"/>
<path d="M660.352 233.182H667.445V305.577C665.037 304.883 662.673 304.188 660.352 303.449V233.182Z" fill="#C97830"/>
<path d="M648.528 228.317H655.621V301.886C653.213 301.061 650.849 300.149 648.528 299.28V228.317Z" fill="#C97830"/>
<path d="M636.751 223.41H643.844V297.369C641.392 296.327 639.028 295.241 636.751 294.156V223.41Z" fill="#C97830"/>
<path d="M624.977 218.545H632.07V291.809C629.618 290.506 627.21 289.204 624.977 287.814V218.545Z" fill="#FAE745"/>
<path d="M613.153 213.639H620.246V284.775C617.75 283.081 615.342 281.344 613.153 279.52V213.639Z" fill="#C97830"/>
<path d="M601.372 267.795V208.819H604.568C604.568 208.819 604.568 208.819 604.612 208.775H608.465V275.525C605.794 273.05 603.43 270.488 601.372 267.839V267.795Z" fill="#C97830"/>
<path d="M591.305 208.818H598.398V263.712C594.633 258.023 592.225 252.073 591.305 245.907V208.818Z" fill="#C97830"/>
<path d="M740.956 283.819C658.04 283.819 590.823 250.24 590.823 208.818C590.823 167.396 658.04 133.816 740.956 133.816C823.873 133.816 891.09 167.396 891.09 208.818C891.09 250.24 823.873 283.819 740.956 283.819Z" fill="#F0D138"/>
<path d="M681.364 139.938L891.043 208.512C891.043 208.512 891.043 208.73 891.043 208.816C891.043 223.495 882.593 237.175 868.013 248.727L616.827 166.604C632.764 154.921 655.138 145.628 681.364 139.938Z" fill="#FAE745"/>
<path d="M598.835 184.627C600.849 181.674 603.169 178.807 605.84 176.071L855.012 257.544C850.984 259.889 846.737 262.104 842.183 264.188L598.835 184.627Z" fill="#FAE745"/>
<path d="M593.356 222.495C591.955 218.717 591.124 214.808 590.905 210.856L797.344 278.345C790.163 279.821 782.676 280.994 774.97 281.862L593.356 222.495Z" fill="#FAE745"/>
<path d="M882.285 183.499C885.306 187.712 887.582 192.054 889.027 196.571L704.042 136.075C712.711 134.989 721.643 134.294 730.838 133.99L882.285 183.499Z" fill="#FAE745"/>
<path d="M700.722 217.329C694.811 220.195 691.834 221.628 685.967 224.495C691.571 226.84 694.373 228.013 699.89 230.314C705.801 227.448 708.822 226.015 714.776 223.105C725.81 226.623 738.813 228.707 750.854 228.968C753.612 225.059 754.97 223.062 757.684 219.11C744.33 218.936 728.787 216.287 721.125 213.073C715.433 210.684 713.725 208.252 717.316 206.472C728.831 200.783 760.442 220.239 784.261 208.513C794.9 203.215 793.981 196.136 782.422 189.491C787.895 186.712 790.565 185.322 795.863 182.586C790.215 180.241 787.369 179.068 781.634 176.68C776.38 179.416 773.709 180.762 768.323 183.541C758.691 180.328 747.57 178.156 737.587 177.331C735.223 181.327 733.997 183.324 731.502 187.363C743.542 188.666 756.721 191.272 762.894 193.791C767.579 195.745 769.068 197.786 766.047 199.306C755.013 204.821 721.825 185.235 697.569 197.439C685.704 203.302 689.075 210.945 700.766 217.286L700.722 217.329Z" fill="#DB9930"/>
<path d="M626.504 162.003C650.279 136.25 702.381 118.313 762.89 118.313C823.399 118.313 875.501 136.206 899.275 162.003H913.023V193.358C913.023 234.789 845.816 268.36 762.89 268.36C679.964 268.36 612.756 234.789 612.756 193.358V162.003H626.504Z" fill="#DB9930"/>
<path d="M909.434 209.598C907.682 213.593 905.274 217.415 902.341 221.15V162H909.434V209.598Z" fill="#C97830"/>
<path d="M898.004 226.056C895.859 228.271 893.45 230.442 890.911 232.527V154.225C893.494 156.309 895.859 158.481 898.004 160.739V226.056Z" fill="#C97830"/>
<path d="M886.577 235.872C884.344 237.522 881.936 239.086 879.484 240.606V147.277H881.28C883.118 148.45 884.914 149.666 886.621 150.925V235.829L886.577 235.872Z" fill="#C97830"/>
<path d="M875.152 243.125C872.876 244.428 870.511 245.644 868.059 246.86V155.964H875.152V243.125Z" fill="#C97830"/>
<path d="M863.73 248.944C861.41 249.986 859.046 250.985 856.638 251.94V164.648H863.73V248.9V248.944Z" fill="#FAE745"/>
<path d="M852.301 253.633C849.98 254.502 847.616 255.327 845.208 256.109V173.377H852.301V253.633Z" fill="#C97830"/>
<path d="M840.863 257.454C838.543 258.149 836.178 258.844 833.77 259.496V182.019H840.863V257.454Z" fill="#C97830"/>
<path d="M829.445 260.627C827.125 261.191 824.717 261.756 822.352 262.277V190.75H829.445V260.627Z" fill="#C97830"/>
<path d="M818.012 263.147C815.647 263.624 813.283 264.058 810.919 264.449V199.437H818.012V263.147Z" fill="#C97830"/>
<path d="M806.582 265.144C804.218 265.491 801.853 265.839 799.489 266.143V208.122H806.582V265.188V265.144Z" fill="#FAE745"/>
<path d="M795.164 266.621C792.8 266.882 790.435 267.099 788.071 267.316V216.809H795.164V266.665V266.621Z" fill="#C97830"/>
<path d="M783.73 267.66C781.366 267.834 779.002 267.964 776.638 268.051V225.447H783.73V267.617V267.66Z" fill="#C97830"/>
<path d="M771.957 268.226C769.593 268.313 767.228 268.313 764.864 268.357V220.585H771.957V268.226Z" fill="#C97830"/>
<path d="M753.032 268.184V215.679H760.125V268.314C757.761 268.314 755.353 268.228 753.032 268.184Z" fill="#C97830"/>
<path d="M741.216 210.813H748.309V268.009C745.901 267.879 743.536 267.749 741.216 267.575V210.813Z" fill="#C97830"/>
<path d="M729.434 205.907H736.527V267.185C734.119 266.968 731.755 266.751 729.434 266.447V205.907Z" fill="#FAE745"/>
<path d="M717.665 201.042H724.758V265.925C722.35 265.621 719.985 265.274 717.665 264.883V200.999V201.042Z" fill="#C97830"/>
<path d="M705.884 196.136H712.977V264.102C710.568 263.668 708.204 263.233 705.884 262.756V196.136Z" fill="#C97830"/>
<path d="M694.067 191.271H701.16V261.756C698.752 261.192 696.388 260.627 694.067 260.019V191.271Z" fill="#C97830"/>
<path d="M682.286 186.362H689.379V258.758C686.971 258.063 684.606 257.368 682.286 256.63V186.362Z" fill="#C97830"/>
<path d="M670.509 181.499H677.602V255.067C675.193 254.242 672.829 253.33 670.509 252.462V181.499Z" fill="#C97830"/>
<path d="M658.684 176.591H665.777V250.55C663.325 249.508 660.961 248.422 658.684 247.336V176.591Z" fill="#C97830"/>
<path d="M646.911 171.727H654.004V244.991C651.552 243.688 649.144 242.385 646.911 240.995V171.727Z" fill="#FAE745"/>
<path d="M635.13 166.822H642.223V237.959C639.727 236.265 637.319 234.528 635.13 232.704V166.822Z" fill="#C97830"/>
<path d="M623.305 220.975V161.999H626.502C626.502 161.999 626.502 161.999 626.545 161.955H630.398V228.662C627.728 226.186 625.363 223.624 623.305 220.975Z" fill="#C97830"/>
<path d="M613.239 162H620.332V216.894C616.567 211.205 614.159 205.255 613.239 199.088V162Z" fill="#C97830"/>
<path d="M762.89 237.003C679.973 237.003 612.756 203.424 612.756 162.001C612.756 120.579 679.973 87 762.89 87C845.806 87 913.023 120.579 913.023 162.001C913.023 203.424 845.806 237.003 762.89 237.003Z" fill="#F0D138"/>
<path d="M703.344 93.1685L913.023 161.742C913.023 161.742 913.023 161.96 913.023 162.047C913.023 176.725 904.573 190.406 889.993 201.958L638.808 119.834C654.745 108.151 677.118 98.8576 703.344 93.1685Z" fill="#FAE745"/>
<path d="M620.768 137.856C622.782 134.903 625.103 132.037 627.774 129.301L876.945 210.773C872.917 213.118 868.67 215.333 864.117 217.418L620.768 137.856Z" fill="#FAE745"/>
<path d="M615.29 175.682C613.889 171.904 613.057 167.995 612.838 164.043L819.277 231.531C812.097 233.008 804.61 234.18 796.904 235.049L615.29 175.682Z" fill="#FAE745"/>
<path d="M904.226 136.728C907.247 140.941 909.524 145.284 910.969 149.801L725.984 89.3044C734.653 88.2186 743.585 87.5237 752.779 87.2197L904.226 136.728Z" fill="#FAE745"/>
</svg>
