<svg width="352" height="303" viewBox="0 0 352 303" fill="none" xmlns="http://www.w3.org/2000/svg">
<path d="M338.504 98.9079C338.258 98.8655 338.003 98.8147 337.748 98.7723C337.23 98.5265 336.652 98.3061 336.185 97.9671C335.632 97.5603 335.369 97.0263 335.258 96.3652C335.131 95.6109 335.123 94.8142 335.055 94.0514C334.978 93.1615 334.8 92.297 334.638 91.424C334.57 91.0511 334.009 91.0002 333.848 91.3223C332.998 92.9665 333.406 94.8651 332.701 96.5347C331.945 98.3146 329.77 98.4926 328.087 98.5943C327.509 98.6282 327.373 99.2469 327.662 99.569C327.713 99.6707 327.815 99.7555 327.968 99.7724C328.996 99.908 330.033 100.154 331.01 100.493C331.834 100.781 332.31 101.29 332.582 102.112C333.219 104.053 333.219 106.214 333.245 108.231C333.262 109.197 334.698 109.189 334.74 108.231C334.783 107.282 334.817 106.333 334.859 105.375C334.902 104.442 334.902 103.485 335.148 102.578C335.326 101.925 335.7 101.247 336.329 100.942C337.068 100.586 337.935 100.62 338.683 100.256C339.243 99.9843 339.124 99.0266 338.504 98.9079Z" fill="#FEBD42"/>
<path d="M44.43 78.0642C44.1836 78.0218 43.9287 77.9709 43.6738 77.9286C43.1555 77.6828 42.5777 77.4624 42.1104 77.1234C41.5666 76.7165 41.2947 76.1826 41.1842 75.5215C41.0568 74.7672 41.0483 73.9705 40.9803 73.2077C40.9038 72.3177 40.7254 71.4532 40.564 70.5802C40.496 70.2073 39.9352 70.1565 39.7738 70.4785C38.9241 72.1228 39.3319 74.0213 38.6267 75.691C37.8705 77.4709 35.6953 77.6489 34.0129 77.7506C33.4351 77.7845 33.2992 78.4032 33.5881 78.7253C33.6391 78.827 33.741 78.9117 33.894 78.9287C34.9221 79.0643 35.9587 79.3101 36.9358 79.6491C37.76 79.9373 38.2358 80.4458 38.5077 81.2679C39.145 83.2088 39.145 85.3701 39.1705 87.3873C39.1875 88.3535 40.6234 88.345 40.6659 87.3873C40.7084 86.438 40.7424 85.4887 40.7849 84.531C40.8274 83.5987 40.8274 82.641 41.0738 81.7341C41.2522 81.0815 41.6261 80.4034 42.2548 80.0983C42.994 79.7423 43.8607 79.7677 44.6084 79.4118C45.1692 79.1406 45.0503 78.1828 44.43 78.0642Z" fill="#FEBD42"/>
<path d="M333.687 84.5962C333.356 84.3843 332.88 84.469 332.506 84.469C332.268 84.469 332.03 84.469 331.792 84.469C331.792 84.0622 331.775 83.6554 331.733 83.257C331.699 82.935 331.486 82.6553 331.13 82.6553C330.773 82.6553 330.569 82.935 330.526 83.257C330.475 83.6723 330.467 84.0876 330.467 84.5114C330.127 84.5199 329.796 84.5284 329.456 84.5453C329.116 84.5623 328.784 84.8335 328.801 85.1979C328.818 85.5624 329.09 85.8336 329.456 85.8506C329.796 85.8675 330.135 85.876 330.475 85.8845C330.475 86.1981 330.475 86.5032 330.475 86.8168C330.475 87.2236 330.441 87.6304 330.475 88.0372C330.501 88.3932 330.756 88.6899 331.13 88.6899C331.503 88.6899 331.758 88.3847 331.784 88.0372C331.818 87.6304 331.784 87.2236 331.784 86.8168C331.784 86.5201 331.784 86.215 331.784 85.9184C332.013 85.9184 332.234 85.9184 332.464 85.9184C332.846 85.9184 333.347 86.0031 333.687 85.7997C334.146 85.5115 334.146 84.8759 333.687 84.5877V84.5962Z" fill="#FEBD42"/>
<path d="M343.273 91.9023C342.695 91.8091 342.083 91.8514 341.489 91.8684C341.489 91.4955 341.489 91.1141 341.472 90.7411C341.455 90.4021 341.191 90.1055 340.834 90.1055C340.477 90.1055 340.214 90.3936 340.197 90.7411C340.18 91.131 340.189 91.5294 340.18 91.9192C339.857 91.9362 339.534 91.9447 339.203 91.9616C338.88 91.9786 338.566 92.2328 338.583 92.5803C338.6 92.9363 338.855 93.1821 339.203 93.1991C339.526 93.216 339.849 93.2245 340.163 93.2414C340.163 93.8517 340.163 94.4619 340.325 95.0467C340.46 95.5468 341.183 95.5468 341.319 95.0467C341.48 94.4789 341.48 93.8856 341.48 93.2923C342.075 93.3177 342.678 93.3516 343.256 93.2584C343.553 93.2075 343.8 92.86 343.791 92.5719C343.783 92.2752 343.579 91.9362 343.256 91.8853L343.273 91.9023Z" fill="#FEBD42"/>
<path d="M346.295 105.679C346.083 105.492 345.871 105.416 345.59 105.399C345.437 105.399 345.284 105.399 345.14 105.399C344.995 105.399 344.851 105.399 344.698 105.399C344.689 104.975 344.672 104.552 344.664 104.119C344.647 103.382 343.534 103.382 343.517 104.119C343.508 104.552 343.491 104.984 343.483 105.416C343.177 105.425 342.863 105.433 342.557 105.442C342.217 105.45 341.894 105.73 341.903 106.094C341.92 106.459 342.191 106.73 342.557 106.747C342.846 106.764 343.135 106.772 343.423 106.789C343.381 107.34 343.347 107.908 343.474 108.433C343.619 109.044 344.545 109.044 344.698 108.433C344.825 107.925 344.791 107.374 344.757 106.84H345.14C345.293 106.849 345.446 106.866 345.59 106.857C345.871 106.849 346.083 106.764 346.295 106.586C346.55 106.382 346.533 105.899 346.295 105.687V105.679Z" fill="#FEBD42"/>
<path d="M236.09 31.0896C235.844 31.0472 235.589 30.9963 235.334 30.9539C234.816 30.7082 234.238 30.4878 233.771 30.1488C233.227 29.7419 232.955 29.208 232.844 28.5469C232.717 27.7926 232.708 26.9958 232.64 26.233C232.564 25.3431 232.386 24.4786 232.224 23.6056C232.156 23.2327 231.595 23.1818 231.434 23.5039C230.584 25.1482 230.992 27.0467 230.287 28.7164C229.531 30.4963 227.355 30.6742 225.673 30.7759C225.095 30.8099 224.959 31.4286 225.248 31.7506C225.299 31.8524 225.401 31.9371 225.554 31.9541C226.582 32.0897 227.619 32.3355 228.596 32.6745C229.42 32.9626 229.896 33.4712 230.168 34.2933C230.805 36.2342 230.805 38.3955 230.831 40.4127C230.848 41.3789 232.284 41.3704 232.326 40.4127C232.369 39.4634 232.403 38.5141 232.445 37.5564C232.488 36.6241 232.488 35.6663 232.734 34.7595C232.912 34.1068 233.286 33.4288 233.915 33.1237C234.654 32.7677 235.521 32.8016 236.269 32.4372C236.829 32.1659 236.71 31.2082 236.09 31.0896Z" fill="#FEBD42"/>
<path d="M240.867 24.08C240.289 23.9868 239.677 24.0292 239.082 24.0461C239.082 23.6732 239.082 23.2918 239.065 22.9189C239.048 22.5798 238.785 22.2832 238.428 22.2832C238.071 22.2832 237.808 22.5714 237.791 22.9189C237.774 23.3087 237.782 23.7071 237.774 24.097C237.451 24.1139 237.128 24.1224 236.797 24.1394C236.474 24.1563 236.159 24.4106 236.176 24.7581C236.193 25.1141 236.448 25.3598 236.797 25.3768C237.12 25.3937 237.442 25.4022 237.757 25.4192C237.757 26.0294 237.757 26.6396 237.918 27.2245C238.054 27.7245 238.776 27.7245 238.912 27.2245C239.074 26.6566 239.074 26.0633 239.074 25.47C239.669 25.4954 240.272 25.5293 240.85 25.4361C241.147 25.3853 241.393 25.0378 241.385 24.7496C241.376 24.453 241.173 24.1139 240.85 24.0631L240.867 24.08Z" fill="#FEBD42"/>
<path d="M243.885 37.8557C243.673 37.6692 243.46 37.593 243.18 37.576C243.027 37.576 242.874 37.576 242.73 37.576C242.585 37.576 242.441 37.576 242.288 37.576C242.279 37.1522 242.262 36.7284 242.254 36.2962C242.237 35.5588 241.124 35.5588 241.107 36.2962C241.098 36.7284 241.081 37.1607 241.073 37.593C240.767 37.6014 240.452 37.6099 240.147 37.6184C239.807 37.6269 239.484 37.9065 239.492 38.271C239.509 38.6354 239.781 38.9067 240.147 38.9236C240.435 38.9406 240.724 38.949 241.013 38.966C240.971 39.5169 240.937 40.0848 241.064 40.6103C241.209 41.2205 242.135 41.2205 242.288 40.6103C242.415 40.1017 242.381 39.5508 242.347 39.0168H242.73C242.883 39.0253 243.036 39.0423 243.18 39.0338C243.46 39.0253 243.673 38.9406 243.885 38.7626C244.14 38.5592 244.123 38.0761 243.885 37.8642V37.8557Z" fill="#FEBD42"/>
<path d="M31.1235 97.2746C30.9111 97.0882 30.6986 97.0119 30.4182 96.9949C30.2653 96.9949 30.1124 96.9949 29.9679 96.9949C29.8235 96.9949 29.679 96.9949 29.5261 96.9949C29.5176 96.5712 29.5006 96.1474 29.4921 95.7151C29.4751 94.9778 28.362 94.9778 28.345 95.7151C28.3365 96.1474 28.3195 96.5796 28.311 97.0119C28.0052 97.0204 27.6908 97.0289 27.3849 97.0373C27.045 97.0458 26.7221 97.3255 26.7306 97.6899C26.7476 98.0544 27.0195 98.3256 27.3849 98.3426C27.6738 98.3595 27.9627 98.368 28.2516 98.3849C28.2091 98.9358 28.1751 99.5037 28.3025 100.029C28.447 100.639 29.3731 100.639 29.5261 100.029C29.6535 99.5207 29.6195 98.9697 29.5856 98.4358H29.9679C30.1209 98.4443 30.2738 98.4612 30.4182 98.4527C30.6986 98.4443 30.9111 98.3595 31.1235 98.1815C31.3784 97.9781 31.3614 97.495 31.1235 97.2831V97.2746Z" fill="#FEBD42"/>
<path d="M347.274 207.011C347.274 206.485 346.909 205.985 346.467 206.011C346.025 206.036 345.668 206.451 345.66 207.011C345.66 207.519 345.634 208.028 345.66 208.536C345.677 208.833 345.685 209.181 345.77 209.452C345.855 209.723 345.923 209.994 346.042 210.24C346.221 210.638 346.705 210.638 346.883 210.24C346.994 209.994 347.062 209.731 347.147 209.477C347.232 209.189 347.249 208.842 347.266 208.536C347.291 208.028 347.266 207.519 347.266 207.011H347.274Z" fill="#FEBD42"/>
<path d="M347.354 214.806C347.354 214.28 346.98 213.78 346.547 213.806C346.114 213.831 345.731 214.246 345.74 214.806C345.74 215.433 345.714 216.069 345.748 216.687C345.791 217.391 345.833 218.196 346.241 218.747C346.394 218.959 346.708 218.959 346.861 218.747C347.261 218.196 347.312 217.391 347.354 216.687C347.388 216.06 347.363 215.424 347.363 214.806H347.354Z" fill="#FEBD42"/>
<path d="M344.884 211.717C344.697 211.598 344.502 211.488 344.281 211.445C344.043 211.395 343.797 211.369 343.559 211.369C343.16 211.369 342.769 211.369 342.369 211.369C341.979 211.369 341.605 211.717 341.622 212.132C341.639 212.547 341.953 212.895 342.369 212.895C342.769 212.895 343.16 212.903 343.559 212.895C343.797 212.895 344.052 212.861 344.281 212.818C344.502 212.768 344.689 212.657 344.884 212.547C345.19 212.361 345.19 211.912 344.884 211.725V211.717Z" fill="#FEBD42"/>
<path d="M351.257 211.818C351.155 211.665 351.045 211.547 350.875 211.47C350.679 211.386 350.51 211.343 350.289 211.335C350.093 211.335 349.889 211.318 349.694 211.335C349.286 211.352 348.87 211.36 348.462 211.377C348.079 211.386 347.714 211.708 347.731 212.114C347.748 212.521 348.054 212.843 348.462 212.852C348.87 212.869 349.286 212.877 349.694 212.894C349.889 212.894 350.093 212.894 350.289 212.894C350.501 212.894 350.679 212.843 350.875 212.759C351.036 212.691 351.155 212.564 351.257 212.411C351.359 212.259 351.359 211.979 351.257 211.826V211.818Z" fill="#FEBD42"/>
<path d="M5.65307 235.762C5.65307 235.236 5.2877 234.736 4.84587 234.762C4.40404 234.787 4.04717 235.202 4.03867 235.762C4.03867 236.27 4.01318 236.779 4.03867 237.287C4.05567 237.584 4.06416 237.932 4.14913 238.203C4.2341 238.474 4.30207 238.745 4.42103 238.991C4.59946 239.389 5.08378 239.389 5.26221 238.991C5.37267 238.745 5.44065 238.482 5.52561 238.228C5.61058 237.94 5.62758 237.592 5.64457 237.287C5.67006 236.779 5.64457 236.27 5.64457 235.762H5.65307Z" fill="#FEBD42"/>
<path d="M5.73294 243.557C5.73294 243.031 5.35908 242.531 4.92575 242.557C4.49241 242.582 4.11005 242.997 4.11855 243.557C4.11855 244.184 4.09306 244.82 4.12705 245.438C4.16953 246.142 4.22051 246.947 4.61986 247.498C4.7728 247.71 5.08719 247.71 5.24013 247.498C5.63948 246.947 5.69046 246.142 5.73294 245.438C5.76693 244.811 5.74144 244.175 5.74144 243.557H5.73294Z" fill="#FEBD42"/>
<path d="M3.26333 240.468C3.0764 240.349 2.88098 240.239 2.66006 240.196C2.42215 240.146 2.17574 240.12 1.93783 240.12C1.53848 240.12 1.14763 240.12 0.748278 240.12C0.357425 240.12 -0.0164356 240.468 0.00055804 240.883C0.0175517 241.298 0.331934 241.646 0.748278 241.646C1.14763 241.646 1.53848 241.654 1.93783 241.646C2.17574 241.646 2.43065 241.612 2.66006 241.569C2.88098 241.527 3.0679 241.408 3.26333 241.298C3.56922 241.112 3.56922 240.663 3.26333 240.476V240.468Z" fill="#FEBD42"/>
<path d="M9.64393 240.577C9.54197 240.424 9.43151 240.305 9.26158 240.229C9.06615 240.144 8.89621 240.102 8.67529 240.093C8.47987 240.093 8.27594 240.077 8.08052 240.093C7.67267 240.11 7.25633 240.119 6.84848 240.136C6.46613 240.144 6.10076 240.466 6.11776 240.873C6.13475 241.28 6.44064 241.602 6.84848 241.611C7.25633 241.628 7.67267 241.636 8.08052 241.653C8.27594 241.653 8.47987 241.653 8.67529 241.653C8.88772 241.653 9.06615 241.602 9.26158 241.517C9.42302 241.45 9.54197 241.322 9.64393 241.17C9.74589 241.017 9.74589 240.738 9.64393 240.585V240.577Z" fill="#FEBD42"/>
<path d="M131.032 1.00105C131.032 0.475568 130.667 -0.0244968 130.225 0.000929938C129.783 0.0263566 129.426 0.441666 129.418 1.00105C129.418 1.50959 129.392 2.01812 129.418 2.52666C129.435 2.8233 129.443 3.1708 129.528 3.44202C129.613 3.71324 129.681 3.98445 129.8 4.23024C129.978 4.62859 130.463 4.62859 130.641 4.23024C130.752 3.98445 130.82 3.72171 130.905 3.46745C130.989 3.17928 131.006 2.83178 131.023 2.52666C131.049 2.01812 131.023 1.50959 131.023 1.00105H131.032Z" fill="#FEBD42"/>
<path d="M131.124 8.79596C131.124 8.27048 130.75 7.77043 130.316 7.79585C129.883 7.82128 129.501 8.23657 129.509 8.79596C129.509 9.42315 129.484 10.0588 129.518 10.6775C129.56 11.381 129.603 12.1862 130.01 12.7371C130.163 12.949 130.478 12.949 130.631 12.7371C131.03 12.1862 131.081 11.381 131.124 10.6775C131.158 10.0503 131.132 9.41468 131.132 8.79596H131.124Z" fill="#FEBD42"/>
<path d="M128.642 5.70688C128.455 5.58822 128.26 5.47803 128.039 5.43565C127.801 5.3848 127.555 5.35938 127.317 5.35938C126.917 5.35938 126.527 5.35938 126.127 5.35938C125.736 5.35938 125.362 5.70687 125.379 6.12217C125.396 6.53747 125.711 6.88498 126.127 6.88498C126.527 6.88498 126.917 6.89345 127.317 6.88498C127.555 6.88498 127.81 6.85107 128.039 6.80869C128.26 6.76631 128.447 6.64766 128.642 6.53748C128.948 6.35102 128.948 5.90181 128.642 5.71535V5.70688Z" fill="#FEBD42"/>
<path d="M135.023 5.80803C134.921 5.65547 134.81 5.53681 134.64 5.46053C134.445 5.37577 134.275 5.33339 134.054 5.32492C133.859 5.32492 133.655 5.30797 133.459 5.32492C133.052 5.34187 132.635 5.35035 132.227 5.3673C131.845 5.37577 131.48 5.69785 131.497 6.10468C131.514 6.51151 131.82 6.83357 132.227 6.84205C132.635 6.859 133.052 6.86748 133.459 6.88443C133.655 6.88443 133.859 6.88443 134.054 6.88443C134.267 6.88443 134.445 6.83357 134.64 6.74882C134.802 6.68101 134.921 6.55388 135.023 6.40132C135.125 6.24876 135.125 5.96906 135.023 5.8165V5.80803Z" fill="#FEBD42"/>
<g style="mix-blend-mode:multiply" opacity="0.31">
<path d="M256.712 302.465C297.206 302.465 330.033 287.505 330.033 269.051C330.033 250.597 297.206 235.637 256.712 235.637C216.218 235.637 183.391 250.597 183.391 269.051C183.391 287.505 216.218 302.465 256.712 302.465Z" fill="#435529"/>
</g>
<path d="M308.95 248.523C298.201 236.785 274.645 228.609 247.288 228.609C219.931 228.609 196.375 236.765 185.626 248.523H179.41V262.815C179.41 281.7 209.796 297.002 247.288 297.002C284.78 297.002 315.165 281.7 315.165 262.815V248.523H308.95Z" fill="#DB9930"/>
<path d="M181.035 270.219C181.827 272.04 182.916 273.782 184.242 275.484V248.523H181.035V270.219Z" fill="#C97830"/>
<path d="M186.199 277.722C187.169 278.731 188.258 279.721 189.406 280.671V244.98C188.238 245.931 187.169 246.92 186.199 247.95V277.722Z" fill="#C97830"/>
<path d="M191.367 282.175C192.377 282.927 193.466 283.64 194.574 284.333V241.793H193.763C192.931 242.327 192.12 242.882 191.348 243.456V282.155L191.367 282.175Z" fill="#C97830"/>
<path d="M196.535 285.5C197.565 286.094 198.633 286.648 199.742 287.203V245.771H196.535V285.5Z" fill="#C97830"/>
<path d="M201.699 288.133C202.748 288.608 203.817 289.064 204.906 289.499V249.711H201.699V288.114V288.133Z" fill="#FAE745"/>
<path d="M206.867 290.271C207.916 290.667 208.985 291.043 210.074 291.399V253.689H206.867V290.271Z" fill="#C97830"/>
<path d="M212.035 292.033C213.084 292.349 214.153 292.666 215.242 292.963V257.648H212.035V292.033Z" fill="#C97830"/>
<path d="M217.199 293.459C218.248 293.716 219.337 293.974 220.406 294.211V261.608H217.199V293.459Z" fill="#C97830"/>
<path d="M222.367 294.607C223.436 294.825 224.505 295.023 225.574 295.201V265.567H222.367V294.607Z" fill="#C97830"/>
<path d="M227.531 295.537C228.6 295.695 229.669 295.854 230.738 295.992V269.546H227.531V295.557V295.537Z" fill="#FAE745"/>
<path d="M232.699 296.21C233.768 296.329 234.837 296.428 235.906 296.527V273.505H232.699V296.23V296.21Z" fill="#C97830"/>
<path d="M237.867 296.665C238.936 296.744 240.005 296.803 241.074 296.843V277.424H237.867V296.645V296.665Z" fill="#C97830"/>
<path d="M243.191 296.942C244.26 296.981 245.329 296.981 246.398 297.001V275.227H243.191V296.942Z" fill="#C97830"/>
<path d="M251.742 296.923V272.99H248.535V296.982C249.604 296.982 250.693 296.942 251.742 296.923Z" fill="#C97830"/>
<path d="M257.09 270.773H253.883V296.844C254.972 296.784 256.041 296.725 257.09 296.646V270.773Z" fill="#C97830"/>
<path d="M262.414 268.536H259.207V296.467C260.296 296.368 261.365 296.269 262.414 296.131V268.536Z" fill="#FAE745"/>
<path d="M267.738 266.32H264.531V295.894C265.62 295.755 266.689 295.597 267.738 295.419V266.3V266.32Z" fill="#C97830"/>
<path d="M273.062 264.082H269.855V295.061C270.944 294.864 272.013 294.666 273.062 294.448V264.082Z" fill="#C97830"/>
<path d="M278.406 261.865H275.199V293.993C276.288 293.755 277.357 293.478 278.406 293.201V261.865Z" fill="#C97830"/>
<path d="M283.734 259.628H280.527V292.627C281.616 292.31 282.685 291.993 283.734 291.656V259.628Z" fill="#C97830"/>
<path d="M289.058 257.411H285.852V290.964C286.94 290.588 288.009 290.172 289.058 289.776V257.431V257.411Z" fill="#C97830"/>
<path d="M294.402 255.175H291.195V288.886C292.304 288.411 293.373 287.916 294.402 287.421V255.175Z" fill="#C97830"/>
<path d="M299.726 252.957H296.52V286.351C297.628 285.758 298.717 285.164 299.726 284.53V252.957Z" fill="#FAE745"/>
<path d="M305.051 250.721H301.844V283.145C302.972 282.373 304.061 281.581 305.051 280.75V250.721Z" fill="#C97830"/>
<path d="M310.398 275.406V248.524H308.953C308.953 248.524 308.953 248.524 308.933 248.504H307.191V278.929C308.399 277.801 309.468 276.633 310.398 275.425V275.406Z" fill="#C97830"/>
<path d="M314.949 248.523H311.742V273.544C313.445 270.951 314.533 268.239 314.949 265.428V248.523Z" fill="#C97830"/>
<path d="M247.288 282.709C284.776 282.709 315.165 267.404 315.165 248.523C315.165 229.643 284.776 214.337 247.288 214.337C209.8 214.337 179.41 229.643 179.41 248.523C179.41 267.404 209.8 282.709 247.288 282.709Z" fill="#F0D138"/>
<path d="M274.209 217.128L179.41 248.385C179.41 248.385 179.41 248.484 179.41 248.523C179.41 255.214 183.231 261.449 189.822 266.715L303.387 229.282C296.182 223.957 286.067 219.721 274.209 217.128Z" fill="#FAE745"/>
<path d="M311.544 237.497C310.634 236.151 309.584 234.845 308.377 233.598L195.723 270.733C197.544 271.802 199.464 272.812 201.523 273.762L311.544 237.497Z" fill="#FAE745"/>
<path d="M314.019 254.758C314.652 253.036 315.028 251.254 315.127 249.453L221.793 280.215C225.039 280.888 228.424 281.422 231.908 281.818L314.019 254.758Z" fill="#FAE745"/>
<path d="M183.388 236.982C182.022 238.903 180.993 240.882 180.34 242.941L263.974 215.366C260.055 214.871 256.017 214.555 251.86 214.416L183.388 236.982Z" fill="#FAE745"/>
<path d="M265.46 252.403C268.133 253.71 269.479 254.363 272.131 255.669C269.597 256.738 268.33 257.273 265.836 258.322C263.164 257.016 261.798 256.362 259.106 255.036C254.118 256.639 248.238 257.59 242.795 257.708C241.548 255.927 240.934 255.016 239.707 253.215C245.744 253.136 252.771 251.928 256.236 250.463C258.809 249.375 259.581 248.266 257.958 247.454C252.752 244.861 238.46 253.73 227.691 248.385C222.881 245.97 223.296 242.743 228.522 239.715C226.048 238.448 224.841 237.814 222.445 236.567C224.999 235.498 226.286 234.964 228.879 233.875C231.254 235.122 232.462 235.736 234.896 237.003C239.251 235.538 244.279 234.548 248.793 234.172C249.862 235.993 250.416 236.904 251.544 238.745C246.101 239.338 240.142 240.526 237.351 241.674C235.233 242.565 234.56 243.495 235.926 244.188C240.914 246.702 255.919 237.775 266.885 243.337C272.25 246.009 270.726 249.493 265.44 252.383L265.46 252.403Z" fill="#DB9930"/>
<path d="M316.395 234.429C305.646 222.69 282.09 214.515 254.733 214.515C227.376 214.515 203.82 222.67 193.071 234.429H186.855V248.721C186.855 267.605 217.241 282.907 254.733 282.907C292.225 282.907 322.611 267.605 322.611 248.721V234.429H316.395Z" fill="#DB9930"/>
<path d="M188.477 256.105C189.268 257.926 190.357 259.668 191.683 261.37V234.409H188.477V256.105Z" fill="#C97830"/>
<path d="M193.645 263.627C194.614 264.637 195.703 265.626 196.851 266.576V230.886C195.683 231.836 194.614 232.826 193.645 233.855V263.627Z" fill="#C97830"/>
<path d="M198.809 268.08C199.818 268.833 200.907 269.545 202.016 270.238V227.698H201.204C200.373 228.233 199.561 228.787 198.789 229.361V268.061L198.809 268.08Z" fill="#C97830"/>
<path d="M203.977 271.406C205.006 272 206.075 272.554 207.183 273.108V231.677H203.977V271.406Z" fill="#C97830"/>
<path d="M209.145 274.039C210.194 274.514 211.263 274.969 212.351 275.405V235.616H209.145V274.019V274.039Z" fill="#FAE745"/>
<path d="M214.309 276.176C215.358 276.572 216.427 276.948 217.515 277.304V239.595H214.309V276.176Z" fill="#C97830"/>
<path d="M219.477 277.938C220.526 278.255 221.595 278.571 222.683 278.868V243.554H219.477V277.938Z" fill="#C97830"/>
<path d="M224.641 279.364C225.69 279.621 226.778 279.879 227.847 280.116V247.514H224.641V279.364Z" fill="#C97830"/>
<path d="M229.809 280.512C230.878 280.73 231.946 280.928 233.015 281.106V251.473H229.809V280.512Z" fill="#C97830"/>
<path d="M234.977 281.423C236.046 281.581 237.114 281.739 238.183 281.878V255.432H234.977V281.443V281.423Z" fill="#FAE745"/>
<path d="M240.141 282.096C241.21 282.214 242.278 282.313 243.347 282.412V259.391H240.141V282.116V282.096Z" fill="#C97830"/>
<path d="M245.309 282.57C246.378 282.649 247.446 282.709 248.515 282.748V263.329H245.309V282.55V282.57Z" fill="#C97830"/>
<path d="M250.652 282.828C251.721 282.867 252.79 282.867 253.859 282.887V261.112H250.652V282.828Z" fill="#C97830"/>
<path d="M259.187 282.828V258.896H255.98V282.887C257.049 282.887 258.138 282.848 259.187 282.828Z" fill="#C97830"/>
<path d="M264.527 256.658H261.32V282.728C262.409 282.669 263.478 282.61 264.527 282.531V256.658Z" fill="#C97830"/>
<path d="M269.855 254.441H266.648V282.372C267.737 282.273 268.806 282.174 269.855 282.036V254.441Z" fill="#FAE745"/>
<path d="M275.179 252.204H271.973V281.778C273.061 281.64 274.13 281.481 275.179 281.303V252.185V252.204Z" fill="#C97830"/>
<path d="M280.523 249.987H277.316V280.967C278.405 280.769 279.474 280.571 280.523 280.353V249.987Z" fill="#C97830"/>
<path d="M285.847 247.751H282.641V279.879C283.729 279.641 284.798 279.364 285.847 279.087V247.751Z" fill="#C97830"/>
<path d="M291.176 245.534H287.969V278.533C289.057 278.216 290.126 277.899 291.176 277.563V245.534Z" fill="#C97830"/>
<path d="M296.5 243.297H293.293V276.83C294.382 276.454 295.451 276.038 296.5 275.642V243.297Z" fill="#C97830"/>
<path d="M301.844 241.08H298.637V274.791C299.745 274.316 300.814 273.821 301.844 273.326V241.08Z" fill="#C97830"/>
<path d="M307.168 238.843H303.961V272.237C305.069 271.643 306.158 271.05 307.168 270.416V238.843Z" fill="#FAE745"/>
<path d="M312.492 236.626H309.285V269.05C310.413 268.278 311.502 267.487 312.492 266.655V236.626Z" fill="#C97830"/>
<path d="M317.84 261.311V234.429H316.395C316.395 234.429 316.395 234.429 316.375 234.409H314.633V264.815C315.84 263.686 316.909 262.518 317.84 261.311Z" fill="#C97830"/>
<path d="M322.39 234.429H319.184V259.45C320.886 256.857 321.975 254.145 322.39 251.334V234.429Z" fill="#C97830"/>
<path d="M254.733 268.615C292.221 268.615 322.611 253.309 322.611 234.428C322.611 215.548 292.221 200.242 254.733 200.242C217.245 200.242 186.855 215.548 186.855 234.428C186.855 253.309 217.245 268.615 254.733 268.615Z" fill="#F0D138"/>
<path d="M281.655 203.033L186.855 234.29C186.855 234.29 186.855 234.389 186.855 234.428C186.855 241.119 190.676 247.355 197.268 252.62L310.833 215.187C303.627 209.863 293.512 205.626 281.655 203.033Z" fill="#FAE745"/>
<path d="M318.99 223.403C318.079 222.057 317.03 220.75 315.822 219.503L203.168 256.639C204.989 257.708 206.909 258.717 208.968 259.667L318.99 223.403Z" fill="#FAE745"/>
<path d="M321.464 240.663C322.097 238.941 322.474 237.16 322.572 235.358L229.238 266.12C232.485 266.793 235.87 267.328 239.354 267.723L321.464 240.663Z" fill="#FAE745"/>
<path d="M190.834 222.888C189.468 224.808 188.438 226.787 187.785 228.846L271.42 201.271C267.5 200.777 263.462 200.46 259.305 200.321L190.834 222.888Z" fill="#FAE745"/>
<path d="M272.906 238.309C275.578 239.615 276.924 240.268 279.577 241.575C277.043 242.644 275.776 243.178 273.282 244.227C270.609 242.921 269.243 242.268 266.551 240.941C261.563 242.545 255.684 243.495 250.24 243.614C248.993 241.832 248.379 240.922 247.152 239.12C253.19 239.041 260.217 237.833 263.681 236.369C266.254 235.28 267.026 234.171 265.403 233.36C260.197 230.767 245.905 239.635 235.136 234.29C230.326 231.875 230.742 228.649 235.968 225.62C233.493 224.353 232.286 223.72 229.891 222.472C232.444 221.404 233.731 220.869 236.324 219.78C238.699 221.027 239.907 221.641 242.342 222.908C246.697 221.443 251.725 220.453 256.238 220.077C257.307 221.898 257.861 222.809 258.99 224.65C253.546 225.244 247.588 226.431 244.796 227.58C242.678 228.47 242.005 229.401 243.371 230.094C248.36 232.608 263.364 223.68 274.331 229.242C279.695 231.915 278.171 235.399 272.886 238.289L272.906 238.309Z" fill="#DB9930"/>
<path d="M306.477 213.09C295.728 201.351 272.172 193.176 244.815 193.176C217.458 193.176 193.902 201.331 183.153 213.09H176.938V227.382C176.938 246.266 207.323 261.568 244.815 261.568C282.307 261.568 312.693 246.266 312.693 227.382V213.09H306.477Z" fill="#DB9930"/>
<path d="M178.559 234.785C179.35 236.606 180.439 238.348 181.765 240.051V213.09H178.559V234.785Z" fill="#C97830"/>
<path d="M183.727 242.288C184.697 243.298 185.785 244.287 186.933 245.238V209.547C185.765 210.497 184.697 211.487 183.727 212.516V242.288Z" fill="#C97830"/>
<path d="M188.891 246.742C189.9 247.494 190.989 248.206 192.098 248.899V206.359H191.286C190.455 206.894 189.643 207.448 188.871 208.022V246.722L188.891 246.742Z" fill="#C97830"/>
<path d="M194.059 250.067C195.088 250.661 196.157 251.215 197.265 251.769V210.338H194.059V250.067Z" fill="#C97830"/>
<path d="M199.227 252.719C200.276 253.194 201.345 253.65 202.433 254.085V214.297H199.227V252.699V252.719Z" fill="#FAE745"/>
<path d="M204.391 254.837C205.44 255.233 206.509 255.609 207.597 255.966V218.256H204.391V254.837Z" fill="#C97830"/>
<path d="M209.559 256.6C210.608 256.917 211.677 257.233 212.765 257.53V222.216H209.559V256.6Z" fill="#C97830"/>
<path d="M214.723 258.025C215.772 258.283 216.861 258.54 217.93 258.777V226.175H214.723V258.025Z" fill="#C97830"/>
<path d="M219.891 259.193C220.96 259.411 222.028 259.609 223.097 259.787V230.153H219.891V259.193Z" fill="#C97830"/>
<path d="M225.059 260.103C226.128 260.262 227.197 260.42 228.265 260.559V234.112H225.059V260.123V260.103Z" fill="#FAE745"/>
<path d="M230.223 260.776C231.292 260.895 232.361 260.994 233.429 261.093V238.071H230.223V260.796V260.776Z" fill="#C97830"/>
<path d="M235.391 261.231C236.46 261.31 237.529 261.37 238.597 261.409V241.99H235.391V261.211V261.231Z" fill="#C97830"/>
<path d="M240.715 261.509C241.784 261.549 242.853 261.549 243.922 261.569V239.794H240.715V261.509Z" fill="#C97830"/>
<path d="M249.269 261.489V237.557H246.062V261.548C247.131 261.548 248.22 261.509 249.269 261.489Z" fill="#C97830"/>
<path d="M254.594 235.34H251.387V261.41C252.475 261.351 253.544 261.291 254.594 261.212V235.34Z" fill="#C97830"/>
<path d="M259.937 233.103H256.73V261.034C257.819 260.935 258.888 260.836 259.937 260.697V233.083V233.103Z" fill="#FAE745"/>
<path d="M265.261 230.886H262.055V260.46C263.143 260.321 264.212 260.163 265.261 259.985V230.866V230.886Z" fill="#C97830"/>
<path d="M270.586 228.648H267.379V259.628C268.468 259.43 269.537 259.232 270.586 259.014V228.648Z" fill="#C97830"/>
<path d="M275.91 226.432H272.703V258.559C273.792 258.322 274.861 258.045 275.91 257.767V226.432Z" fill="#C97830"/>
<path d="M281.258 224.195H278.051V257.194C279.14 256.877 280.208 256.56 281.258 256.224V224.195Z" fill="#C97830"/>
<path d="M286.582 221.978H283.375V255.53C284.464 255.154 285.533 254.739 286.582 254.343V221.997V221.978Z" fill="#C97830"/>
<path d="M291.906 219.741H288.699V253.452C289.808 252.977 290.877 252.482 291.906 251.988V219.741Z" fill="#C97830"/>
<path d="M297.25 217.523H294.043V250.918C295.151 250.324 296.24 249.73 297.25 249.097V217.523Z" fill="#FAE745"/>
<path d="M302.574 215.287H299.367V247.712C300.496 246.94 301.584 246.148 302.574 245.316V215.287Z" fill="#C97830"/>
<path d="M307.902 239.972V213.09H306.457C306.457 213.09 306.457 213.09 306.437 213.07H304.695V243.495C305.903 242.367 306.972 241.199 307.902 239.992V239.972Z" fill="#C97830"/>
<path d="M312.453 213.09H309.246V238.111C310.948 235.518 312.037 232.806 312.453 229.995V213.09Z" fill="#C97830"/>
<path d="M244.815 247.276C282.303 247.276 312.693 231.97 312.693 213.09C312.693 194.209 282.303 178.903 244.815 178.903C207.327 178.903 176.938 194.209 176.938 213.09C176.938 231.97 207.327 247.276 244.815 247.276Z" fill="#F0D138"/>
<path d="M271.737 181.694L176.938 212.951C176.938 212.951 176.938 213.05 176.938 213.09C176.938 219.78 180.758 226.016 187.35 231.281L300.915 193.849C293.709 188.524 283.594 184.288 271.737 181.694Z" fill="#FAE745"/>
<path d="M309.052 202.064C308.141 200.718 307.092 199.411 305.885 198.164L193.23 235.3C195.052 236.369 196.972 237.378 199.03 238.328L309.052 202.064Z" fill="#FAE745"/>
<path d="M311.523 219.325C312.156 217.603 312.532 215.821 312.631 214.02L219.297 244.781C222.543 245.454 225.928 245.989 229.412 246.385L311.523 219.325Z" fill="#FAE745"/>
<path d="M180.916 201.549C179.55 203.469 178.52 205.449 177.867 207.507L261.502 179.933C257.582 179.438 253.544 179.121 249.387 178.982L180.916 201.549Z" fill="#FAE745"/>
<path d="M262.988 216.97C265.66 218.276 267.006 218.929 269.658 220.236C267.125 221.305 265.858 221.839 263.364 222.888C260.691 221.582 259.325 220.929 256.633 219.602C251.645 221.206 245.766 222.156 240.322 222.275C239.075 220.493 238.461 219.583 237.234 217.781C243.272 217.702 250.299 216.495 253.763 215.03C256.336 213.941 257.108 212.833 255.485 212.021C250.279 209.428 235.987 218.296 225.218 212.951C220.408 210.536 220.824 207.31 226.05 204.281C223.575 203.014 222.368 202.381 219.973 201.134C222.526 200.065 223.813 199.53 226.406 198.441C228.782 199.689 229.989 200.302 232.424 201.569C236.779 200.104 241.807 199.114 246.32 198.738C247.389 200.56 247.943 201.47 249.072 203.311C243.628 203.905 237.67 205.093 234.878 206.241C232.76 207.131 232.087 208.062 233.453 208.755C238.442 211.269 253.446 202.341 264.413 207.903C269.777 210.576 268.253 214.06 262.968 216.95L262.988 216.97Z" fill="#DB9930"/>
<path d="M308.95 193.632C298.201 181.893 274.645 173.718 247.288 173.718C219.931 173.718 196.375 181.873 185.626 193.632H179.41V207.924C179.41 226.808 209.796 242.11 247.288 242.11C284.78 242.11 315.165 226.808 315.165 207.924V193.632H308.95Z" fill="#DB9930"/>
<path d="M181.035 215.327C181.827 217.148 182.916 218.89 184.242 220.593V193.632H181.035V215.327Z" fill="#C97830"/>
<path d="M186.199 222.829C187.169 223.839 188.258 224.828 189.406 225.779V190.088C188.238 191.038 187.169 192.028 186.199 193.057V222.829Z" fill="#C97830"/>
<path d="M191.367 227.303C192.377 228.055 193.466 228.768 194.574 229.461V186.921H193.763C192.931 187.455 192.12 188.01 191.348 188.584V227.283L191.367 227.303Z" fill="#C97830"/>
<path d="M196.535 230.609C197.565 231.203 198.633 231.757 199.742 232.311V190.88H196.535V230.609Z" fill="#C97830"/>
<path d="M201.699 233.261C202.748 233.736 203.817 234.192 204.906 234.627V194.839H201.699V233.241V233.261Z" fill="#FAE745"/>
<path d="M206.867 235.399C207.916 235.795 208.985 236.171 210.074 236.527V198.817H206.867V235.399Z" fill="#C97830"/>
<path d="M212.035 237.161C213.084 237.477 214.153 237.794 215.242 238.091V202.776H212.035V237.161Z" fill="#C97830"/>
<path d="M217.199 238.587C218.248 238.844 219.337 239.101 220.406 239.339V206.736H217.199V238.587Z" fill="#C97830"/>
<path d="M222.367 239.735C223.436 239.953 224.505 240.151 225.574 240.329V210.695H222.367V239.735Z" fill="#C97830"/>
<path d="M227.531 240.645C228.6 240.804 229.669 240.962 230.738 241.101V214.654H227.531V240.665V240.645Z" fill="#FAE745"/>
<path d="M232.699 241.318C233.768 241.437 234.837 241.536 235.906 241.635V218.613H232.699V241.338V241.318Z" fill="#C97830"/>
<path d="M237.867 241.794C238.936 241.873 240.005 241.932 241.074 241.972V222.553H237.867V241.774V241.794Z" fill="#C97830"/>
<path d="M243.191 242.05C244.26 242.09 245.329 242.09 246.398 242.11V220.335H243.191V242.05Z" fill="#C97830"/>
<path d="M251.742 242.031V218.099H248.535V242.09C249.604 242.09 250.693 242.051 251.742 242.031Z" fill="#C97830"/>
<path d="M257.09 215.881H253.883V241.951C254.972 241.892 256.041 241.832 257.09 241.753V215.881Z" fill="#C97830"/>
<path d="M262.414 213.664H259.207V241.595C260.296 241.496 261.365 241.397 262.414 241.259V213.664Z" fill="#FAE745"/>
<path d="M267.738 211.427H264.531V241.001C265.62 240.862 266.689 240.704 267.738 240.526V211.407V211.427Z" fill="#C97830"/>
<path d="M273.062 209.21H269.855V240.189C270.944 239.991 272.013 239.793 273.062 239.576V209.21Z" fill="#C97830"/>
<path d="M278.406 206.974H275.199V239.101C276.288 238.844 277.357 238.587 278.406 238.309V206.974Z" fill="#C97830"/>
<path d="M283.734 204.757H280.527V237.755C281.616 237.439 282.685 237.122 283.734 236.785V204.757Z" fill="#C97830"/>
<path d="M289.058 202.52H285.852V236.053C286.94 235.676 288.009 235.261 289.058 234.865V202.52Z" fill="#C97830"/>
<path d="M294.402 200.303H291.195V234.014C292.304 233.539 293.373 233.044 294.402 232.549V200.303Z" fill="#C97830"/>
<path d="M299.726 198.065H296.52V231.46C297.628 230.866 298.717 230.272 299.726 229.639V198.065Z" fill="#FAE745"/>
<path d="M305.051 195.849H301.844V228.273C302.972 227.501 304.061 226.709 305.051 225.878V195.849Z" fill="#C97830"/>
<path d="M310.398 220.513V193.631H308.953C308.953 193.631 308.953 193.631 308.933 193.611H307.191V224.017C308.399 222.888 309.468 221.721 310.398 220.513Z" fill="#C97830"/>
<path d="M314.949 193.632H311.742V218.653C313.445 216.06 314.533 213.348 314.949 210.537V193.632Z" fill="#C97830"/>
<path d="M247.288 227.818C284.776 227.818 315.165 212.512 315.165 193.632C315.165 174.751 284.776 159.445 247.288 159.445C209.8 159.445 179.41 174.751 179.41 193.632C179.41 212.512 209.8 227.818 247.288 227.818Z" fill="#F0D138"/>
<path d="M274.209 162.256L179.41 193.512C179.41 193.512 179.41 193.611 179.41 193.651C179.41 200.342 183.231 206.577 189.822 211.843L303.387 174.41C296.182 169.085 286.067 164.849 274.209 162.256Z" fill="#FAE745"/>
<path d="M311.544 182.625C310.634 181.279 309.584 179.973 308.377 178.726L195.723 215.861C197.544 216.93 199.464 217.94 201.523 218.89L311.544 182.625Z" fill="#FAE745"/>
<path d="M314.019 199.867C314.652 198.144 315.028 196.363 315.127 194.562L221.793 225.323C225.039 225.996 228.424 226.531 231.908 226.927L314.019 199.867Z" fill="#FAE745"/>
<path d="M183.388 182.11C182.022 184.031 180.993 186.01 180.34 188.069L263.974 160.494C260.055 159.999 256.017 159.683 251.86 159.544L183.388 182.11Z" fill="#FAE745"/>
<path d="M265.46 197.512C268.133 198.818 269.479 199.471 272.131 200.778C269.597 201.847 268.33 202.381 265.836 203.43C263.164 202.124 261.798 201.471 259.106 200.144C254.118 201.748 248.238 202.698 242.795 202.817C241.548 201.035 240.934 200.125 239.707 198.323C245.744 198.244 252.771 197.037 256.236 195.572C258.809 194.483 259.581 193.374 257.958 192.563C252.752 189.97 238.46 198.838 227.691 193.493C222.881 191.078 223.296 187.852 228.522 184.823C226.048 183.556 224.841 182.923 222.445 181.676C224.999 180.607 226.286 180.072 228.879 178.983C231.254 180.23 232.462 180.844 234.896 182.111C239.251 180.646 244.279 179.656 248.793 179.28C249.862 181.101 250.416 182.012 251.544 183.853C246.101 184.447 240.142 185.635 237.351 186.783C235.233 187.673 234.56 188.604 235.926 189.297C240.914 191.811 255.919 182.883 266.885 188.445C272.25 191.118 270.726 194.602 265.44 197.492L265.46 197.512Z" fill="#DB9930"/>
<path d="M316.395 179.537C305.646 167.798 282.09 159.623 254.733 159.623C227.376 159.623 203.82 167.779 193.071 179.537H186.855V193.829C186.855 212.714 217.241 228.015 254.733 228.015C292.225 228.015 322.611 212.714 322.611 193.829V179.537H316.395Z" fill="#DB9930"/>
<path d="M188.477 201.233C189.268 203.054 190.357 204.796 191.683 206.498V179.537H188.477V201.233Z" fill="#C97830"/>
<path d="M193.645 208.734C194.614 209.744 195.703 210.734 196.851 211.684V175.993C195.683 176.943 194.614 177.933 193.645 178.962V208.734Z" fill="#C97830"/>
<path d="M198.809 213.208C199.818 213.961 200.907 214.673 202.016 215.366V172.826H201.204C200.373 173.361 199.561 173.915 198.789 174.489V213.189L198.809 213.208Z" fill="#C97830"/>
<path d="M203.977 216.514C205.006 217.108 206.075 217.662 207.183 218.216V176.785H203.977V216.514Z" fill="#C97830"/>
<path d="M209.145 219.167C210.194 219.642 211.263 220.097 212.351 220.532V180.744H209.145V219.147V219.167Z" fill="#FAE745"/>
<path d="M214.309 221.304C215.358 221.7 216.427 222.076 217.515 222.432V184.723H214.309V221.304Z" fill="#C97830"/>
<path d="M219.477 223.046C220.526 223.363 221.595 223.68 222.683 223.977V188.662H219.477V223.046Z" fill="#C97830"/>
<path d="M224.641 224.472C225.69 224.729 226.778 224.986 227.847 225.224V192.621H224.641V224.472Z" fill="#C97830"/>
<path d="M229.809 225.64C230.878 225.858 231.946 226.056 233.015 226.234V196.601H229.809V225.64Z" fill="#C97830"/>
<path d="M234.977 226.551C236.046 226.709 237.114 226.867 238.183 227.006V200.56H234.977V226.57V226.551Z" fill="#FAE745"/>
<path d="M240.141 227.224C241.21 227.342 242.278 227.441 243.347 227.54V204.519H240.141V227.243V227.224Z" fill="#C97830"/>
<path d="M245.309 227.678C246.378 227.758 247.446 227.817 248.515 227.857V208.438H245.309V227.659V227.678Z" fill="#C97830"/>
<path d="M250.652 227.956C251.721 227.995 252.79 227.995 253.859 228.015V206.24H250.652V227.956Z" fill="#C97830"/>
<path d="M259.187 227.936V204.004H255.98V227.996C257.049 227.996 258.138 227.956 259.187 227.936Z" fill="#C97830"/>
<path d="M264.527 201.786H261.32V227.856C262.409 227.797 263.478 227.738 264.527 227.658V201.786Z" fill="#C97830"/>
<path d="M269.855 199.55H266.648V227.481C267.737 227.382 268.806 227.283 269.855 227.144V199.55Z" fill="#FAE745"/>
<path d="M275.179 197.332H271.973V226.906C273.061 226.768 274.13 226.609 275.179 226.431V197.312V197.332Z" fill="#C97830"/>
<path d="M280.523 195.096H277.316V226.075C278.405 225.877 279.474 225.679 280.523 225.462V195.096Z" fill="#C97830"/>
<path d="M285.847 192.879H282.641V225.006C283.729 224.749 284.798 224.492 285.847 224.215V192.879Z" fill="#C97830"/>
<path d="M291.176 190.642H287.969V223.64C289.057 223.323 290.126 223.007 291.176 222.67V190.642Z" fill="#C97830"/>
<path d="M296.5 188.425H293.293V221.958C294.382 221.582 295.451 221.166 296.5 220.77V188.425Z" fill="#C97830"/>
<path d="M301.844 186.188H298.637V219.899C299.745 219.424 300.814 218.929 301.844 218.434V186.188Z" fill="#C97830"/>
<path d="M307.168 183.971H303.961V217.365C305.069 216.771 306.158 216.177 307.168 215.544V183.971Z" fill="#FAE745"/>
<path d="M312.492 181.734H309.285V214.159C310.413 213.387 311.502 212.595 312.492 211.764V181.734Z" fill="#C97830"/>
<path d="M317.84 206.418V179.536H316.395C316.395 179.536 316.395 179.536 316.375 179.517H314.633V209.922C315.84 208.794 316.909 207.626 317.84 206.418Z" fill="#C97830"/>
<path d="M322.39 179.537H319.184V204.558C320.886 201.965 321.975 199.253 322.39 196.442V179.537Z" fill="#C97830"/>
<path d="M254.733 213.723C292.221 213.723 322.611 198.417 322.611 179.537C322.611 160.656 292.221 145.351 254.733 145.351C217.245 145.351 186.855 160.656 186.855 179.537C186.855 198.417 217.245 213.723 254.733 213.723Z" fill="#F0D138"/>
<path d="M281.655 148.142L186.855 179.398C186.855 179.398 186.855 179.497 186.855 179.537C186.855 186.228 190.676 192.463 197.268 197.729L310.833 160.296C303.627 154.971 293.512 150.735 281.655 148.142Z" fill="#FAE745"/>
<path d="M318.99 168.511C318.079 167.165 317.03 165.858 315.822 164.611L203.168 201.747C204.989 202.816 206.909 203.826 208.968 204.776L318.99 168.511Z" fill="#FAE745"/>
<path d="M321.464 185.772C322.097 184.05 322.474 182.268 322.572 180.467L229.238 211.229C232.485 211.902 235.87 212.436 239.354 212.832L321.464 185.772Z" fill="#FAE745"/>
<path d="M190.834 167.996C189.468 169.916 188.438 171.896 187.785 173.955L271.42 146.38C267.5 145.885 263.462 145.568 259.305 145.43L190.834 167.996Z" fill="#FAE745"/>
<path d="M272.906 183.417C275.578 184.723 276.924 185.377 279.577 186.683C277.043 187.752 275.776 188.287 273.282 189.336C270.609 188.029 269.243 187.376 266.551 186.05C261.563 187.653 255.684 188.603 250.24 188.722C248.993 186.94 248.379 186.03 247.152 184.229C253.19 184.149 260.217 182.942 263.681 181.477C266.254 180.388 267.026 179.28 265.403 178.468C260.197 175.875 245.905 184.743 235.136 179.399C230.326 176.983 230.742 173.757 235.968 170.728C233.493 169.461 232.286 168.828 229.891 167.581C232.444 166.512 233.731 165.977 236.324 164.889C238.699 166.136 239.907 166.749 242.342 168.016C246.697 166.551 251.725 165.562 256.238 165.186C257.307 167.007 257.861 167.917 258.99 169.758C253.546 170.352 247.588 171.54 244.796 172.688C242.678 173.579 242.005 174.509 243.371 175.202C248.36 177.716 263.364 168.788 274.331 174.351C279.695 177.023 278.171 180.507 272.886 183.397L272.906 183.417Z" fill="#DB9930"/>
<path d="M306.477 158.218C295.728 146.479 272.172 138.304 244.815 138.304C217.458 138.304 193.902 146.459 183.153 158.218H176.938V172.51C176.938 191.394 207.323 206.696 244.815 206.696C282.307 206.696 312.693 191.394 312.693 172.51V158.218H306.477Z" fill="#DB9930"/>
<path d="M178.559 179.894C179.35 181.715 180.439 183.457 181.765 185.159V158.198H178.559V179.894Z" fill="#C97830"/>
<path d="M183.727 187.416C184.697 188.426 185.785 189.415 186.933 190.365V154.675C185.765 155.625 184.697 156.615 183.727 157.644V187.416Z" fill="#C97830"/>
<path d="M188.891 191.869C189.9 192.622 190.989 193.334 192.098 194.027V151.487H191.286C190.455 152.022 189.643 152.576 188.871 153.15V191.85L188.891 191.869Z" fill="#C97830"/>
<path d="M194.059 195.195C195.088 195.789 196.157 196.343 197.265 196.897V155.466H194.059V195.195Z" fill="#C97830"/>
<path d="M199.227 197.828C200.276 198.303 201.345 198.758 202.433 199.194V159.405H199.227V197.808V197.828Z" fill="#FAE745"/>
<path d="M204.391 199.966C205.44 200.362 206.509 200.738 207.597 201.095V163.385H204.391V199.966Z" fill="#C97830"/>
<path d="M209.559 201.728C210.608 202.045 211.677 202.361 212.765 202.658V167.344H209.559V201.728Z" fill="#C97830"/>
<path d="M214.723 203.153C215.772 203.41 216.861 203.668 217.93 203.905V171.303H214.723V203.153Z" fill="#C97830"/>
<path d="M219.891 204.301C220.96 204.519 222.028 204.717 223.097 204.895V175.262H219.891V204.301Z" fill="#C97830"/>
<path d="M225.059 205.212C226.128 205.37 227.197 205.529 228.265 205.667V179.221H225.059V205.232V205.212Z" fill="#FAE745"/>
<path d="M230.223 205.885C231.292 206.004 232.361 206.103 233.429 206.201V183.18H230.223V205.905V205.885Z" fill="#C97830"/>
<path d="M235.391 206.36C236.46 206.439 237.529 206.499 238.597 206.538V187.119H235.391V206.34V206.36Z" fill="#C97830"/>
<path d="M240.715 206.617C241.784 206.656 242.853 206.656 243.922 206.676V184.901H240.715V206.617Z" fill="#C97830"/>
<path d="M249.269 206.617V182.685H246.062V206.676C247.131 206.676 248.22 206.637 249.269 206.617Z" fill="#C97830"/>
<path d="M254.594 180.447H251.387V206.518C252.475 206.458 253.544 206.399 254.594 206.32V180.447Z" fill="#C97830"/>
<path d="M259.937 178.23H256.73V206.161C257.819 206.063 258.888 205.964 259.937 205.825V178.23Z" fill="#FAE745"/>
<path d="M265.261 175.993H262.055V205.567C263.143 205.429 264.212 205.27 265.261 205.092V175.974V175.993Z" fill="#C97830"/>
<path d="M270.586 173.776H267.379V204.756C268.468 204.558 269.537 204.36 270.586 204.142V173.776Z" fill="#C97830"/>
<path d="M275.91 171.54H272.703V203.668C273.792 203.41 274.861 203.153 275.91 202.876V171.54Z" fill="#C97830"/>
<path d="M281.258 169.323H278.051V202.322C279.14 202.005 280.208 201.688 281.258 201.352V169.323Z" fill="#C97830"/>
<path d="M286.582 167.086H283.375V200.639C284.464 200.263 285.533 199.847 286.582 199.451V167.106V167.086Z" fill="#C97830"/>
<path d="M291.906 164.869H288.699V198.58C289.808 198.105 290.877 197.61 291.906 197.115V164.869Z" fill="#C97830"/>
<path d="M297.25 162.632H294.043V196.026C295.151 195.432 296.24 194.839 297.25 194.205V162.632Z" fill="#FAE745"/>
<path d="M302.574 160.415H299.367V192.84C300.496 192.068 301.584 191.276 302.574 190.444V160.415Z" fill="#C97830"/>
<path d="M307.902 185.1V158.218H306.457C306.457 158.218 306.457 158.218 306.437 158.198H304.695V188.623C305.903 187.495 306.972 186.327 307.902 185.12V185.1Z" fill="#C97830"/>
<path d="M312.453 158.218H309.246V183.239C310.948 180.646 312.037 177.934 312.453 175.123V158.218Z" fill="#C97830"/>
<path d="M244.815 192.404C282.303 192.404 312.693 177.098 312.693 158.218C312.693 139.337 282.303 124.031 244.815 124.031C207.327 124.031 176.938 139.337 176.938 158.218C176.938 177.098 207.327 192.404 244.815 192.404Z" fill="#F0D138"/>
<path d="M271.737 126.822L176.938 158.079C176.938 158.079 176.938 158.178 176.938 158.217C176.938 164.908 180.758 171.144 187.35 176.409L300.915 138.977C293.709 133.652 283.594 129.415 271.737 126.822Z" fill="#FAE745"/>
<path d="M309.052 147.192C308.141 145.846 307.092 144.539 305.885 143.292L193.23 180.428C195.052 181.497 196.972 182.506 199.03 183.456L309.052 147.192Z" fill="#FAE745"/>
<path d="M311.523 164.453C312.156 162.73 312.532 160.949 312.631 159.147L219.297 189.909C222.543 190.582 225.928 191.117 229.412 191.513L311.523 164.453Z" fill="#FAE745"/>
<path d="M180.916 146.677C179.55 148.597 178.52 150.576 177.867 152.635L261.502 125.061C257.582 124.566 253.544 124.249 249.387 124.11L180.916 146.677Z" fill="#FAE745"/>
<path d="M262.988 162.098C265.66 163.404 267.006 164.057 269.658 165.364C267.125 166.433 265.858 166.967 263.364 168.016C260.691 166.71 259.325 166.057 256.633 164.73C251.645 166.334 245.766 167.284 240.322 167.403C239.075 165.621 238.461 164.711 237.234 162.909C243.272 162.83 250.299 161.623 253.763 160.158C256.336 159.069 257.108 157.96 255.485 157.149C250.279 154.556 235.987 163.424 225.218 158.079C220.408 155.664 220.824 152.438 226.05 149.409C223.575 148.142 222.368 147.509 219.973 146.262C222.526 145.193 223.813 144.658 226.406 143.569C228.782 144.816 229.989 145.43 232.424 146.697C236.779 145.232 241.807 144.242 246.32 143.866C247.389 145.687 247.943 146.598 249.072 148.439C243.628 149.033 237.67 150.221 234.878 151.369C232.76 152.259 232.087 153.19 233.453 153.883C238.442 156.397 253.446 147.469 264.413 153.031C269.777 155.704 268.253 159.188 262.968 162.078L262.988 162.098Z" fill="#DB9930"/>
<path d="M308.95 138.76C298.201 127.021 274.645 118.846 247.288 118.846C219.931 118.846 196.375 127.001 185.626 138.76H179.41V153.052C179.41 171.936 209.796 187.238 247.288 187.238C284.78 187.238 315.165 171.936 315.165 153.052V138.76H308.95Z" fill="#DB9930"/>
<path d="M181.035 160.455C181.827 162.276 182.916 164.018 184.242 165.721V138.76H181.035V160.455Z" fill="#C97830"/>
<path d="M186.199 167.958C187.169 168.968 188.258 169.957 189.406 170.907V135.217C188.238 136.167 187.169 137.157 186.199 138.186V167.958Z" fill="#C97830"/>
<path d="M191.367 172.411C192.377 173.164 193.466 173.876 194.574 174.569V132.029H193.763C192.931 132.564 192.12 133.118 191.348 133.692V172.392L191.367 172.411Z" fill="#C97830"/>
<path d="M196.535 175.737C197.565 176.331 198.633 176.885 199.742 177.439V136.008H196.535V175.737Z" fill="#C97830"/>
<path d="M201.699 178.37C202.748 178.845 203.817 179.3 204.906 179.736V139.947H201.699V178.35V178.37Z" fill="#FAE745"/>
<path d="M206.867 180.507C207.916 180.903 208.985 181.279 210.074 181.636V143.926H206.867V180.507Z" fill="#C97830"/>
<path d="M212.035 182.269C213.084 182.586 214.153 182.902 215.242 183.199V147.885H212.035V182.269Z" fill="#C97830"/>
<path d="M217.199 183.695C218.248 183.952 219.337 184.21 220.406 184.447V151.845H217.199V183.695Z" fill="#C97830"/>
<path d="M222.367 184.843C223.436 185.061 224.505 185.259 225.574 185.437V155.804H222.367V184.843Z" fill="#C97830"/>
<path d="M227.531 185.773C228.6 185.932 229.669 186.09 230.738 186.229V159.782H227.531V185.773Z" fill="#FAE745"/>
<path d="M232.699 186.446C233.768 186.565 234.837 186.664 235.906 186.763V163.741H232.699V186.466V186.446Z" fill="#C97830"/>
<path d="M237.867 186.901C238.936 186.98 240.005 187.04 241.074 187.079V167.66H237.867V186.881V186.901Z" fill="#C97830"/>
<path d="M243.191 187.178C244.26 187.218 245.329 187.218 246.398 187.238V165.463H243.191V187.178Z" fill="#C97830"/>
<path d="M251.742 187.159V163.227H248.535V187.218C249.604 187.218 250.693 187.179 251.742 187.159Z" fill="#C97830"/>
<path d="M257.09 161.01H253.883V187.08C254.972 187.021 256.041 186.961 257.09 186.882V161.01Z" fill="#C97830"/>
<path d="M262.414 158.772H259.207V186.703C260.296 186.604 261.365 186.505 262.414 186.367V158.772Z" fill="#FAE745"/>
<path d="M267.738 156.556H264.531V186.13C265.62 185.991 266.689 185.833 267.738 185.655V156.536V156.556Z" fill="#C97830"/>
<path d="M273.062 154.318H269.855V185.298C270.944 185.1 272.013 184.902 273.062 184.684V154.318Z" fill="#C97830"/>
<path d="M278.406 152.102H275.199V184.229C276.288 183.992 277.357 183.714 278.406 183.437V152.102Z" fill="#C97830"/>
<path d="M283.734 149.865H280.527V182.864C281.616 182.547 282.685 182.23 283.734 181.894V149.865Z" fill="#C97830"/>
<path d="M289.058 147.647H285.852V181.18C286.94 180.804 288.009 180.389 289.058 179.993V147.647Z" fill="#C97830"/>
<path d="M294.402 145.411H291.195V179.122C292.304 178.647 293.373 178.152 294.402 177.657V145.411Z" fill="#C97830"/>
<path d="M299.726 143.193H296.52V176.588C297.628 175.994 298.717 175.4 299.726 174.767V143.193Z" fill="#FAE745"/>
<path d="M305.051 140.957H301.844V173.381C302.972 172.609 304.061 171.818 305.051 170.986V140.957Z" fill="#C97830"/>
<path d="M310.398 165.642V138.76H308.953C308.953 138.76 308.953 138.76 308.933 138.74H307.191V169.165C308.399 168.037 309.468 166.869 310.398 165.662V165.642Z" fill="#C97830"/>
<path d="M314.949 138.76H311.742V163.781C313.445 161.188 314.533 158.476 314.949 155.665V138.76Z" fill="#C97830"/>
<path d="M247.288 172.946C284.776 172.946 315.165 157.64 315.165 138.759C315.165 119.879 284.776 104.573 247.288 104.573C209.8 104.573 179.41 119.879 179.41 138.759C179.41 157.64 209.8 172.946 247.288 172.946Z" fill="#F0D138"/>
<path d="M274.209 107.364L179.41 138.621C179.41 138.621 179.41 138.72 179.41 138.759C179.41 145.45 183.231 151.686 189.822 156.951L303.387 119.518C296.182 114.194 286.067 109.957 274.209 107.364Z" fill="#FAE745"/>
<path d="M311.544 127.734C310.634 126.388 309.584 125.081 308.377 123.834L195.723 160.97C197.544 162.039 199.464 163.048 201.523 163.998L311.544 127.734Z" fill="#FAE745"/>
<path d="M314.019 144.995C314.652 143.272 315.028 141.491 315.127 139.689L221.793 170.451C225.039 171.124 228.424 171.659 231.908 172.055L314.019 144.995Z" fill="#FAE745"/>
<path d="M183.388 127.219C182.022 129.139 180.993 131.118 180.34 133.177L263.974 105.603C260.055 105.108 256.017 104.791 251.86 104.652L183.388 127.219Z" fill="#FAE745"/>
<path d="M265.46 142.64C268.133 143.946 269.479 144.599 272.131 145.906C269.597 146.975 268.33 147.509 265.836 148.558C263.164 147.252 261.798 146.599 259.106 145.272C254.118 146.876 248.238 147.826 242.795 147.945C241.548 146.163 240.934 145.253 239.707 143.451C245.744 143.372 252.771 142.165 256.236 140.7C258.809 139.611 259.581 138.502 257.958 137.691C252.752 135.098 238.46 143.966 227.691 138.621C222.881 136.206 223.296 132.98 228.522 129.951C226.048 128.684 224.841 128.051 222.445 126.803C224.999 125.735 226.286 125.2 228.879 124.111C231.254 125.358 232.462 125.972 234.896 127.239C239.251 125.774 244.279 124.784 248.793 124.408C249.862 126.229 250.416 127.14 251.544 128.981C246.101 129.575 240.142 130.763 237.351 131.911C235.233 132.801 234.56 133.732 235.926 134.425C240.914 136.939 255.919 128.011 266.885 133.573C272.25 136.246 270.726 139.73 265.44 142.62L265.46 142.64Z" fill="#DB9930"/>
<path d="M316.395 124.665C305.646 112.926 282.09 104.751 254.733 104.751C227.376 104.751 203.82 112.907 193.071 124.665H186.855V138.957C186.855 157.842 217.241 173.143 254.733 173.143C292.225 173.143 322.611 157.842 322.611 138.957V124.665H316.395Z" fill="#DB9930"/>
<path d="M188.477 146.341C189.268 148.162 190.357 149.904 191.683 151.607V124.646H188.477V146.341Z" fill="#C97830"/>
<path d="M193.645 153.862C194.614 154.872 195.703 155.862 196.851 156.812V121.121C195.683 122.071 194.614 123.061 193.645 124.09V153.862Z" fill="#C97830"/>
<path d="M198.809 158.317C199.818 159.069 200.907 159.782 202.016 160.474V117.935H201.204C200.373 118.469 199.561 119.023 198.789 119.597V158.297L198.809 158.317Z" fill="#C97830"/>
<path d="M203.977 161.642C205.006 162.236 206.075 162.79 207.183 163.344V121.913H203.977V161.642Z" fill="#C97830"/>
<path d="M209.145 164.275C210.194 164.75 211.263 165.205 212.351 165.641V125.853H209.145V164.255V164.275Z" fill="#FAE745"/>
<path d="M214.309 166.413C215.358 166.808 216.427 167.185 217.515 167.541V129.831H214.309V166.413Z" fill="#C97830"/>
<path d="M219.477 168.174C220.526 168.491 221.595 168.808 222.683 169.105V133.79H219.477V168.174Z" fill="#C97830"/>
<path d="M224.641 169.6C225.69 169.858 226.778 170.115 227.847 170.353V137.75H224.641V169.6Z" fill="#C97830"/>
<path d="M229.809 170.749C230.878 170.966 231.946 171.164 233.015 171.342V141.709H229.809V170.749Z" fill="#C97830"/>
<path d="M234.977 171.659C236.046 171.817 237.114 171.976 238.183 172.114V145.668H234.977V171.679V171.659Z" fill="#FAE745"/>
<path d="M240.141 172.332C241.21 172.451 242.278 172.55 243.347 172.649V149.627H240.141V172.352V172.332Z" fill="#C97830"/>
<path d="M245.309 172.806C246.378 172.886 247.446 172.945 248.515 172.984V153.565H245.309V172.787V172.806Z" fill="#C97830"/>
<path d="M250.652 173.083C251.721 173.123 252.79 173.123 253.859 173.143V151.368H250.652V173.083Z" fill="#C97830"/>
<path d="M259.187 173.064V149.132H255.98V173.124C257.049 173.124 258.138 173.084 259.187 173.064Z" fill="#C97830"/>
<path d="M264.527 146.895H261.32V172.965C262.409 172.905 263.478 172.846 264.527 172.767V146.895Z" fill="#C97830"/>
<path d="M269.855 144.678H266.648V172.609C267.737 172.51 268.806 172.411 269.855 172.272V144.678Z" fill="#FAE745"/>
<path d="M275.179 142.441H271.973V172.015C273.061 171.876 274.13 171.718 275.179 171.54V142.421V142.441Z" fill="#C97830"/>
<path d="M280.523 140.224H277.316V171.203C278.405 171.005 279.474 170.807 280.523 170.589V140.224Z" fill="#C97830"/>
<path d="M285.847 137.987H282.641V170.115C283.729 169.877 284.798 169.6 285.847 169.323V137.987Z" fill="#C97830"/>
<path d="M291.176 135.77H287.969V168.768C289.057 168.451 290.126 168.135 291.176 167.798V135.77Z" fill="#C97830"/>
<path d="M296.5 133.533H293.293V167.066C294.382 166.69 295.451 166.274 296.5 165.879V133.533Z" fill="#C97830"/>
<path d="M301.844 131.316H298.637V165.028C299.745 164.552 300.814 164.058 301.844 163.563V131.316Z" fill="#C97830"/>
<path d="M307.168 129.079H303.961V162.474C305.069 161.88 306.158 161.286 307.168 160.652V129.079Z" fill="#FAE745"/>
<path d="M312.492 126.862H309.285V159.287C310.413 158.515 311.502 157.723 312.492 156.892V126.862Z" fill="#C97830"/>
<path d="M317.84 151.547V124.665H316.395C316.395 124.665 316.395 124.665 316.375 124.646H314.633V155.071C315.84 153.942 316.909 152.774 317.84 151.567V151.547Z" fill="#C97830"/>
<path d="M322.39 124.665H319.184V149.686C320.886 147.093 321.975 144.381 322.39 141.57V124.665Z" fill="#C97830"/>
<path d="M254.733 158.851C292.221 158.851 322.611 143.545 322.611 124.665C322.611 105.784 292.221 90.4785 254.733 90.4785C217.245 90.4785 186.855 105.784 186.855 124.665C186.855 143.545 217.245 158.851 254.733 158.851Z" fill="#F0D138"/>
<path d="M281.655 93.2695L186.855 124.526C186.855 124.526 186.855 124.625 186.855 124.665C186.855 131.355 190.676 137.591 197.268 142.856L310.833 105.424C303.627 100.099 293.512 95.8627 281.655 93.2695Z" fill="#FAE745"/>
<path d="M318.99 113.639C318.079 112.293 317.03 110.986 315.822 109.739L203.168 146.875C204.989 147.944 206.909 148.954 208.968 149.904L318.99 113.639Z" fill="#FAE745"/>
<path d="M321.464 130.9C322.097 129.178 322.474 127.396 322.572 125.595L229.238 156.356C232.485 157.029 235.87 157.564 239.354 157.96L321.464 130.9Z" fill="#FAE745"/>
<path d="M190.834 113.124C189.468 115.044 188.438 117.024 187.785 119.082L271.42 91.5078C267.5 91.0129 263.462 90.6962 259.305 90.5576L190.834 113.124Z" fill="#FAE745"/>
<path d="M272.906 128.545C275.578 129.851 276.924 130.505 279.577 131.811C277.043 132.88 275.776 133.415 273.282 134.464C270.609 133.157 269.243 132.504 266.551 131.178C261.563 132.781 255.684 133.731 250.24 133.85C248.993 132.068 248.379 131.158 247.152 129.356C253.19 129.277 260.217 128.07 263.681 126.605C266.254 125.516 267.026 124.408 265.403 123.596C260.197 121.003 245.905 129.871 235.136 124.526C230.326 122.111 230.742 118.885 235.968 115.856C233.493 114.589 232.286 113.956 229.891 112.709C232.444 111.64 233.731 111.105 236.324 110.017C238.699 111.264 239.907 111.877 242.342 113.144C246.697 111.679 251.725 110.69 256.238 110.314C257.307 112.135 257.861 113.045 258.99 114.886C253.546 115.48 247.588 116.668 244.796 117.816C242.678 118.707 242.005 119.637 243.371 120.33C248.36 122.844 263.364 113.916 274.331 119.479C279.695 122.151 278.171 125.635 272.886 128.525L272.906 128.545Z" fill="#DB9930"/>
<path d="M306.477 103.326C295.728 91.5875 272.172 83.4121 244.815 83.4121C217.458 83.4121 193.902 91.5677 183.153 103.326H176.938V117.618C176.938 136.503 207.323 151.804 244.815 151.804C282.307 151.804 312.693 136.503 312.693 117.618V103.326H306.477Z" fill="#DB9930"/>
<path d="M178.559 125.022C179.35 126.843 180.439 128.585 181.765 130.287V103.326H178.559V125.022Z" fill="#C97830"/>
<path d="M183.727 132.524C184.697 133.534 185.785 134.524 186.933 135.474V99.7832C185.765 100.733 184.697 101.723 183.727 102.752V132.524Z" fill="#C97830"/>
<path d="M188.891 136.978C189.9 137.73 190.989 138.443 192.098 139.135V96.5957H191.286C190.455 97.1302 189.643 97.6844 188.871 98.2585V136.958L188.891 136.978Z" fill="#C97830"/>
<path d="M194.059 140.303C195.088 140.897 196.157 141.451 197.265 142.006V100.574H194.059V140.303Z" fill="#C97830"/>
<path d="M199.227 142.956C200.276 143.431 201.345 143.886 202.433 144.322V104.533H199.227V142.936V142.956Z" fill="#FAE745"/>
<path d="M204.391 145.074C205.44 145.47 206.509 145.846 207.597 146.202V108.492H204.391V145.074Z" fill="#C97830"/>
<path d="M209.559 146.836C210.608 147.153 211.677 147.47 212.765 147.767V112.452H209.559V146.836Z" fill="#C97830"/>
<path d="M214.723 148.262C215.772 148.519 216.861 148.776 217.93 149.014V116.411H214.723V148.262Z" fill="#C97830"/>
<path d="M219.891 149.429C220.96 149.647 222.028 149.845 223.097 150.023V120.39H219.891V149.429Z" fill="#C97830"/>
<path d="M225.059 150.34C226.128 150.498 227.197 150.656 228.265 150.795V124.349H225.059V150.36V150.34Z" fill="#FAE745"/>
<path d="M230.223 151.013C231.292 151.131 232.361 151.23 233.429 151.329V128.308H230.223V151.032V151.013Z" fill="#C97830"/>
<path d="M235.391 151.468C236.46 151.548 237.529 151.607 238.597 151.647V132.228H235.391V151.449V151.468Z" fill="#C97830"/>
<path d="M240.715 151.746C241.784 151.785 242.853 151.785 243.922 151.805V130.03H240.715V151.746Z" fill="#C97830"/>
<path d="M249.269 151.725V127.793H246.062V151.785C247.131 151.785 248.22 151.745 249.269 151.725Z" fill="#C97830"/>
<path d="M254.594 125.576H251.387V151.646C252.475 151.587 253.544 151.528 254.594 151.448V125.576Z" fill="#C97830"/>
<path d="M259.937 123.339H256.73V151.27C257.819 151.171 258.888 151.072 259.937 150.933V123.339Z" fill="#FAE745"/>
<path d="M265.261 121.122H262.055V150.696C263.143 150.558 264.212 150.399 265.261 150.221V121.103V121.122Z" fill="#C97830"/>
<path d="M270.586 118.885H267.379V149.864C268.468 149.666 269.537 149.468 270.586 149.251V118.885Z" fill="#C97830"/>
<path d="M275.91 116.668H272.703V148.796C273.792 148.538 274.861 148.281 275.91 148.004V116.668Z" fill="#C97830"/>
<path d="M281.258 114.432H278.051V147.43C279.14 147.113 280.208 146.797 281.258 146.46V114.432Z" fill="#C97830"/>
<path d="M286.582 112.214H283.375V145.747C284.464 145.371 285.533 144.955 286.582 144.559V112.214Z" fill="#C97830"/>
<path d="M291.906 109.978H288.699V143.689C289.808 143.214 290.877 142.719 291.906 142.224V109.978Z" fill="#C97830"/>
<path d="M297.25 107.76H294.043V141.154C295.151 140.56 296.24 139.967 297.25 139.333V107.76Z" fill="#FAE745"/>
<path d="M302.574 105.523H299.367V137.948C300.496 137.176 301.584 136.384 302.574 135.553V105.523Z" fill="#C97830"/>
<path d="M307.902 130.208V103.326H306.457C306.457 103.326 306.457 103.326 306.437 103.307H304.695V133.732C305.903 132.603 306.972 131.436 307.902 130.228V130.208Z" fill="#C97830"/>
<path d="M312.453 103.326H309.246V128.347C310.948 125.754 312.037 123.042 312.453 120.231V103.326Z" fill="#C97830"/>
<path d="M244.815 137.512C282.303 137.512 312.693 122.206 312.693 103.326C312.693 84.4453 282.303 69.1396 244.815 69.1396C207.327 69.1396 176.938 84.4453 176.938 103.326C176.938 122.206 207.327 137.512 244.815 137.512Z" fill="#F0D138"/>
<path d="M271.737 71.9307L176.938 103.187C176.938 103.187 176.938 103.286 176.938 103.326C176.938 110.017 180.758 116.252 187.35 121.518L300.915 84.0849C293.709 78.76 283.594 74.5238 271.737 71.9307Z" fill="#FAE745"/>
<path d="M309.052 92.3C308.141 90.954 307.092 89.6475 305.885 88.4004L193.23 125.536C195.052 126.605 196.972 127.615 199.03 128.565L309.052 92.3Z" fill="#FAE745"/>
<path d="M311.523 109.561C312.156 107.839 312.532 106.057 312.631 104.256L219.297 135.018C222.543 135.691 225.928 136.225 229.412 136.621L311.523 109.561Z" fill="#FAE745"/>
<path d="M180.916 91.7852C179.55 93.7054 178.52 95.6849 177.867 97.7436L261.502 70.1689C257.582 69.6741 253.544 69.3573 249.387 69.2188L180.916 91.7852Z" fill="#FAE745"/>
<g style="mix-blend-mode:multiply" opacity="0.31">
<path d="M97.9424 303C138.437 303 171.264 288.04 171.264 269.586C171.264 251.132 138.437 236.172 97.9424 236.172C57.4481 236.172 24.6211 251.132 24.6211 269.586C24.6211 288.04 57.4481 303 97.9424 303Z" fill="#435529"/>
</g>
<path d="M153.032 245.574C142.283 233.836 118.727 225.66 91.3698 225.66C64.0129 225.66 40.4567 233.816 29.7079 245.574H23.4922V259.866C23.4922 278.751 53.8778 294.053 91.3698 294.053C128.862 294.053 159.247 278.751 159.247 259.866V245.574H153.032Z" fill="#DB9930"/>
<path d="M25.1172 267.27C25.909 269.091 26.9977 270.833 28.324 272.535V245.574H25.1172V267.27Z" fill="#C97830"/>
<path d="M30.2852 274.771C31.2551 275.781 32.3439 276.771 33.492 277.721V242.03C32.3241 242.98 31.2551 243.97 30.2852 245V274.771Z" fill="#C97830"/>
<path d="M35.4495 279.245C36.459 279.998 37.5478 280.71 38.6563 281.403V238.863H37.8447C37.0133 239.398 36.2017 239.952 35.4297 240.526V279.226L35.4495 279.245Z" fill="#C97830"/>
<path d="M40.6172 282.571C41.6465 283.165 42.7155 283.719 43.824 284.273V242.842H40.6172V282.571Z" fill="#C97830"/>
<path d="M45.7812 285.204C46.8304 285.679 47.8993 286.134 48.9881 286.57V246.781H45.7812V285.184V285.204Z" fill="#FAE745"/>
<path d="M50.9492 287.341C51.9984 287.737 53.0673 288.113 54.156 288.47V250.76H50.9492V287.341Z" fill="#C97830"/>
<path d="M56.1172 289.104C57.1663 289.421 58.2353 289.737 59.324 290.034V254.72H56.1172V289.104Z" fill="#C97830"/>
<path d="M61.2812 290.529C62.3304 290.786 63.4191 291.044 64.4881 291.281V258.679H61.2812V290.529Z" fill="#C97830"/>
<path d="M66.4492 291.677C67.5182 291.895 68.5871 292.093 69.656 292.271V262.638H66.4492V291.677Z" fill="#C97830"/>
<path d="M71.6172 292.588C72.6861 292.746 73.7551 292.904 74.824 293.043V266.597H71.6172V292.608V292.588Z" fill="#FAE745"/>
<path d="M76.7812 293.261C77.8502 293.379 78.9191 293.478 79.9881 293.577V270.556H76.7812V293.28V293.261Z" fill="#C97830"/>
<path d="M81.9492 293.735C83.0182 293.814 84.0871 293.874 85.156 293.913V274.494H81.9492V293.715V293.735Z" fill="#C97830"/>
<path d="M87.2734 293.993C88.3424 294.032 89.4113 294.032 90.4802 294.052V272.277H87.2734V293.993Z" fill="#C97830"/>
<path d="M95.824 293.993V270.061H92.6172V294.052C93.6861 294.052 94.7749 294.013 95.824 293.993Z" fill="#C97830"/>
<path d="M101.152 267.823H97.9453V293.893C99.034 293.834 100.103 293.775 101.152 293.696V267.823Z" fill="#C97830"/>
<path d="M106.496 265.606H103.289V293.537C104.378 293.438 105.447 293.339 106.496 293.201V265.606Z" fill="#FAE745"/>
<path d="M111.82 263.369H108.613V292.943C109.702 292.805 110.771 292.646 111.82 292.468V263.35V263.369Z" fill="#C97830"/>
<path d="M117.144 261.152H113.938V292.132C115.026 291.934 116.095 291.736 117.144 291.518V261.152Z" fill="#C97830"/>
<path d="M122.469 258.916H119.262V291.044C120.35 290.806 121.419 290.529 122.469 290.252V258.916Z" fill="#C97830"/>
<path d="M127.812 256.699H124.605V289.698C125.694 289.381 126.763 289.064 127.812 288.728V256.699Z" fill="#C97830"/>
<path d="M133.14 254.462H129.934V287.995C131.022 287.619 132.091 287.203 133.14 286.807V254.462Z" fill="#C97830"/>
<path d="M138.465 252.245H135.258V285.956C136.366 285.481 137.435 284.986 138.465 284.491V252.245Z" fill="#C97830"/>
<path d="M143.808 250.008H140.602V283.402C141.71 282.808 142.799 282.215 143.808 281.581V250.008Z" fill="#FAE745"/>
<path d="M149.133 247.791H145.926V280.215C147.054 279.443 148.143 278.652 149.133 277.82V247.791Z" fill="#C97830"/>
<path d="M154.461 272.455V245.573H153.016C153.016 245.573 153.016 245.574 152.996 245.554H151.254V275.979C152.461 274.851 153.53 273.683 154.461 272.475V272.455Z" fill="#C97830"/>
<path d="M159.012 245.574H155.805V270.595C157.507 268.002 158.596 265.29 159.012 262.479V245.574Z" fill="#C97830"/>
<path d="M91.3698 279.76C128.858 279.76 159.247 264.454 159.247 245.574C159.247 226.693 128.858 211.388 91.3698 211.388C53.8821 211.388 23.4922 226.693 23.4922 245.574C23.4922 264.454 53.8821 279.76 91.3698 279.76Z" fill="#F0D138"/>
<path d="M118.291 214.198L23.4922 245.455C23.4922 245.455 23.4922 245.554 23.4922 245.593C23.4922 252.284 27.3127 258.52 33.9045 263.785L147.469 226.352C140.264 221.028 130.149 216.791 118.291 214.198Z" fill="#FAE745"/>
<path d="M155.607 234.568C154.696 233.222 153.647 231.915 152.439 230.668L39.7852 267.804C41.6063 268.873 43.5264 269.882 45.5851 270.832L155.607 234.568Z" fill="#FAE745"/>
<path d="M158.081 251.809C158.715 250.087 159.091 248.305 159.19 246.504L65.8555 277.266C69.1019 277.939 72.4869 278.473 75.9708 278.869L158.081 251.809Z" fill="#FAE745"/>
<path d="M27.4703 234.053C26.1045 235.973 25.0751 237.952 24.4219 240.011L108.056 212.437C104.137 211.942 100.099 211.625 95.9418 211.486L27.4703 234.053Z" fill="#FAE745"/>
<path d="M109.542 249.454C112.215 250.761 113.561 251.414 116.213 252.72C113.679 253.789 112.413 254.324 109.918 255.373C107.246 254.066 105.88 253.413 103.188 252.087C98.1996 253.69 92.3204 254.64 86.8768 254.759C85.6297 252.978 85.016 252.067 83.7887 250.266C89.8263 250.187 96.8535 248.979 100.318 247.514C102.891 246.425 103.663 245.317 102.04 244.505C96.8338 241.912 82.5416 250.78 71.7731 245.436C66.9628 243.021 67.3785 239.794 72.6045 236.765C70.1301 235.498 68.9226 234.865 66.5273 233.618C69.0809 232.549 70.3676 232.015 72.9608 230.926C75.3362 232.173 76.5437 232.787 78.9785 234.053C83.3334 232.589 88.3614 231.599 92.8747 231.223C93.9437 233.044 94.4979 233.954 95.6262 235.795C90.1826 236.389 84.2242 237.577 81.4331 238.725C79.315 239.616 78.642 240.546 80.0079 241.239C84.9962 243.753 100.001 234.825 110.967 240.388C116.332 243.06 114.808 246.544 109.522 249.434L109.542 249.454Z" fill="#DB9930"/>
<path d="M160.477 231.48C149.728 219.742 126.172 211.566 98.8151 211.566C71.4582 211.566 47.902 219.722 37.1532 231.48H30.9375V245.772C30.9375 264.657 61.3231 279.959 98.8151 279.959C136.307 279.959 166.693 264.657 166.693 245.772V231.48H160.477Z" fill="#DB9930"/>
<path d="M32.5586 253.176C33.3504 254.997 34.4391 256.739 35.7654 258.441V231.48H32.5586V253.176Z" fill="#C97830"/>
<path d="M37.7266 260.678C38.6965 261.687 39.7853 262.677 40.9334 263.627V227.937C39.7655 228.887 38.6965 229.876 37.7266 230.906V260.678Z" fill="#C97830"/>
<path d="M42.8909 265.152C43.9004 265.904 44.9892 266.616 46.0977 267.309V224.77H45.2861C44.4547 225.304 43.6431 225.858 42.8711 226.432V265.132L42.8909 265.152Z" fill="#C97830"/>
<path d="M48.0586 268.457C49.0879 269.051 50.1569 269.606 51.2654 270.16V228.729H48.0586V268.457Z" fill="#C97830"/>
<path d="M53.2266 271.11C54.2757 271.585 55.3447 272.04 56.4334 272.476V232.688H53.2266V271.09V271.11Z" fill="#FAE745"/>
<path d="M58.3906 273.248C59.4398 273.643 60.5087 274.02 61.5974 274.376V236.666H58.3906V273.248Z" fill="#C97830"/>
<path d="M63.5586 274.99C64.6077 275.306 65.6767 275.623 66.7654 275.92V240.605H63.5586V274.99Z" fill="#C97830"/>
<path d="M68.7227 276.415C69.7718 276.672 70.8605 276.93 71.9295 277.167V244.564H68.7227V276.415Z" fill="#C97830"/>
<path d="M73.8906 277.583C74.9596 277.801 76.0285 277.999 77.0974 278.177V248.544H73.8906V277.583Z" fill="#C97830"/>
<path d="M79.0586 278.494C80.1275 278.652 81.1965 278.811 82.2654 278.949V252.503H79.0586V278.514V278.494Z" fill="#FAE745"/>
<path d="M84.2227 279.167C85.2916 279.286 86.3605 279.385 87.4295 279.484V256.462H84.2227V279.187V279.167Z" fill="#C97830"/>
<path d="M89.3906 279.641C90.4596 279.72 91.5285 279.78 92.5974 279.819V260.4H89.3906V279.621V279.641Z" fill="#C97830"/>
<path d="M94.7148 279.899C95.7838 279.938 96.8527 279.938 97.9217 279.958V258.184H94.7148V279.899Z" fill="#C97830"/>
<path d="M103.265 279.88V255.947H100.059V279.939C101.128 279.939 102.216 279.899 103.265 279.88Z" fill="#C97830"/>
<path d="M108.594 253.729H105.387V279.8C106.475 279.74 107.544 279.681 108.594 279.602V253.729Z" fill="#C97830"/>
<path d="M113.937 251.493H110.73V279.424C111.819 279.325 112.888 279.226 113.937 279.088V251.493Z" fill="#FAE745"/>
<path d="M119.261 249.276H116.055V278.85C117.143 278.711 118.212 278.553 119.261 278.375V249.256V249.276Z" fill="#C97830"/>
<path d="M124.586 247.039H121.379V278.018C122.468 277.821 123.537 277.623 124.586 277.405V247.039Z" fill="#C97830"/>
<path d="M129.929 244.822H126.723V276.95C127.811 276.712 128.88 276.435 129.929 276.158V244.822Z" fill="#C97830"/>
<path d="M135.254 242.585H132.047V275.583C133.136 275.267 134.205 274.95 135.254 274.614V242.585Z" fill="#C97830"/>
<path d="M140.582 240.368H137.375V273.901C138.464 273.525 139.533 273.109 140.582 272.713V240.368Z" fill="#C97830"/>
<path d="M145.906 238.131H142.699V271.842C143.808 271.367 144.877 270.872 145.906 270.377V238.131Z" fill="#C97830"/>
<path d="M151.25 235.914H148.043V269.309C149.151 268.715 150.24 268.121 151.25 267.487V235.914Z" fill="#FAE745"/>
<path d="M156.574 233.678H153.367V266.102C154.496 265.33 155.584 264.538 156.574 263.707V233.678Z" fill="#C97830"/>
<path d="M161.902 258.362V231.48H160.457C160.457 231.48 160.457 231.48 160.437 231.46H158.695V261.885C159.903 260.757 160.972 259.589 161.902 258.381V258.362Z" fill="#C97830"/>
<path d="M166.453 231.48H163.246V256.502C164.948 253.908 166.037 251.196 166.453 248.386V231.48Z" fill="#C97830"/>
<path d="M98.8151 265.666C136.303 265.666 166.693 250.361 166.693 231.48C166.693 212.6 136.303 197.294 98.8151 197.294C61.3274 197.294 30.9375 212.6 30.9375 231.48C30.9375 250.361 61.3274 265.666 98.8151 265.666Z" fill="#F0D138"/>
<path d="M125.737 200.085L30.9375 231.342C30.9375 231.342 30.9375 231.44 30.9375 231.48C30.9375 238.171 34.758 244.406 41.3498 249.672L154.915 212.239C147.709 206.914 137.594 202.678 125.737 200.085Z" fill="#FAE745"/>
<path d="M163.052 220.454C162.141 219.108 161.092 217.802 159.885 216.555L47.2305 253.69C49.0516 254.759 50.9718 255.769 53.0305 256.719L163.052 220.454Z" fill="#FAE745"/>
<path d="M165.546 237.715C166.179 235.993 166.556 234.212 166.655 232.41L73.3203 263.172C76.5667 263.845 79.9517 264.379 83.4356 264.775L165.546 237.715Z" fill="#FAE745"/>
<path d="M34.9156 219.959C33.5498 221.879 32.5204 223.859 31.8672 225.917L115.502 198.343C111.582 197.848 107.544 197.531 103.387 197.393L34.9156 219.959Z" fill="#FAE745"/>
<path d="M116.988 235.36C119.66 236.667 121.006 237.32 123.659 238.627C121.125 239.695 119.858 240.23 117.364 241.279C114.691 239.973 113.325 239.319 110.633 237.993C105.645 239.596 99.7658 240.547 94.3221 240.665C93.075 238.884 92.4613 237.973 91.234 236.172C97.2716 236.093 104.299 234.885 107.763 233.42C110.336 232.332 111.108 231.223 109.485 230.412C104.279 227.818 89.987 236.687 79.2184 231.342C74.4082 228.927 74.8239 225.7 80.0498 222.672C77.5754 221.405 76.3679 220.771 73.9727 219.524C76.5262 218.455 77.8129 217.921 80.4061 216.832C82.7815 218.079 83.989 218.693 86.4238 219.96C90.7788 218.495 95.8067 217.505 100.32 217.129C101.389 218.95 101.943 219.861 103.072 221.702C97.6279 222.295 91.6695 223.483 88.8784 224.631C86.7603 225.522 86.0873 226.452 87.4532 227.145C92.4416 229.659 107.446 220.732 118.413 226.294C123.777 228.966 122.253 232.45 116.968 235.341L116.988 235.36Z" fill="#DB9930"/>
<path d="M150.54 210.161C139.791 198.422 116.235 190.247 88.8776 190.247C61.5207 190.247 37.9645 198.403 27.2157 210.161H21V224.453C21 243.338 51.3856 258.639 88.8776 258.639C126.37 258.639 156.755 243.338 156.755 224.453V210.161H150.54Z" fill="#DB9930"/>
<path d="M22.6211 231.837C23.4129 233.658 24.5016 235.4 25.8279 237.103V210.142H22.6211V231.837Z" fill="#C97830"/>
<path d="M27.7891 239.358C28.759 240.368 29.8478 241.358 30.9959 242.308V206.617C29.828 207.567 28.759 208.557 27.7891 209.586V239.358Z" fill="#C97830"/>
<path d="M32.9534 243.813C33.9629 244.565 35.0517 245.278 36.1602 245.97V203.431H35.3486C34.5172 203.965 33.7056 204.519 32.9336 205.093V243.793L32.9534 243.813Z" fill="#C97830"/>
<path d="M38.1211 247.138C39.1504 247.732 40.2194 248.286 41.3279 248.841V207.409H38.1211V247.138Z" fill="#C97830"/>
<path d="M43.2891 249.771C44.3382 250.246 45.4072 250.701 46.4959 251.137V211.349H43.2891V249.751V249.771Z" fill="#FAE745"/>
<path d="M48.4531 251.909C49.5023 252.305 50.5712 252.681 51.6599 253.037V215.327H48.4531V251.909Z" fill="#C97830"/>
<path d="M53.6211 253.67C54.6702 253.987 55.7392 254.304 56.8279 254.601V219.286H53.6211V253.67Z" fill="#C97830"/>
<path d="M58.7852 255.096C59.8343 255.353 60.923 255.61 61.992 255.848V223.245H58.7852V255.096Z" fill="#C97830"/>
<path d="M63.9531 256.244C65.0221 256.461 66.091 256.659 67.1599 256.837V227.204H63.9531V256.244Z" fill="#C97830"/>
<path d="M69.1406 257.155C70.2096 257.313 71.2785 257.472 72.3474 257.61V231.164H69.1406V257.175V257.155Z" fill="#FAE745"/>
<path d="M74.3047 257.828C75.3736 257.947 76.4426 258.046 77.5115 258.145V235.123H74.3047V257.848V257.828Z" fill="#C97830"/>
<path d="M79.4727 258.302C80.5416 258.382 81.6105 258.441 82.6795 258.481V239.062H79.4727V258.283V258.302Z" fill="#C97830"/>
<path d="M84.7969 258.56C85.8658 258.6 86.9348 258.6 88.0037 258.619V236.845H84.7969V258.56Z" fill="#C97830"/>
<path d="M93.3514 258.56V234.628H90.1445V258.62C91.2135 258.62 92.3022 258.58 93.3514 258.56Z" fill="#C97830"/>
<path d="M98.6756 232.391H95.4688V258.461C96.5575 258.401 97.6264 258.342 98.6756 258.263V232.391Z" fill="#C97830"/>
<path d="M104 230.174H100.793V258.105C101.882 258.006 102.951 257.907 104 257.768V230.174Z" fill="#FAE745"/>
<path d="M109.344 227.937H106.137V257.511C107.225 257.372 108.294 257.214 109.344 257.036V227.917V227.937Z" fill="#C97830"/>
<path d="M114.668 225.72H111.461V256.699C112.55 256.501 113.619 256.303 114.668 256.086V225.72Z" fill="#C97830"/>
<path d="M119.992 223.483H116.785V255.611C117.874 255.354 118.943 255.096 119.992 254.819V223.483Z" fill="#C97830"/>
<path d="M125.32 221.266H122.113V254.264C123.202 253.947 124.271 253.631 125.32 253.294V221.266Z" fill="#C97830"/>
<path d="M130.664 219.029H127.457V252.562C128.546 252.186 129.615 251.77 130.664 251.375V219.029Z" fill="#C97830"/>
<path d="M135.988 216.812H132.781V250.524C133.89 250.049 134.959 249.554 135.988 249.059V216.812Z" fill="#C97830"/>
<path d="M141.312 214.575H138.105V247.97C139.214 247.376 140.303 246.782 141.312 246.148V214.575Z" fill="#FAE745"/>
<path d="M146.656 212.358H143.449V244.783C144.578 244.011 145.666 243.219 146.656 242.388V212.358Z" fill="#C97830"/>
<path d="M151.984 237.043V210.161H150.539C150.539 210.161 150.539 210.161 150.519 210.142H148.777V240.567C149.985 239.438 151.054 238.271 151.984 237.063V237.043Z" fill="#C97830"/>
<path d="M156.535 210.161H153.328V235.182C155.031 232.589 156.119 229.877 156.535 227.066V210.161Z" fill="#C97830"/>
<path d="M88.8776 244.347C126.365 244.347 156.755 229.041 156.755 210.161C156.755 191.28 126.365 175.975 88.8776 175.975C51.3898 175.975 21 191.28 21 210.161C21 229.041 51.3898 244.347 88.8776 244.347Z" fill="#F0D138"/>
<path d="M115.819 178.766L21.0195 210.022C21.0195 210.022 21.0195 210.121 21.0195 210.161C21.0195 216.852 24.84 223.087 31.4318 228.353L144.997 190.92C137.791 185.595 127.676 181.359 115.819 178.766Z" fill="#FAE745"/>
<path d="M153.134 199.135C152.223 197.789 151.174 196.482 149.967 195.235L37.3125 232.371C39.1337 233.44 41.0538 234.45 43.1125 235.4L153.134 199.135Z" fill="#FAE745"/>
<path d="M155.609 216.396C156.242 214.674 156.618 212.892 156.717 211.091L63.3828 241.853C66.6292 242.526 70.0142 243.06 73.4981 243.456L155.609 216.396Z" fill="#FAE745"/>
<path d="M24.9781 198.62C23.6123 200.54 22.5829 202.52 21.9297 204.579L105.564 177.004C101.645 176.509 97.6066 176.192 93.4496 176.054L24.9781 198.62Z" fill="#FAE745"/>
<path d="M107.07 214.041C109.742 215.347 111.088 216.001 113.741 217.307C111.207 218.376 109.94 218.911 107.446 219.96C104.773 218.653 103.407 218 100.715 216.674C95.727 218.277 89.8478 219.227 84.4041 219.346C83.157 217.564 82.5434 216.654 81.3161 214.853C87.3536 214.773 94.3809 213.566 97.845 212.101C100.418 211.012 101.19 209.904 99.5672 209.092C94.3611 206.499 80.069 215.367 69.3004 210.023C64.4902 207.608 64.9059 204.381 70.1318 201.352C67.6574 200.085 66.4499 199.452 64.0547 198.205C66.6083 197.136 67.895 196.601 70.4881 195.513C72.8635 196.76 74.071 197.373 76.5059 198.64C80.8608 197.175 85.8888 196.186 90.4021 195.81C91.471 197.631 92.0253 198.541 93.1536 200.382C87.7099 200.976 81.7516 202.164 78.9604 203.312C76.8424 204.203 76.1693 205.133 77.5352 205.826C82.5236 208.34 97.5283 199.412 108.495 204.975C113.859 207.647 112.335 211.131 107.05 214.021L107.07 214.041Z" fill="#DB9930"/>
<path d="M157.11 196.166C146.361 184.427 122.805 176.252 95.4479 176.252C68.091 176.252 44.5348 184.408 33.786 196.166H27.5703V210.458C27.5703 229.343 57.9559 244.644 95.4479 244.644C132.94 244.644 163.326 229.343 163.326 210.458V196.166H157.11Z" fill="#DB9930"/>
<path d="M29.1953 217.862C29.9871 219.683 31.0758 221.425 32.4021 223.127V196.166H29.1953V217.862Z" fill="#C97830"/>
<path d="M34.3633 225.363C35.3332 226.373 36.422 227.363 37.5701 228.313V192.622C36.4022 193.572 35.3332 194.562 34.3633 195.591V225.363Z" fill="#C97830"/>
<path d="M39.5276 229.837C40.5372 230.589 41.6259 231.302 42.7344 231.995V189.455H41.9228C41.0914 189.99 40.2798 190.544 39.5078 191.118V229.817L39.5276 229.837Z" fill="#C97830"/>
<path d="M44.6953 233.143C45.7247 233.737 46.7936 234.291 47.9021 234.845V193.414H44.6953V233.143Z" fill="#C97830"/>
<path d="M49.8594 235.795C50.9085 236.271 51.9774 236.726 53.0662 237.161V197.373H49.8594V235.776V235.795Z" fill="#FAE745"/>
<path d="M55.0273 237.933C56.0765 238.329 57.1454 238.705 58.2342 239.061V201.352H55.0273V237.933Z" fill="#C97830"/>
<path d="M60.1953 239.675C61.2445 239.992 62.3134 240.309 63.4021 240.606V205.291H60.1953V239.675Z" fill="#C97830"/>
<path d="M65.3594 241.1C66.4085 241.358 67.4973 241.615 68.5662 241.853V209.25H65.3594V241.1Z" fill="#C97830"/>
<path d="M70.5273 242.269C71.5963 242.487 72.6652 242.685 73.7342 242.863V213.229H70.5273V242.269Z" fill="#C97830"/>
<path d="M75.6953 243.18C76.7643 243.338 77.8332 243.496 78.9021 243.635V217.188H75.6953V243.18Z" fill="#FAE745"/>
<path d="M80.8594 243.853C81.9283 243.971 82.9973 244.07 84.0662 244.169V221.147H80.8594V243.872V243.853Z" fill="#C97830"/>
<path d="M86.0469 244.307C87.1158 244.386 88.1847 244.446 89.2537 244.485V225.066H86.0469V244.287V244.307Z" fill="#C97830"/>
<path d="M91.3711 244.584C92.44 244.624 93.509 244.624 94.5779 244.644V222.869H91.3711V244.584Z" fill="#C97830"/>
<path d="M99.9217 244.565V220.633H96.7148V244.625C97.7838 244.625 98.8725 244.585 99.9217 244.565Z" fill="#C97830"/>
<path d="M105.25 218.415H102.043V244.485C103.132 244.426 104.201 244.367 105.25 244.287V218.415Z" fill="#C97830"/>
<path d="M110.574 216.179H107.367V244.11C108.456 244.011 109.525 243.912 110.574 243.773V216.179Z" fill="#FAE745"/>
<path d="M115.898 213.961H112.691V243.535C113.78 243.397 114.849 243.238 115.898 243.06V213.941V213.961Z" fill="#C97830"/>
<path d="M121.242 211.725H118.035V242.704C119.124 242.506 120.193 242.308 121.242 242.09V211.725Z" fill="#C97830"/>
<path d="M126.566 209.508H123.359V241.635C124.448 241.378 125.517 241.121 126.566 240.844V209.508Z" fill="#C97830"/>
<path d="M131.894 207.271H128.688V240.269C129.776 239.952 130.845 239.636 131.894 239.299V207.271Z" fill="#C97830"/>
<path d="M137.238 205.054H134.031V238.587C135.12 238.211 136.189 237.795 137.238 237.399V205.054Z" fill="#C97830"/>
<path d="M142.562 202.816H139.355V236.528C140.464 236.052 141.533 235.558 142.562 235.063V202.816Z" fill="#C97830"/>
<path d="M147.886 200.6H144.68V233.994C145.788 233.4 146.877 232.806 147.886 232.173V200.6Z" fill="#FAE745"/>
<path d="M153.23 198.363H150.023V230.788C151.152 230.016 152.241 229.224 153.23 228.393V198.363Z" fill="#C97830"/>
<path d="M158.558 223.047V196.165H157.113C157.113 196.165 157.113 196.165 157.094 196.146H155.352V226.551C156.559 225.423 157.628 224.255 158.558 223.047Z" fill="#C97830"/>
<path d="M163.109 196.166H159.902V221.187C161.605 218.594 162.693 215.882 163.109 213.071V196.166Z" fill="#C97830"/>
<path d="M95.4479 230.352C132.936 230.352 163.326 215.046 163.326 196.166C163.326 177.285 132.936 161.979 95.4479 161.979C57.9602 161.979 27.5703 177.285 27.5703 196.166C27.5703 215.046 57.9602 230.352 95.4479 230.352Z" fill="#F0D138"/>
<path d="M122.389 164.771L27.5898 196.027C27.5898 196.027 27.5898 196.126 27.5898 196.166C27.5898 202.856 31.4103 209.092 38.0021 214.357L151.567 176.925C144.362 171.6 134.246 167.364 122.389 164.771Z" fill="#FAE745"/>
<path d="M159.704 185.14C158.794 183.794 157.745 182.487 156.537 181.24L43.8828 218.376C45.704 219.445 47.6241 220.454 49.6828 221.405L159.704 185.14Z" fill="#FAE745"/>
<path d="M162.175 202.401C162.808 200.679 163.184 198.897 163.283 197.096L69.9492 227.857C73.1956 228.53 76.5806 229.065 80.0646 229.461L162.175 202.401Z" fill="#FAE745"/>
<path d="M31.5485 184.625C30.1826 186.545 29.1532 188.525 28.5 190.583L112.135 163.009C108.215 162.514 104.177 162.197 100.02 162.059L31.5485 184.625Z" fill="#FAE745"/>
<path d="M113.64 200.046C116.312 201.352 117.658 202.006 120.311 203.312C117.777 204.381 116.51 204.915 114.016 205.965C111.344 204.658 109.978 204.005 107.286 202.679C102.297 204.282 96.4181 205.232 90.9744 205.351C89.7273 203.569 89.1137 202.659 87.8864 200.857C93.9239 200.778 100.951 199.571 104.415 198.106C106.989 197.017 107.761 195.909 106.138 195.097C100.931 192.504 86.6393 201.372 75.8707 196.027C71.0605 193.612 71.4762 190.386 76.7021 187.357C74.2277 186.09 73.0202 185.457 70.625 184.21C73.1786 183.141 74.4653 182.606 77.0584 181.518C79.4339 182.765 80.6414 183.378 83.0762 184.645C87.4311 183.18 92.4591 182.191 96.9724 181.814C98.0413 183.636 98.5956 184.546 99.7239 186.387C94.2802 186.981 88.3219 188.169 85.5308 189.317C83.4127 190.208 82.7396 191.138 84.1055 191.831C89.0939 194.345 104.099 185.417 115.065 190.98C120.43 193.652 118.905 197.136 113.62 200.026L113.64 200.046Z" fill="#DB9930"/>
<path d="M164.555 182.071C153.806 170.313 130.25 162.157 102.893 162.157C75.5363 162.157 51.9801 170.313 41.2313 182.071H35.0156V196.363C35.0156 215.248 65.4012 230.55 102.893 230.55C140.385 230.55 170.771 215.248 170.771 196.363V182.071H164.555Z" fill="#DB9930"/>
<path d="M36.6367 203.767C37.4285 205.588 38.5173 207.33 39.8435 209.032V182.071H36.6367V203.767Z" fill="#C97830"/>
<path d="M41.8047 211.269C42.7747 212.278 43.8634 213.268 45.0115 214.218V178.527C43.8436 179.478 42.7747 180.467 41.8047 181.497V211.269Z" fill="#C97830"/>
<path d="M46.969 215.723C47.9786 216.475 49.0673 217.188 50.1758 217.881V175.341H49.3642C48.5328 175.875 47.7212 176.43 46.9492 177.004V215.703L46.969 215.723Z" fill="#C97830"/>
<path d="M52.1367 219.048C53.1661 219.642 54.235 220.196 55.3435 220.751V179.319H52.1367V219.048Z" fill="#C97830"/>
<path d="M57.3008 221.681C58.3499 222.156 59.4189 222.612 60.5076 223.047V183.259H57.3008V221.661V221.681Z" fill="#FAE745"/>
<path d="M62.4688 223.819C63.5179 224.215 64.5868 224.591 65.6756 224.947V187.237H62.4688V223.819Z" fill="#C97830"/>
<path d="M67.6367 225.581C68.6859 225.897 69.7548 226.214 70.8435 226.511V191.196H67.6367V225.581Z" fill="#C97830"/>
<path d="M72.8203 227.007C73.8695 227.264 74.9582 227.521 76.0271 227.759V195.156H72.8203V227.007Z" fill="#C97830"/>
<path d="M77.9883 228.155C79.0572 228.373 80.1261 228.57 81.1951 228.749V199.115H77.9883V228.155Z" fill="#C97830"/>
<path d="M83.1562 229.085C84.2252 229.243 85.2941 229.402 86.3631 229.54V203.094H83.1562V229.105V229.085Z" fill="#FAE745"/>
<path d="M88.3203 229.758C89.3893 229.877 90.4582 229.976 91.5272 230.075V207.053H88.3203V229.778V229.758Z" fill="#C97830"/>
<path d="M93.4883 230.213C94.5572 230.292 95.6262 230.351 96.6951 230.391V210.972H93.4883V230.193V230.213Z" fill="#C97830"/>
<path d="M98.8125 230.49C99.8814 230.529 100.95 230.529 102.019 230.549V208.774H98.8125V230.49Z" fill="#C97830"/>
<path d="M107.363 230.47V206.538H104.156V230.53C105.225 230.53 106.314 230.49 107.363 230.47Z" fill="#C97830"/>
<path d="M112.687 204.321H109.48V230.392C110.569 230.332 111.638 230.273 112.687 230.194V204.321Z" fill="#C97830"/>
<path d="M118.015 202.084H114.809V230.015C115.897 229.916 116.966 229.817 118.015 229.678V202.084Z" fill="#FAE745"/>
<path d="M123.359 199.867H120.152V229.441C121.241 229.303 122.31 229.144 123.359 228.966V199.848V199.867Z" fill="#C97830"/>
<path d="M128.683 197.63H125.477V228.609C126.565 228.411 127.634 228.213 128.683 227.996V197.63Z" fill="#C97830"/>
<path d="M134.008 195.413H130.801V227.541C131.89 227.283 132.958 227.026 134.008 226.749V195.413Z" fill="#C97830"/>
<path d="M139.332 193.176H136.125V226.174C137.214 225.858 138.283 225.541 139.332 225.204V193.176Z" fill="#C97830"/>
<path d="M144.679 190.959H141.473V224.492C142.561 224.116 143.63 223.7 144.679 223.304V190.959Z" fill="#C97830"/>
<path d="M150.004 188.723H146.797V222.434C147.905 221.959 148.974 221.464 150.004 220.969V188.723Z" fill="#C97830"/>
<path d="M155.328 186.505H152.121V219.899C153.23 219.305 154.318 218.712 155.328 218.078V186.505Z" fill="#FAE745"/>
<path d="M160.672 184.269H157.465V216.693C158.593 215.921 159.682 215.129 160.672 214.298V184.269Z" fill="#C97830"/>
<path d="M166 208.953V182.072H164.555C164.555 182.072 164.555 182.072 164.535 182.052H162.793V212.477C164 211.349 165.069 210.181 166 208.973V208.953Z" fill="#C97830"/>
<path d="M170.551 182.071H167.344V207.092C169.046 204.499 170.135 201.787 170.551 198.976V182.071Z" fill="#C97830"/>
<path d="M102.893 216.257C140.381 216.257 170.771 200.952 170.771 182.071C170.771 163.19 140.381 147.885 102.893 147.885C65.4055 147.885 35.0156 163.19 35.0156 182.071C35.0156 200.952 65.4055 216.257 102.893 216.257Z" fill="#F0D138"/>
<path d="M129.834 150.676L35.0352 181.932C35.0352 181.932 35.0352 182.031 35.0352 182.071C35.0352 188.762 38.8556 194.997 45.4474 200.263L159.012 162.83C151.807 157.505 141.692 153.269 129.834 150.676Z" fill="#FAE745"/>
<path d="M167.15 171.045C166.239 169.699 165.19 168.393 163.982 167.146L51.3281 204.281C53.1493 205.35 55.0694 206.36 57.1281 207.31L167.15 171.045Z" fill="#FAE745"/>
<path d="M169.624 188.306C170.258 186.584 170.634 184.802 170.733 183.001L77.3984 213.763C80.6448 214.436 84.0298 214.97 87.5138 215.366L169.624 188.306Z" fill="#FAE745"/>
<path d="M38.9938 170.53C37.6279 172.451 36.5986 174.43 35.9453 176.489L119.58 148.914C115.66 148.419 111.622 148.102 107.465 147.964L38.9938 170.53Z" fill="#FAE745"/>
<path d="M121.085 185.951C123.758 187.258 125.104 187.911 127.756 189.217C125.222 190.286 123.956 190.821 121.461 191.87C118.789 190.563 117.423 189.91 114.731 188.584C109.743 190.187 103.863 191.137 98.4197 191.256C97.1727 189.475 96.559 188.564 95.3317 186.763C101.369 186.684 108.396 185.476 111.861 184.011C114.434 182.922 115.206 181.814 113.583 181.002C108.377 178.409 94.0846 187.277 83.316 181.933C78.5058 179.518 78.9215 176.291 84.1474 173.262C81.673 171.995 80.4655 171.362 78.0703 170.115C80.6239 169.046 81.9106 168.512 84.5037 167.423C86.8792 168.67 88.0867 169.284 90.5215 170.55C94.8764 169.086 99.9044 168.096 104.418 167.72C105.487 169.541 106.041 170.451 107.169 172.292C101.726 172.886 95.7672 174.074 92.9761 175.222C90.858 176.113 90.185 177.043 91.5508 177.736C96.5392 180.25 111.544 171.322 122.51 176.885C127.875 179.557 126.351 183.041 121.065 185.931L121.085 185.951Z" fill="#DB9930"/>
<path d="M154.637 160.732C143.888 148.994 120.332 140.818 92.9753 140.818C65.6184 140.818 42.0621 148.974 31.3133 160.732H25.0977V175.024C25.0977 193.909 55.4832 209.211 92.9753 209.211C130.467 209.211 160.853 193.909 160.853 175.024V160.732H154.637Z" fill="#DB9930"/>
<path d="M26.7188 182.428C27.5106 184.249 28.5993 185.991 29.9256 187.693V160.732H26.7188V182.428Z" fill="#C97830"/>
<path d="M31.8867 189.93C32.8567 190.939 33.9454 191.929 35.0935 192.879V157.188C33.9256 158.139 32.8567 159.128 31.8867 160.158V189.93Z" fill="#C97830"/>
<path d="M37.051 194.404C38.0606 195.156 39.1493 195.869 40.2579 196.561V154.021H39.4463C38.6149 154.556 37.8033 155.11 37.0312 155.684V194.384L37.051 194.404Z" fill="#C97830"/>
<path d="M42.2188 197.709C43.2481 198.303 44.317 198.858 45.4256 199.412V157.98H42.2188V197.709Z" fill="#C97830"/>
<path d="M47.3828 200.362C48.432 200.837 49.5009 201.292 50.5896 201.728V161.939H47.3828V200.342V200.362Z" fill="#FAE745"/>
<path d="M52.5508 202.499C53.5999 202.895 54.6689 203.271 55.7576 203.628V165.918H52.5508V202.499Z" fill="#C97830"/>
<path d="M57.7188 204.242C58.7679 204.558 59.8368 204.875 60.9256 205.172V169.857H57.7188V204.242Z" fill="#C97830"/>
<path d="M62.8828 205.687C63.932 205.945 65.0207 206.202 66.0896 206.44V173.837H62.8828V205.687Z" fill="#C97830"/>
<path d="M68.0508 206.835C69.1197 207.053 70.1887 207.251 71.2576 207.429V177.796H68.0508V206.835Z" fill="#C97830"/>
<path d="M73.2188 207.746C74.2877 207.904 75.3566 208.063 76.4256 208.201V181.755H73.2188V207.766V207.746Z" fill="#FAE745"/>
<path d="M78.3828 208.419C79.4518 208.538 80.5207 208.637 81.5896 208.736V185.714H78.3828V208.439V208.419Z" fill="#C97830"/>
<path d="M83.5508 208.893C84.6197 208.972 85.6887 209.032 86.7576 209.071V189.652H83.5508V208.873V208.893Z" fill="#C97830"/>
<path d="M88.875 209.151C89.9439 209.19 91.0129 209.19 92.0818 209.21V187.436H88.875V209.151Z" fill="#C97830"/>
<path d="M97.4295 209.132V185.199H94.2227V209.191C95.2916 209.191 96.3803 209.151 97.4295 209.132Z" fill="#C97830"/>
<path d="M102.773 182.981H99.5664V209.052C100.655 208.992 101.724 208.933 102.773 208.854V182.981Z" fill="#C97830"/>
<path d="M108.097 180.745H104.891V208.676C105.979 208.577 107.048 208.478 108.097 208.34V180.745Z" fill="#FAE745"/>
<path d="M113.422 178.528H110.215V208.102C111.304 207.963 112.373 207.805 113.422 207.626V178.508V178.528Z" fill="#C97830"/>
<path d="M118.746 176.291H115.539V207.271C116.628 207.073 117.697 206.875 118.746 206.657V176.291Z" fill="#C97830"/>
<path d="M124.09 174.074H120.883V206.202C121.972 205.944 123.041 205.687 124.09 205.41V174.074Z" fill="#C97830"/>
<path d="M129.414 171.837H126.207V204.835C127.296 204.519 128.365 204.202 129.414 203.866V171.837Z" fill="#C97830"/>
<path d="M134.742 169.62H131.535V203.153C132.624 202.777 133.693 202.361 134.742 201.965V169.62Z" fill="#C97830"/>
<path d="M140.086 167.383H136.879V201.094C137.987 200.619 139.056 200.124 140.086 199.629V167.383Z" fill="#C97830"/>
<path d="M145.41 165.166H142.203V198.56C143.312 197.967 144.4 197.373 145.41 196.739V165.166Z" fill="#FAE745"/>
<path d="M150.734 162.93H147.527V195.354C148.656 194.582 149.744 193.79 150.734 192.959V162.93Z" fill="#C97830"/>
<path d="M156.082 187.614V160.732H154.637C154.637 160.732 154.637 160.732 154.617 160.712H152.875V191.117C154.083 189.989 155.151 188.821 156.082 187.614Z" fill="#C97830"/>
<path d="M160.633 160.732H157.426V185.753C159.128 183.16 160.217 180.448 160.633 177.638V160.732Z" fill="#C97830"/>
<path d="M92.9753 194.918C130.463 194.918 160.853 179.613 160.853 160.732C160.853 141.852 130.463 126.546 92.9753 126.546C55.4875 126.546 25.0977 141.852 25.0977 160.732C25.0977 179.613 55.4875 194.918 92.9753 194.918Z" fill="#F0D138"/>
<path d="M119.897 129.356L25.0977 160.613C25.0977 160.613 25.0977 160.712 25.0977 160.752C25.0977 167.442 28.9181 173.678 35.5099 178.943L149.075 141.511C141.869 136.186 131.754 131.95 119.897 129.356Z" fill="#FAE745"/>
<path d="M157.232 149.726C156.321 148.38 155.272 147.073 154.064 145.826L41.4102 182.962C43.2313 184.031 45.1514 185.04 47.2101 185.991L157.232 149.726Z" fill="#FAE745"/>
<path d="M159.706 166.967C160.34 165.245 160.716 163.463 160.815 161.662L67.4805 192.424C70.7269 193.097 74.1119 193.631 77.5958 194.027L159.706 166.967Z" fill="#FAE745"/>
<path d="M29.0758 149.211C27.7099 151.131 26.6806 153.111 26.0273 155.169L109.662 127.595C105.742 127.1 101.704 126.783 97.5473 126.645L29.0758 149.211Z" fill="#FAE745"/>
<path d="M39.6526 7.48983C50.1226 1.41178 38.2164 -5.39531 38.2589 6.69298C38.2164 -5.38683 26.3528 1.49654 36.8652 7.4983C26.3528 1.48807 26.4038 15.1785 36.8652 9.10047C26.3953 15.1785 38.3014 21.9856 38.2589 9.89731C38.3014 21.9771 50.165 15.0938 39.6526 9.09199C50.165 15.1022 50.1141 1.41178 39.6526 7.48983Z" fill="#FEBD42"/>
<path d="M313.723 7.48983C324.193 1.41178 312.287 -5.39531 312.329 6.69298C312.287 -5.38683 300.423 1.49654 310.936 7.4983C300.423 1.48807 300.474 15.1785 310.936 9.10047C300.466 15.1785 312.372 21.9856 312.329 9.89731C312.372 21.9771 324.235 15.0938 313.723 9.09199C324.235 15.1022 324.184 1.41178 313.723 7.48983Z" fill="#FEBD42"/>
</svg>
