<svg width="1223" height="262" viewBox="0 0 1223 262" fill="none" xmlns="http://www.w3.org/2000/svg">
<path d="M1192.51 44.4434C1191.56 44.5634 1190.59 44.7074 1189.62 44.8274C1187.63 45.5234 1185.42 46.1474 1183.64 47.1074C1181.53 48.2594 1180.52 49.7715 1180.1 51.6435C1179.61 53.7795 1179.58 56.0355 1179.32 58.1955C1179.02 60.7155 1178.34 63.1635 1177.73 65.6355C1177.47 66.6915 1175.32 66.8355 1174.7 65.9235C1171.46 61.2675 1173.01 55.8915 1170.32 51.1635C1167.43 46.1234 1159.11 45.6194 1152.68 45.3314C1150.47 45.2354 1149.95 43.4834 1151.05 42.5714C1151.25 42.2834 1151.64 42.0434 1152.22 41.9954C1156.15 41.6114 1160.12 40.9154 1163.85 39.9554C1167 39.1394 1168.82 37.6994 1169.86 35.3714C1172.3 29.8754 1172.3 23.7554 1172.4 18.0433C1172.46 15.3073 1177.95 15.3313 1178.12 18.0433C1178.28 20.7314 1178.41 23.4194 1178.57 26.1314C1178.73 28.7714 1178.73 31.4833 1179.67 34.0514C1180.36 35.8994 1181.79 37.8194 1184.19 38.6834C1187.02 39.6914 1190.33 39.5954 1193.19 40.6274C1195.33 41.3954 1194.88 44.1074 1192.51 44.4434Z" fill="#FEBD42"/>
<path d="M68.1281 103.468C67.1859 103.588 66.2113 103.732 65.2367 103.852C63.2549 104.548 61.0458 105.172 59.259 106.132C57.1798 107.284 56.1402 108.796 55.7179 110.668C55.2305 112.804 55.1981 115.06 54.9382 117.22C54.6458 119.74 53.9635 122.188 53.3463 124.66C53.0864 125.716 50.9422 125.86 50.3249 124.948C47.0762 120.292 48.6356 114.916 45.9391 110.188C43.0478 105.148 34.731 104.644 28.2985 104.356C26.0893 104.26 25.5695 102.508 26.6741 101.596C26.869 101.308 27.2589 101.068 27.8436 101.02C31.7746 100.636 35.7381 99.9398 39.4741 98.9798C42.6254 98.1638 44.4447 96.7238 45.4843 94.3958C47.9209 88.8998 47.9209 82.7798 48.0183 77.0677C48.0833 74.3317 53.5737 74.3557 53.7361 77.0677C53.8986 79.7558 54.0285 82.4438 54.1909 85.1558C54.3534 87.7958 54.3534 90.5078 55.2955 93.0758C55.9777 94.9238 57.4072 96.8438 59.8113 97.7078C62.6377 98.7158 65.9514 98.6438 68.8103 99.6518C70.9545 100.42 70.4996 103.132 68.1281 103.468Z" fill="#FEBD42"/>
<path d="M1174.09 84.9698C1172.83 85.5698 1171.01 85.3298 1169.58 85.3298C1168.67 85.3298 1167.76 85.3298 1166.85 85.3298C1166.85 86.4818 1166.78 87.6338 1166.62 88.7618C1166.49 89.6738 1165.68 90.4658 1164.31 90.4658C1162.95 90.4658 1162.17 89.6738 1162.01 88.7618C1161.81 87.5858 1161.78 86.4098 1161.78 85.2098C1160.48 85.1858 1159.21 85.1618 1157.91 85.1138C1156.61 85.0658 1155.35 84.2978 1155.41 83.2658C1155.48 82.2338 1156.52 81.4658 1157.91 81.4178C1159.21 81.3698 1160.51 81.3458 1161.81 81.3218C1161.81 80.4338 1161.81 79.5698 1161.81 78.6818C1161.81 77.5298 1161.68 76.3778 1161.81 75.2258C1161.91 74.2178 1162.88 73.3778 1164.31 73.3778C1165.74 73.3778 1166.72 74.2418 1166.82 75.2258C1166.95 76.3778 1166.82 77.5298 1166.82 78.6818C1166.82 79.5218 1166.82 80.3858 1166.82 81.2258C1167.69 81.2258 1168.54 81.2258 1169.41 81.2258C1170.88 81.2258 1172.79 80.9858 1174.09 81.5618C1175.85 82.3778 1175.85 84.1778 1174.09 84.9938V84.9698Z" fill="#FEBD42"/>
<path d="M1210.74 64.2831C1208.53 64.5471 1206.19 64.4271 1203.91 64.3791C1203.91 65.4351 1203.91 66.5151 1203.85 67.5711C1203.78 68.5311 1202.78 69.3711 1201.41 69.3711C1200.05 69.3711 1199.04 68.5551 1198.98 67.5711C1198.91 66.4671 1198.94 65.3391 1198.91 64.2351C1197.68 64.1871 1196.44 64.1631 1195.17 64.1151C1193.94 64.0671 1192.74 63.3471 1192.8 62.3631C1192.87 61.3551 1193.84 60.659 1195.17 60.611C1196.41 60.563 1197.64 60.5391 1198.85 60.4911C1198.85 58.7631 1198.85 57.0351 1199.46 55.379C1199.98 53.963 1202.74 53.963 1203.26 55.379C1203.88 56.9871 1203.88 58.667 1203.88 60.347C1206.16 60.275 1208.46 60.1791 1210.67 60.4431C1211.81 60.5871 1212.75 61.5711 1212.72 62.3871C1212.69 63.2271 1211.91 64.1871 1210.67 64.3311L1210.74 64.2831Z" fill="#FEBD42"/>
<path d="M1222.29 25.2709C1221.48 25.7989 1220.66 26.015 1219.59 26.063C1219.01 26.063 1218.42 26.063 1217.87 26.063C1217.32 26.063 1216.77 26.063 1216.18 26.063C1216.15 27.263 1216.08 28.4629 1216.05 29.6869C1215.99 31.7749 1211.73 31.7749 1211.67 29.6869C1211.63 28.4629 1211.57 27.2389 1211.54 26.0149C1210.37 25.9909 1209.16 25.9669 1207.99 25.9429C1206.69 25.9189 1205.46 25.1269 1205.49 24.0949C1205.56 23.0629 1206.6 22.295 1207.99 22.247C1209.1 22.199 1210.2 22.1749 1211.31 22.1269C1211.15 20.5669 1211.02 18.9589 1211.5 17.4709C1212.06 15.7429 1215.6 15.7429 1216.18 17.4709C1216.67 18.9109 1216.54 20.4709 1216.41 21.9829H1217.87C1218.46 21.9589 1219.04 21.9109 1219.59 21.9349C1220.66 21.9589 1221.48 22.1989 1222.29 22.7029C1223.26 23.2789 1223.2 24.647 1222.29 25.247V25.2709Z" fill="#FEBD42"/>
<path d="M800.933 236.483C799.991 236.603 799.016 236.747 798.041 236.867C796.06 237.563 793.85 238.187 792.064 239.147C789.984 240.299 788.945 241.811 788.523 243.683C788.035 245.819 788.003 248.076 787.743 250.236C787.45 252.756 786.768 255.204 786.151 257.676C785.891 258.732 783.747 258.876 783.13 257.964C779.881 253.308 781.44 247.931 778.744 243.203C775.852 238.163 767.536 237.659 761.103 237.371C758.894 237.275 758.374 235.523 759.479 234.611C759.674 234.323 760.064 234.083 760.648 234.035C764.579 233.651 768.543 232.955 772.279 231.995C775.43 231.179 777.249 229.739 778.289 227.411C780.726 221.915 780.726 215.795 780.823 210.083C780.888 207.347 786.378 207.371 786.541 210.083C786.703 212.771 786.833 215.459 786.996 218.171C787.158 220.811 787.158 223.523 788.1 226.091C788.782 227.939 790.212 229.859 792.616 230.723C795.442 231.731 798.756 231.635 801.615 232.667C803.759 233.435 803.304 236.147 800.933 236.483Z" fill="#FEBD42"/>
<path d="M819.197 256.333C816.988 256.597 814.649 256.477 812.375 256.429C812.375 257.485 812.375 258.565 812.31 259.621C812.245 260.581 811.238 261.421 809.873 261.421C808.509 261.421 807.502 260.605 807.437 259.621C807.372 258.517 807.404 257.389 807.372 256.285C806.137 256.237 804.903 256.213 803.636 256.165C802.401 256.117 801.199 255.397 801.264 254.413C801.329 253.405 802.304 252.709 803.636 252.661C804.87 252.613 806.105 252.589 807.307 252.541C807.307 250.813 807.307 249.085 807.924 247.429C808.444 246.013 811.205 246.013 811.725 247.429C812.342 249.037 812.342 250.717 812.342 252.397C814.616 252.325 816.923 252.229 819.132 252.493C820.269 252.637 821.211 253.621 821.179 254.437C821.146 255.277 820.367 256.237 819.132 256.381L819.197 256.333Z" fill="#FEBD42"/>
<path d="M830.73 217.323C829.918 217.851 829.106 218.067 828.034 218.115C827.449 218.115 826.864 218.115 826.312 218.115C825.76 218.115 825.207 218.115 824.623 218.115C824.59 219.315 824.525 220.515 824.493 221.739C824.428 223.827 820.172 223.827 820.107 221.739C820.074 220.515 820.009 219.291 819.977 218.067C818.807 218.043 817.605 218.019 816.436 217.995C815.136 217.971 813.902 217.179 813.934 216.147C813.999 215.115 815.039 214.347 816.436 214.299C817.54 214.251 818.645 214.227 819.749 214.179C819.587 212.619 819.457 211.011 819.944 209.523C820.497 207.795 824.038 207.795 824.623 209.523C825.11 210.963 824.98 212.523 824.85 214.035H826.312C826.897 214.011 827.481 213.963 828.034 213.987C829.106 214.011 829.918 214.251 830.73 214.755C831.705 215.331 831.64 216.699 830.73 217.299V217.323Z" fill="#FEBD42"/>
<path d="M17.2419 49.0678C16.4297 49.5958 15.6176 49.8118 14.5455 49.8598C13.9607 49.8598 13.3759 49.8598 12.8236 49.8598C12.2714 49.8598 11.7191 49.8598 11.1343 49.8598C11.1018 51.0598 11.0368 52.2598 11.0044 53.4838C10.9394 55.5718 6.68353 55.5718 6.61856 53.4838C6.58607 52.2598 6.52109 51.0358 6.4886 49.8118C5.31906 49.7878 4.11703 49.7638 2.94749 49.7398C1.64799 49.7158 0.413452 48.9238 0.44594 47.8918C0.510915 46.8598 1.55053 46.0918 2.94749 46.0438C4.05206 45.9958 5.15662 45.9718 6.26119 45.9238C6.09876 44.3638 5.9688 42.7558 6.45611 41.2678C7.0084 39.5398 10.5495 39.5398 11.1343 41.2678C11.6216 42.7078 11.4917 44.2678 11.3617 45.7798H12.8236C13.4084 45.7558 13.9932 45.7078 14.5455 45.7318C15.6176 45.7558 16.4297 45.9958 17.2419 46.4998C18.2166 47.0758 18.1516 48.4438 17.2419 49.0438V49.0678Z" fill="#FEBD42"/>
<path d="M284.063 2.83466C284.063 1.34666 283.02 -0.0693669 281.759 0.00263328C280.497 0.0746335 279.478 1.25066 279.454 2.83466C279.454 4.27467 279.381 5.71468 279.454 7.15468C279.503 7.99468 279.527 8.97869 279.77 9.74669C280.012 10.5147 280.206 11.2827 280.546 11.9787C281.055 13.1067 282.438 13.1067 282.947 11.9787C283.262 11.2827 283.457 10.5387 283.699 9.81869C283.942 9.00269 283.99 8.01868 284.039 7.15468C284.112 5.71468 284.039 4.27467 284.039 2.83466H284.063Z" fill="#FEBD42"/>
<path d="M284.326 24.9069C284.326 23.4189 283.259 22.0029 282.022 22.0749C280.785 22.1469 279.693 23.3229 279.718 24.9069C279.718 26.6829 279.645 28.4829 279.742 30.2349C279.863 32.2269 279.984 34.5069 281.149 36.0669C281.585 36.6669 282.483 36.6669 282.919 36.0669C284.06 34.5069 284.205 32.2269 284.326 30.2349C284.423 28.4589 284.351 26.6589 284.351 24.9069H284.326Z" fill="#FEBD42"/>
<path d="M277.238 16.1588C276.704 15.8228 276.146 15.5108 275.516 15.3908C274.837 15.2468 274.133 15.1748 273.454 15.1748C272.314 15.1748 271.198 15.1748 270.058 15.1748C268.942 15.1748 267.875 16.1588 267.923 17.3348C267.972 18.5108 268.869 19.4948 270.058 19.4948C271.198 19.4948 272.314 19.5188 273.454 19.4948C274.133 19.4948 274.861 19.3988 275.516 19.2788C276.146 19.1588 276.68 18.8228 277.238 18.5108C278.111 17.9828 278.111 16.7108 277.238 16.1828V16.1588Z" fill="#FEBD42"/>
<path d="M295.451 16.445C295.16 16.013 294.845 15.677 294.359 15.461C293.802 15.221 293.316 15.101 292.686 15.077C292.128 15.077 291.546 15.029 290.988 15.077C289.823 15.125 288.635 15.149 287.471 15.197C286.379 15.221 285.336 16.133 285.384 17.285C285.433 18.437 286.306 19.349 287.471 19.373C288.635 19.421 289.823 19.445 290.988 19.493C291.546 19.493 292.128 19.493 292.686 19.493C293.292 19.493 293.802 19.349 294.359 19.109C294.82 18.917 295.16 18.557 295.451 18.125C295.742 17.693 295.742 16.901 295.451 16.469V16.445Z" fill="#FEBD42"/>
</svg>
