<svg width="34" height="34" viewBox="0 0 34 34" fill="none" xmlns="http://www.w3.org/2000/svg">
<path d="M26.4041 17.1567C26.8804 17.4362 27.4932 17.2766 27.7726 16.8002C28.0521 16.3239 27.8925 15.7112 27.4162 15.4317L26.4041 17.1567ZM9.12672 5.86045L8.61063 6.71707L8.62068 6.72296L9.12672 5.86045ZM7.68281 5.89338L7.12824 5.06124L7.12824 5.06124L7.68281 5.89338ZM7.09664 7.21337L6.10744 7.35997C6.11722 7.42597 6.13359 7.49083 6.15629 7.55357L7.09664 7.21337ZM9.44154 16.6344C9.62942 17.1537 10.2027 17.4224 10.7221 17.2346C11.2414 17.0467 11.5101 16.4733 11.3222 15.954L9.44154 16.6344ZM27.4162 17.1567C27.8925 16.8772 28.0521 16.2645 27.7726 15.7882C27.4932 15.3118 26.8804 15.1522 26.4041 15.4317L27.4162 17.1567ZM9.12672 26.728L8.62064 25.8654L8.61067 25.8714L9.12672 26.728ZM7.68281 26.695L7.12824 27.5272H7.12824L7.68281 26.695ZM7.09664 25.375L6.15629 25.0348C6.13359 25.0976 6.11722 25.1624 6.10744 25.2284L7.09664 25.375ZM11.3222 16.6344C11.5101 16.1151 11.2414 15.5417 10.7221 15.3538C10.2027 15.166 9.62942 15.4347 9.44154 15.954L11.3222 16.6344ZM26.9101 17.2942C27.4624 17.2942 27.9101 16.8465 27.9101 16.2942C27.9101 15.7419 27.4624 15.2942 26.9101 15.2942V17.2942ZM10.3819 15.2942C9.82961 15.2942 9.38189 15.7419 9.38189 16.2942C9.38189 16.8465 9.82961 17.2942 10.3819 17.2942V15.2942ZM27.4162 15.4317L9.63277 4.99794L8.62068 6.72296L26.4041 17.1567L27.4162 15.4317ZM9.64278 5.0039C8.86413 4.53478 7.8847 4.55712 7.12824 5.06124L8.23738 6.72552C8.34967 6.65068 8.49507 6.64737 8.61067 6.71701L9.64278 5.0039ZM7.12824 5.06124C6.37179 5.56537 5.97418 6.46074 6.10744 7.35997L8.08584 7.06677C8.06605 6.93328 8.12508 6.80036 8.23738 6.72552L7.12824 5.06124ZM6.15629 7.55357L9.44154 16.6344L11.3222 15.954L8.03699 6.87317L6.15629 7.55357ZM26.4041 15.4317L8.62068 25.8654L9.63277 27.5905L27.4162 17.1567L26.4041 15.4317ZM8.61067 25.8714C8.49508 25.941 8.34968 25.9377 8.23738 25.8629L7.12824 27.5272C7.8847 28.0313 8.86413 28.0536 9.64278 27.5845L8.61067 25.8714ZM8.23738 25.8629C8.12508 25.788 8.06605 25.6551 8.08584 25.5216L6.10744 25.2284C5.97418 26.1277 6.37179 27.023 7.12824 27.5272L8.23738 25.8629ZM8.03699 25.7152L11.3222 16.6344L9.44154 15.954L6.15629 25.0348L8.03699 25.7152ZM26.9101 15.2942L10.3819 15.2942V17.2942H26.9101V15.2942Z" fill="white"/>
</svg>
