<svg width="1223" height="262" viewBox="0 0 1223 262" fill="none" xmlns="http://www.w3.org/2000/svg">
<path d="M1192.06 44.4434C1191.12 44.5634 1190.14 44.7074 1189.17 44.8274C1187.19 45.5234 1184.98 46.1474 1183.19 47.1074C1181.08 48.2594 1180.07 49.7715 1179.65 51.6435C1179.16 53.7795 1179.13 56.0355 1178.87 58.1955C1178.58 60.7155 1177.9 63.1635 1177.28 65.6355C1177.02 66.6915 1174.88 66.8355 1174.26 65.9235C1171.01 61.2675 1172.57 55.8915 1169.87 51.1635C1166.98 46.1234 1158.66 45.6194 1152.23 45.3314C1150.02 45.2354 1149.5 43.4834 1150.61 42.5714C1150.8 42.2834 1151.19 42.0434 1151.78 41.9954C1155.71 41.6114 1159.67 40.9154 1163.41 39.9554C1166.56 39.1394 1168.38 37.6994 1169.42 35.3714C1171.85 29.8754 1171.85 23.7554 1171.95 18.0433C1172.02 15.3073 1177.51 15.3313 1177.67 18.0433C1177.83 20.7314 1177.96 23.4194 1178.12 26.1314C1178.29 28.7714 1178.29 31.4833 1179.23 34.0514C1179.91 35.8994 1181.34 37.8194 1183.74 38.6834C1186.57 39.6914 1189.88 39.5954 1192.74 40.6274C1194.89 41.3954 1194.43 44.1074 1192.06 44.4434Z" fill="#FEBD42"/>
<path d="M67.6827 103.468C66.7406 103.588 65.766 103.732 64.7914 103.852C62.8096 104.548 60.6005 105.172 58.8137 106.132C56.7345 107.284 55.6949 108.796 55.2725 110.668C54.7852 112.804 54.7528 115.06 54.4929 117.22C54.2005 119.74 53.5182 122.188 52.9009 124.66C52.6411 125.716 50.4969 125.86 49.8796 124.948C46.6309 120.292 48.1903 114.916 45.4938 110.188C42.6024 105.148 34.2857 104.644 27.8531 104.356C25.644 104.26 25.1242 102.508 26.2288 101.596C26.4237 101.308 26.8135 101.068 27.3983 101.02C31.3293 100.636 35.2928 99.9398 39.0288 98.9798C42.1801 98.1638 43.9994 96.7238 45.039 94.3958C47.4756 88.8998 47.4756 82.7798 47.573 77.0677C47.638 74.3317 53.1284 74.3557 53.2908 77.0677C53.4532 79.7558 53.5832 82.4438 53.7456 85.1558C53.9081 87.7958 53.9081 90.5078 54.8502 93.0758C55.5324 94.9238 56.9619 96.8438 59.366 97.7078C62.1924 98.7158 65.5061 98.6438 68.365 99.6518C70.5091 100.42 70.0543 103.132 67.6827 103.468Z" fill="#FEBD42"/>
<path d="M1173.65 84.9698C1172.38 85.5698 1170.56 85.3298 1169.13 85.3298C1168.22 85.3298 1167.31 85.3298 1166.4 85.3298C1166.4 86.4818 1166.34 87.6338 1166.18 88.7618C1166.05 89.6738 1165.23 90.4658 1163.87 90.4658C1162.5 90.4658 1161.72 89.6738 1161.56 88.7618C1161.37 87.5858 1161.33 86.4098 1161.33 85.2098C1160.04 85.1858 1158.77 85.1618 1157.47 85.1138C1156.17 85.0658 1154.9 84.2978 1154.97 83.2658C1155.03 82.2338 1156.07 81.4658 1157.47 81.4178C1158.77 81.3698 1160.07 81.3458 1161.37 81.3218C1161.37 80.4338 1161.37 79.5698 1161.37 78.6818C1161.37 77.5298 1161.24 76.3778 1161.37 75.2258C1161.46 74.2178 1162.44 73.3778 1163.87 73.3778C1165.3 73.3778 1166.27 74.2418 1166.37 75.2258C1166.5 76.3778 1166.37 77.5298 1166.37 78.6818C1166.37 79.5218 1166.37 80.3858 1166.37 81.2258C1167.25 81.2258 1168.09 81.2258 1168.97 81.2258C1170.43 81.2258 1172.35 80.9858 1173.65 81.5618C1175.4 82.3778 1175.4 84.1778 1173.65 84.9938V84.9698Z" fill="#FEBD42"/>
<path d="M1210.29 64.2831C1208.08 64.5471 1205.74 64.4271 1203.47 64.3791C1203.47 65.4351 1203.47 66.5151 1203.4 67.5711C1203.34 68.5311 1202.33 69.3711 1200.97 69.3711C1199.6 69.3711 1198.6 68.5551 1198.53 67.5711C1198.47 66.4671 1198.5 65.3391 1198.47 64.2351C1197.23 64.1871 1196 64.1631 1194.73 64.1151C1193.5 64.0671 1192.29 63.3471 1192.36 62.3631C1192.42 61.3551 1193.4 60.659 1194.73 60.611C1195.96 60.563 1197.2 60.5391 1198.4 60.4911C1198.4 58.7631 1198.4 57.0351 1199.02 55.379C1199.54 53.963 1202.3 53.963 1202.82 55.379C1203.44 56.9871 1203.44 58.667 1203.44 60.347C1205.71 60.275 1208.02 60.1791 1210.23 60.4431C1211.36 60.5871 1212.31 61.5711 1212.27 62.3871C1212.24 63.2271 1211.46 64.1871 1210.23 64.3311L1210.29 64.2831Z" fill="#FEBD42"/>
<path d="M1221.84 25.2709C1221.03 25.7989 1220.22 26.015 1219.15 26.063C1218.56 26.063 1217.98 26.063 1217.43 26.063C1216.87 26.063 1216.32 26.063 1215.74 26.063C1215.7 27.263 1215.64 28.4629 1215.61 29.6869C1215.54 31.7749 1211.29 31.7749 1211.22 29.6869C1211.19 28.4629 1211.12 27.2389 1211.09 26.0149C1209.92 25.9909 1208.72 25.9669 1207.55 25.9429C1206.25 25.9189 1205.02 25.1269 1205.05 24.0949C1205.11 23.0629 1206.15 22.295 1207.55 22.247C1208.65 22.199 1209.76 22.1749 1210.86 22.1269C1210.7 20.5669 1210.57 18.9589 1211.06 17.4709C1211.61 15.7429 1215.15 15.7429 1215.74 17.4709C1216.22 18.9109 1216.09 20.4709 1215.96 21.9829H1217.43C1218.01 21.9589 1218.59 21.9109 1219.15 21.9349C1220.22 21.9589 1221.03 22.1989 1221.84 22.7029C1222.82 23.2789 1222.75 24.647 1221.84 25.247V25.2709Z" fill="#FEBD42"/>
<path d="M800.487 236.483C799.545 236.603 798.571 236.747 797.596 236.867C795.614 237.563 793.405 238.187 791.618 239.147C789.539 240.299 788.5 241.811 788.077 243.683C787.59 245.819 787.557 248.076 787.298 250.236C787.005 252.756 786.323 255.204 785.706 257.676C785.446 258.732 783.302 258.876 782.684 257.964C779.436 253.308 780.995 247.931 778.298 243.203C775.407 238.163 767.09 237.659 760.658 237.371C758.449 237.275 757.929 235.523 759.033 234.611C759.228 234.323 759.618 234.083 760.203 234.035C764.134 233.651 768.097 232.955 771.834 231.995C774.985 231.179 776.804 229.739 777.844 227.411C780.28 221.915 780.28 215.795 780.378 210.083C780.443 207.347 785.933 207.371 786.095 210.083C786.258 212.771 786.388 215.459 786.55 218.171C786.713 220.811 786.713 223.523 787.655 226.091C788.337 227.939 789.767 229.859 792.171 230.723C794.997 231.731 798.311 231.635 801.17 232.667C803.314 233.435 802.859 236.147 800.487 236.483Z" fill="#FEBD42"/>
<path d="M818.752 256.333C816.543 256.597 814.204 256.477 811.93 256.429C811.93 257.485 811.93 258.565 811.865 259.621C811.8 260.581 810.793 261.421 809.428 261.421C808.064 261.421 807.056 260.605 806.992 259.621C806.927 258.517 806.959 257.389 806.926 256.285C805.692 256.237 804.457 256.213 803.19 256.165C801.956 256.117 800.754 255.397 800.819 254.413C800.884 253.405 801.858 252.709 803.19 252.661C804.425 252.613 805.66 252.589 806.862 252.541C806.862 250.813 806.862 249.085 807.479 247.429C807.999 246.013 810.76 246.013 811.28 247.429C811.897 249.037 811.897 250.717 811.897 252.397C814.171 252.325 816.478 252.229 818.687 252.493C819.824 252.637 820.766 253.621 820.734 254.437C820.701 255.277 819.922 256.237 818.687 256.381L818.752 256.333Z" fill="#FEBD42"/>
<path d="M830.285 217.323C829.473 217.851 828.661 218.067 827.588 218.115C827.004 218.115 826.419 218.115 825.867 218.115C825.314 218.115 824.762 218.115 824.177 218.115C824.145 219.315 824.08 220.515 824.047 221.739C823.982 223.827 819.726 223.827 819.661 221.739C819.629 220.515 819.564 219.291 819.532 218.067C818.362 218.043 817.16 218.019 815.99 217.995C814.691 217.971 813.456 217.179 813.489 216.147C813.554 215.115 814.593 214.347 815.99 214.299C817.095 214.251 818.2 214.227 819.304 214.179C819.142 212.619 819.012 211.011 819.499 209.523C820.051 207.795 823.592 207.795 824.177 209.523C824.665 210.963 824.535 212.523 824.405 214.035H825.867C826.451 214.011 827.036 213.963 827.588 213.987C828.661 214.011 829.473 214.251 830.285 214.755C831.259 215.331 831.195 216.699 830.285 217.299V217.323Z" fill="#FEBD42"/>
<path d="M16.7966 49.0678C15.9844 49.5958 15.1723 49.8118 14.1002 49.8598C13.5154 49.8598 12.9306 49.8598 12.3783 49.8598C11.826 49.8598 11.2738 49.8598 10.689 49.8598C10.6565 51.0598 10.5915 52.2598 10.559 53.4838C10.4941 55.5718 6.23822 55.5718 6.17324 53.4838C6.14076 52.2598 6.07578 51.0358 6.04329 49.8118C4.87374 49.7878 3.67172 49.7638 2.50217 49.7398C1.20268 49.7158 -0.0318601 48.9238 0.000627308 47.8918C0.0656022 46.8598 1.10521 46.0918 2.50217 46.0438C3.60675 45.9958 4.71131 45.9718 5.81588 45.9238C5.65344 44.3638 5.52349 42.7558 6.0108 41.2678C6.56308 39.5398 10.1042 39.5398 10.689 41.2678C11.1763 42.7078 11.0464 44.2678 10.9164 45.7798H12.3783C12.9631 45.7558 13.5479 45.7078 14.1002 45.7318C15.1723 45.7558 15.9844 45.9958 16.7966 46.4998C17.7712 47.0758 17.7063 48.4438 16.7966 49.0438V49.0678Z" fill="#FEBD42"/>
<path d="M283.618 2.83466C283.618 1.34666 282.575 -0.0693669 281.313 0.00263328C280.052 0.0746335 279.033 1.25066 279.009 2.83466C279.009 4.27467 278.936 5.71468 279.009 7.15468C279.057 7.99468 279.082 8.97869 279.324 9.74669C279.567 10.5147 279.761 11.2827 280.1 11.9787C280.61 13.1067 281.992 13.1067 282.502 11.9787C282.817 11.2827 283.011 10.5387 283.254 9.81869C283.496 9.00269 283.545 8.01868 283.593 7.15468C283.666 5.71468 283.593 4.27467 283.593 2.83466H283.618Z" fill="#FEBD42"/>
<path d="M283.881 24.9069C283.881 23.4189 282.814 22.0029 281.577 22.0749C280.34 22.1469 279.248 23.3229 279.272 24.9069C279.272 26.6829 279.2 28.4829 279.297 30.2349C279.418 32.2269 279.539 34.5069 280.703 36.0669C281.14 36.6669 282.038 36.6669 282.474 36.0669C283.614 34.5069 283.76 32.2269 283.881 30.2349C283.978 28.4589 283.905 26.6589 283.905 24.9069H283.881Z" fill="#FEBD42"/>
<path d="M276.793 16.1588C276.259 15.8228 275.701 15.5108 275.07 15.3908C274.391 15.2468 273.688 15.1748 273.009 15.1748C271.869 15.1748 270.753 15.1748 269.613 15.1748C268.497 15.1748 267.43 16.1588 267.478 17.3348C267.527 18.5108 268.424 19.4948 269.613 19.4948C270.753 19.4948 271.869 19.5188 273.009 19.4948C273.688 19.4948 274.416 19.3988 275.07 19.2788C275.701 19.1588 276.235 18.8228 276.793 18.5108C277.666 17.9828 277.666 16.7108 276.793 16.1828V16.1588Z" fill="#FEBD42"/>
<path d="M295.006 16.445C294.715 16.013 294.399 15.677 293.914 15.461C293.356 15.221 292.871 15.101 292.24 15.077C291.682 15.077 291.1 15.029 290.542 15.077C289.378 15.125 288.19 15.149 287.025 15.197C285.934 15.221 284.891 16.133 284.939 17.285C284.988 18.437 285.861 19.349 287.025 19.373C288.19 19.421 289.378 19.445 290.542 19.493C291.1 19.493 291.682 19.493 292.24 19.493C292.847 19.493 293.356 19.349 293.914 19.109C294.375 18.917 294.715 18.557 295.006 18.125C295.297 17.693 295.297 16.901 295.006 16.469V16.445Z" fill="#FEBD42"/>
</svg>
