<svg width="40" height="40" viewBox="0 0 40 40" fill="none" xmlns="http://www.w3.org/2000/svg">
<path fill-rule="evenodd" clip-rule="evenodd" d="M19.9993 12.2213C19.9993 14.3688 18.2585 16.1097 16.111 16.1097C13.9635 16.1097 12.2227 14.3688 12.2227 12.2213C12.2227 10.0739 13.9635 8.33301 16.111 8.33301C18.2585 8.33301 19.9993 10.0739 19.9993 12.2213Z" stroke="white" stroke-width="2" stroke-linecap="round" stroke-linejoin="round"/>
<path fill-rule="evenodd" clip-rule="evenodd" d="M23.887 26.2217C23.887 29.2217 20.4054 31.6667 16.1087 31.6667C11.812 31.6667 8.33203 29.2283 8.33203 26.2217C8.33203 23.215 11.8137 20.7783 16.1104 20.7783C20.407 20.7783 23.887 23.215 23.887 26.2217Z" stroke="white" stroke-width="2" stroke-linecap="round" stroke-linejoin="round"/>
<path fill-rule="evenodd" clip-rule="evenodd" d="M28.2292 15.8509C28.2292 17.1396 27.1845 18.1842 25.8958 18.1842C24.6072 18.1842 23.5625 17.1396 23.5625 15.8509C23.5625 14.5622 24.6072 13.5176 25.8958 13.5176C26.5147 13.5176 27.1082 13.7634 27.5457 14.201C27.9833 14.6386 28.2292 15.2321 28.2292 15.8509Z" stroke="white" stroke-width="2" stroke-linecap="round" stroke-linejoin="round"/>
<path d="M27 30.1115C29.3563 30.3049 31.4327 28.574 31.6667 26.2215C31.4319 23.8695 29.3557 22.1396 27 22.3331" stroke="white" stroke-width="2" stroke-linecap="round" stroke-linejoin="round"/>
</svg>
