<svg width="728" height="599" viewBox="0 0 728 599" fill="none" xmlns="http://www.w3.org/2000/svg">
<g clip-path="url(#clip0_16797_129077)">
<path d="M563.666 105.902C670.706 43.7126 548.983 -25.9363 549.417 97.7491C548.983 -25.8496 427.694 44.58 535.168 105.989C427.694 44.4932 428.215 184.572 535.168 122.382C428.128 184.572 549.852 254.221 549.417 130.535C549.852 254.134 671.141 183.704 563.666 122.295C671.141 183.791 670.62 43.7126 563.666 105.902Z" fill="#FEBD42"/>
<path d="M659.001 192.691L602.905 418.039C596.168 444.964 568.978 461.347 542.045 454.612L113.102 347.865C105.959 346.078 99.4946 342.81 94.03 338.458C79.0569 326.645 71.6016 306.733 76.5407 287.051L92.3381 223.76L132.637 61.704C139.346 34.8019 166.587 18.4242 193.497 25.1312L365.595 67.9538L493.539 99.7862L622.44 131.878C649.35 138.585 665.733 165.818 659.001 192.691Z" fill="#263238"/>
<path d="M652.403 181.184L596.307 406.531C589.57 433.456 562.38 449.839 535.447 443.104L106.504 336.357C99.3609 334.57 92.8969 331.302 87.4324 326.95C72.4592 315.138 65.004 295.225 69.9431 275.544L85.7405 212.252L126.039 50.1962C132.748 23.2941 159.989 6.91635 186.9 13.6234L358.997 56.446L486.941 88.2784L615.842 120.37C642.752 127.077 659.135 154.31 652.403 181.184Z" fill="#CEFE65"/>
<path opacity="0.02" d="M359.021 56.4737L85.7355 212.302L126.034 50.2467C132.743 23.3446 159.984 6.9669 186.894 13.6739L358.992 56.4965L359.021 56.4737Z" fill="black"/>
<path opacity="0.02" d="M652.404 181.183L596.309 406.531C589.571 433.456 562.381 449.839 535.448 443.104L106.506 336.357C99.3621 334.57 92.8982 331.302 87.4336 326.95L496.991 90.7692L615.82 120.342C642.731 127.049 659.114 154.281 652.382 181.155L652.404 181.183Z" fill="black"/>
<path d="M169.048 61.5079L159.14 101.291C157.156 109.259 162.008 117.327 169.979 119.311L233.404 135.096C241.375 137.08 249.445 132.229 251.429 124.26L261.337 84.4776C263.321 76.5093 258.469 68.4415 250.498 66.4577L187.073 50.6721C179.102 48.6883 171.032 53.5396 169.048 61.5079Z" fill="white"/>
<path d="M164.281 80.5283L256.193 104.896" stroke="#CAF963" stroke-width="4" stroke-linecap="round" stroke-linejoin="round"/>
<path d="M201.833 127.219L218.984 58.6314" stroke="#CAF963" stroke-width="4" stroke-linecap="round" stroke-linejoin="round"/>
<path d="M558.01 401.73C561.234 402.533 563.178 405.817 562.33 409.028C561.499 412.176 558.293 414.073 555.132 413.287L378.274 369.278C375.072 368.481 373.124 365.24 373.923 362.04C374.721 358.843 377.96 356.897 381.158 357.694L558.01 401.73Z" fill="#263238"/>
<path d="M563.15 382.146C566.386 382.952 568.339 386.247 567.49 389.471C566.657 392.634 563.435 394.541 560.26 393.75L383.182 349.643C379.993 348.849 378.049 345.622 378.84 342.432C379.631 339.237 382.865 337.29 386.061 338.085L563.15 382.146Z" fill="#263238"/>
<path d="M568.312 362.567C571.549 363.372 573.502 366.668 572.652 369.892C571.819 373.055 568.599 374.962 565.424 374.172L388.064 330.035C384.862 329.238 382.913 325.996 383.712 322.796C384.51 319.599 387.749 317.654 390.947 318.449L568.312 362.567Z" fill="#263238"/>
<path d="M682.142 389.736C681.661 389.819 681.164 389.918 680.666 390.001C679.655 390.48 678.527 390.91 677.615 391.572C676.537 392.366 676.023 393.407 675.807 394.697C675.559 396.169 675.542 397.723 675.409 399.212C675.26 400.948 674.912 402.635 674.597 404.338C674.464 405.066 673.37 405.165 673.054 404.537C671.396 401.329 672.192 397.624 670.816 394.366C669.34 390.894 665.094 390.546 661.811 390.348C660.683 390.282 660.418 389.075 660.982 388.446C661.081 388.248 661.28 388.082 661.579 388.049C663.585 387.785 665.608 387.305 667.516 386.644C669.124 386.081 670.053 385.089 670.583 383.485C671.827 379.698 671.827 375.481 671.877 371.545C671.91 369.66 674.713 369.677 674.796 371.545C674.879 373.398 674.945 375.25 675.028 377.118C675.111 378.937 675.111 380.806 675.592 382.576C675.94 383.849 676.67 385.172 677.897 385.767C679.34 386.462 681.031 386.396 682.49 387.107C683.585 387.636 683.353 389.505 682.142 389.736Z" fill="#FEBD42"/>
<path d="M108.185 430.405C107.704 430.488 107.207 430.587 106.709 430.67C105.698 431.149 104.57 431.579 103.658 432.241C102.597 433.034 102.066 434.076 101.85 435.366C101.602 436.838 101.585 438.392 101.452 439.881C101.303 441.617 100.955 443.304 100.64 445.007C100.507 445.735 99.4125 445.834 99.0974 445.206C97.439 441.998 98.2351 438.293 96.8586 435.035C95.3827 431.563 91.1373 431.215 87.8537 431.017C86.726 430.951 86.4607 429.744 87.0246 429.115C87.1241 428.917 87.3231 428.751 87.6216 428.718C89.6282 428.454 91.6514 427.974 93.5585 427.313C95.1671 426.75 96.0958 425.758 96.6264 424.154C97.8702 420.367 97.8702 416.15 97.92 412.214C97.9531 410.329 100.756 410.346 100.839 412.214C100.922 414.066 100.988 415.919 101.071 417.787C101.154 419.606 101.154 421.475 101.635 423.245C101.983 424.518 102.713 425.841 103.94 426.436C105.383 427.131 107.074 427.081 108.533 427.776C109.628 428.305 109.396 430.174 108.185 430.405Z" fill="#FEBD42"/>
<path d="M672.74 417.66C672.093 418.074 671.164 417.908 670.435 417.908C669.97 417.908 669.506 417.908 669.042 417.908C669.042 418.702 669.009 419.496 668.926 420.273C668.859 420.902 668.445 421.447 667.748 421.447C667.052 421.447 666.654 420.902 666.571 420.273C666.471 419.463 666.455 418.653 666.455 417.826C665.791 417.809 665.145 417.793 664.481 417.76C663.818 417.726 663.171 417.197 663.204 416.486C663.238 415.775 663.768 415.246 664.481 415.213C665.145 415.18 665.808 415.163 666.471 415.147C666.471 414.535 666.471 413.939 666.471 413.328C666.471 412.534 666.405 411.74 666.471 410.946C666.521 410.252 667.019 409.673 667.748 409.673C668.478 409.673 668.975 410.268 669.025 410.946C669.092 411.74 669.025 412.534 669.025 413.328C669.025 413.906 669.025 414.502 669.025 415.081C669.473 415.081 669.904 415.081 670.352 415.081C671.098 415.081 672.077 414.915 672.74 415.312C673.635 415.874 673.635 417.115 672.74 417.677V417.66Z" fill="#FEBD42"/>
<path d="M691.448 403.405C690.321 403.587 689.127 403.505 687.966 403.471C687.966 404.199 687.966 404.943 687.933 405.671C687.899 406.332 687.385 406.911 686.689 406.911C685.992 406.911 685.478 406.349 685.445 405.671C685.412 404.91 685.429 404.133 685.412 403.372C684.782 403.339 684.152 403.323 683.505 403.29C682.875 403.256 682.261 402.76 682.294 402.082C682.327 401.388 682.825 400.908 683.505 400.875C684.135 400.842 684.765 400.826 685.379 400.792C685.379 399.602 685.379 398.411 685.694 397.27C685.959 396.294 687.369 396.294 687.634 397.27C687.949 398.378 687.949 399.536 687.949 400.693C689.11 400.644 690.288 400.577 691.415 400.759C691.996 400.859 692.477 401.537 692.46 402.099C692.443 402.678 692.045 403.339 691.415 403.438L691.448 403.405Z" fill="#FEBD42"/>
<path d="M697.351 376.526C696.937 376.889 696.522 377.038 695.975 377.071C695.676 377.071 695.378 377.071 695.096 377.071C694.814 377.071 694.532 377.071 694.234 377.071C694.217 377.898 694.184 378.725 694.167 379.568C694.134 381.007 691.962 381.007 691.929 379.568C691.912 378.725 691.879 377.882 691.862 377.038C691.265 377.022 690.652 377.005 690.055 376.989C689.391 376.972 688.761 376.426 688.778 375.715C688.811 375.004 689.341 374.475 690.055 374.442C690.618 374.409 691.182 374.392 691.746 374.359C691.663 373.284 691.597 372.176 691.846 371.151C692.128 369.96 693.935 369.96 694.234 371.151C694.482 372.143 694.416 373.218 694.35 374.26H695.096C695.395 374.244 695.693 374.21 695.975 374.227C696.522 374.244 696.937 374.409 697.351 374.756C697.849 375.153 697.816 376.096 697.351 376.509V376.526Z" fill="#FEBD42"/>
<path d="M482.259 522.059C481.779 522.142 481.281 522.241 480.783 522.324C479.772 522.804 478.644 523.233 477.732 523.895C476.671 524.689 476.14 525.731 475.924 527.02C475.676 528.492 475.659 530.047 475.527 531.535C475.377 533.271 475.029 534.958 474.714 536.662C474.581 537.389 473.487 537.488 473.172 536.86C471.513 533.652 472.309 529.948 470.933 526.69C469.457 523.217 465.211 522.87 461.928 522.671C460.8 522.605 460.535 521.398 461.099 520.769C461.198 520.571 461.397 520.406 461.696 520.373C463.702 520.108 465.726 519.628 467.633 518.967C469.241 518.405 470.17 517.412 470.701 515.808C471.944 512.021 471.944 507.804 471.994 503.869C472.027 501.983 474.83 502 474.913 503.869C474.996 505.721 475.062 507.573 475.145 509.442C475.228 511.261 475.228 513.129 475.709 514.899C476.057 516.172 476.787 517.495 478.014 518.09C479.457 518.785 481.148 518.719 482.608 519.43C483.702 519.959 483.47 521.828 482.259 522.059Z" fill="#FEBD42"/>
<path d="M491.581 535.736C490.454 535.918 489.259 535.836 488.099 535.802C488.099 536.53 488.099 537.274 488.065 538.002C488.032 538.663 487.518 539.242 486.822 539.242C486.125 539.242 485.611 538.68 485.578 538.002C485.545 537.241 485.561 536.464 485.545 535.703C484.915 535.67 484.284 535.654 483.638 535.621C483.007 535.588 482.394 535.091 482.427 534.413C482.46 533.719 482.958 533.239 483.638 533.206C484.268 533.173 484.898 533.157 485.512 533.123C485.512 531.933 485.512 530.742 485.827 529.601C486.092 528.625 487.502 528.625 487.767 529.601C488.082 530.709 488.082 531.867 488.082 533.024C489.243 532.975 490.42 532.909 491.548 533.09C492.128 533.19 492.609 533.868 492.593 534.43C492.576 535.009 492.178 535.67 491.548 535.769L491.581 535.736Z" fill="#FEBD42"/>
<path d="M497.469 508.858C497.054 509.221 496.639 509.37 496.092 509.403C495.794 509.403 495.495 509.403 495.213 509.403C494.931 509.403 494.649 509.403 494.351 509.403C494.334 510.23 494.301 511.057 494.285 511.9C494.251 513.339 492.079 513.339 492.046 511.9C492.029 511.057 491.996 510.214 491.979 509.37C491.382 509.354 490.769 509.337 490.172 509.321C489.508 509.304 488.878 508.758 488.895 508.047C488.928 507.336 489.459 506.807 490.172 506.774C490.736 506.741 491.299 506.724 491.863 506.691C491.78 505.616 491.714 504.508 491.963 503.483C492.245 502.292 494.052 502.292 494.351 503.483C494.6 504.475 494.533 505.55 494.467 506.592H495.213C495.512 506.576 495.81 506.542 496.092 506.559C496.639 506.576 497.054 506.741 497.469 507.088C497.966 507.485 497.933 508.428 497.469 508.841V508.858Z" fill="#FEBD42"/>
<path d="M82.2147 392.923C81.8001 393.287 81.3855 393.436 80.8382 393.469C80.5397 393.469 80.2412 393.469 79.9593 393.469C79.6774 393.469 79.3954 393.469 79.0969 393.469C79.0804 394.296 79.0472 395.122 79.0306 395.966C78.9974 397.405 76.825 397.405 76.7918 395.966C76.7752 395.122 76.7421 394.279 76.7255 393.436C76.1285 393.419 75.5149 393.403 74.9179 393.386C74.2545 393.37 73.6244 392.824 73.6409 392.113C73.6741 391.402 74.2048 390.872 74.9179 390.839C75.4817 390.806 76.0456 390.79 76.6094 390.757C76.5265 389.682 76.4602 388.574 76.7089 387.549C76.9908 386.358 78.7984 386.358 79.0969 387.549C79.3457 388.541 79.2794 389.616 79.213 390.658H79.9593C80.2578 390.641 80.5563 390.608 80.8382 390.624C81.3855 390.641 81.8001 390.806 82.2147 391.154C82.7122 391.551 82.679 392.493 82.2147 392.907V392.923Z" fill="#FEBD42"/>
<path d="M699.259 178.814C699.259 179.84 698.546 180.815 697.684 180.766C696.821 180.716 696.125 179.906 696.108 178.814C696.108 177.822 696.058 176.83 696.108 175.838C696.141 175.259 696.158 174.581 696.324 174.052C696.489 173.523 696.622 172.993 696.854 172.514C697.203 171.737 698.148 171.737 698.496 172.514C698.712 172.993 698.844 173.506 699.01 174.002C699.176 174.564 699.209 175.242 699.242 175.838C699.292 176.83 699.242 177.822 699.242 178.814H699.259Z" fill="#FEBD42"/>
<path d="M699.419 163.605C699.419 164.631 698.689 165.606 697.843 165.557C696.998 165.507 696.251 164.697 696.268 163.605C696.268 162.382 696.218 161.141 696.284 159.934C696.367 158.562 696.45 156.991 697.246 155.916C697.545 155.502 698.158 155.502 698.457 155.916C699.236 156.991 699.336 158.562 699.419 159.934C699.485 161.158 699.435 162.398 699.435 163.605H699.419Z" fill="#FEBD42"/>
<path d="M694.596 169.633C694.231 169.865 693.849 170.08 693.418 170.163C692.954 170.262 692.473 170.312 692.009 170.312C691.229 170.312 690.466 170.312 689.687 170.312C688.924 170.312 688.194 169.634 688.228 168.823C688.261 168.013 688.874 167.335 689.687 167.335C690.466 167.335 691.229 167.318 692.009 167.335C692.473 167.335 692.971 167.401 693.418 167.484C693.849 167.583 694.214 167.798 694.596 168.013C695.193 168.377 695.193 169.253 694.596 169.617V169.633Z" fill="#FEBD42"/>
<path d="M707.032 169.436C706.833 169.734 706.617 169.965 706.285 170.114C705.904 170.28 705.572 170.362 705.141 170.379C704.76 170.379 704.362 170.412 703.98 170.379C703.184 170.346 702.372 170.329 701.576 170.296C700.83 170.28 700.116 169.651 700.15 168.857C700.183 168.064 700.78 167.435 701.576 167.419C702.372 167.386 703.184 167.369 703.98 167.336C704.362 167.336 704.76 167.336 705.141 167.336C705.556 167.336 705.904 167.435 706.285 167.601C706.601 167.733 706.833 167.981 707.032 168.279C707.231 168.576 707.231 169.122 707.032 169.42V169.436Z" fill="#FEBD42"/>
<path d="M32.5011 122.717C32.5011 123.742 31.788 124.718 30.9257 124.668C30.0633 124.618 29.3668 123.808 29.3502 122.717C29.3502 121.725 29.3005 120.732 29.3502 119.74C29.3834 119.161 29.4 118.483 29.5658 117.954C29.7317 117.425 29.8643 116.896 30.0965 116.416C30.4448 115.639 31.39 115.639 31.7383 116.416C31.9539 116.896 32.0865 117.408 32.2524 117.904C32.4182 118.467 32.4514 119.145 32.4845 119.74C32.5343 120.732 32.4845 121.725 32.4845 122.717H32.5011Z" fill="#FEBD42"/>
<path d="M32.661 107.508C32.661 108.533 31.9313 109.509 31.0855 109.459C30.2398 109.41 29.4935 108.599 29.5101 107.508C29.5101 106.284 29.4603 105.044 29.5267 103.836C29.6096 102.464 29.7091 100.893 30.4885 99.818C30.787 99.4046 31.4006 99.4046 31.6991 99.818C32.4786 100.893 32.5781 102.464 32.661 103.836C32.7273 105.06 32.6776 106.301 32.6776 107.508H32.661Z" fill="#FEBD42"/>
<path d="M27.8379 113.536C27.4731 113.767 27.0917 113.982 26.6605 114.065C26.1962 114.164 25.7152 114.214 25.2509 114.214C24.4715 114.214 23.7086 114.214 22.9292 114.214C22.1664 114.214 21.4367 113.536 21.4698 112.726C21.503 111.915 22.1166 111.237 22.9292 111.237C23.7086 111.237 24.4715 111.221 25.2509 111.237C25.7152 111.237 26.2127 111.303 26.6605 111.386C27.0917 111.469 27.4565 111.7 27.8379 111.915C28.4349 112.279 28.4349 113.156 27.8379 113.519V113.536Z" fill="#FEBD42"/>
<path d="M40.2895 113.322C40.0905 113.62 39.875 113.851 39.5433 114C39.1619 114.165 38.8302 114.248 38.399 114.265C38.0176 114.265 37.6196 114.298 37.2382 114.265C36.4422 114.232 35.6296 114.215 34.8336 114.182C34.0873 114.165 33.3742 113.537 33.4074 112.743C33.4405 111.949 34.0375 111.321 34.8336 111.305C35.6296 111.271 36.4422 111.255 37.2382 111.222C37.6196 111.222 38.0176 111.222 38.399 111.222C38.8136 111.222 39.1619 111.321 39.5433 111.486C39.8584 111.619 40.0905 111.867 40.2895 112.164C40.4885 112.462 40.4885 113.008 40.2895 113.305V113.322Z" fill="#FEBD42"/>
<path d="M277.208 580.768C277.208 581.793 276.495 582.768 275.633 582.719C274.77 582.669 274.074 581.859 274.057 580.768C274.057 579.775 274.008 578.783 274.057 577.791C274.09 577.212 274.107 576.534 274.273 576.005C274.439 575.476 274.571 574.946 274.804 574.467C275.152 573.69 276.097 573.69 276.445 574.467C276.661 574.946 276.794 575.459 276.959 575.955C277.125 576.517 277.158 577.196 277.192 577.791C277.241 578.783 277.192 579.775 277.192 580.768H277.208Z" fill="#FEBD42"/>
<path d="M277.388 565.559C277.388 566.584 276.658 567.56 275.812 567.51C274.966 567.46 274.22 566.65 274.237 565.559C274.237 564.335 274.187 563.095 274.253 561.887C274.336 560.515 274.419 558.944 275.215 557.869C275.514 557.455 276.127 557.455 276.426 557.869C277.205 558.944 277.305 560.515 277.388 561.887C277.454 563.111 277.404 564.351 277.404 565.559H277.388Z" fill="#FEBD42"/>
<path d="M272.545 571.587C272.18 571.818 271.799 572.033 271.368 572.116C270.903 572.215 270.422 572.265 269.958 572.265C269.178 572.265 268.416 572.265 267.636 572.265C266.873 572.265 266.144 571.587 266.177 570.776C266.21 569.966 266.824 569.288 267.636 569.288C268.416 569.288 269.178 569.271 269.958 569.288C270.422 569.288 270.92 569.354 271.368 569.437C271.799 569.52 272.164 569.751 272.545 569.966C273.142 570.33 273.142 571.206 272.545 571.57V571.587Z" fill="#FEBD42"/>
<path d="M284.997 571.389C284.798 571.687 284.582 571.919 284.25 572.067C283.869 572.233 283.537 572.315 283.106 572.332C282.725 572.332 282.327 572.365 281.945 572.332C281.149 572.299 280.337 572.282 279.541 572.249C278.794 572.233 278.081 571.604 278.114 570.811C278.148 570.017 278.745 569.388 279.541 569.372C280.337 569.339 281.149 569.322 281.945 569.289C282.327 569.289 282.725 569.289 283.106 569.289C283.521 569.289 283.869 569.388 284.25 569.554C284.565 569.686 284.798 569.934 284.997 570.232C285.196 570.529 285.196 571.075 284.997 571.373V571.389Z" fill="#FEBD42"/>
<path d="M196.737 381.013C303.777 318.823 182.053 249.174 182.488 372.859C182.053 249.261 60.7641 319.69 168.239 381.099C60.7641 319.604 61.2854 459.682 168.239 397.492C61.1985 459.682 182.922 529.331 182.488 405.646C182.922 529.244 304.211 458.815 196.737 397.406C304.211 458.901 303.69 318.823 196.737 381.013Z" fill="#FEBD42"/>
</g>
<defs>
<clipPath id="clip0_16797_129077">
<rect width="728" height="599" fill="white"/>
</clipPath>
</defs>
</svg>
