<svg width="21" height="20" viewBox="0 0 21 20" fill="none" xmlns="http://www.w3.org/2000/svg">
<path fill-rule="evenodd" clip-rule="evenodd" d="M16.7366 3L14.4115 6.48773C13.2229 5.84562 11.8624 5.48113 10.4167 5.48113C8.97096 5.48113 7.61039 5.84562 6.42184 6.48773L4.09669 3L3.40331 3.46225L5.70855 6.9201C3.47098 8.43284 2 10.9935 2 13.8978V16.9811H18.8333V13.8978C18.8333 10.9935 17.3624 8.43284 15.1248 6.9201L17.43 3.46225L16.7366 3ZM8.41632 12.0648C8.41632 12.6911 7.90864 13.1988 7.28238 13.1988C6.65612 13.1988 6.14844 12.6911 6.14844 12.0648C6.14844 11.4386 6.65612 10.9309 7.28238 10.9309C7.90864 10.9309 8.41632 11.4386 8.41632 12.0648ZM13.55 13.1988C14.1762 13.1988 14.6839 12.6911 14.6839 12.0648C14.6839 11.4386 14.1762 10.9309 13.55 10.9309C12.9237 10.9309 12.416 11.4386 12.416 12.0648C12.416 12.6911 12.9237 13.1988 13.55 13.1988Z" fill="white"/>
</svg>
