<svg width="21" height="20" viewBox="0 0 21 20" fill="none" xmlns="http://www.w3.org/2000/svg">
<path d="M10.5379 5.5873C11.5099 5.5873 12.3626 5.20773 13.096 4.44858C13.8294 3.68943 14.1961 2.80667 14.1961 1.8003C14.1961 1.68977 14.1874 1.53271 14.1699 1.3291C14.0419 1.34655 13.9458 1.3611 13.8818 1.37273C12.9854 1.50071 12.1967 1.93991 11.5157 2.69032C10.8347 3.44075 10.4943 4.24353 10.4943 5.09867C10.4943 5.19754 10.5088 5.36045 10.5379 5.5873ZM14.0215 18.9291C14.7141 18.9291 15.4795 18.455 16.3177 17.5068C17.1559 16.5586 17.7961 15.4446 18.2385 14.1648C16.5912 13.3155 15.7676 12.0968 15.7676 10.5087C15.7676 9.18235 16.4341 8.048 17.767 7.10561C16.8415 5.94797 15.6192 5.36915 14.1001 5.36915C13.4598 5.36915 12.8748 5.46514 12.3452 5.65711L12.0134 5.77927L11.5681 5.95379C11.2771 6.06432 11.0123 6.1196 10.7736 6.1196C10.5874 6.1196 10.3429 6.05559 10.0402 5.92761L9.69973 5.788L9.37671 5.65711C8.90523 5.45932 8.39885 5.36043 7.85755 5.36043C6.40823 5.36043 5.24413 5.84908 4.36523 6.82638C3.48632 7.80366 3.04688 9.09218 3.04688 10.6919C3.04688 12.9432 3.75115 15.0228 5.15973 16.9309C6.13758 18.263 7.03103 18.9291 7.84008 18.9291C8.1835 18.9291 8.52399 18.8622 8.86158 18.7284L9.28939 18.5539L9.62991 18.4317C10.1072 18.263 10.5466 18.1787 10.9482 18.1787C11.3731 18.1787 11.8621 18.2863 12.415 18.5015L12.6857 18.6062C13.2502 18.8215 13.6955 18.9291 14.0215 18.9291Z" fill="white"/>
</svg>
