<svg width="41" height="40" viewBox="0 0 41 40" fill="none" xmlns="http://www.w3.org/2000/svg">
<path d="M20.666 10V30M15.666 25.303L17.1308 26.4017C19.0834 27.8661 22.2491 27.8661 24.2016 26.4017C26.1542 24.9372 26.1542 22.5628 24.2016 21.0983C23.2252 20.366 21.9455 19.9999 20.6658 20C19.4576 20.0001 18.2497 19.634 17.3278 18.9017C15.4843 17.4372 15.4843 15.0629 17.3278 13.5984C19.1713 12.1339 22.1602 12.1339 24.0037 13.5984L24.6952 14.1477M35.666 20C35.666 28.2843 28.9503 35 20.666 35C12.3817 35 5.66602 28.2843 5.66602 20C5.66602 11.7157 12.3817 5 20.666 5C28.9503 5 35.666 11.7157 35.666 20Z" stroke="#11140E" stroke-width="3" stroke-linecap="round" stroke-linejoin="round"/>
</svg>
