<svg width="41" height="40" viewBox="0 0 41 40" fill="none" xmlns="http://www.w3.org/2000/svg">
<path d="M31.2361 20.463C31.9506 20.8822 32.8697 20.6428 33.2889 19.9283C33.7081 19.2138 33.4687 18.2947 32.7542 17.8755L31.2361 20.463ZM11.0735 6.89423L10.2994 8.17906C10.3044 8.18206 10.3094 8.18504 10.3144 8.18799L11.0735 6.89423ZM9.37477 6.93297L8.54292 5.68476L8.54292 5.68476L9.37477 6.93297ZM8.68516 8.48589L7.20136 8.70579C7.21603 8.80479 7.24058 8.90208 7.27463 8.99619L8.68516 8.48589ZM11.1396 19.6795C11.4215 20.4585 12.2814 20.8616 13.0605 20.5798C13.8395 20.2979 14.2425 19.4379 13.9607 18.6589L11.1396 19.6795ZM32.7542 20.463C33.4687 20.0438 33.7081 19.1247 33.2889 18.4102C32.8697 17.6956 31.9506 17.4562 31.2361 17.8755L32.7542 20.463ZM11.0735 31.4442L10.3144 30.1505C10.3094 30.1534 10.3044 30.1564 10.2994 30.1594L11.0735 31.4442ZM9.37477 31.4055L8.54292 32.6537H8.54292L9.37477 31.4055ZM8.68516 29.8526L7.27463 29.3423C7.24058 29.4364 7.21603 29.5337 7.20136 29.6327L8.68516 29.8526ZM13.9607 19.6795C14.2425 18.9005 13.8395 18.0405 13.0605 17.7587C12.2814 17.4769 11.4215 17.8799 11.1396 18.6589L13.9607 19.6795ZM31.9952 20.6692C32.8236 20.6692 33.4952 19.9977 33.4952 19.1692C33.4952 18.3408 32.8236 17.6692 31.9952 17.6692V20.6692ZM12.5502 17.6692C11.7217 17.6692 11.0502 18.3408 11.0502 19.1692C11.0502 19.9977 11.7217 20.6692 12.5502 20.6692V17.6692ZM32.7542 17.8755L11.8326 5.60046L10.3144 8.18799L31.2361 20.463L32.7542 17.8755ZM11.8476 5.60939C10.8243 4.99287 9.53706 5.02222 8.54292 5.68476L10.2066 8.18117C10.2345 8.16257 10.2707 8.16175 10.2994 8.17906L11.8476 5.60939ZM8.54292 5.68476C7.54878 6.34729 7.02622 7.52401 7.20136 8.70579L10.1689 8.266C10.164 8.23282 10.1787 8.19978 10.2066 8.18117L8.54292 5.68476ZM7.27463 8.99619L11.1396 19.6795L13.9607 18.6589L10.0957 7.97559L7.27463 8.99619ZM31.2361 17.8755L10.3144 30.1505L11.8326 32.738L32.7542 20.463L31.2361 17.8755ZM10.2994 30.1594C10.2707 30.1767 10.2345 30.1759 10.2066 30.1573L8.54292 32.6537C9.53706 33.3162 10.8243 33.3456 11.8476 32.7291L10.2994 30.1594ZM10.2066 30.1573C10.1787 30.1387 10.164 30.1056 10.1689 30.0725L7.20136 29.6327C7.02622 30.8144 7.54878 31.9912 8.54292 32.6537L10.2066 30.1573ZM10.0957 30.3629L13.9607 19.6795L11.1396 18.6589L7.27463 29.3423L10.0957 30.3629ZM31.9952 17.6692H12.5502V20.6692H31.9952V17.6692Z" fill="#11140E"/>
</svg>
