<svg width="684" height="512" viewBox="0 0 684 512" fill="none" xmlns="http://www.w3.org/2000/svg">
<g style="mix-blend-mode:multiply" opacity="0.31">
<path d="M162.174 511.892C72.6074 511.892 -0.000274658 479.071 -0.000274658 438.584C-0.000274658 398.097 72.6074 365.276 162.174 365.276C251.74 365.276 324.348 398.097 324.348 438.584C324.348 479.071 251.74 511.892 162.174 511.892Z" fill="#435529"/>
</g>
<path d="M46.6489 393.55C70.4233 367.796 122.526 349.86 183.034 349.86C243.543 349.86 295.645 367.753 319.42 393.55H333.168V424.905C333.168 466.336 265.96 499.907 183.034 499.907C100.108 499.907 32.9008 466.336 32.9008 424.905V393.55H46.6489Z" fill="#DB9930"/>
<path d="M329.57 441.145C327.819 445.14 325.411 448.962 322.477 452.697V393.547H329.57V441.145Z" fill="#C97830"/>
<path d="M318.148 457.607C316.003 459.821 313.595 461.993 311.056 464.077V385.775C313.639 387.86 316.003 390.031 318.148 392.29V457.607Z" fill="#C97830"/>
<path d="M306.714 467.376C304.481 469.026 302.073 470.59 299.621 472.11V378.781H301.416C303.255 379.954 305.05 381.17 306.758 382.429V467.332L306.714 467.376Z" fill="#C97830"/>
<path d="M295.289 474.67C293.012 475.973 290.648 477.189 288.196 478.405V387.509H295.289V474.67Z" fill="#C97830"/>
<path d="M283.867 480.447C281.547 481.49 279.182 482.489 276.774 483.444V396.152H283.867V480.404V480.447Z" fill="#FAE745"/>
<path d="M272.438 485.137C270.117 486.006 267.753 486.831 265.344 487.613V404.881H272.438V485.137Z" fill="#C97830"/>
<path d="M261 489.003C258.679 489.698 256.315 490.393 253.907 491.044V413.567H261V489.003Z" fill="#C97830"/>
<path d="M249.582 492.131C247.262 492.695 244.853 493.26 242.489 493.781V422.254H249.582V492.131Z" fill="#C97830"/>
<path d="M238.148 494.65C235.784 495.128 233.42 495.562 231.056 495.953V430.94H238.148V494.65Z" fill="#C97830"/>
<path d="M226.73 496.69C224.366 497.037 222.002 497.385 219.637 497.689V439.668H226.73V496.733V496.69Z" fill="#FAE745"/>
<path d="M215.301 498.168C212.936 498.429 210.572 498.646 208.208 498.863V448.355H215.301V498.212V498.168Z" fill="#C97830"/>
<path d="M203.867 499.164C201.503 499.338 199.138 499.468 196.774 499.555V456.951H203.867V499.12V499.164Z" fill="#C97830"/>
<path d="M192.094 499.773C189.729 499.86 187.365 499.86 185.001 499.903V452.132H192.094V499.773Z" fill="#C97830"/>
<path d="M173.177 499.731V447.226H180.27V499.861C177.905 499.861 175.497 499.774 173.177 499.731Z" fill="#C97830"/>
<path d="M161.352 442.362H168.445V499.558C166.037 499.428 163.673 499.297 161.352 499.124V442.362Z" fill="#C97830"/>
<path d="M149.571 437.452H156.664V498.73C154.256 498.513 151.892 498.296 149.571 497.992V437.452Z" fill="#FAE745"/>
<path d="M137.802 432.59H144.895V497.473C142.486 497.169 140.122 496.821 137.802 496.431V432.547V432.59Z" fill="#C97830"/>
<path d="M126.02 427.683H133.113V495.649C130.705 495.214 128.341 494.78 126.02 494.302V427.683Z" fill="#C97830"/>
<path d="M114.204 422.818H121.297V493.303C118.889 492.782 116.524 492.174 114.204 491.566V422.818Z" fill="#C97830"/>
<path d="M102.419 417.91H109.512V490.306C107.104 489.611 104.739 488.916 102.419 488.178V417.91Z" fill="#C97830"/>
<path d="M90.6454 413.046H97.7383V486.658C95.3302 485.833 92.9659 484.921 90.6454 484.052V413.089V413.046Z" fill="#C97830"/>
<path d="M78.8212 408.139H85.9141V482.098C83.4622 481.056 81.0979 479.97 78.8212 478.884V408.139Z" fill="#C97830"/>
<path d="M67.0477 403.273H74.1406V476.538C71.6888 475.235 69.2807 473.932 67.0477 472.542V403.273Z" fill="#FAE745"/>
<path d="M55.2665 398.367H62.3594V469.503C59.8637 467.81 57.4556 466.073 55.2665 464.249V398.367Z" fill="#C97830"/>
<path d="M43.4423 452.524V393.547H46.6385C46.6385 393.547 46.6384 393.547 46.6822 393.504H50.5352V460.254C47.8644 457.778 45.5001 455.216 43.4423 452.567V452.524Z" fill="#C97830"/>
<path d="M33.3758 393.547H40.4688V448.441C36.7034 442.752 34.2953 436.802 33.3758 430.635V393.547Z" fill="#C97830"/>
<path d="M183.034 468.55C100.118 468.55 32.9008 434.971 32.9008 393.548C32.9008 352.126 100.118 318.547 183.034 318.547C265.951 318.547 333.168 352.126 333.168 393.548C333.168 434.971 265.951 468.55 183.034 468.55Z" fill="#F0D138"/>
<path d="M123.489 324.671L333.168 393.245C333.168 393.245 333.168 393.462 333.168 393.549C333.168 408.228 324.718 421.908 310.138 433.46L58.952 351.336C74.8892 339.654 97.2625 330.36 123.489 324.671Z" fill="#FAE745"/>
<path d="M40.9128 369.359C42.9268 366.406 45.2473 363.54 47.918 360.804L297.09 442.276C293.062 444.621 288.815 446.836 284.261 448.921L40.9128 369.359Z" fill="#FAE745"/>
<path d="M35.4347 407.228C34.0336 403.449 33.2017 399.541 32.9828 395.589L239.422 463.077C232.241 464.554 224.754 465.726 217.048 466.595L35.4347 407.228Z" fill="#FAE745"/>
<path d="M324.371 368.231C327.392 372.444 329.668 376.787 331.113 381.304L146.128 320.807C154.797 319.722 163.729 319.027 172.924 318.723L324.371 368.231Z" fill="#FAE745"/>
<path d="M142.827 402.059C136.917 404.926 133.939 406.359 128.072 409.225C133.677 411.57 136.479 412.743 141.995 415.045C147.906 412.178 150.927 410.745 156.882 407.835C167.915 411.353 180.919 413.438 192.959 413.698C195.718 409.79 197.075 407.792 199.79 403.84C186.436 403.666 170.893 401.017 163.23 397.803C157.539 395.415 155.831 392.983 159.421 391.202C170.936 385.513 202.548 404.969 226.366 393.243C237.006 387.945 236.086 380.866 224.527 374.222C230 371.442 232.671 370.052 237.969 367.316C232.321 364.971 229.475 363.799 223.739 361.41C218.485 364.146 215.814 365.492 210.429 368.272C200.797 365.058 189.676 362.887 179.693 362.062C177.329 366.057 176.103 368.055 173.607 372.094C185.648 373.396 198.826 376.002 205 378.521C209.685 380.475 211.173 382.516 208.152 384.037C197.119 389.552 163.931 369.966 139.675 382.169C127.81 388.032 131.181 395.675 142.871 402.016L142.827 402.059Z" fill="#DB9930"/>
<path d="M30.1684 362.629C53.9428 336.876 106.045 318.939 166.554 318.939C227.063 318.939 279.165 336.832 302.939 362.629H316.688V393.984C316.688 435.416 249.48 468.986 166.554 468.986C83.628 468.986 16.4205 435.416 16.4205 393.984V362.629H30.1684Z" fill="#DB9930"/>
<path d="M313.098 410.183C311.346 414.178 308.938 418 306.005 421.735V362.585H313.098V410.183Z" fill="#C97830"/>
<path d="M301.668 426.688C299.523 428.902 297.115 431.074 294.575 433.158V354.856C297.158 356.941 299.523 359.112 301.668 361.371V426.688Z" fill="#C97830"/>
<path d="M290.241 436.457C288.008 438.107 285.6 439.671 283.148 441.191V347.862H284.944C286.782 349.035 288.578 350.251 290.285 351.51V436.414L290.241 436.457Z" fill="#C97830"/>
<path d="M278.816 443.751C276.54 445.054 274.175 446.27 271.724 447.486V356.59H278.816V443.751Z" fill="#C97830"/>
<path d="M267.379 449.529C265.058 450.571 262.694 451.57 260.286 452.525V365.233H267.379V449.485V449.529Z" fill="#FAE745"/>
<path d="M255.965 454.218C253.644 455.087 251.28 455.912 248.872 456.694V373.962H255.965V454.218Z" fill="#C97830"/>
<path d="M244.527 458.084C242.207 458.779 239.843 459.474 237.434 460.125V382.648H244.527V458.084Z" fill="#C97830"/>
<path d="M233.109 461.212C230.789 461.776 228.381 462.341 226.016 462.862V391.335H233.109V461.212Z" fill="#C97830"/>
<path d="M221.676 463.732C219.311 464.209 216.947 464.643 214.583 465.034V400.021H221.676V463.732Z" fill="#C97830"/>
<path d="M210.246 465.729C207.882 466.076 205.517 466.424 203.153 466.728V408.707H210.246V465.772V465.729Z" fill="#FAE745"/>
<path d="M198.828 467.206C196.464 467.467 194.1 467.684 191.735 467.901V417.394H198.828V467.25V467.206Z" fill="#C97830"/>
<path d="M187.395 468.245C185.03 468.419 182.666 468.549 180.302 468.636V426.032H187.395V468.202V468.245Z" fill="#C97830"/>
<path d="M175.574 468.811C173.21 468.898 170.846 468.898 168.481 468.942V421.17H175.574V468.811Z" fill="#C97830"/>
<path d="M156.696 468.812V416.307H163.789V468.942C161.425 468.942 159.017 468.855 156.696 468.812Z" fill="#C97830"/>
<path d="M144.888 411.398H151.98V468.594C149.572 468.464 147.208 468.334 144.888 468.16V411.398Z" fill="#C97830"/>
<path d="M133.099 406.533H140.191V467.811C137.783 467.594 135.419 467.377 133.099 467.073V406.533Z" fill="#FAE745"/>
<path d="M121.329 401.625H128.422V466.508C126.014 466.204 123.649 465.857 121.329 465.466V401.582V401.625Z" fill="#C97830"/>
<path d="M109.505 396.764H116.598V464.73C114.19 464.295 111.825 463.861 109.505 463.383V396.764Z" fill="#C97830"/>
<path d="M97.7313 391.856H104.824V462.341C102.416 461.82 100.052 461.212 97.7313 460.604V391.856Z" fill="#C97830"/>
<path d="M85.946 386.991H93.0391V459.387C90.631 458.692 88.2666 457.997 85.946 457.259V386.991Z" fill="#C97830"/>
<path d="M74.1726 382.084H81.2656V455.652C78.8575 454.827 76.4931 453.915 74.1726 453.047V382.084Z" fill="#C97830"/>
<path d="M62.3485 377.22H69.4414V451.179C66.9895 450.137 64.6252 449.051 62.3485 447.965V377.22Z" fill="#C97830"/>
<path d="M50.5751 372.312H57.668V445.576C55.2161 444.273 52.808 442.97 50.5751 441.58V372.312Z" fill="#FAE745"/>
<path d="M38.7938 367.448H45.8867V438.585C43.3911 436.891 40.983 435.154 38.7938 433.33V367.448Z" fill="#C97830"/>
<path d="M26.9695 421.605V362.628H30.1657C30.1657 362.628 30.1657 362.628 30.2095 362.585H34.0625V429.291C31.3917 426.816 29.0273 424.254 26.9695 421.605Z" fill="#C97830"/>
<path d="M16.9032 362.628H23.9961V417.522C20.2307 411.833 17.8226 405.883 16.9032 399.716V362.628Z" fill="#C97830"/>
<path d="M166.554 437.629C83.6375 437.629 16.4205 404.05 16.4205 362.628C16.4205 321.205 83.6375 287.626 166.554 287.626C249.47 287.626 316.688 321.205 316.688 362.628C316.688 404.05 249.47 437.629 166.554 437.629Z" fill="#F0D138"/>
<path d="M107.008 293.749L316.688 362.323C316.688 362.323 316.688 362.54 316.688 362.627C316.688 377.306 308.237 390.986 293.657 402.538L42.4716 320.414C58.4088 308.732 80.7821 299.438 107.008 293.749Z" fill="#FAE745"/>
<path d="M24.4322 338.437C26.4462 335.484 28.7668 332.618 31.4376 329.882L280.609 411.354C276.581 413.699 272.334 415.914 267.781 417.999L24.4322 338.437Z" fill="#FAE745"/>
<path d="M18.9542 376.306C17.5531 372.528 16.7213 368.619 16.5023 364.667L222.941 432.155C215.761 433.632 208.274 434.804 200.568 435.673L18.9542 376.306Z" fill="#FAE745"/>
<path d="M307.89 337.31C310.911 341.522 313.188 345.865 314.633 350.382L129.648 289.885C138.317 288.8 147.249 288.105 156.443 287.801L307.89 337.31Z" fill="#FAE745"/>
<path d="M126.355 371.139C120.444 374.005 117.467 375.438 111.6 378.304C117.204 380.65 120.006 381.822 125.523 384.124C131.433 381.258 134.454 379.824 140.409 376.915C151.442 380.432 164.446 382.517 176.487 382.778C179.245 378.869 180.602 376.871 183.317 372.919C169.963 372.746 154.42 370.096 146.758 366.883C141.066 364.494 139.358 362.062 142.949 360.281C154.464 354.592 186.075 374.048 209.893 362.323C220.533 357.024 219.613 349.945 208.055 343.301C213.527 340.521 216.198 339.132 221.496 336.396C215.848 334.05 213.002 332.878 207.266 330.489C202.012 333.225 199.342 334.572 193.956 337.351C184.324 334.137 173.203 331.966 163.22 331.141C160.856 335.136 159.63 337.134 157.134 341.173C169.175 342.476 182.354 345.081 188.527 347.6C193.212 349.554 194.701 351.596 191.68 353.116C180.646 358.631 147.458 339.045 123.202 351.248C111.337 357.111 114.708 364.755 126.398 371.095L126.355 371.139Z" fill="#DB9930"/>
<path d="M52.1059 315.812C75.8803 290.058 127.983 272.122 188.491 272.122C249 272.122 301.102 290.015 324.877 315.812H338.625V347.167C338.625 388.598 271.417 422.169 188.491 422.169C105.566 422.169 38.3578 388.598 38.3578 347.167V315.812H52.1059Z" fill="#DB9930"/>
<path d="M335.035 363.408C333.284 367.404 330.876 371.226 327.942 374.96V315.811H335.035V363.408Z" fill="#C97830"/>
<path d="M323.605 379.87C321.46 382.085 319.052 384.257 316.513 386.341V308.039C319.096 310.124 321.46 312.295 323.605 314.553V379.87Z" fill="#C97830"/>
<path d="M312.179 389.64C309.946 391.29 307.538 392.853 305.086 394.373V301.045H306.881C308.72 302.217 310.515 303.433 312.223 304.693V389.596L312.179 389.64Z" fill="#C97830"/>
<path d="M300.754 396.934C298.477 398.237 296.113 399.453 293.661 400.669V309.772H300.754V396.934Z" fill="#C97830"/>
<path d="M289.316 402.754C286.996 403.796 284.632 404.795 282.224 405.751V318.459H289.316V402.711V402.754Z" fill="#FAE745"/>
<path d="M277.902 407.401C275.582 408.269 273.217 409.095 270.809 409.876V327.145H277.902V407.401Z" fill="#C97830"/>
<path d="M266.465 411.269C264.144 411.964 261.78 412.658 259.372 413.31V335.833H266.465V411.269Z" fill="#C97830"/>
<path d="M255.047 414.394C252.726 414.959 250.318 415.524 247.954 416.045V344.518H255.047V414.394Z" fill="#C97830"/>
<path d="M243.613 416.957C241.249 417.435 238.885 417.869 236.52 418.26V353.247H243.613V416.957Z" fill="#C97830"/>
<path d="M232.184 418.954C229.819 419.301 227.455 419.648 225.091 419.952V361.932H232.184V418.997V418.954Z" fill="#FAE745"/>
<path d="M220.766 420.432C218.401 420.692 216.037 420.91 213.673 421.127V370.619H220.766V420.475V420.432Z" fill="#C97830"/>
<path d="M209.332 421.428C206.968 421.601 204.603 421.732 202.239 421.818V379.215H209.332V421.384V421.428Z" fill="#C97830"/>
<path d="M197.559 422.039C195.194 422.126 192.83 422.126 190.466 422.169V374.397H197.559V422.039Z" fill="#C97830"/>
<path d="M178.634 421.995V369.489H185.727V422.125C183.362 422.125 180.954 422.038 178.634 421.995Z" fill="#C97830"/>
<path d="M166.86 364.626H173.953V421.822C171.545 421.691 169.181 421.561 166.86 421.387V364.626Z" fill="#C97830"/>
<path d="M155.036 359.718H162.129V420.996C159.721 420.779 157.356 420.562 155.036 420.258V359.675V359.718Z" fill="#FAE745"/>
<path d="M143.266 354.854H150.359V419.737C147.951 419.433 145.587 419.085 143.266 418.694V354.811V354.854Z" fill="#C97830"/>
<path d="M131.485 349.946H138.578V417.912C136.17 417.478 133.806 417.044 131.485 416.566V349.946Z" fill="#C97830"/>
<path d="M119.712 345.082H126.805V415.567C124.397 415.046 122.032 414.438 119.712 413.83V345.082Z" fill="#C97830"/>
<path d="M107.884 340.174H114.977V412.57C112.568 411.875 110.204 411.18 107.884 410.442V340.174Z" fill="#C97830"/>
<path d="M96.1102 335.31H103.203V408.921C100.795 408.096 98.4307 407.184 96.1102 406.316V335.353V335.31Z" fill="#C97830"/>
<path d="M84.329 330.402H91.4219V404.361C88.97 403.319 86.6057 402.234 84.329 401.148V330.402Z" fill="#C97830"/>
<path d="M72.5126 325.537H79.6055V398.801C77.1536 397.499 74.7455 396.196 72.5126 394.806V325.537Z" fill="#FAE745"/>
<path d="M60.7313 320.631H67.8242V391.767C65.3286 390.073 62.9205 388.336 60.7313 386.512V320.631Z" fill="#C97830"/>
<path d="M48.954 374.787V315.811H52.1501C52.1501 315.811 52.1501 315.811 52.1939 315.768H56.0469V382.518C53.3761 380.042 51.0118 377.48 48.954 374.831V374.787Z" fill="#C97830"/>
<path d="M38.8874 315.811H45.9805V370.704C42.2151 365.015 39.8069 359.065 38.8874 352.899V315.811Z" fill="#C97830"/>
<path d="M188.491 390.812C105.575 390.812 38.3578 357.232 38.3578 315.81C38.3578 274.388 105.575 240.809 188.491 240.809C271.408 240.809 338.625 274.388 338.625 315.81C338.625 357.232 271.408 390.812 188.491 390.812Z" fill="#F0D138"/>
<path d="M128.946 246.932L338.625 315.506C338.625 315.506 338.625 315.723 338.625 315.81C338.625 330.489 330.175 344.169 315.595 355.721L64.4091 273.597C80.3463 261.915 102.72 252.621 128.946 246.932Z" fill="#FAE745"/>
<path d="M46.4166 291.62C48.4306 288.667 50.7512 285.8 53.422 283.064L302.594 364.537C298.566 366.882 294.319 369.097 289.765 371.181L46.4166 291.62Z" fill="#FAE745"/>
<path d="M40.9425 329.489C39.5414 325.71 38.7095 321.802 38.4906 317.85L244.93 385.338C237.749 386.814 230.262 387.987 222.556 388.856L40.9425 329.489Z" fill="#FAE745"/>
<path d="M329.828 290.492C332.849 294.705 335.125 299.048 336.57 303.564L151.585 243.068C160.254 241.982 169.186 241.287 178.381 240.983L329.828 290.492Z" fill="#FAE745"/>
<path d="M148.292 324.321C142.381 327.188 139.404 328.621 133.537 331.487C139.141 333.832 141.944 335.005 147.46 337.306C153.371 334.44 156.392 333.007 162.347 330.097C173.38 333.615 186.384 335.7 198.424 335.96C201.183 332.052 202.54 330.054 205.254 326.102C191.9 325.928 176.357 323.279 168.695 320.065C163.003 317.677 161.296 315.245 164.886 313.464C176.401 307.775 208.013 327.231 231.831 315.505C242.47 310.207 241.551 303.128 229.992 296.483C235.465 293.704 238.136 292.314 243.434 289.578C237.786 287.233 234.94 286.06 229.204 283.672C223.95 286.408 221.279 287.754 215.894 290.534C206.262 287.32 195.14 285.149 185.158 284.323C182.793 288.319 181.568 290.317 179.072 294.355C191.112 295.658 204.291 298.264 210.465 300.783C215.149 302.737 216.638 304.778 213.617 306.298C202.584 311.814 169.396 292.227 145.14 304.431C133.274 310.294 136.646 317.937 148.336 324.278L148.292 324.321Z" fill="#DB9930"/>
<path d="M46.6489 273.123C70.4233 247.37 122.526 229.434 183.034 229.434C243.543 229.434 295.645 247.326 319.42 273.123H333.168V304.478C333.168 345.91 265.96 379.48 183.034 379.48C100.108 379.48 32.9008 345.91 32.9008 304.478V273.123H46.6489Z" fill="#DB9930"/>
<path d="M329.57 320.72C327.819 324.715 325.411 328.537 322.477 332.272V273.122H329.57V320.72Z" fill="#C97830"/>
<path d="M318.148 337.178C316.003 339.393 313.595 341.564 311.056 343.649V265.347C313.639 267.431 316.003 269.603 318.148 271.861V337.178Z" fill="#C97830"/>
<path d="M306.714 346.994C304.481 348.644 302.073 350.208 299.621 351.728V258.399H301.416C303.255 259.572 305.05 260.788 306.758 262.047V346.951L306.714 346.994Z" fill="#C97830"/>
<path d="M295.289 354.247C293.012 355.55 290.648 356.766 288.196 357.982V267.086H295.289V354.247Z" fill="#C97830"/>
<path d="M283.867 360.066C281.547 361.108 279.182 362.107 276.774 363.062V275.771H283.867V360.022V360.066Z" fill="#FAE745"/>
<path d="M272.438 364.755C270.117 365.624 267.753 366.449 265.344 367.231V284.499H272.438V364.755Z" fill="#C97830"/>
<path d="M261 368.621C258.679 369.316 256.315 370.011 253.907 370.662V293.186H261V368.621Z" fill="#C97830"/>
<path d="M249.582 371.749C247.262 372.313 244.853 372.878 242.489 373.399V301.872H249.582V371.749Z" fill="#C97830"/>
<path d="M238.148 374.269C235.784 374.746 233.42 375.181 231.056 375.571V310.559H238.148V374.269Z" fill="#C97830"/>
<path d="M226.73 376.266C224.366 376.614 222.002 376.961 219.637 377.265V319.244H226.73V376.31V376.266Z" fill="#FAE745"/>
<path d="M215.301 377.743C212.936 378.004 210.572 378.221 208.208 378.438V327.931H215.301V377.787V377.743Z" fill="#C97830"/>
<path d="M203.867 378.785C201.503 378.959 199.138 379.089 196.774 379.176V336.572H203.867V378.742V378.785Z" fill="#C97830"/>
<path d="M192.094 379.348C189.729 379.435 187.365 379.435 185.001 379.479V331.707H192.094V379.348Z" fill="#C97830"/>
<path d="M173.177 379.306V326.801H180.27V379.436C177.905 379.436 175.497 379.35 173.177 379.306Z" fill="#C97830"/>
<path d="M161.352 321.936H168.445V379.131C166.037 379.001 163.673 378.871 161.352 378.697V321.936Z" fill="#C97830"/>
<path d="M149.571 317.07H156.664V378.348C154.256 378.131 151.892 377.914 149.571 377.61V317.07Z" fill="#FAE745"/>
<path d="M137.802 312.164H144.895V377.047C142.486 376.743 140.122 376.396 137.802 376.005V312.121V312.164Z" fill="#C97830"/>
<path d="M126.02 307.301H133.113V375.267C130.705 374.832 128.341 374.398 126.02 373.92V307.301Z" fill="#C97830"/>
<path d="M114.204 302.394H121.297V372.878C118.889 372.314 116.524 371.749 114.204 371.141V302.394Z" fill="#C97830"/>
<path d="M102.419 297.528H109.512V369.924C107.104 369.229 104.739 368.534 102.419 367.796V297.528Z" fill="#C97830"/>
<path d="M90.6454 292.621H97.7383V366.189C95.3302 365.364 92.9659 364.452 90.6454 363.584V292.621Z" fill="#C97830"/>
<path d="M78.8212 287.757H85.9141V361.716C83.4622 360.674 81.0979 359.588 78.8212 358.502V287.757Z" fill="#C97830"/>
<path d="M67.0477 282.849H74.1406V356.113C71.6888 354.81 69.2807 353.507 67.0477 352.118V282.849Z" fill="#FAE745"/>
<path d="M55.2665 277.985H62.3594V349.122C59.8637 347.428 57.4556 345.691 55.2665 343.867V277.985Z" fill="#C97830"/>
<path d="M43.4423 332.097V273.121H46.6385C46.6385 273.121 46.6384 273.121 46.6822 273.077H50.5352V339.784C47.8644 337.308 45.5001 334.746 43.4423 332.097Z" fill="#C97830"/>
<path d="M33.3758 273.122H40.4688V328.016C36.7034 322.327 34.2953 316.377 33.3758 310.21V273.122Z" fill="#C97830"/>
<path d="M183.034 348.123C100.118 348.123 32.9008 314.544 32.9008 273.122C32.9008 231.699 100.118 198.12 183.034 198.12C265.951 198.12 333.168 231.699 333.168 273.122C333.168 314.544 265.951 348.123 183.034 348.123Z" fill="#F0D138"/>
<path d="M123.489 204.286L333.168 272.86C333.168 272.86 333.168 273.077 333.168 273.164C333.168 287.843 324.718 301.523 310.138 313.075L58.952 230.951C74.8892 219.269 97.2625 209.975 123.489 204.286Z" fill="#FAE745"/>
<path d="M40.9128 248.974C42.9268 246.021 45.2473 243.155 47.918 240.419L297.09 321.891C293.062 324.236 288.815 326.451 284.261 328.536L40.9128 248.974Z" fill="#FAE745"/>
<path d="M35.4347 286.801C34.0336 283.023 33.2017 279.114 32.9828 275.162L239.422 342.65C232.241 344.127 224.754 345.3 217.048 346.168L35.4347 286.801Z" fill="#FAE745"/>
<path d="M324.371 247.847C327.392 252.059 329.668 256.402 331.113 260.919L146.128 200.423C154.797 199.337 163.729 198.642 172.924 198.338L324.371 247.847Z" fill="#FAE745"/>
<path d="M142.827 281.633C136.917 284.499 133.939 285.932 128.072 288.799C133.677 291.144 136.479 292.316 141.995 294.618C147.906 291.752 150.927 290.318 156.882 287.409C167.915 290.926 180.919 293.011 192.959 293.272C195.718 289.363 197.075 287.365 199.79 283.413C186.436 283.24 170.893 280.59 163.23 277.377C157.539 274.988 155.831 272.556 159.421 270.775C170.936 265.086 202.548 284.542 226.366 272.817C237.006 267.518 236.086 260.439 224.527 253.795C230 251.015 232.671 249.626 237.969 246.89C232.321 244.544 229.475 243.372 223.739 240.983C218.485 243.719 215.814 245.066 210.429 247.845C200.797 244.631 189.676 242.46 179.693 241.635C177.329 245.63 176.103 247.628 173.607 251.667C185.648 252.97 198.826 255.575 205 258.094C209.685 260.049 211.173 262.09 208.152 263.61C197.119 269.125 163.931 249.539 139.675 261.742C127.81 267.605 131.181 275.249 142.871 281.589L142.827 281.633Z" fill="#DB9930"/>
<path d="M30.1684 242.201C53.9428 216.448 106.045 198.512 166.554 198.512C227.063 198.512 279.165 216.404 302.939 242.201H316.688V273.557C316.688 314.988 249.48 348.558 166.554 348.558C83.628 348.558 16.4205 314.988 16.4205 273.557V242.201H30.1684Z" fill="#DB9930"/>
<path d="M313.098 289.796C311.346 293.792 308.938 297.613 306.005 301.348V242.198H313.098V289.796Z" fill="#C97830"/>
<path d="M301.668 306.256C299.523 308.471 297.115 310.642 294.575 312.727V234.425C297.158 236.509 299.523 238.681 301.668 240.939V306.256Z" fill="#C97830"/>
<path d="M290.241 316.07C288.008 317.721 285.6 319.284 283.148 320.804V227.476H284.944C286.782 228.648 288.578 229.864 290.285 231.124V316.027L290.241 316.07Z" fill="#C97830"/>
<path d="M278.816 323.324C276.54 324.626 274.175 325.843 271.724 327.059V236.162H278.816V323.324Z" fill="#C97830"/>
<path d="M267.379 329.142C265.058 330.184 262.694 331.183 260.286 332.138V244.847H267.379V329.099V329.142Z" fill="#FAE745"/>
<path d="M255.965 333.832C253.644 334.7 251.28 335.525 248.872 336.307V253.575H255.965V333.832Z" fill="#C97830"/>
<path d="M244.527 337.655C242.207 338.349 239.843 339.044 237.434 339.696V262.219H244.527V337.655Z" fill="#C97830"/>
<path d="M233.109 340.78C230.789 341.345 228.381 341.909 226.016 342.43V270.903H233.109V340.78Z" fill="#C97830"/>
<path d="M221.676 343.345C219.311 343.823 216.947 344.257 214.583 344.648V279.635H221.676V343.345Z" fill="#C97830"/>
<path d="M210.246 345.342C207.882 345.69 205.517 346.037 203.153 346.341V288.32H210.246V345.386V345.342Z" fill="#FAE745"/>
<path d="M198.828 346.82C196.464 347.08 194.1 347.297 191.735 347.514V297.007H198.828V346.863V346.82Z" fill="#C97830"/>
<path d="M187.398 347.816C185.034 347.99 182.67 348.12 180.306 348.207V305.604H187.398V347.773V347.816Z" fill="#C97830"/>
<path d="M175.574 348.425C173.21 348.511 170.846 348.511 168.481 348.555V300.783H175.574V348.425Z" fill="#C97830"/>
<path d="M156.696 348.382V295.877H163.789V348.513C161.425 348.513 159.017 348.426 156.696 348.382Z" fill="#C97830"/>
<path d="M144.888 291.012H151.98V348.207C149.572 348.077 147.208 347.947 144.888 347.773V291.012Z" fill="#C97830"/>
<path d="M133.099 286.105H140.191V347.383C137.783 347.166 135.419 346.949 133.099 346.645V286.105Z" fill="#FAE745"/>
<path d="M121.329 281.241H128.422V346.123C126.014 345.819 123.649 345.472 121.329 345.081V281.197V281.241Z" fill="#C97830"/>
<path d="M109.505 276.334H116.598V344.3C114.19 343.866 111.825 343.432 109.505 342.954V276.334Z" fill="#C97830"/>
<path d="M97.7313 271.47H104.824V341.955C102.416 341.39 100.052 340.826 97.7313 340.218V271.47Z" fill="#C97830"/>
<path d="M85.946 266.561H93.0391V338.956C90.631 338.261 88.2666 337.567 85.946 336.828V266.561Z" fill="#C97830"/>
<path d="M74.1726 261.697H81.2656V335.266C78.8575 334.44 76.4931 333.528 74.1726 332.66V261.697Z" fill="#C97830"/>
<path d="M62.3485 256.789H69.4414V330.748C66.9895 329.706 64.6252 328.62 62.3485 327.535V256.789Z" fill="#C97830"/>
<path d="M50.5751 251.925H57.668V325.189C55.2161 323.886 52.808 322.583 50.5751 321.194V251.925Z" fill="#FAE745"/>
<path d="M38.7938 247.021H45.8867V318.157C43.3911 316.463 40.983 314.726 38.7938 312.902V247.021Z" fill="#C97830"/>
<path d="M26.9695 301.173V242.197H30.1657C30.1657 242.197 30.1657 242.197 30.2095 242.153H34.0625V308.86C31.3917 306.385 29.0273 303.822 26.9695 301.173Z" fill="#C97830"/>
<path d="M16.9032 242.198H23.9961V297.092C20.2307 291.403 17.8226 285.453 16.9032 279.286V242.198Z" fill="#C97830"/>
<path d="M166.554 317.201C83.6375 317.201 16.4205 283.622 16.4205 242.2C16.4205 200.777 83.6375 167.198 166.554 167.198C249.47 167.198 316.688 200.777 316.688 242.2C316.688 283.622 249.47 317.201 166.554 317.201Z" fill="#F0D138"/>
<path d="M107.008 173.323L316.688 241.897C316.688 241.897 316.688 242.114 316.688 242.201C316.688 256.88 308.237 270.56 293.657 282.112L42.4716 199.989C58.4088 188.306 80.7821 179.012 107.008 173.323Z" fill="#FAE745"/>
<path d="M24.4322 218.012C26.4462 215.058 28.7668 212.192 31.4376 209.456L280.609 290.928C276.581 293.274 272.334 295.488 267.781 297.573L24.4322 218.012Z" fill="#FAE745"/>
<path d="M18.9542 255.88C17.5531 252.102 16.7213 248.193 16.5023 244.241L222.941 311.73C215.761 313.206 208.274 314.379 200.568 315.247L18.9542 255.88Z" fill="#FAE745"/>
<path d="M307.89 216.884C310.911 221.096 313.188 225.439 314.633 229.956L129.648 169.46C138.317 168.374 147.249 167.679 156.443 167.375L307.89 216.884Z" fill="#FAE745"/>
<path d="M126.355 250.711C120.444 253.577 117.467 255.01 111.6 257.876C117.204 260.222 120.006 261.394 125.523 263.696C131.433 260.83 134.454 259.397 140.409 256.487C151.442 260.005 164.446 262.089 176.487 262.35C179.245 258.441 180.602 256.443 183.317 252.491C169.963 252.318 154.42 249.669 146.758 246.455C141.066 244.066 139.358 241.634 142.949 239.854C154.464 234.164 186.075 253.621 209.893 241.895C220.533 236.596 219.613 229.518 208.055 222.873C213.527 220.093 216.198 218.704 221.496 215.968C215.848 213.623 213.002 212.45 207.266 210.062C202.012 212.798 199.342 214.144 193.956 216.923C184.324 213.709 173.203 211.538 163.22 210.713C160.856 214.708 159.63 216.706 157.134 220.745C169.175 222.048 182.354 224.654 188.527 227.172C193.212 229.127 194.701 231.168 191.68 232.688C180.646 238.203 147.458 218.617 123.202 230.82C111.337 236.683 114.708 244.327 126.398 250.667L126.355 250.711Z" fill="#DB9930"/>
<path d="M52.1059 195.427C75.8803 169.674 127.983 151.737 188.491 151.737C249 151.737 301.102 169.63 324.877 195.427H338.625V226.782C338.625 268.213 271.417 301.784 188.491 301.784C105.566 301.784 38.3578 268.213 38.3578 226.782V195.427H52.1059Z" fill="#DB9930"/>
<path d="M335.035 242.982C333.284 246.977 330.876 250.799 327.942 254.534V195.384H335.035V242.982Z" fill="#C97830"/>
<path d="M323.605 259.485C321.46 261.699 319.052 263.871 316.513 265.955V187.653C319.096 189.738 321.46 191.909 323.605 194.168V259.485Z" fill="#C97830"/>
<path d="M312.179 269.254C309.946 270.904 307.538 272.468 305.086 273.988V180.659H306.881C308.72 181.832 310.515 183.048 312.223 184.307V269.21L312.179 269.254Z" fill="#C97830"/>
<path d="M300.754 276.548C298.477 277.851 296.113 279.067 293.661 280.283V189.387H300.754V276.548Z" fill="#C97830"/>
<path d="M289.316 282.325C286.996 283.368 284.632 284.367 282.224 285.322V198.03H289.316V282.282V282.325Z" fill="#FAE745"/>
<path d="M277.902 287.018C275.582 287.887 273.217 288.712 270.809 289.493V206.762H277.902V287.018Z" fill="#C97830"/>
<path d="M266.465 290.883C264.144 291.578 261.78 292.273 259.372 292.924V215.447H266.465V290.883Z" fill="#C97830"/>
<path d="M255.047 294.009C252.726 294.573 250.318 295.138 247.954 295.659V224.132H255.047V294.009Z" fill="#C97830"/>
<path d="M243.613 296.528C241.249 297.006 238.885 297.44 236.52 297.831V232.818H243.613V296.528Z" fill="#C97830"/>
<path d="M232.184 298.526C229.819 298.873 227.455 299.221 225.091 299.525V241.504H232.184V298.569V298.526Z" fill="#FAE745"/>
<path d="M220.766 300.003C218.401 300.264 216.037 300.481 213.673 300.698V250.19H220.766V300.047V300.003Z" fill="#C97830"/>
<path d="M209.332 301.045C206.968 301.219 204.603 301.349 202.239 301.436V258.832H209.332V301.001V301.045Z" fill="#C97830"/>
<path d="M197.559 301.608C195.194 301.695 192.83 301.695 190.466 301.738V253.967H197.559V301.608Z" fill="#C97830"/>
<path d="M178.634 301.609V249.104H185.727V301.739C183.362 301.739 180.954 301.652 178.634 301.609Z" fill="#C97830"/>
<path d="M166.86 244.195H173.953V301.391C171.545 301.261 169.181 301.13 166.86 300.957V244.195Z" fill="#C97830"/>
<path d="M155.036 239.33H162.129V300.608C159.721 300.391 157.356 300.174 155.036 299.87V239.33Z" fill="#FAE745"/>
<path d="M143.266 234.422H150.359V299.305C147.951 299.001 145.587 298.653 143.266 298.263V234.379V234.422Z" fill="#C97830"/>
<path d="M131.485 229.561H138.578V297.527C136.17 297.092 133.806 296.658 131.485 296.18V229.561Z" fill="#C97830"/>
<path d="M119.712 224.653H126.805V295.138C124.397 294.574 122.032 294.009 119.712 293.401V224.653Z" fill="#C97830"/>
<path d="M107.884 219.788H114.977V292.184C112.568 291.489 110.204 290.794 107.884 290.056V219.788Z" fill="#C97830"/>
<path d="M96.1102 214.881H103.203V288.493C100.795 287.668 98.4307 286.755 96.1102 285.887V214.924V214.881Z" fill="#C97830"/>
<path d="M84.329 210.017H91.4219V283.976C88.97 282.933 86.6057 281.848 84.329 280.762V210.017Z" fill="#C97830"/>
<path d="M72.5126 205.108H79.6055V278.373C77.1536 277.07 74.7455 275.767 72.5126 274.377V205.108Z" fill="#FAE745"/>
<path d="M60.7313 200.245H67.8242V271.381C65.3286 269.688 62.9205 267.951 60.7313 266.127V200.245Z" fill="#C97830"/>
<path d="M48.954 254.403V195.427H52.1501C52.1501 195.427 52.1501 195.427 52.1939 195.384H56.0469V262.134C53.3761 259.658 51.0118 257.096 48.954 254.447V254.403Z" fill="#C97830"/>
<path d="M38.8874 195.425H45.9805V250.319C42.2151 244.63 39.8069 238.68 38.8874 232.513V195.425Z" fill="#C97830"/>
<path d="M188.491 270.427C105.575 270.427 38.3578 236.848 38.3578 195.425C38.3578 154.003 105.575 120.424 188.491 120.424C271.408 120.424 338.625 154.003 338.625 195.425C338.625 236.848 271.408 270.427 188.491 270.427Z" fill="#F0D138"/>
<path d="M128.946 126.547L338.625 195.121C338.625 195.121 338.625 195.338 338.625 195.425C338.625 210.104 330.175 223.784 315.595 235.336L64.4091 153.212C80.3463 141.53 102.72 132.236 128.946 126.547Z" fill="#FAE745"/>
<path d="M46.4166 171.235C48.4306 168.282 50.7512 165.416 53.422 162.68L302.594 244.152C298.566 246.497 294.319 248.712 289.765 250.797L46.4166 171.235Z" fill="#FAE745"/>
<path d="M40.9425 209.104C39.5414 205.325 38.7095 201.417 38.4906 197.465L244.93 264.953C237.749 266.43 230.262 267.602 222.556 268.471L40.9425 209.104Z" fill="#FAE745"/>
<path d="M329.828 170.107C332.849 174.32 335.125 178.663 336.57 183.179L151.585 122.683C160.254 121.598 169.186 120.903 178.381 120.599L329.828 170.107Z" fill="#FAE745"/>
<path d="M148.292 203.936C142.381 206.803 139.404 208.236 133.537 211.102C139.141 213.447 141.944 214.62 147.46 216.922C153.371 214.055 156.392 212.622 162.347 209.712C173.38 213.23 186.384 215.315 198.424 215.575C201.183 211.667 202.54 209.669 205.254 205.717C191.9 205.543 176.357 202.894 168.695 199.68C163.003 197.292 161.296 194.86 164.886 193.079C176.401 187.39 208.013 206.846 231.831 195.12C242.47 189.822 241.551 182.743 229.992 176.099C235.465 173.319 238.136 171.93 243.434 169.193C237.786 166.848 234.94 165.676 229.204 163.287C223.95 166.023 221.279 167.369 215.894 170.149C206.262 166.935 195.14 164.764 185.158 163.939C182.793 167.934 181.568 169.932 179.072 173.971C191.112 175.274 204.291 177.879 210.465 180.398C215.149 182.352 216.638 184.394 213.617 185.914C202.584 191.429 169.396 171.843 145.14 184.046C133.274 189.909 136.646 197.552 148.336 203.893L148.292 203.936Z" fill="#DB9930"/>
<path d="M46.6489 152.741C70.4233 126.988 122.526 109.052 183.034 109.052C243.543 109.052 295.645 126.944 319.42 152.741H333.168V184.097C333.168 225.528 265.96 259.098 183.034 259.098C100.108 259.098 32.9008 225.528 32.9008 184.097V152.741H46.6489Z" fill="#DB9930"/>
<path d="M329.57 200.338C327.819 204.334 325.411 208.155 322.477 211.89V152.74H329.57V200.338Z" fill="#C97830"/>
<path d="M318.148 216.8C316.003 219.015 313.595 221.186 311.056 223.271V144.969C313.639 147.053 316.003 149.225 318.148 151.483V216.8Z" fill="#C97830"/>
<path d="M306.714 226.569C304.481 228.22 302.073 229.783 299.621 231.303V137.975H301.416C303.255 139.147 305.05 140.363 306.758 141.623V226.526L306.714 226.569Z" fill="#C97830"/>
<path d="M295.289 233.864C293.012 235.166 290.648 236.382 288.196 237.598V146.702H295.289V233.864Z" fill="#C97830"/>
<path d="M283.867 239.641C281.547 240.683 279.182 241.682 276.774 242.638V155.346H283.867V239.597V239.641Z" fill="#FAE745"/>
<path d="M272.438 244.33C270.117 245.199 267.753 246.024 265.344 246.806V164.074H272.438V244.33Z" fill="#C97830"/>
<path d="M261 248.196C258.679 248.891 256.315 249.586 253.907 250.238V172.761H261V248.196Z" fill="#C97830"/>
<path d="M249.582 251.324C247.262 251.889 244.853 252.453 242.489 252.974V181.447H249.582V251.324Z" fill="#C97830"/>
<path d="M238.148 253.844C235.784 254.321 233.42 254.756 231.056 255.147V190.134H238.148V253.844Z" fill="#C97830"/>
<path d="M226.73 255.883C224.366 256.231 222.002 256.578 219.637 256.882V198.861H226.73V255.883Z" fill="#FAE745"/>
<path d="M215.301 257.362C212.936 257.622 210.572 257.839 208.208 258.056V207.549H215.301V257.405V257.362Z" fill="#C97830"/>
<path d="M203.867 258.357C201.503 258.531 199.138 258.661 196.774 258.748V216.145H203.867V258.314V258.357Z" fill="#C97830"/>
<path d="M192.094 258.967C189.729 259.053 187.365 259.053 185.001 259.097V211.325H192.094V258.967Z" fill="#C97830"/>
<path d="M173.177 258.924V206.419H180.27V259.055C177.905 259.055 175.497 258.968 173.177 258.924Z" fill="#C97830"/>
<path d="M161.352 201.556H168.445V258.751C166.037 258.621 163.673 258.491 161.352 258.317V201.556Z" fill="#C97830"/>
<path d="M149.571 196.646H156.664V257.923C154.256 257.706 151.892 257.489 149.571 257.185V196.646Z" fill="#FAE745"/>
<path d="M137.802 191.784H144.895V256.666C142.486 256.362 140.122 256.015 137.802 255.624V191.74V191.784Z" fill="#C97830"/>
<path d="M126.02 186.876H133.113V254.842C130.705 254.408 128.341 253.973 126.02 253.496V186.876Z" fill="#C97830"/>
<path d="M114.204 182.012H121.297V252.497C118.889 251.975 116.524 251.368 114.204 250.76V182.012Z" fill="#C97830"/>
<path d="M102.419 177.104H109.512V249.499C107.104 248.804 104.739 248.109 102.419 247.371V177.104Z" fill="#C97830"/>
<path d="M90.6454 172.239H97.7383V245.808C95.3302 244.982 92.9659 244.071 90.6454 243.202V172.239Z" fill="#C97830"/>
<path d="M78.8212 167.332H85.9141V241.291C83.4622 240.249 81.0979 239.163 78.8212 238.077V167.332Z" fill="#C97830"/>
<path d="M67.0477 162.467H74.1406V235.731C71.6888 234.428 69.2807 233.125 67.0477 231.736V162.467Z" fill="#FAE745"/>
<path d="M55.2665 157.561H62.3594V228.697C59.8637 227.003 57.4556 225.266 55.2665 223.442V157.561Z" fill="#C97830"/>
<path d="M43.4423 211.717V152.741H46.6385C46.6385 152.741 46.6384 152.741 46.6822 152.697H50.5352V219.447C47.8644 216.972 45.5001 214.41 43.4423 211.76V211.717Z" fill="#C97830"/>
<path d="M33.3758 152.74H40.4688V207.634C36.7034 201.945 34.2953 195.995 33.3758 189.828V152.74Z" fill="#C97830"/>
<path d="M183.034 227.741C100.118 227.741 32.9008 194.162 32.9008 152.74C32.9008 111.318 100.118 77.7383 183.034 77.7383C265.951 77.7383 333.168 111.318 333.168 152.74C333.168 194.162 265.951 227.741 183.034 227.741Z" fill="#F0D138"/>
<path d="M123.489 83.8613L333.168 152.435C333.168 152.435 333.168 152.652 333.168 152.739C333.168 167.418 324.718 181.098 310.138 192.65L58.952 110.527C74.8892 98.8442 97.2625 89.5505 123.489 83.8613Z" fill="#FAE745"/>
<path d="M40.9128 128.55C42.9268 125.596 45.2473 122.73 47.918 119.994L297.09 201.467C293.062 203.812 288.815 206.027 284.261 208.111L40.9128 128.55Z" fill="#FAE745"/>
<path d="M35.4347 166.418C34.0336 162.64 33.2017 158.731 32.9828 154.779L239.422 222.268C232.241 223.744 224.754 224.917 217.048 225.785L35.4347 166.418Z" fill="#FAE745"/>
<path d="M324.371 127.422C327.392 131.635 329.668 135.977 331.113 140.494L146.128 79.9977C154.797 78.912 163.729 78.2171 172.924 77.9131L324.371 127.422Z" fill="#FAE745"/>
<path d="M142.827 161.251C136.917 164.117 133.939 165.55 128.072 168.417C133.677 170.762 136.479 171.934 141.995 174.236C147.906 171.37 150.927 169.937 156.882 167.027C167.915 170.545 180.919 172.629 192.959 172.89C195.718 168.981 197.075 166.983 199.79 163.031C186.436 162.858 170.893 160.209 163.23 156.995C157.539 154.606 155.831 152.174 159.421 150.394C170.936 144.704 202.548 164.161 226.366 152.435C237.006 147.136 236.086 140.058 224.527 133.413C230 130.634 232.671 129.244 237.969 126.508C232.321 124.163 229.475 122.99 223.739 120.602C218.485 123.338 215.814 124.684 210.429 127.463C200.797 124.25 189.676 122.078 179.693 121.253C177.329 125.248 176.103 127.246 173.607 131.285C185.648 132.588 198.826 135.194 205 137.713C209.685 139.667 211.173 141.708 208.152 143.228C197.119 148.743 163.931 129.157 139.675 141.361C127.81 147.223 131.181 154.867 142.871 161.207L142.827 161.251Z" fill="#DB9930"/>
<path d="M30.1684 121.818C53.9428 96.065 106.045 78.1289 166.554 78.1289C227.063 78.1289 279.165 96.0215 302.939 121.818H316.688V153.174C316.688 194.605 249.48 228.175 166.554 228.175C83.628 228.175 16.4205 194.605 16.4205 153.174V121.818H30.1684Z" fill="#DB9930"/>
<path d="M313.098 169.374C311.346 173.37 308.938 177.191 306.005 180.926V121.776H313.098V169.374Z" fill="#C97830"/>
<path d="M301.668 185.875C299.523 188.09 297.115 190.261 294.575 192.346V114.044C297.158 116.129 299.523 118.3 301.668 120.558V185.875Z" fill="#C97830"/>
<path d="M290.241 195.648C288.008 197.299 285.6 198.862 283.148 200.382V107.054H284.944C286.782 108.226 288.578 109.442 290.285 110.702V195.605L290.241 195.648Z" fill="#C97830"/>
<path d="M278.816 202.943C276.54 204.246 274.175 205.462 271.724 206.678V115.781H278.816V202.943Z" fill="#C97830"/>
<path d="M267.379 208.72C265.058 209.762 262.694 210.761 260.286 211.717V124.425H267.379V208.677V208.72Z" fill="#FAE745"/>
<path d="M255.965 213.41C253.644 214.278 251.28 215.103 248.872 215.885V133.153H255.965V213.41Z" fill="#C97830"/>
<path d="M244.527 217.276C242.207 217.971 239.843 218.665 237.434 219.317V141.84H244.527V217.276Z" fill="#C97830"/>
<path d="M233.109 220.403C230.789 220.968 228.381 221.532 226.016 222.054V150.526H233.109V220.403Z" fill="#C97830"/>
<path d="M221.676 222.923C219.311 223.401 216.947 223.835 214.583 224.226V159.213H221.676V222.923Z" fill="#C97830"/>
<path d="M210.246 224.92C207.882 225.268 205.517 225.615 203.153 225.919V167.898H210.246V224.964V224.92Z" fill="#FAE745"/>
<path d="M198.828 226.398C196.464 226.658 194.1 226.875 191.735 227.093V176.585H198.828V226.441V226.398Z" fill="#C97830"/>
<path d="M187.395 227.436C185.03 227.61 182.666 227.74 180.302 227.827V185.224H187.395V227.393V227.436Z" fill="#C97830"/>
<path d="M175.574 228.046C173.21 228.132 170.846 228.132 168.481 228.176V180.404H175.574V228.046Z" fill="#C97830"/>
<path d="M156.696 228.004V175.498H163.789V228.134C161.425 228.134 159.017 228.047 156.696 228.004Z" fill="#C97830"/>
<path d="M144.888 170.59H151.98V227.785C149.572 227.655 147.208 227.525 144.888 227.351V170.59Z" fill="#C97830"/>
<path d="M133.099 165.725H140.191V227.003C137.783 226.785 135.419 226.568 133.099 226.264V165.725Z" fill="#FAE745"/>
<path d="M121.329 160.819H128.422V225.701C126.014 225.397 123.649 225.05 121.329 224.659V160.775V160.819Z" fill="#C97830"/>
<path d="M109.505 155.955H116.598V223.921C114.19 223.487 111.825 223.053 109.505 222.575V155.955Z" fill="#C97830"/>
<path d="M97.7313 151.048H104.824V221.533C102.416 221.011 100.052 220.404 97.7313 219.796V151.048Z" fill="#C97830"/>
<path d="M85.946 146.183H93.0391V218.578C90.631 217.884 88.2666 217.189 85.946 216.45V146.183Z" fill="#C97830"/>
<path d="M74.1726 141.275H81.2656V214.844C78.8575 214.019 76.4931 213.107 74.1726 212.238V141.275Z" fill="#C97830"/>
<path d="M62.3485 136.411H69.4414V210.37C66.9895 209.328 64.6252 208.242 62.3485 207.157V136.411Z" fill="#C97830"/>
<path d="M50.5751 131.503H57.668V204.767C55.2161 203.464 52.808 202.161 50.5751 200.772V131.503Z" fill="#FAE745"/>
<path d="M38.7938 126.64H45.8867V197.776C43.3911 196.082 40.983 194.345 38.7938 192.521V126.64Z" fill="#C97830"/>
<path d="M26.9695 180.796V121.82H30.1657C30.1657 121.82 30.1657 121.82 30.2095 121.776H34.0625V188.526C31.3917 186.051 29.0273 183.489 26.9695 180.839V180.796Z" fill="#C97830"/>
<path d="M16.9032 121.819H23.9961V176.713C20.2307 171.024 17.8226 165.074 16.9032 158.908V121.819Z" fill="#C97830"/>
<path d="M166.554 196.818C83.6375 196.818 16.4205 163.239 16.4205 121.817C16.4205 80.3947 83.6375 46.8154 166.554 46.8154C249.47 46.8154 316.688 80.3947 316.688 121.817C316.688 163.239 249.47 196.818 166.554 196.818Z" fill="#F0D138"/>
<path d="M107.008 52.9365L316.688 121.511C316.688 121.511 316.688 121.728 316.688 121.815C316.688 136.494 308.237 150.174 293.657 161.726L42.4716 79.6018C58.4088 67.9195 80.7821 58.6257 107.008 52.9365Z" fill="#FAE745"/>
<path d="M24.4322 97.6248C26.4462 94.6716 28.7668 91.8053 31.4376 89.0693L280.609 170.542C276.581 172.887 272.334 175.102 267.781 177.186L24.4322 97.6248Z" fill="#FAE745"/>
<path d="M18.9542 135.493C17.5531 131.715 16.7213 127.807 16.5023 123.854L222.941 191.343C215.761 192.819 208.274 193.992 200.568 194.861L18.9542 135.493Z" fill="#FAE745"/>
<path d="M307.89 96.4972C310.911 100.71 313.188 105.053 314.633 109.569L129.648 49.0729C138.317 47.9872 147.249 47.2923 156.443 46.9883L307.89 96.4972Z" fill="#FAE745"/>
<path d="M126.355 130.328C120.444 133.194 117.467 134.627 111.6 137.494C117.204 139.839 120.006 141.012 125.523 143.313C131.433 140.447 134.454 139.014 140.409 136.104C151.442 139.622 164.446 141.706 176.487 141.967C179.245 138.058 180.602 136.061 183.317 132.109C169.963 131.935 154.42 129.286 146.758 126.072C141.066 123.683 139.358 121.251 142.949 119.471C154.464 113.782 186.075 133.238 209.893 121.512C220.533 116.214 219.613 109.135 208.055 102.49C213.527 99.7107 216.198 98.321 221.496 95.585C215.848 93.2398 213.002 92.0673 207.266 89.6787C202.012 92.4147 199.342 93.761 193.956 96.5404C184.324 93.3267 173.203 91.1553 163.22 90.3301C160.856 94.3256 159.63 96.3233 157.134 100.362C169.175 101.665 182.354 104.271 188.527 106.79C193.212 108.744 194.701 110.785 191.68 112.305C180.646 117.821 147.458 98.2342 123.202 110.438C111.337 116.301 114.708 123.944 126.398 130.285L126.355 130.328Z" fill="#DB9930"/>
<path d="M52.1059 75.0028C75.8803 49.2495 127.983 31.3135 188.491 31.3135C249 31.3135 301.102 49.2061 324.877 75.0028H338.625V106.358C338.625 147.789 271.417 181.36 188.491 181.36C105.566 181.36 38.3578 147.789 38.3578 106.358V75.0028H52.1059Z" fill="#DB9930"/>
<path d="M335.035 122.598C333.284 126.593 330.876 130.415 327.942 134.15V75H335.035V122.598Z" fill="#C97830"/>
<path d="M323.605 139.06C321.46 141.275 319.052 143.446 316.513 145.531V67.2285C319.096 69.3131 321.46 71.4845 323.605 73.7428V139.06Z" fill="#C97830"/>
<path d="M312.179 148.829C309.946 150.479 307.538 152.043 305.086 153.563V60.2344H306.881C308.72 61.407 310.515 62.6229 312.223 63.8824V148.786L312.179 148.829Z" fill="#C97830"/>
<path d="M300.754 156.123C298.477 157.426 296.113 158.642 293.661 159.858V68.9619H300.754V156.123Z" fill="#C97830"/>
<path d="M289.316 161.944C286.996 162.986 284.632 163.985 282.224 164.94V77.6484H289.316V161.9V161.944Z" fill="#FAE745"/>
<path d="M277.902 166.59C275.582 167.459 273.217 168.284 270.809 169.066V86.334H277.902V166.59Z" fill="#C97830"/>
<path d="M266.465 170.458C264.144 171.153 261.78 171.848 259.372 172.499V95.0225H266.465V170.458Z" fill="#C97830"/>
<path d="M255.047 173.584C252.726 174.149 250.318 174.713 247.954 175.234V103.707H255.047V173.584Z" fill="#C97830"/>
<path d="M243.613 176.147C241.249 176.624 238.885 177.058 236.52 177.449V112.437H243.613V176.147Z" fill="#C97830"/>
<path d="M232.184 178.143C229.819 178.49 227.455 178.838 225.091 179.142V121.121H232.184V178.187V178.143Z" fill="#FAE745"/>
<path d="M220.766 179.619C218.401 179.88 216.037 180.097 213.673 180.314V129.807H220.766V179.663V179.619Z" fill="#C97830"/>
<path d="M209.332 180.618C206.968 180.792 204.603 180.922 202.239 181.009V138.405H209.332V180.575V180.618Z" fill="#C97830"/>
<path d="M197.559 181.228C195.194 181.315 192.83 181.315 190.466 181.359V133.587H197.559V181.228Z" fill="#C97830"/>
<path d="M178.634 181.184V128.679H185.727V181.314C183.362 181.314 180.954 181.228 178.634 181.184Z" fill="#C97830"/>
<path d="M166.86 123.815H173.953V181.011C171.545 180.881 169.181 180.751 166.86 180.577V123.815Z" fill="#C97830"/>
<path d="M155.036 118.905H162.129V180.183C159.721 179.966 157.356 179.749 155.036 179.445V118.905Z" fill="#FAE745"/>
<path d="M143.266 114.043H150.359V178.926C147.951 178.622 145.587 178.275 143.266 177.884V114V114.043Z" fill="#C97830"/>
<path d="M131.485 109.136H138.578V177.102C136.17 176.668 133.806 176.233 131.485 175.756V109.136Z" fill="#C97830"/>
<path d="M119.712 104.271H126.805V174.756C124.397 174.192 122.032 173.627 119.712 173.019V104.271Z" fill="#C97830"/>
<path d="M107.884 99.3633H114.977V171.759C112.568 171.064 110.204 170.369 107.884 169.631V99.3633Z" fill="#C97830"/>
<path d="M96.1102 94.499H103.203V168.067C100.795 167.242 98.4307 166.33 96.1102 165.462V94.499Z" fill="#C97830"/>
<path d="M84.329 89.5918H91.4219V163.551C88.97 162.509 86.6057 161.423 84.329 160.337V89.5918Z" fill="#C97830"/>
<path d="M72.5126 84.7266H79.6055V157.991C77.1536 156.688 74.7455 155.385 72.5126 153.995V84.7266Z" fill="#FAE745"/>
<path d="M60.7313 79.8203H67.8242V150.957C65.3286 149.263 62.9205 147.526 60.7313 145.702V79.8203Z" fill="#C97830"/>
<path d="M48.954 133.977V75.0005H52.1501C52.1501 75.0005 52.1501 75.0005 52.1939 74.957H56.0469V141.707C53.3761 139.232 51.0118 136.669 48.954 134.02V133.977Z" fill="#C97830"/>
<path d="M38.8874 75H45.9805V129.894C42.2151 124.205 39.8069 118.255 38.8874 112.088V75Z" fill="#C97830"/>
<path d="M188.491 150.003C105.575 150.003 38.3578 116.424 38.3578 75.0014C38.3578 33.5793 105.575 0 188.491 0C271.408 0 338.625 33.5793 338.625 75.0014C338.625 116.424 271.408 150.003 188.491 150.003Z" fill="#F0D138"/>
<path d="M128.946 6.12402L338.625 74.6981C338.625 74.6981 338.625 74.9152 338.625 75.0021C338.625 89.681 330.175 103.361 315.595 114.913L64.4091 32.7893C80.3463 21.107 102.72 11.8132 128.946 6.12402Z" fill="#FAE745"/>
<path d="M46.4166 50.8123C48.4306 47.8591 50.7512 44.9928 53.422 42.2568L302.594 123.729C298.566 126.074 294.319 128.289 289.765 130.374L46.4166 50.8123Z" fill="#FAE745"/>
<path d="M40.9425 88.6809C39.5414 84.9026 38.7095 80.994 38.4906 77.042L244.93 144.53C237.749 146.007 230.262 147.179 222.556 148.048L40.9425 88.6809Z" fill="#FAE745"/>
<path d="M329.828 49.6845C332.849 53.8971 335.125 58.24 336.57 62.7566L151.585 2.26041C160.254 1.17469 169.186 0.479783 178.381 0.175781L329.828 49.6845Z" fill="#FAE745"/>
<g style="mix-blend-mode:multiply" opacity="0.31">
<path d="M513.342 392.126C423.775 392.126 351.168 359.305 351.168 318.818C351.168 278.332 423.775 245.511 513.342 245.511C602.908 245.511 675.516 278.332 675.516 318.818C675.516 359.305 602.908 392.126 513.342 392.126Z" fill="#435529"/>
</g>
<path d="M391.5 266.138C415.275 240.384 467.377 222.448 527.886 222.448C588.395 222.448 640.497 240.341 664.271 266.138H678.02V297.493C678.02 338.924 610.812 372.495 527.886 372.495C444.96 372.495 377.752 338.924 377.752 297.493V266.138H391.5Z" fill="#DB9930"/>
<path d="M674.43 313.736C672.678 317.731 670.27 321.553 667.337 325.288V266.138H674.43V313.736Z" fill="#C97830"/>
<path d="M663 330.193C660.855 332.408 658.447 334.58 655.907 336.664V258.362C658.49 260.447 660.855 262.618 663 264.877V330.193Z" fill="#C97830"/>
<path d="M651.573 340.01C649.34 341.66 646.932 343.223 644.48 344.743V251.415H646.276C648.115 252.588 649.91 253.804 651.617 255.063V339.966L651.573 340.01Z" fill="#C97830"/>
<path d="M640.148 347.304C637.872 348.607 635.507 349.823 633.056 351.039V260.143H640.148V347.304Z" fill="#C97830"/>
<path d="M628.727 353.081C626.406 354.124 624.042 355.123 621.634 356.078V268.786H628.727V353.038V353.081Z" fill="#FAE745"/>
<path d="M617.297 357.771C614.976 358.639 612.612 359.465 610.204 360.246V277.515H617.297V357.771Z" fill="#C97830"/>
<path d="M605.859 361.639C603.539 362.334 601.175 363.029 598.766 363.68V286.203H605.859V361.639Z" fill="#C97830"/>
<path d="M594.441 364.765C592.121 365.329 589.713 365.894 587.348 366.415V294.888H594.441V364.765Z" fill="#C97830"/>
<path d="M583.008 367.284C580.644 367.762 578.279 368.196 575.915 368.587V303.574H583.008V367.284Z" fill="#C97830"/>
<path d="M571.578 369.282C569.214 369.629 566.85 369.977 564.485 370.281V312.26H571.578V369.325V369.282Z" fill="#FAE745"/>
<path d="M560.16 370.759C557.796 371.02 555.432 371.237 553.067 371.454V320.946H560.16V370.802V370.759Z" fill="#C97830"/>
<path d="M548.727 371.798C546.362 371.971 543.998 372.102 541.634 372.189V329.585H548.727V371.754V371.798Z" fill="#C97830"/>
<path d="M536.953 372.364C534.589 372.451 532.225 372.451 529.86 372.494V324.723H536.953V372.364Z" fill="#C97830"/>
<path d="M518.036 372.365V319.859H525.129V372.495C522.765 372.495 520.356 372.408 518.036 372.365Z" fill="#C97830"/>
<path d="M506.255 314.951H513.348V372.147C510.94 372.016 508.575 371.886 506.255 371.713V314.951Z" fill="#C97830"/>
<path d="M494.43 310.086H501.523V371.364C499.115 371.147 496.751 370.93 494.43 370.626V310.086Z" fill="#FAE745"/>
<path d="M482.661 305.18H489.754V370.063C487.346 369.759 484.981 369.411 482.661 369.02V305.137V305.18Z" fill="#C97830"/>
<path d="M470.88 300.316H477.973V368.282C475.565 367.848 473.2 367.414 470.88 366.936V300.316Z" fill="#C97830"/>
<path d="M459.106 295.409H466.199V365.894C463.791 365.373 461.427 364.765 459.106 364.157V295.409Z" fill="#C97830"/>
<path d="M447.282 290.544H454.375V362.94C451.967 362.245 449.603 361.55 447.282 360.812V290.544Z" fill="#C97830"/>
<path d="M435.505 285.637H442.598V359.205C440.19 358.38 437.825 357.468 435.505 356.599V285.637Z" fill="#C97830"/>
<path d="M423.724 280.772H430.816V354.732C428.365 353.689 426 352.604 423.724 351.518V280.772Z" fill="#C97830"/>
<path d="M411.907 275.864H419V349.129C416.548 347.826 414.14 346.523 411.907 345.133V275.864Z" fill="#FAE745"/>
<path d="M400.126 271.001H407.219V342.137C404.723 340.443 402.315 338.706 400.126 336.882V271.001Z" fill="#C97830"/>
<path d="M388.349 325.112V266.136H391.545C391.545 266.136 391.545 266.136 391.589 266.093H395.441V332.843C392.771 330.367 390.406 327.805 388.349 325.156V325.112Z" fill="#C97830"/>
<path d="M378.282 266.138H385.375V321.032C381.61 315.343 379.201 309.393 378.282 303.226V266.138Z" fill="#C97830"/>
<path d="M527.886 341.139C444.969 341.139 377.752 307.559 377.752 266.137C377.752 224.715 444.969 191.136 527.886 191.136C610.802 191.136 678.02 224.715 678.02 266.137C678.02 307.559 610.802 341.139 527.886 341.139Z" fill="#F0D138"/>
<path d="M468.34 197.303L678.02 265.877C678.02 265.877 678.02 266.094 678.02 266.181C678.02 280.86 669.569 294.54 654.989 306.092L403.804 223.968C419.741 212.286 442.114 202.992 468.34 197.303Z" fill="#FAE745"/>
<path d="M385.811 241.991C387.825 239.038 390.146 236.172 392.817 233.436L641.988 314.908C637.96 317.253 633.713 319.468 629.16 321.553L385.811 241.991Z" fill="#FAE745"/>
<path d="M380.333 279.818C378.932 276.039 378.1 272.131 377.881 268.179L584.32 335.667C577.14 337.144 569.653 338.316 561.947 339.185L380.333 279.818Z" fill="#FAE745"/>
<path d="M669.222 240.863C672.243 245.076 674.52 249.419 675.965 253.935L490.98 193.439C499.649 192.353 508.581 191.658 517.775 191.354L669.222 240.863Z" fill="#FAE745"/>
<path d="M487.687 274.648C481.776 277.515 478.799 278.948 472.932 281.814C478.536 284.159 481.338 285.332 486.855 287.634C492.766 284.767 495.787 283.334 501.741 280.424C512.775 283.942 525.778 286.027 537.819 286.287C540.577 282.379 541.934 280.381 544.649 276.429C531.295 276.255 515.752 273.606 508.09 270.392C502.398 268.004 500.69 265.572 504.281 263.791C515.796 258.102 547.407 277.558 571.225 265.832C581.865 260.534 580.945 253.455 569.387 246.811C574.86 244.031 577.53 242.641 582.828 239.905C577.18 237.56 574.334 236.388 568.598 233.999C563.344 236.735 560.674 238.081 555.288 240.861C545.656 237.647 534.535 235.476 524.552 234.65C522.188 238.646 520.962 240.644 518.466 244.683C530.507 245.985 543.686 248.591 549.859 251.11C554.544 253.064 556.033 255.105 553.012 256.626C541.978 262.141 508.79 242.554 484.534 254.758C472.669 260.621 476.04 268.264 487.73 274.605L487.687 274.648Z" fill="#DB9930"/>
<path d="M375.04 235.219C398.814 209.465 450.916 191.529 511.425 191.529C571.934 191.529 624.036 209.422 647.811 235.219H661.559V266.574C661.559 308.005 594.351 341.576 511.425 341.576C428.499 341.576 361.292 308.005 361.292 266.574V235.219H375.04Z" fill="#DB9930"/>
<path d="M657.965 282.816C656.214 286.811 653.805 290.633 650.872 294.368V235.218H657.965V282.816Z" fill="#C97830"/>
<path d="M646.535 299.273C644.39 301.488 641.982 303.66 639.442 305.744V227.442C642.025 229.527 644.39 231.698 646.535 233.957V299.273Z" fill="#C97830"/>
<path d="M635.109 309.09C632.876 310.74 630.467 312.303 628.016 313.823V220.495H629.811C631.65 221.668 633.445 222.884 635.152 224.143V309.046L635.109 309.09Z" fill="#C97830"/>
<path d="M623.684 316.343C621.407 317.646 619.043 318.862 616.591 320.078V229.182H623.684V316.343Z" fill="#C97830"/>
<path d="M612.246 322.161C609.926 323.204 607.561 324.203 605.153 325.158V237.866H612.246V322.118V322.161Z" fill="#FAE745"/>
<path d="M600.832 326.851C598.512 327.72 596.147 328.545 593.739 329.327V246.595H600.832V326.851Z" fill="#C97830"/>
<path d="M589.395 330.672C587.074 331.367 584.71 332.062 582.302 332.713V255.236H589.395V330.672Z" fill="#C97830"/>
<path d="M577.977 333.8C575.656 334.364 573.248 334.929 570.884 335.45V263.923H577.977V333.8Z" fill="#C97830"/>
<path d="M566.543 336.364C564.179 336.842 561.814 337.276 559.45 337.667V272.654H566.543V336.364Z" fill="#C97830"/>
<path d="M555.113 338.362C552.749 338.709 550.385 339.057 548.02 339.361V281.34H555.113V338.405V338.362Z" fill="#FAE745"/>
<path d="M543.695 339.839C541.331 340.1 538.967 340.317 536.602 340.534V290.026H543.695V339.883V339.839Z" fill="#C97830"/>
<path d="M532.262 340.878C529.897 341.052 527.533 341.182 525.169 341.269V298.665H532.262V340.834V340.878Z" fill="#C97830"/>
<path d="M520.488 341.444C518.124 341.531 515.76 341.531 513.395 341.574V293.803H520.488V341.444Z" fill="#C97830"/>
<path d="M501.571 341.402V288.896H508.664V341.532C506.3 341.532 503.892 341.445 501.571 341.402Z" fill="#C97830"/>
<path d="M489.79 284.031H496.883V341.227C494.475 341.097 492.11 340.966 489.79 340.793V284.031Z" fill="#C97830"/>
<path d="M477.966 279.125H485.059V340.403C482.651 340.186 480.286 339.969 477.966 339.665V279.125Z" fill="#FAE745"/>
<path d="M466.196 274.26H473.289V339.143C470.881 338.839 468.517 338.491 466.196 338.1V274.217V274.26Z" fill="#C97830"/>
<path d="M454.415 269.352H461.508V337.318C459.1 336.883 456.735 336.449 454.415 335.971V269.352Z" fill="#C97830"/>
<path d="M442.599 264.489H449.691V334.974C447.283 334.453 444.919 333.845 442.599 333.237V264.489Z" fill="#C97830"/>
<path d="M430.817 259.58H437.91V331.976C435.502 331.281 433.138 330.586 430.817 329.848V259.58Z" fill="#C97830"/>
<path d="M419.04 254.717H426.133V328.285C423.725 327.46 421.36 326.548 419.04 325.679V254.717Z" fill="#C97830"/>
<path d="M407.259 249.809H414.352V323.768C411.9 322.725 409.535 321.64 407.259 320.554V249.809Z" fill="#C97830"/>
<path d="M395.442 244.944H402.535V318.209C400.083 316.906 397.675 315.603 395.442 314.213V244.944Z" fill="#FAE745"/>
<path d="M383.661 240.04H390.754V311.176C388.258 309.483 385.85 307.745 383.661 305.921V240.04Z" fill="#C97830"/>
<path d="M371.884 294.193V235.216H375.08C375.08 235.216 375.08 235.216 375.124 235.173H378.977V301.923C376.306 299.447 373.941 296.885 371.884 294.236V294.193Z" fill="#C97830"/>
<path d="M361.817 235.218H368.91V290.112C365.145 284.423 362.737 278.473 361.817 272.306V235.218Z" fill="#C97830"/>
<path d="M511.425 310.219C428.509 310.219 361.292 276.639 361.292 235.217C361.292 193.795 428.509 160.216 511.425 160.216C594.342 160.216 661.559 193.795 661.559 235.217C661.559 276.639 594.342 310.219 511.425 310.219Z" fill="#F0D138"/>
<path d="M451.88 166.339L661.559 234.913C661.559 234.913 661.559 235.13 661.559 235.217C661.559 249.896 653.108 263.576 638.528 275.128L387.343 193.004C403.28 181.322 425.653 172.028 451.88 166.339Z" fill="#FAE745"/>
<path d="M369.35 211.027C371.364 208.074 373.685 205.208 376.356 202.472L625.527 283.944C621.499 286.289 617.252 288.504 612.699 290.589L369.35 211.027Z" fill="#FAE745"/>
<path d="M363.825 248.897C362.424 245.118 361.592 241.21 361.373 237.258L567.812 304.746C560.632 306.223 553.145 307.395 545.439 308.264L363.825 248.897Z" fill="#FAE745"/>
<path d="M652.761 209.942C655.782 214.155 658.059 218.498 659.504 223.014L474.519 162.518C483.188 161.433 492.12 160.738 501.314 160.434L652.761 209.942Z" fill="#FAE745"/>
<path d="M471.226 243.73C465.315 246.597 462.338 248.03 456.471 250.896C462.075 253.241 464.877 254.414 470.394 256.716C476.305 253.849 479.326 252.416 485.28 249.506C496.314 253.024 509.317 255.109 521.358 255.369C524.116 251.461 525.473 249.463 528.188 245.511C514.834 245.337 499.291 242.688 491.629 239.474C485.937 237.086 484.229 234.654 487.82 232.873C499.335 227.184 530.946 246.64 554.765 234.914C565.404 229.616 564.484 222.537 552.926 215.893C558.399 213.113 561.069 211.723 566.367 208.987C560.719 206.642 557.873 205.47 552.138 203.081C546.884 205.817 544.213 207.163 538.827 209.943C529.195 206.729 518.074 204.558 508.091 203.732C505.727 207.728 504.501 209.726 502.005 213.764C514.046 215.067 527.225 217.673 533.398 220.192C538.083 222.146 539.572 224.187 536.551 225.707C525.517 231.223 492.329 211.637 468.073 223.84C456.208 229.703 459.579 237.346 471.269 243.687L471.226 243.73Z" fill="#DB9930"/>
<path d="M397.02 188.445C420.794 162.692 472.897 144.756 533.406 144.756C593.914 144.756 646.017 162.648 669.791 188.445H683.539V219.801C683.539 261.232 616.331 294.802 533.406 294.802C450.48 294.802 383.272 261.232 383.272 219.801V188.445H397.02Z" fill="#DB9930"/>
<path d="M679.957 236.001C678.206 239.997 675.798 243.818 672.864 247.553V188.403H679.957V236.001Z" fill="#C97830"/>
<path d="M668.527 252.502C666.382 254.717 663.974 256.888 661.434 258.973V180.671C664.018 182.755 666.382 184.927 668.527 187.185V252.502Z" fill="#C97830"/>
<path d="M657.101 262.275C654.868 263.926 652.46 265.489 650.008 267.009V173.681H651.803C653.642 174.853 655.437 176.069 657.145 177.329V262.232L657.101 262.275Z" fill="#C97830"/>
<path d="M645.676 269.57C643.399 270.873 641.035 272.089 638.583 273.305V182.408H645.676V269.57Z" fill="#C97830"/>
<path d="M634.238 275.347C631.918 276.389 629.553 277.388 627.145 278.344V191.052H634.238V275.304V275.347Z" fill="#FAE745"/>
<path d="M622.824 280.037C620.504 280.905 618.139 281.73 615.731 282.512V199.78H622.824V280.037Z" fill="#C97830"/>
<path d="M611.387 283.903C609.066 284.598 606.702 285.292 604.294 285.944V208.467H611.387V283.903Z" fill="#C97830"/>
<path d="M599.969 287.028C597.648 287.593 595.24 288.157 592.876 288.679V217.151H599.969V287.028Z" fill="#C97830"/>
<path d="M588.535 289.547C586.171 290.025 583.807 290.459 581.442 290.85V225.837H588.535V289.547Z" fill="#C97830"/>
<path d="M577.066 291.547C574.702 291.895 572.338 292.242 569.974 292.546V234.525H577.066V291.591V291.547Z" fill="#FAE745"/>
<path d="M565.645 293.025C563.28 293.285 560.916 293.502 558.552 293.72V243.212H565.645V293.068V293.025Z" fill="#C97830"/>
<path d="M554.207 294.063C551.843 294.237 549.478 294.367 547.114 294.454V251.851H554.207V294.02V294.063Z" fill="#C97830"/>
<path d="M542.434 294.63C540.069 294.716 537.705 294.716 535.341 294.76V246.988H542.434V294.63Z" fill="#C97830"/>
<path d="M523.513 294.63V242.125H530.605V294.761C528.241 294.761 525.833 294.674 523.513 294.63Z" fill="#C97830"/>
<path d="M511.739 237.217H518.832V294.412C516.424 294.282 514.06 294.152 511.739 293.978V237.217Z" fill="#C97830"/>
<path d="M499.958 232.352H507.051V293.63C504.643 293.412 502.278 293.195 499.958 292.891V232.352Z" fill="#FAE745"/>
<path d="M488.141 227.444H495.234V292.326C492.826 292.022 490.462 291.675 488.141 291.284V227.4V227.444Z" fill="#C97830"/>
<path d="M476.364 222.582H483.457V290.548C481.049 290.114 478.685 289.68 476.364 289.202V222.582Z" fill="#C97830"/>
<path d="M464.591 217.675H471.684V288.16C469.276 287.595 466.911 287.03 464.591 286.422V217.675Z" fill="#C97830"/>
<path d="M452.806 212.81H459.898V285.205C457.49 284.511 455.126 283.816 452.806 283.077V212.81Z" fill="#C97830"/>
<path d="M440.985 207.902H448.078V281.471C445.67 280.645 443.306 279.733 440.985 278.865V207.902Z" fill="#C97830"/>
<path d="M429.208 203.038H436.301V276.997C433.849 275.955 431.485 274.869 429.208 273.784V203.038Z" fill="#C97830"/>
<path d="M417.434 198.13H424.527V271.394C422.075 270.091 419.667 268.788 417.434 267.399V198.13Z" fill="#FAE745"/>
<path d="M405.61 193.267H412.703V264.403C410.207 262.709 407.799 260.972 405.61 259.148V193.267Z" fill="#C97830"/>
<path d="M393.829 247.423V188.447H397.025C397.025 188.447 397.025 188.447 397.069 188.403H400.922V255.153C398.251 252.678 395.887 250.116 393.829 247.466V247.423Z" fill="#C97830"/>
<path d="M383.763 188.446H390.855V243.34C387.09 237.651 384.682 231.701 383.763 225.534V188.446Z" fill="#C97830"/>
<path d="M533.406 263.445C450.489 263.445 383.272 229.866 383.272 188.444C383.272 147.022 450.489 113.442 533.406 113.442C616.322 113.442 683.539 147.022 683.539 188.444C683.539 229.866 616.322 263.445 533.406 263.445Z" fill="#F0D138"/>
<path d="M473.821 119.566L683.5 188.14C683.5 188.14 683.5 188.358 683.5 188.444C683.5 203.123 675.05 216.803 660.47 228.356L409.284 146.232C425.221 134.549 447.595 125.256 473.821 119.566Z" fill="#FAE745"/>
<path d="M391.292 164.255C393.306 161.302 395.626 158.435 398.297 155.699L647.469 237.172C643.441 239.517 639.194 241.732 634.64 243.816L391.292 164.255Z" fill="#FAE745"/>
<path d="M385.814 202.123C384.412 198.345 383.581 194.436 383.362 190.484L589.801 257.973C582.62 259.449 575.133 260.622 567.427 261.49L385.814 202.123Z" fill="#FAE745"/>
<path d="M674.742 163.127C677.763 167.34 680.04 171.682 681.484 176.199L496.499 115.703C505.168 114.617 514.1 113.922 523.295 113.618L674.742 163.127Z" fill="#FAE745"/>
<path d="M493.171 196.955C487.26 199.821 484.283 201.254 478.416 204.121C484.02 206.466 486.822 207.638 492.339 209.94C498.25 207.074 501.271 205.641 507.225 202.731C518.259 206.249 531.263 208.333 543.303 208.594C546.061 204.685 547.419 202.688 550.133 198.736C536.779 198.562 521.236 195.913 513.574 192.699C507.882 190.31 506.175 187.878 509.765 186.098C521.28 180.409 552.892 199.865 576.71 188.139C587.349 182.841 586.43 175.762 574.871 169.117C580.344 166.338 583.015 164.948 588.312 162.212C582.664 159.867 579.819 158.694 574.083 156.306C568.829 159.042 566.158 160.388 560.773 163.167C551.14 159.954 540.019 157.782 530.037 156.957C527.672 160.953 526.446 162.95 523.951 166.989C535.991 168.292 549.17 170.898 555.344 173.417C560.028 175.371 561.517 177.412 558.496 178.932C547.463 184.447 514.275 164.861 490.019 177.065C478.153 182.927 481.525 190.571 493.215 196.912L493.171 196.955Z" fill="#DB9930"/>
<path d="M382.473 157.743C406.248 131.99 458.35 114.054 518.859 114.054C579.367 114.054 631.47 131.946 655.244 157.743H668.992V189.099C668.992 230.53 601.785 264.1 518.859 264.1C435.933 264.1 368.725 230.53 368.725 189.099V157.743H382.473Z" fill="#DB9930"/>
<path d="M665.391 205.341C663.639 209.336 661.231 213.158 658.298 216.893V157.743H665.391V205.341Z" fill="#C97830"/>
<path d="M653.961 221.799C651.816 224.014 649.407 226.185 646.868 228.27V149.968C649.451 152.052 651.816 154.224 653.961 156.482V221.799Z" fill="#C97830"/>
<path d="M642.534 231.615C640.301 233.265 637.893 234.829 635.441 236.349V143.021H637.237C639.075 144.193 640.871 145.409 642.578 146.669V231.572L642.534 231.615Z" fill="#C97830"/>
<path d="M631.109 238.868C628.833 240.171 626.468 241.387 624.016 242.603V151.707H631.109V238.868Z" fill="#C97830"/>
<path d="M619.688 244.687C617.367 245.729 615.003 246.728 612.595 247.683V160.392H619.688V244.643V244.687Z" fill="#FAE745"/>
<path d="M608.258 249.376C605.937 250.245 603.573 251.07 601.165 251.852V169.12H608.258V249.376Z" fill="#C97830"/>
<path d="M596.82 253.197C594.5 253.892 592.135 254.587 589.727 255.239V177.762H596.82V253.197Z" fill="#C97830"/>
<path d="M585.402 256.325C583.082 256.89 580.674 257.454 578.309 257.975V186.448H585.402V256.325Z" fill="#C97830"/>
<path d="M573.969 258.89C571.604 259.367 569.24 259.802 566.876 260.193V195.18H573.969V258.89Z" fill="#C97830"/>
<path d="M562.539 260.887C560.175 261.235 557.81 261.582 555.446 261.886V203.865H562.539V260.887Z" fill="#FAE745"/>
<path d="M551.121 262.365C548.757 262.625 546.392 262.842 544.028 263.059V212.552H551.121V262.408V262.365Z" fill="#C97830"/>
<path d="M539.641 263.361C537.276 263.535 534.912 263.665 532.548 263.752V221.148H539.641V263.318V263.361Z" fill="#C97830"/>
<path d="M527.867 263.969C525.503 264.056 523.139 264.056 520.774 264.1V216.328H527.867V263.969Z" fill="#C97830"/>
<path d="M508.954 263.927V211.422H516.047V264.057C513.683 264.057 511.274 263.971 508.954 263.927Z" fill="#C97830"/>
<path d="M497.173 206.557H504.266V263.752C501.858 263.622 499.493 263.492 497.173 263.318V206.557Z" fill="#C97830"/>
<path d="M485.391 201.65H492.484V262.928C490.076 262.711 487.712 262.494 485.391 262.19V201.65Z" fill="#FAE745"/>
<path d="M473.622 196.786H480.715V261.668C478.307 261.364 475.942 261.017 473.622 260.626V196.742V196.786Z" fill="#C97830"/>
<path d="M461.798 191.877H468.891V259.843C466.483 259.409 464.118 258.974 461.798 258.497V191.877Z" fill="#C97830"/>
<path d="M450.024 187.015H457.117V257.5C454.709 256.935 452.345 256.37 450.024 255.762V187.015Z" fill="#C97830"/>
<path d="M438.239 182.105H445.332V254.501C442.924 253.806 440.56 253.111 438.239 252.373V182.105Z" fill="#C97830"/>
<path d="M426.419 177.242H433.512V250.811C431.104 249.985 428.739 249.073 426.419 248.205V177.242Z" fill="#C97830"/>
<path d="M414.641 172.334H421.734V246.293C419.283 245.251 416.918 244.165 414.641 243.079V172.334Z" fill="#C97830"/>
<path d="M402.868 167.47H409.961V240.734C407.509 239.431 405.101 238.128 402.868 236.739V167.47Z" fill="#FAE745"/>
<path d="M391.044 162.565H398.137V233.702C395.641 232.008 393.233 230.271 391.044 228.447V162.565Z" fill="#C97830"/>
<path d="M379.263 216.718V157.742H382.459C382.459 157.742 382.459 157.742 382.503 157.698H386.355V224.405C383.685 221.929 381.32 219.367 379.263 216.718Z" fill="#C97830"/>
<path d="M369.196 157.743H376.289V212.637C372.524 206.948 370.116 200.998 369.196 194.831V157.743Z" fill="#C97830"/>
<path d="M518.859 232.743C435.942 232.743 368.725 199.164 368.725 157.742C368.725 116.319 435.942 82.7402 518.859 82.7402C601.775 82.7402 668.992 116.319 668.992 157.742C668.992 199.164 601.775 232.743 518.859 232.743Z" fill="#F0D138"/>
<path d="M459.27 88.8652L668.949 157.439C668.949 157.439 668.949 157.656 668.949 157.743C668.949 172.422 660.499 186.102 645.919 197.654L394.733 115.53C410.671 103.848 433.044 94.5544 459.27 88.8652Z" fill="#FAE745"/>
<path d="M376.741 133.554C378.755 130.6 381.075 127.734 383.746 124.998L632.918 206.47C628.89 208.816 624.643 211.03 620.089 213.115L376.741 133.554Z" fill="#FAE745"/>
<path d="M371.267 171.422C369.866 167.644 369.034 163.735 368.815 159.783L575.254 227.272C568.073 228.748 560.586 229.921 552.881 230.789L371.267 171.422Z" fill="#FAE745"/>
<path d="M660.191 132.426C663.212 136.638 665.489 140.981 666.934 145.498L481.948 85.0015C490.618 83.9158 499.549 83.221 508.744 82.917L660.191 132.426Z" fill="#FAE745"/>
<path d="M478.624 166.253C472.713 169.119 469.736 170.552 463.869 173.419C469.473 175.764 472.275 176.936 477.792 179.238C483.703 176.372 486.724 174.939 492.679 172.029C503.712 175.547 516.716 177.631 528.756 177.892C531.515 173.983 532.872 171.985 535.586 168.033C522.232 167.86 506.689 165.211 499.027 161.997C493.335 159.608 491.628 157.176 495.218 155.396C506.733 149.706 538.345 169.163 562.163 157.437C572.802 152.138 571.883 145.06 560.324 138.415C565.797 135.636 568.468 134.246 573.766 131.51C568.118 129.165 565.272 127.992 559.536 125.604C554.282 128.34 551.611 129.686 546.226 132.465C536.593 129.251 525.472 127.08 515.49 126.255C513.125 130.25 511.9 132.248 509.404 136.287C521.444 137.59 534.623 140.196 540.797 142.714C545.482 144.669 546.97 146.71 543.949 148.23C532.916 153.745 499.728 134.159 475.472 146.362C463.606 152.225 466.978 159.869 478.668 166.209L478.624 166.253Z" fill="#DB9930"/>
<path d="M366.016 126.819C389.79 101.023 441.893 83.1299 502.402 83.1299C562.91 83.1299 615.013 101.023 638.787 126.819H652.535V158.175C652.535 199.606 585.328 233.176 502.402 233.176C419.476 233.176 352.268 199.606 352.268 158.175V126.819H366.016Z" fill="#DB9930"/>
<path d="M648.945 174.416C647.194 178.412 644.786 182.233 641.852 185.968V126.818H648.945V174.416Z" fill="#C97830"/>
<path d="M637.516 190.874C635.37 193.089 632.962 195.26 630.423 197.345V119.043C633.006 121.128 635.37 123.299 637.516 125.557V190.874Z" fill="#C97830"/>
<path d="M626.089 200.647C623.856 202.298 621.448 203.861 618.996 205.381V112.053H620.791C622.63 113.225 624.425 114.441 626.133 115.701V200.604L626.089 200.647Z" fill="#C97830"/>
<path d="M614.664 207.942C612.387 209.245 610.023 210.461 607.571 211.677V120.78H614.664V207.942Z" fill="#C97830"/>
<path d="M603.242 213.719C600.922 214.761 598.557 215.76 596.149 216.716V129.424H603.242V213.676V213.719Z" fill="#FAE745"/>
<path d="M591.812 218.409C589.492 219.277 587.128 220.102 584.72 220.884V138.152H591.812V218.409Z" fill="#C97830"/>
<path d="M580.375 222.275C578.054 222.97 575.69 223.664 573.282 224.316V146.839H580.375V222.275Z" fill="#C97830"/>
<path d="M568.906 225.402C566.586 225.967 564.178 226.531 561.813 227.053V155.525H568.906V225.402Z" fill="#C97830"/>
<path d="M557.484 227.922C555.12 228.4 552.756 228.834 550.391 229.225V164.212H557.484V227.922Z" fill="#C97830"/>
<path d="M546.055 229.961C543.69 230.309 541.326 230.656 538.962 230.96V172.939H546.055V230.005V229.961Z" fill="#FAE745"/>
<path d="M534.633 231.44C532.269 231.7 529.904 231.917 527.54 232.135V181.627H534.633V231.483V231.44Z" fill="#C97830"/>
<path d="M523.195 232.435C520.831 232.609 518.467 232.739 516.102 232.826V190.223H523.195V232.392V232.435Z" fill="#C97830"/>
<path d="M511.422 233.045C509.058 233.132 506.693 233.132 504.329 233.175V185.403H511.422V233.045Z" fill="#C97830"/>
<path d="M492.509 233.003V180.497H499.602V233.133C497.237 233.133 494.829 233.046 492.509 233.003Z" fill="#C97830"/>
<path d="M480.735 175.634H487.828V232.83C485.42 232.699 483.056 232.569 480.735 232.395V175.634Z" fill="#C97830"/>
<path d="M468.946 170.724H476.039V232.002C473.631 231.785 471.267 231.567 468.946 231.263V170.724Z" fill="#FAE745"/>
<path d="M457.13 165.863H464.223V230.745C461.815 230.441 459.45 230.094 457.13 229.703V165.819V165.863Z" fill="#C97830"/>
<path d="M445.352 160.954H452.445V228.92C450.037 228.486 447.673 228.052 445.352 227.574V160.954Z" fill="#C97830"/>
<path d="M433.579 156.09H440.672V226.575C438.264 226.01 435.899 225.446 433.579 224.838V156.09Z" fill="#C97830"/>
<path d="M421.798 151.182H428.891V223.577C426.483 222.883 424.118 222.188 421.798 221.449V151.182Z" fill="#C97830"/>
<path d="M409.974 146.317H417.066V219.886C414.658 219.061 412.294 218.149 409.974 217.28V146.317Z" fill="#C97830"/>
<path d="M398.196 141.41H405.289V215.369C402.837 214.327 400.473 213.241 398.196 212.156V141.41Z" fill="#C97830"/>
<path d="M386.423 136.545H393.516V209.809C391.064 208.506 388.656 207.204 386.423 205.814V136.545Z" fill="#FAE745"/>
<path d="M374.599 131.639H381.691V202.775C379.196 201.081 376.788 199.344 374.599 197.52V131.639Z" fill="#C97830"/>
<path d="M362.817 185.795V126.819H366.013C366.013 126.819 366.013 126.819 366.057 126.775H369.91V193.525C367.239 191.05 364.875 188.488 362.817 185.839V185.795Z" fill="#C97830"/>
<path d="M352.751 126.818H359.844V181.712C356.078 176.023 353.67 170.073 352.751 163.907V126.818Z" fill="#C97830"/>
<path d="M502.402 201.819C419.485 201.819 352.268 168.24 352.268 126.818C352.268 85.3957 419.485 51.8164 502.402 51.8164C585.318 51.8164 652.535 85.3957 652.535 126.818C652.535 168.24 585.318 201.819 502.402 201.819Z" fill="#F0D138"/>
<path d="M442.809 57.9385L652.488 126.512C652.488 126.512 652.488 126.73 652.488 126.816C652.488 141.495 644.038 155.175 629.458 166.727L378.272 84.6037C394.21 72.9213 416.583 63.6276 442.809 57.9385Z" fill="#FAE745"/>
<path d="M360.28 102.627C362.294 99.6736 364.615 96.8073 367.285 94.0713L616.457 175.544C612.429 177.889 608.182 180.104 603.628 182.188L360.28 102.627Z" fill="#FAE745"/>
<path d="M354.802 140.495C353.401 136.717 352.569 132.808 352.35 128.856L558.789 196.345C551.609 197.821 544.122 198.994 536.416 199.862L354.802 140.495Z" fill="#FAE745"/>
<path d="M643.73 101.499C646.751 105.712 649.028 110.054 650.473 114.571L465.487 54.0749C474.157 52.9891 483.088 52.2942 492.283 51.9902L643.73 101.499Z" fill="#FAE745"/>
<path d="M462.167 135.329C456.256 138.195 453.279 139.628 447.412 142.495C453.016 144.84 455.818 146.013 461.335 148.314C467.246 145.448 470.267 144.015 476.222 141.105C487.255 144.623 500.259 146.707 512.299 146.968C515.058 143.059 516.415 141.062 519.129 137.11C505.775 136.936 490.232 134.287 482.57 131.073C476.878 128.684 475.171 126.252 478.761 124.472C490.276 118.783 521.888 138.239 545.706 126.513C556.345 121.215 555.426 114.136 543.867 107.491C549.34 104.712 552.011 103.322 557.309 100.586C551.661 98.2408 548.815 97.0683 543.079 94.6797C537.825 97.4157 535.154 98.7619 529.769 101.541C520.136 98.3276 509.015 96.1562 499.033 95.3311C496.668 99.3265 495.443 101.324 492.947 105.363C504.987 106.666 518.166 109.272 524.34 111.791C529.024 113.745 530.513 115.786 527.492 117.306C516.459 122.821 483.271 103.235 459.015 115.439C447.149 121.302 450.521 128.945 462.211 135.286L462.167 135.329Z" fill="#DB9930"/>
<path d="M387.95 80.0028C411.724 54.2495 463.826 36.3135 524.335 36.3135C584.844 36.3135 636.946 54.2061 660.721 80.0028H674.469V111.358C674.469 152.789 607.261 186.36 524.335 186.36C441.409 186.36 374.202 152.789 374.202 111.358V80.0028H387.95Z" fill="#DB9930"/>
<path d="M670.879 127.598C669.128 131.593 666.719 135.415 663.786 139.15V80H670.879V127.598Z" fill="#C97830"/>
<path d="M659.449 144.056C657.304 146.271 654.896 148.442 652.356 150.527V72.2246C654.94 74.3092 657.304 76.4806 659.449 78.7389V144.056Z" fill="#C97830"/>
<path d="M648.023 153.872C645.79 155.522 643.382 157.086 640.93 158.606V65.2773H642.725C644.564 66.4499 646.359 67.666 648.066 68.9255V153.829L648.023 153.872Z" fill="#C97830"/>
<path d="M636.598 161.125C634.321 162.428 631.957 163.644 629.505 164.86V73.9639H636.598V161.125Z" fill="#C97830"/>
<path d="M625.176 166.944C622.855 167.986 620.491 168.985 618.083 169.94V82.6484H625.176V166.9V166.944Z" fill="#FAE745"/>
<path d="M613.746 171.633C611.426 172.502 609.061 173.327 606.653 174.109V91.377H613.746V171.633Z" fill="#C97830"/>
<path d="M602.309 175.454C599.988 176.149 597.624 176.844 595.216 177.496V100.019H602.309V175.454Z" fill="#C97830"/>
<path d="M590.891 178.627C588.57 179.191 586.162 179.756 583.798 180.277V108.75H590.891V178.627Z" fill="#C97830"/>
<path d="M579.457 181.147C577.093 181.624 574.728 182.058 572.364 182.449V117.437H579.457V181.147Z" fill="#C97830"/>
<path d="M568.027 183.144C565.663 183.491 563.299 183.839 560.934 184.143V126.122H568.027V183.188V183.144Z" fill="#FAE745"/>
<path d="M556.609 184.621C554.245 184.882 551.881 185.099 549.516 185.316V134.809H556.609V184.665V184.621Z" fill="#C97830"/>
<path d="M545.176 185.66C542.811 185.834 540.447 185.964 538.083 186.051V143.447H545.176V185.617V185.66Z" fill="#C97830"/>
<path d="M533.402 186.226C531.038 186.313 528.674 186.313 526.309 186.357V138.585H533.402V186.226Z" fill="#C97830"/>
<path d="M514.477 186.184V133.679H521.57V186.314C519.206 186.314 516.798 186.228 514.477 186.184Z" fill="#C97830"/>
<path d="M502.661 128.813H509.754V186.009C507.346 185.879 504.982 185.749 502.661 185.575V128.813Z" fill="#C97830"/>
<path d="M490.88 123.907H497.973V185.185C495.565 184.968 493.2 184.751 490.88 184.447V123.907Z" fill="#FAE745"/>
<path d="M479.11 119.042H486.203V183.925C483.795 183.621 481.431 183.274 479.11 182.883V118.999V119.042Z" fill="#C97830"/>
<path d="M467.329 114.136H474.422V182.102C472.014 181.668 469.649 181.233 467.329 180.756V114.136Z" fill="#C97830"/>
<path d="M455.513 109.271H462.605V179.756C460.197 179.192 457.833 178.627 455.513 178.019V109.271Z" fill="#C97830"/>
<path d="M443.731 104.362H450.824V176.758C448.416 176.063 446.052 175.368 443.731 174.63V104.362Z" fill="#C97830"/>
<path d="M431.954 99.499H439.047V173.067C436.639 172.242 434.274 171.33 431.954 170.462V99.499Z" fill="#C97830"/>
<path d="M420.13 94.5908H427.223V168.55C424.771 167.508 422.406 166.422 420.13 165.336V94.5908Z" fill="#C97830"/>
<path d="M408.356 89.7266H415.449V162.991C412.997 161.688 410.589 160.385 408.356 158.995V89.7266Z" fill="#FAE745"/>
<path d="M396.575 84.8223H403.668V155.959C401.172 154.265 398.764 152.528 396.575 150.704V84.8223Z" fill="#C97830"/>
<path d="M384.751 138.975V79.9985H387.947C387.947 79.9985 387.947 79.9985 387.991 79.9551H391.844V146.662C389.173 144.186 386.809 141.624 384.751 138.975Z" fill="#C97830"/>
<path d="M374.684 80H381.777V134.894C378.012 129.205 375.604 123.255 374.684 117.088V80Z" fill="#C97830"/>
<path d="M524.335 155.003C441.419 155.003 374.202 121.424 374.202 80.0014C374.202 38.5793 441.419 5 524.335 5C607.252 5 674.469 38.5793 674.469 80.0014C674.469 121.424 607.252 155.003 524.335 155.003Z" fill="#F0D138"/>
<path d="M464.79 11.168L674.469 79.742C674.469 79.742 674.469 79.9592 674.469 80.046C674.469 94.725 666.019 108.405 651.439 119.957L400.253 37.8333C416.19 26.151 438.563 16.8571 464.79 11.168Z" fill="#FAE745"/>
<path d="M382.214 55.8563C384.228 52.9031 386.548 50.0368 389.219 47.3008L638.391 128.773C634.363 131.118 630.116 133.333 625.562 135.418L382.214 55.8563Z" fill="#FAE745"/>
<path d="M376.735 93.6818C375.334 89.9035 374.502 85.995 374.284 82.043L580.723 149.531C573.542 151.008 566.055 152.18 558.349 153.049L376.735 93.6818Z" fill="#FAE745"/>
<path d="M665.671 54.7285C668.692 58.9411 670.969 63.284 672.414 67.8006L487.429 7.30435C496.098 6.21864 505.03 5.52373 514.224 5.21973L665.671 54.7285Z" fill="#FAE745"/>
</svg>
