<svg width="78" height="27" viewBox="0 0 78 27" fill="none" xmlns="http://www.w3.org/2000/svg">
<path fill-rule="evenodd" clip-rule="evenodd" d="M43.713 19.2542C45.1766 18.7729 47.2529 18.4063 49.6656 18.221L52.028 7.06375C53.2542 5.62948 54.7568 4.91235 56.5359 4.91235C57.0648 4.91235 57.6177 4.98406 58.1947 5.12749C58.7958 5.27092 59.2165 5.43825 59.4569 5.62948L60.5028 0.609562C59.9738 0.203188 59.1444 0 58.0144 0C57.1008 0 56.2233 0.179283 55.3819 0.537848C54.5644 0.872509 53.8071 1.3745 53.1099 2.04383L53.4705 0.358565H47.7366L43.713 19.2542ZM1.19012 19.3267L2.4118 13.5894H0L1.20209 7.85237H3.63343L5.22914 0.358565H10.9631L10.7107 1.54183C12.2493 0.561754 13.9082 0.0717144 15.6873 0.0717144C17.2019 0.0717144 18.4762 0.418328 19.5099 1.11155C20.5437 1.80478 21.265 2.749 21.6737 3.94422C22.0895 5.0925 22.1502 6.39521 21.8558 7.85237H24.2822L23.0801 13.5894H20.6291L19.69 17.9793C17.0916 18.2428 14.9662 18.7234 13.7056 19.3267H13.6678L15.9758 8.56972C16.1922 7.49402 16.0359 6.63347 15.507 5.98805C14.9781 5.31873 14.1847 4.98406 13.1269 4.98406C12.4537 4.98406 11.8286 5.10359 11.2516 5.34263C10.6746 5.55777 10.1457 5.90438 9.66484 6.38247L7.20872 17.9824C4.62415 18.2466 2.51045 18.7258 1.25485 19.3267H1.19012ZM23.8335 27C23.2325 27 22.6675 26.9641 22.1386 26.8924C21.6219 26.8224 21.1282 26.7295 20.6574 26.6138C21.4205 25.3892 22.1286 23.7349 22.6381 21.8573C22.8942 21.8914 23.1845 21.9084 23.509 21.9084C24.3745 21.9084 25.1438 21.7291 25.817 21.3705C26.4901 21.012 27.0551 20.4502 27.5119 19.6853L27.7283 19.3267L24.5908 0.358565H30.6854L32.3443 12.7649L39.9175 0.358565H46.1563L32.9213 21.2988C31.6471 23.3307 30.3008 24.7888 28.8823 25.6733C27.4638 26.5578 25.7809 27 23.8335 27ZM65.4833 19.506C63.5119 19.506 61.9372 19.0279 60.7591 18.0717C59.6051 17.1155 59.0281 15.8367 59.0281 14.2351C59.0281 12.9203 59.3527 11.7968 60.0018 10.8645C60.6509 9.93227 61.5766 9.21514 62.7786 8.71315C64.0048 8.21116 65.4593 7.96016 67.1422 7.96016C67.9596 7.96016 68.7771 8.03187 69.5945 8.1753C70.4359 8.29482 71.2413 8.4741 72.0107 8.71315L72.1189 8.1753C72.3593 7.05179 72.167 6.21514 71.5419 5.66534C70.9408 5.09163 69.9191 4.80478 68.4765 4.80478C67.8274 4.80478 67.0821 4.9004 66.2407 5.09163C65.4232 5.25896 64.4135 5.54582 63.2114 5.95219L61.841 1.6494C63.3076 1.0996 64.702 0.693227 66.0243 0.43028C67.3466 0.167331 68.5967 0.0358561 69.7748 0.0358561C71.7943 0.0358561 73.4532 0.358565 74.7514 1.00398C76.0737 1.6494 76.9993 2.58167 77.5283 3.8008C78.0572 4.99602 78.1413 6.44223 77.7807 8.13944L75.6409 18.1972C73.3137 18.3581 71.2806 18.6863 69.7808 19.1244L69.9551 18.2869C69.2098 18.7171 68.4765 19.0279 67.7553 19.2191C67.034 19.4104 66.2767 19.506 65.4833 19.506ZM67.5389 15.49C68.1159 15.49 68.6689 15.4303 69.1978 15.3108C69.7267 15.1673 70.2316 14.9761 70.7124 14.7371L71.2534 12.2629C70.0513 11.8805 68.8612 11.6892 67.6832 11.6892C66.6494 11.6892 65.844 11.8685 65.267 12.2271C64.714 12.5857 64.4375 13.0996 64.4375 13.7689C64.4375 14.2948 64.714 14.7131 65.267 15.0239C65.8199 15.3347 66.5772 15.49 67.5389 15.49Z" fill="#11140E"/>
</svg>
