<svg width="110" height="109" viewBox="0 0 110 109" fill="none" xmlns="http://www.w3.org/2000/svg">
<g clip-path="url(#clip0_16159_29795)">
<rect x="0.5" width="109" height="109" rx="54.5" fill="#B364FE"/>
<g opacity="0.2">
<path d="M-292.725 43.8826C-331.775 -97.6203 -187.121 -112.024 -82.729 -69.2971C-21.821 -47.3234 18.1782 -115.66 93.6314 -88.3877C169.085 -61.1155 78.6319 24.7922 194.084 68.8823C309.537 112.972 253.174 310.241 152.267 312.514C51.3594 314.787 79.0862 347.968 -21.8211 423.876C-122.728 499.784 -292.725 394.331 -250.453 282.969C-208.181 171.608 -250.454 197.062 -292.725 43.8826Z" stroke="black" stroke-width="3"/>
<path d="M-272.984 53.2064C-308.893 -76.6578 -175.471 -91.7282 -79.0266 -52.0424C-22.2431 -31.2939 15.5584 -93.939 85.1026 -68.8016C156.198 -43.1021 73.0484 35.4756 179.124 76.6343C285.441 118.026 234.852 300.793 139.989 302.859C45.6818 304.925 71.658 336.34 -22.0029 405.901C-115.664 475.461 -272.392 378.653 -233.963 274.933C-195.534 172.763 -233.873 194.501 -272.984 53.2064Z" stroke="black" stroke-width="3"/>
<path d="M-253.243 62.5307C-286.011 -55.6948 -163.821 -71.4325 -75.3242 -34.7874C-22.665 -15.264 12.9387 -72.2176 76.5739 -49.2152C143.312 -25.0884 67.465 46.1594 164.163 84.3866C261.346 123.081 216.53 291.345 127.712 293.204C40.0043 295.064 64.2298 324.712 -22.1847 387.926C-108.599 451.14 -252.058 362.975 -217.472 266.897C-182.886 173.919 -217.292 191.94 -253.243 62.5307Z" stroke="black" stroke-width="3"/>
<path d="M-233.501 71.8553C-263.129 -34.7315 -152.171 -51.1364 -71.6215 -17.5319C-23.0868 0.766304 10.3191 -50.4959 68.0453 -29.6284C130.427 -7.07426 61.8817 56.8437 149.203 92.1394C237.251 128.136 198.208 281.897 115.434 283.55C34.3269 285.203 56.8018 313.084 -22.3663 369.951C-101.534 426.818 -231.725 347.297 -200.981 258.861C-170.238 175.075 -200.711 189.38 -233.501 71.8553Z" stroke="black" stroke-width="3"/>
<path d="M-213.763 81.1808C-240.251 -13.7673 -140.525 -30.8394 -67.9227 -0.27562C-23.5124 16.7974 7.69576 -28.7733 59.513 -10.0408C117.537 10.9407 56.2946 67.5287 134.238 99.893C213.152 133.191 179.883 272.45 103.153 273.896C28.6458 275.342 49.3701 301.457 -22.5517 351.977C-94.4734 402.498 -211.395 331.62 -184.494 250.826C-157.594 176.232 -184.134 186.821 -213.763 81.1808Z" stroke="black" stroke-width="3"/>
<path d="M-194.025 90.9787C-217.373 7.66922 -128.878 -10.07 -64.2236 17.4531C-23.9378 33.301 5.07265 -6.57832 50.9809 10.0193C104.647 29.4281 50.7078 78.6862 119.274 108.119C189.053 138.719 161.557 263.475 90.8723 264.715C22.9649 265.955 41.9385 290.303 -22.7368 334.476C-87.4121 378.649 -191.064 316.416 -168.007 243.264C-144.95 177.861 -167.557 184.734 -194.025 90.9787Z" stroke="black" stroke-width="3"/>
<path d="M-174.283 101.335C-194.49 29.6647 -117.227 11.2582 -60.5203 35.7406C-24.3589 50.3634 2.45374 16.1755 42.453 30.6382C91.7621 48.4743 45.1252 90.4025 104.314 116.904C164.959 144.806 143.236 255.06 78.5956 256.093C17.2881 257.126 34.5112 279.707 -22.9177 317.534C-80.3467 355.36 -170.73 301.771 -151.516 236.261C-132.301 180.049 -150.975 183.206 -174.283 101.335Z" stroke="black" stroke-width="3"/>
<path d="M-154.54 111.723C-171.607 51.6912 -105.576 32.6176 -56.8165 54.0593C-24.7795 67.4569 -0.164642 38.9605 33.9257 51.2883C78.8774 67.5516 39.5432 102.15 89.3552 125.72C140.865 150.924 124.916 246.675 66.3195 247.501C11.612 248.328 27.0844 269.143 -23.0981 300.622C-73.2807 332.102 -150.395 287.157 -135.024 229.288C-119.652 182.269 -134.393 181.709 -154.54 111.723Z" stroke="black" stroke-width="3"/>
<path d="M-134.796 122.156C-148.723 73.7625 -93.9238 54.0217 -53.1119 72.4227C-25.1994 84.5951 -2.78226 61.7902 25.3991 71.983C65.9935 86.6737 33.9619 113.942 74.3967 134.581C116.772 157.087 106.596 238.335 54.0441 238.955C5.93655 239.575 19.6584 258.623 -23.2778 283.756C-66.214 308.889 -130.06 272.587 -118.531 222.36C-107.002 184.533 -117.81 180.257 -134.796 122.156Z" stroke="black" stroke-width="3"/>
<path d="M-115.051 132.654C-125.837 95.8996 -82.2703 75.4916 -49.4059 90.852C-25.6178 101.799 -5.39846 84.6857 16.8739 92.7436C53.1109 105.862 28.382 125.8 59.4396 143.507C92.6802 163.316 88.2775 230.061 41.7701 230.474C0.262558 230.888 12.2338 248.17 -23.456 266.955C-59.1458 285.741 -109.722 258.083 -102.037 215.499C-94.3509 186.863 -101.226 178.871 -115.051 132.654Z" stroke="black" stroke-width="3"/>
<path d="M-95.3032 143.253C-102.949 118.137 -70.6138 97.0616 -45.6969 109.381C-26.0333 119.103 -8.01173 107.681 8.35162 113.604C40.2313 125.15 22.805 137.758 44.4854 152.534C68.5914 169.644 69.962 221.887 29.4991 222.094C-5.40852 222.3 4.81207 237.816 -23.6313 250.255C-52.0747 262.693 -89.3825 243.68 -85.5396 208.737C-81.6967 189.293 -84.6384 177.584 -95.3032 143.253Z" stroke="black" stroke-width="3"/>
</g>
</g>
<defs>
<clipPath id="clip0_16159_29795">
<rect x="0.5" width="109" height="109" rx="54.5" fill="white"/>
</clipPath>
</defs>
</svg>
