<svg width="124" height="107" viewBox="0 0 124 107" fill="none" xmlns="http://www.w3.org/2000/svg">
<path d="M92.9329 0C78.2381 25.3456 70.119 37.985 61.9329 37.985C53.7468 37.985 45.6277 25.3456 31 0C45.6277 25.3456 52.6061 38.7206 48.513 45.7425C44.4199 52.7644 29.3225 53.5 0 53.5C30.3961 53.5 45.4935 54.2356 48.9156 61.9931C52.1364 69.2156 45.158 82.5237 31 107C45.6948 81.6544 53.8139 69.015 62 69.015C70.1861 69.015 78.3052 81.6544 93 107C77.4329 80.0494 70.5887 66.6744 76.3593 59.9869C81.4589 54.1019 96.4892 53.5 124 53.5C93 53.5 77.9026 52.6975 74.8831 44.4719C72.132 37.1156 79.1104 23.8744 92.9329 0Z" fill="#11140E"/>
</svg>
