<svg width="1165" height="408" viewBox="0 0 1165 408" fill="none" xmlns="http://www.w3.org/2000/svg">
<path d="M1122.13 320.982C1121.32 321.073 1120.47 321.182 1119.63 321.274C1117.91 321.803 1115.99 322.278 1114.44 323.008C1112.61 323.884 1111.74 325.034 1111.37 326.458C1110.95 328.082 1110.92 329.798 1110.7 331.441C1110.44 333.358 1109.85 335.22 1109.32 337.1C1109.09 337.903 1107.23 338.012 1106.7 337.319C1103.88 333.778 1105.23 329.689 1102.9 326.093C1100.39 322.259 1093.18 321.876 1087.6 321.657C1085.69 321.584 1085.24 320.252 1086.19 319.558C1086.36 319.339 1086.7 319.156 1087.21 319.12C1090.62 318.828 1094.05 318.298 1097.29 317.568C1100.02 316.948 1101.6 315.852 1102.5 314.082C1104.61 309.902 1104.61 305.247 1104.7 300.903C1104.76 298.822 1109.52 298.84 1109.66 300.903C1109.8 302.947 1109.91 304.991 1110.05 307.054C1110.19 309.062 1110.19 311.125 1111.01 313.078C1111.6 314.483 1112.84 315.944 1114.92 316.601C1117.37 317.367 1120.25 317.294 1122.73 318.079C1124.58 318.663 1124.19 320.726 1122.13 320.982Z" fill="#FEBD42"/>
<path d="M147.286 365.872C146.469 365.963 145.624 366.073 144.779 366.164C143.061 366.693 141.146 367.168 139.597 367.898C137.794 368.774 136.893 369.924 136.527 371.348C136.104 372.973 136.076 374.689 135.851 376.331C135.597 378.248 135.006 380.11 134.47 381.99C134.245 382.793 132.386 382.903 131.851 382.209C129.034 378.668 130.386 374.579 128.048 370.983C125.542 367.15 118.331 366.767 112.754 366.547C110.839 366.474 110.388 365.142 111.346 364.448C111.515 364.229 111.853 364.047 112.36 364.01C115.768 363.718 119.204 363.189 122.443 362.459C125.175 361.838 126.753 360.743 127.654 358.972C129.767 354.792 129.767 350.137 129.851 345.793C129.907 343.712 134.668 343.73 134.808 345.793C134.949 347.837 135.062 349.882 135.203 351.944C135.344 353.952 135.344 356.015 136.16 357.968C136.752 359.374 137.991 360.834 140.076 361.491C142.526 362.258 145.399 362.203 147.878 362.97C149.737 363.554 149.342 365.617 147.286 365.872Z" fill="#FEBD42"/>
<path d="M1106.17 351.805C1105.07 352.261 1103.49 352.079 1102.25 352.079C1101.46 352.079 1100.67 352.079 1099.89 352.079C1099.89 352.955 1099.83 353.831 1099.69 354.689C1099.58 355.383 1098.87 355.985 1097.69 355.985C1096.51 355.985 1095.83 355.383 1095.69 354.689C1095.52 353.794 1095.49 352.9 1095.49 351.987C1094.36 351.969 1093.27 351.951 1092.14 351.914C1091.01 351.878 1089.91 351.294 1089.97 350.509C1090.03 349.724 1090.93 349.14 1092.14 349.103C1093.27 349.067 1094.39 349.048 1095.52 349.03C1095.52 348.355 1095.52 347.698 1095.52 347.022C1095.52 346.146 1095.41 345.27 1095.52 344.394C1095.6 343.627 1096.45 342.988 1097.69 342.988C1098.93 342.988 1099.77 343.645 1099.86 344.394C1099.97 345.27 1099.86 346.146 1099.86 347.022C1099.86 347.661 1099.86 348.318 1099.86 348.957C1100.62 348.957 1101.35 348.957 1102.11 348.957C1103.38 348.957 1105.04 348.775 1106.17 349.213C1107.69 349.833 1107.69 351.202 1106.17 351.823V351.805Z" fill="#FEBD42"/>
<path d="M1137.94 336.069C1136.03 336.27 1134 336.179 1132.03 336.142C1132.03 336.945 1132.03 337.767 1131.97 338.57C1131.91 339.3 1131.04 339.939 1129.86 339.939C1128.67 339.939 1127.8 339.318 1127.74 338.57C1127.69 337.73 1127.72 336.872 1127.69 336.033C1126.62 335.996 1125.55 335.978 1124.45 335.941C1123.38 335.905 1122.34 335.357 1122.39 334.609C1122.45 333.842 1123.29 333.313 1124.45 333.276C1125.52 333.24 1126.59 333.222 1127.63 333.185C1127.63 331.871 1127.63 330.557 1128.17 329.297C1128.62 328.22 1131.01 328.22 1131.46 329.297C1132 330.52 1132 331.798 1132 333.076C1133.97 333.021 1135.97 332.948 1137.88 333.149C1138.87 333.258 1139.69 334.006 1139.66 334.627C1139.63 335.266 1138.95 335.996 1137.88 336.106L1137.94 336.069Z" fill="#FEBD42"/>
<path d="M1147.96 306.399C1147.26 306.801 1146.55 306.965 1145.62 307.002C1145.12 307.002 1144.61 307.002 1144.13 307.002C1143.65 307.002 1143.17 307.002 1142.67 307.002C1142.64 307.915 1142.58 308.827 1142.55 309.758C1142.5 311.346 1138.81 311.346 1138.75 309.758C1138.72 308.827 1138.67 307.896 1138.64 306.965C1137.62 306.947 1136.58 306.929 1135.57 306.911C1134.44 306.892 1133.37 306.29 1133.4 305.505C1133.46 304.72 1134.36 304.136 1135.57 304.1C1136.53 304.063 1137.48 304.045 1138.44 304.008C1138.3 302.822 1138.19 301.599 1138.61 300.467C1139.09 299.153 1142.16 299.153 1142.67 300.467C1143.09 301.562 1142.98 302.749 1142.86 303.899H1144.13C1144.64 303.88 1145.14 303.844 1145.62 303.862C1146.55 303.88 1147.26 304.063 1147.96 304.446C1148.81 304.884 1148.75 305.925 1147.96 306.381V306.399Z" fill="#FEBD42"/>
<path d="M103.176 324.499C102.472 324.9 101.768 325.065 100.838 325.101C100.331 325.101 99.8241 325.101 99.3453 325.101C98.8665 325.101 98.3877 325.101 97.8807 325.101C97.8525 326.014 97.7962 326.927 97.768 327.858C97.7117 329.446 94.0218 329.446 93.9655 327.858C93.9373 326.927 93.881 325.996 93.8528 325.065C92.8388 325.046 91.7967 325.028 90.7827 325.01C89.656 324.992 88.5857 324.389 88.6138 323.604C88.6702 322.82 89.5715 322.235 90.7827 322.199C91.7403 322.162 92.698 322.144 93.6557 322.108C93.5148 320.921 93.4022 319.698 93.8247 318.566C94.3035 317.252 97.3737 317.252 97.8807 318.566C98.3032 319.662 98.1905 320.848 98.0778 321.998H99.3453C99.8523 321.98 100.359 321.943 100.838 321.962C101.768 321.98 102.472 322.162 103.176 322.546C104.021 322.984 103.965 324.024 103.176 324.481V324.499Z" fill="#FEBD42"/>
<path d="M1151.21 88.1626C1151.21 89.2943 1150 90.3714 1148.53 90.3166C1147.07 90.2618 1145.89 89.3674 1145.86 88.1626C1145.86 87.0674 1145.77 85.9722 1145.86 84.877C1145.91 84.2381 1145.94 83.4897 1146.22 82.9056C1146.51 82.3215 1146.73 81.7373 1147.13 81.2079C1147.72 80.35 1149.32 80.35 1149.91 81.2079C1150.28 81.7373 1150.51 82.3032 1150.79 82.8508C1151.07 83.4714 1151.13 84.2198 1151.18 84.877C1151.27 85.9722 1151.18 87.0674 1151.18 88.1626H1151.21Z" fill="#FEBD42"/>
<path d="M1151.48 71.3751C1151.48 72.5068 1150.24 73.5838 1148.8 73.529C1147.36 73.4742 1146.1 72.5798 1146.12 71.3751C1146.12 70.0243 1146.04 68.6553 1146.15 67.3227C1146.29 65.8077 1146.43 64.0736 1147.79 62.8871C1148.29 62.4307 1149.34 62.4307 1149.84 62.8871C1151.17 64.0736 1151.33 65.8077 1151.48 67.3227C1151.59 68.6735 1151.5 70.0425 1151.5 71.3751H1151.48Z" fill="#FEBD42"/>
<path d="M1143.29 78.0287C1142.67 78.2842 1142.02 78.5216 1141.29 78.6128C1140.5 78.7223 1139.68 78.7771 1138.89 78.7771C1137.57 78.7771 1136.27 78.7771 1134.95 78.7771C1133.65 78.7771 1132.41 78.0287 1132.47 77.1343C1132.53 76.2398 1133.57 75.4914 1134.95 75.4914C1136.27 75.4914 1137.57 75.4732 1138.89 75.4914C1139.68 75.4914 1140.53 75.5645 1141.29 75.6557C1142.02 75.7652 1142.64 76.0025 1143.29 76.2398C1144.3 76.6414 1144.3 77.6088 1143.29 78.0104V78.0287Z" fill="#FEBD42"/>
<path d="M1164.41 77.811C1164.08 78.1395 1163.71 78.3951 1163.15 78.5594C1162.5 78.7419 1161.94 78.8332 1161.2 78.8515C1160.55 78.8515 1159.88 78.888 1159.23 78.8515C1157.88 78.8149 1156.5 78.7967 1155.15 78.7601C1153.88 78.7419 1152.67 78.0483 1152.72 77.1721C1152.78 76.2959 1153.79 75.6023 1155.15 75.584C1156.5 75.5475 1157.88 75.5293 1159.23 75.4928C1159.88 75.4928 1160.55 75.4928 1161.2 75.4928C1161.91 75.4928 1162.5 75.6022 1163.15 75.7848C1163.68 75.9308 1164.08 76.2046 1164.41 76.5332C1164.75 76.8618 1164.75 77.4641 1164.41 77.7927V77.811Z" fill="#FEBD42"/>
<path d="M18.7408 26.2418C18.7408 27.3735 17.5296 28.4505 16.065 28.3957C14.6003 28.3409 13.4173 27.4465 13.3891 26.2418C13.3891 25.1465 13.3046 24.0513 13.3891 22.9561C13.4455 22.3172 13.4736 21.5688 13.7553 20.9847C14.037 20.4006 14.2623 19.8164 14.6566 19.2871C15.2481 18.4292 16.8536 18.4292 17.4451 19.2871C17.8113 19.8164 18.0366 20.3823 18.3183 20.9299C18.5999 21.5505 18.6563 22.299 18.7126 22.9561C18.7971 24.0513 18.7126 25.1465 18.7126 26.2418H18.7408Z" fill="#FEBD42"/>
<path d="M19.011 9.45399C19.011 10.5857 17.7717 11.6627 16.3352 11.608C14.8987 11.5532 13.6312 10.6587 13.6593 9.45399C13.6593 8.10322 13.5748 6.73418 13.6875 5.40165C13.8283 3.88659 13.9973 2.1525 15.3212 0.966001C15.8282 0.509656 16.8703 0.509656 17.3773 0.966001C18.7012 2.1525 18.8702 3.88659 19.011 5.40165C19.1237 6.75243 19.0392 8.12147 19.0392 9.45399H19.011Z" fill="#FEBD42"/>
<path d="M10.8178 16.1081C10.1982 16.3636 9.55035 16.6009 8.81802 16.6922C8.02935 16.8017 7.21251 16.8564 6.42384 16.8564C5.10001 16.8564 3.80435 16.8564 2.48052 16.8564C1.18485 16.8564 -0.0544834 16.1081 0.00184989 15.2136C0.0581832 14.3192 1.10035 13.5708 2.48052 13.5708C3.80435 13.5708 5.10001 13.5525 6.42384 13.5708C7.21251 13.5708 8.05752 13.6438 8.81802 13.7351C9.55035 13.8263 10.17 14.0819 10.8178 14.3192C11.8318 14.7208 11.8318 15.6882 10.8178 16.0898V16.1081Z" fill="#FEBD42"/>
<path d="M31.9684 15.8719C31.6304 16.2005 31.2642 16.4561 30.7009 16.6204C30.0531 16.8029 29.4897 16.8941 28.7574 16.9124C28.1096 16.9124 27.4336 16.9489 26.7857 16.9124C25.4337 16.8759 24.0536 16.8576 22.7016 16.8211C21.4341 16.8029 20.2229 16.1092 20.2792 15.233C20.3356 14.3569 21.3496 13.6632 22.7016 13.645C24.0536 13.6085 25.4337 13.5902 26.7857 13.5537C27.4336 13.5537 28.1096 13.5537 28.7574 13.5537C29.4616 13.5537 30.0531 13.6632 30.7009 13.8457C31.2361 13.9918 31.6304 14.2656 31.9684 14.5942C32.3064 14.9227 32.3064 15.5251 31.9684 15.8537V15.8719Z" fill="#FEBD42"/>
</svg>
